%TF.GenerationSoftware,KiCad,Pcbnew,9.0.6*%
%TF.CreationDate,2026-02-11T23:07:03-07:00*%
%TF.ProjectId,JAARK_PCB_MOTOR,4a414152-4b5f-4504-9342-5f4d4f544f52,rev?*%
%TF.SameCoordinates,Original*%
%TF.FileFunction,Drillmap*%
%TF.FilePolarity,Positive*%
%FSLAX45Y45*%
G04 Gerber Fmt 4.5, Leading zero omitted, Abs format (unit mm)*
G04 Created by KiCad (PCBNEW 9.0.6) date 2026-02-11 23:07:03*
%MOMM*%
%LPD*%
G01*
G04 APERTURE LIST*
%ADD10C,0.050000*%
%ADD11C,0.200000*%
%ADD12C,0.320000*%
G04 APERTURE END LIST*
D10*
X18802500Y-4495000D02*
X9302500Y-4495000D01*
X9302500Y-4495000D02*
X9052500Y-4745000D01*
X18802500Y-13495000D02*
X9302500Y-13495000D01*
X19052500Y-13245000D02*
X18802500Y-13495000D01*
X19052500Y-4745000D02*
X19052500Y-13245000D01*
X9052500Y-4745000D02*
X9052500Y-13245000D01*
X9302500Y-13495000D02*
X9052500Y-13245000D01*
X18802500Y-4495000D02*
X19052500Y-4745000D01*
D11*
D12*
X10540000Y-7640000D02*
X10860000Y-7960000D01*
X10860000Y-7640000D02*
X10540000Y-7960000D01*
X10540000Y-10440000D02*
X10860000Y-10760000D01*
X10860000Y-10440000D02*
X10540000Y-10760000D01*
X16540000Y-8040000D02*
X16860000Y-8360000D01*
X16860000Y-8040000D02*
X16540000Y-8360000D01*
X16540000Y-10040000D02*
X16860000Y-10360000D01*
X16860000Y-10040000D02*
X16540000Y-10360000D01*
D11*
X9310777Y-13808984D02*
X9310777Y-13608984D01*
X9310777Y-13608984D02*
X9358396Y-13608984D01*
X9358396Y-13608984D02*
X9386967Y-13618508D01*
X9386967Y-13618508D02*
X9406015Y-13637555D01*
X9406015Y-13637555D02*
X9415539Y-13656603D01*
X9415539Y-13656603D02*
X9425063Y-13694698D01*
X9425063Y-13694698D02*
X9425063Y-13723269D01*
X9425063Y-13723269D02*
X9415539Y-13761365D01*
X9415539Y-13761365D02*
X9406015Y-13780412D01*
X9406015Y-13780412D02*
X9386967Y-13799460D01*
X9386967Y-13799460D02*
X9358396Y-13808984D01*
X9358396Y-13808984D02*
X9310777Y-13808984D01*
X9510777Y-13808984D02*
X9510777Y-13675650D01*
X9510777Y-13713746D02*
X9520301Y-13694698D01*
X9520301Y-13694698D02*
X9529824Y-13685174D01*
X9529824Y-13685174D02*
X9548872Y-13675650D01*
X9548872Y-13675650D02*
X9567920Y-13675650D01*
X9634586Y-13808984D02*
X9634586Y-13675650D01*
X9634586Y-13608984D02*
X9625063Y-13618508D01*
X9625063Y-13618508D02*
X9634586Y-13628031D01*
X9634586Y-13628031D02*
X9644110Y-13618508D01*
X9644110Y-13618508D02*
X9634586Y-13608984D01*
X9634586Y-13608984D02*
X9634586Y-13628031D01*
X9758396Y-13808984D02*
X9739348Y-13799460D01*
X9739348Y-13799460D02*
X9729824Y-13780412D01*
X9729824Y-13780412D02*
X9729824Y-13608984D01*
X9863158Y-13808984D02*
X9844110Y-13799460D01*
X9844110Y-13799460D02*
X9834586Y-13780412D01*
X9834586Y-13780412D02*
X9834586Y-13608984D01*
X10091729Y-13808984D02*
X10091729Y-13608984D01*
X10091729Y-13608984D02*
X10158396Y-13751841D01*
X10158396Y-13751841D02*
X10225063Y-13608984D01*
X10225063Y-13608984D02*
X10225063Y-13808984D01*
X10406015Y-13808984D02*
X10406015Y-13704222D01*
X10406015Y-13704222D02*
X10396491Y-13685174D01*
X10396491Y-13685174D02*
X10377444Y-13675650D01*
X10377444Y-13675650D02*
X10339348Y-13675650D01*
X10339348Y-13675650D02*
X10320301Y-13685174D01*
X10406015Y-13799460D02*
X10386967Y-13808984D01*
X10386967Y-13808984D02*
X10339348Y-13808984D01*
X10339348Y-13808984D02*
X10320301Y-13799460D01*
X10320301Y-13799460D02*
X10310777Y-13780412D01*
X10310777Y-13780412D02*
X10310777Y-13761365D01*
X10310777Y-13761365D02*
X10320301Y-13742317D01*
X10320301Y-13742317D02*
X10339348Y-13732793D01*
X10339348Y-13732793D02*
X10386967Y-13732793D01*
X10386967Y-13732793D02*
X10406015Y-13723269D01*
X10501253Y-13675650D02*
X10501253Y-13875650D01*
X10501253Y-13685174D02*
X10520301Y-13675650D01*
X10520301Y-13675650D02*
X10558396Y-13675650D01*
X10558396Y-13675650D02*
X10577444Y-13685174D01*
X10577444Y-13685174D02*
X10586967Y-13694698D01*
X10586967Y-13694698D02*
X10596491Y-13713746D01*
X10596491Y-13713746D02*
X10596491Y-13770888D01*
X10596491Y-13770888D02*
X10586967Y-13789936D01*
X10586967Y-13789936D02*
X10577444Y-13799460D01*
X10577444Y-13799460D02*
X10558396Y-13808984D01*
X10558396Y-13808984D02*
X10520301Y-13808984D01*
X10520301Y-13808984D02*
X10501253Y-13799460D01*
X10682205Y-13789936D02*
X10691729Y-13799460D01*
X10691729Y-13799460D02*
X10682205Y-13808984D01*
X10682205Y-13808984D02*
X10672682Y-13799460D01*
X10672682Y-13799460D02*
X10682205Y-13789936D01*
X10682205Y-13789936D02*
X10682205Y-13808984D01*
X10682205Y-13685174D02*
X10691729Y-13694698D01*
X10691729Y-13694698D02*
X10682205Y-13704222D01*
X10682205Y-13704222D02*
X10672682Y-13694698D01*
X10672682Y-13694698D02*
X10682205Y-13685174D01*
X10682205Y-13685174D02*
X10682205Y-13704222D01*
X8850000Y-14037500D02*
X9050000Y-14237500D01*
X9050000Y-14037500D02*
X8850000Y-14237500D01*
X9291729Y-14028984D02*
X9415539Y-14028984D01*
X9415539Y-14028984D02*
X9348872Y-14105174D01*
X9348872Y-14105174D02*
X9377444Y-14105174D01*
X9377444Y-14105174D02*
X9396491Y-14114698D01*
X9396491Y-14114698D02*
X9406015Y-14124222D01*
X9406015Y-14124222D02*
X9415539Y-14143269D01*
X9415539Y-14143269D02*
X9415539Y-14190888D01*
X9415539Y-14190888D02*
X9406015Y-14209936D01*
X9406015Y-14209936D02*
X9396491Y-14219460D01*
X9396491Y-14219460D02*
X9377444Y-14228984D01*
X9377444Y-14228984D02*
X9320301Y-14228984D01*
X9320301Y-14228984D02*
X9301253Y-14219460D01*
X9301253Y-14219460D02*
X9291729Y-14209936D01*
X9501253Y-14209936D02*
X9510777Y-14219460D01*
X9510777Y-14219460D02*
X9501253Y-14228984D01*
X9501253Y-14228984D02*
X9491729Y-14219460D01*
X9491729Y-14219460D02*
X9501253Y-14209936D01*
X9501253Y-14209936D02*
X9501253Y-14228984D01*
X9586967Y-14048031D02*
X9596491Y-14038508D01*
X9596491Y-14038508D02*
X9615539Y-14028984D01*
X9615539Y-14028984D02*
X9663158Y-14028984D01*
X9663158Y-14028984D02*
X9682205Y-14038508D01*
X9682205Y-14038508D02*
X9691729Y-14048031D01*
X9691729Y-14048031D02*
X9701253Y-14067079D01*
X9701253Y-14067079D02*
X9701253Y-14086127D01*
X9701253Y-14086127D02*
X9691729Y-14114698D01*
X9691729Y-14114698D02*
X9577444Y-14228984D01*
X9577444Y-14228984D02*
X9701253Y-14228984D01*
X9825063Y-14028984D02*
X9844110Y-14028984D01*
X9844110Y-14028984D02*
X9863158Y-14038508D01*
X9863158Y-14038508D02*
X9872682Y-14048031D01*
X9872682Y-14048031D02*
X9882205Y-14067079D01*
X9882205Y-14067079D02*
X9891729Y-14105174D01*
X9891729Y-14105174D02*
X9891729Y-14152793D01*
X9891729Y-14152793D02*
X9882205Y-14190888D01*
X9882205Y-14190888D02*
X9872682Y-14209936D01*
X9872682Y-14209936D02*
X9863158Y-14219460D01*
X9863158Y-14219460D02*
X9844110Y-14228984D01*
X9844110Y-14228984D02*
X9825063Y-14228984D01*
X9825063Y-14228984D02*
X9806015Y-14219460D01*
X9806015Y-14219460D02*
X9796491Y-14209936D01*
X9796491Y-14209936D02*
X9786967Y-14190888D01*
X9786967Y-14190888D02*
X9777444Y-14152793D01*
X9777444Y-14152793D02*
X9777444Y-14105174D01*
X9777444Y-14105174D02*
X9786967Y-14067079D01*
X9786967Y-14067079D02*
X9796491Y-14048031D01*
X9796491Y-14048031D02*
X9806015Y-14038508D01*
X9806015Y-14038508D02*
X9825063Y-14028984D01*
X10015539Y-14028984D02*
X10034586Y-14028984D01*
X10034586Y-14028984D02*
X10053634Y-14038508D01*
X10053634Y-14038508D02*
X10063158Y-14048031D01*
X10063158Y-14048031D02*
X10072682Y-14067079D01*
X10072682Y-14067079D02*
X10082205Y-14105174D01*
X10082205Y-14105174D02*
X10082205Y-14152793D01*
X10082205Y-14152793D02*
X10072682Y-14190888D01*
X10072682Y-14190888D02*
X10063158Y-14209936D01*
X10063158Y-14209936D02*
X10053634Y-14219460D01*
X10053634Y-14219460D02*
X10034586Y-14228984D01*
X10034586Y-14228984D02*
X10015539Y-14228984D01*
X10015539Y-14228984D02*
X9996491Y-14219460D01*
X9996491Y-14219460D02*
X9986967Y-14209936D01*
X9986967Y-14209936D02*
X9977444Y-14190888D01*
X9977444Y-14190888D02*
X9967920Y-14152793D01*
X9967920Y-14152793D02*
X9967920Y-14105174D01*
X9967920Y-14105174D02*
X9977444Y-14067079D01*
X9977444Y-14067079D02*
X9986967Y-14048031D01*
X9986967Y-14048031D02*
X9996491Y-14038508D01*
X9996491Y-14038508D02*
X10015539Y-14028984D01*
X10167920Y-14228984D02*
X10167920Y-14095650D01*
X10167920Y-14114698D02*
X10177444Y-14105174D01*
X10177444Y-14105174D02*
X10196491Y-14095650D01*
X10196491Y-14095650D02*
X10225063Y-14095650D01*
X10225063Y-14095650D02*
X10244110Y-14105174D01*
X10244110Y-14105174D02*
X10253634Y-14124222D01*
X10253634Y-14124222D02*
X10253634Y-14228984D01*
X10253634Y-14124222D02*
X10263158Y-14105174D01*
X10263158Y-14105174D02*
X10282205Y-14095650D01*
X10282205Y-14095650D02*
X10310777Y-14095650D01*
X10310777Y-14095650D02*
X10329825Y-14105174D01*
X10329825Y-14105174D02*
X10339348Y-14124222D01*
X10339348Y-14124222D02*
X10339348Y-14228984D01*
X10434586Y-14228984D02*
X10434586Y-14095650D01*
X10434586Y-14114698D02*
X10444110Y-14105174D01*
X10444110Y-14105174D02*
X10463158Y-14095650D01*
X10463158Y-14095650D02*
X10491729Y-14095650D01*
X10491729Y-14095650D02*
X10510777Y-14105174D01*
X10510777Y-14105174D02*
X10520301Y-14124222D01*
X10520301Y-14124222D02*
X10520301Y-14228984D01*
X10520301Y-14124222D02*
X10529825Y-14105174D01*
X10529825Y-14105174D02*
X10548872Y-14095650D01*
X10548872Y-14095650D02*
X10577444Y-14095650D01*
X10577444Y-14095650D02*
X10596491Y-14105174D01*
X10596491Y-14105174D02*
X10606015Y-14124222D01*
X10606015Y-14124222D02*
X10606015Y-14228984D01*
X10996491Y-14019460D02*
X10825063Y-14276603D01*
X11253634Y-14028984D02*
X11272682Y-14028984D01*
X11272682Y-14028984D02*
X11291729Y-14038508D01*
X11291729Y-14038508D02*
X11301253Y-14048031D01*
X11301253Y-14048031D02*
X11310777Y-14067079D01*
X11310777Y-14067079D02*
X11320301Y-14105174D01*
X11320301Y-14105174D02*
X11320301Y-14152793D01*
X11320301Y-14152793D02*
X11310777Y-14190888D01*
X11310777Y-14190888D02*
X11301253Y-14209936D01*
X11301253Y-14209936D02*
X11291729Y-14219460D01*
X11291729Y-14219460D02*
X11272682Y-14228984D01*
X11272682Y-14228984D02*
X11253634Y-14228984D01*
X11253634Y-14228984D02*
X11234586Y-14219460D01*
X11234586Y-14219460D02*
X11225063Y-14209936D01*
X11225063Y-14209936D02*
X11215539Y-14190888D01*
X11215539Y-14190888D02*
X11206015Y-14152793D01*
X11206015Y-14152793D02*
X11206015Y-14105174D01*
X11206015Y-14105174D02*
X11215539Y-14067079D01*
X11215539Y-14067079D02*
X11225063Y-14048031D01*
X11225063Y-14048031D02*
X11234586Y-14038508D01*
X11234586Y-14038508D02*
X11253634Y-14028984D01*
X11406015Y-14209936D02*
X11415539Y-14219460D01*
X11415539Y-14219460D02*
X11406015Y-14228984D01*
X11406015Y-14228984D02*
X11396491Y-14219460D01*
X11396491Y-14219460D02*
X11406015Y-14209936D01*
X11406015Y-14209936D02*
X11406015Y-14228984D01*
X11606015Y-14228984D02*
X11491729Y-14228984D01*
X11548872Y-14228984D02*
X11548872Y-14028984D01*
X11548872Y-14028984D02*
X11529825Y-14057555D01*
X11529825Y-14057555D02*
X11510777Y-14076603D01*
X11510777Y-14076603D02*
X11491729Y-14086127D01*
X11682206Y-14048031D02*
X11691729Y-14038508D01*
X11691729Y-14038508D02*
X11710777Y-14028984D01*
X11710777Y-14028984D02*
X11758396Y-14028984D01*
X11758396Y-14028984D02*
X11777444Y-14038508D01*
X11777444Y-14038508D02*
X11786967Y-14048031D01*
X11786967Y-14048031D02*
X11796491Y-14067079D01*
X11796491Y-14067079D02*
X11796491Y-14086127D01*
X11796491Y-14086127D02*
X11786967Y-14114698D01*
X11786967Y-14114698D02*
X11672682Y-14228984D01*
X11672682Y-14228984D02*
X11796491Y-14228984D01*
X11967920Y-14028984D02*
X11929825Y-14028984D01*
X11929825Y-14028984D02*
X11910777Y-14038508D01*
X11910777Y-14038508D02*
X11901253Y-14048031D01*
X11901253Y-14048031D02*
X11882206Y-14076603D01*
X11882206Y-14076603D02*
X11872682Y-14114698D01*
X11872682Y-14114698D02*
X11872682Y-14190888D01*
X11872682Y-14190888D02*
X11882206Y-14209936D01*
X11882206Y-14209936D02*
X11891729Y-14219460D01*
X11891729Y-14219460D02*
X11910777Y-14228984D01*
X11910777Y-14228984D02*
X11948872Y-14228984D01*
X11948872Y-14228984D02*
X11967920Y-14219460D01*
X11967920Y-14219460D02*
X11977444Y-14209936D01*
X11977444Y-14209936D02*
X11986967Y-14190888D01*
X11986967Y-14190888D02*
X11986967Y-14143269D01*
X11986967Y-14143269D02*
X11977444Y-14124222D01*
X11977444Y-14124222D02*
X11967920Y-14114698D01*
X11967920Y-14114698D02*
X11948872Y-14105174D01*
X11948872Y-14105174D02*
X11910777Y-14105174D01*
X11910777Y-14105174D02*
X11891729Y-14114698D01*
X11891729Y-14114698D02*
X11882206Y-14124222D01*
X11882206Y-14124222D02*
X11872682Y-14143269D01*
X12110777Y-14028984D02*
X12129825Y-14028984D01*
X12129825Y-14028984D02*
X12148872Y-14038508D01*
X12148872Y-14038508D02*
X12158396Y-14048031D01*
X12158396Y-14048031D02*
X12167920Y-14067079D01*
X12167920Y-14067079D02*
X12177444Y-14105174D01*
X12177444Y-14105174D02*
X12177444Y-14152793D01*
X12177444Y-14152793D02*
X12167920Y-14190888D01*
X12167920Y-14190888D02*
X12158396Y-14209936D01*
X12158396Y-14209936D02*
X12148872Y-14219460D01*
X12148872Y-14219460D02*
X12129825Y-14228984D01*
X12129825Y-14228984D02*
X12110777Y-14228984D01*
X12110777Y-14228984D02*
X12091729Y-14219460D01*
X12091729Y-14219460D02*
X12082206Y-14209936D01*
X12082206Y-14209936D02*
X12072682Y-14190888D01*
X12072682Y-14190888D02*
X12063158Y-14152793D01*
X12063158Y-14152793D02*
X12063158Y-14105174D01*
X12063158Y-14105174D02*
X12072682Y-14067079D01*
X12072682Y-14067079D02*
X12082206Y-14048031D01*
X12082206Y-14048031D02*
X12091729Y-14038508D01*
X12091729Y-14038508D02*
X12110777Y-14028984D01*
X12253634Y-14028984D02*
X12253634Y-14067079D01*
X12329825Y-14028984D02*
X12329825Y-14067079D01*
X12625063Y-14305174D02*
X12615539Y-14295650D01*
X12615539Y-14295650D02*
X12596491Y-14267079D01*
X12596491Y-14267079D02*
X12586968Y-14248031D01*
X12586968Y-14248031D02*
X12577444Y-14219460D01*
X12577444Y-14219460D02*
X12567920Y-14171841D01*
X12567920Y-14171841D02*
X12567920Y-14133746D01*
X12567920Y-14133746D02*
X12577444Y-14086127D01*
X12577444Y-14086127D02*
X12586968Y-14057555D01*
X12586968Y-14057555D02*
X12596491Y-14038508D01*
X12596491Y-14038508D02*
X12615539Y-14009936D01*
X12615539Y-14009936D02*
X12625063Y-14000412D01*
X12786968Y-14095650D02*
X12786968Y-14228984D01*
X12739348Y-14019460D02*
X12691729Y-14162317D01*
X12691729Y-14162317D02*
X12815539Y-14162317D01*
X13044110Y-14228984D02*
X13044110Y-14028984D01*
X13129825Y-14228984D02*
X13129825Y-14124222D01*
X13129825Y-14124222D02*
X13120301Y-14105174D01*
X13120301Y-14105174D02*
X13101253Y-14095650D01*
X13101253Y-14095650D02*
X13072682Y-14095650D01*
X13072682Y-14095650D02*
X13053634Y-14105174D01*
X13053634Y-14105174D02*
X13044110Y-14114698D01*
X13253634Y-14228984D02*
X13234587Y-14219460D01*
X13234587Y-14219460D02*
X13225063Y-14209936D01*
X13225063Y-14209936D02*
X13215539Y-14190888D01*
X13215539Y-14190888D02*
X13215539Y-14133746D01*
X13215539Y-14133746D02*
X13225063Y-14114698D01*
X13225063Y-14114698D02*
X13234587Y-14105174D01*
X13234587Y-14105174D02*
X13253634Y-14095650D01*
X13253634Y-14095650D02*
X13282206Y-14095650D01*
X13282206Y-14095650D02*
X13301253Y-14105174D01*
X13301253Y-14105174D02*
X13310777Y-14114698D01*
X13310777Y-14114698D02*
X13320301Y-14133746D01*
X13320301Y-14133746D02*
X13320301Y-14190888D01*
X13320301Y-14190888D02*
X13310777Y-14209936D01*
X13310777Y-14209936D02*
X13301253Y-14219460D01*
X13301253Y-14219460D02*
X13282206Y-14228984D01*
X13282206Y-14228984D02*
X13253634Y-14228984D01*
X13434587Y-14228984D02*
X13415539Y-14219460D01*
X13415539Y-14219460D02*
X13406015Y-14200412D01*
X13406015Y-14200412D02*
X13406015Y-14028984D01*
X13586968Y-14219460D02*
X13567920Y-14228984D01*
X13567920Y-14228984D02*
X13529825Y-14228984D01*
X13529825Y-14228984D02*
X13510777Y-14219460D01*
X13510777Y-14219460D02*
X13501253Y-14200412D01*
X13501253Y-14200412D02*
X13501253Y-14124222D01*
X13501253Y-14124222D02*
X13510777Y-14105174D01*
X13510777Y-14105174D02*
X13529825Y-14095650D01*
X13529825Y-14095650D02*
X13567920Y-14095650D01*
X13567920Y-14095650D02*
X13586968Y-14105174D01*
X13586968Y-14105174D02*
X13596491Y-14124222D01*
X13596491Y-14124222D02*
X13596491Y-14143269D01*
X13596491Y-14143269D02*
X13501253Y-14162317D01*
X13672682Y-14219460D02*
X13691730Y-14228984D01*
X13691730Y-14228984D02*
X13729825Y-14228984D01*
X13729825Y-14228984D02*
X13748872Y-14219460D01*
X13748872Y-14219460D02*
X13758396Y-14200412D01*
X13758396Y-14200412D02*
X13758396Y-14190888D01*
X13758396Y-14190888D02*
X13748872Y-14171841D01*
X13748872Y-14171841D02*
X13729825Y-14162317D01*
X13729825Y-14162317D02*
X13701253Y-14162317D01*
X13701253Y-14162317D02*
X13682206Y-14152793D01*
X13682206Y-14152793D02*
X13672682Y-14133746D01*
X13672682Y-14133746D02*
X13672682Y-14124222D01*
X13672682Y-14124222D02*
X13682206Y-14105174D01*
X13682206Y-14105174D02*
X13701253Y-14095650D01*
X13701253Y-14095650D02*
X13729825Y-14095650D01*
X13729825Y-14095650D02*
X13748872Y-14105174D01*
X13825063Y-14305174D02*
X13834587Y-14295650D01*
X13834587Y-14295650D02*
X13853634Y-14267079D01*
X13853634Y-14267079D02*
X13863158Y-14248031D01*
X13863158Y-14248031D02*
X13872682Y-14219460D01*
X13872682Y-14219460D02*
X13882206Y-14171841D01*
X13882206Y-14171841D02*
X13882206Y-14133746D01*
X13882206Y-14133746D02*
X13872682Y-14086127D01*
X13872682Y-14086127D02*
X13863158Y-14057555D01*
X13863158Y-14057555D02*
X13853634Y-14038508D01*
X13853634Y-14038508D02*
X13834587Y-14009936D01*
X13834587Y-14009936D02*
X13825063Y-14000412D01*
X14186968Y-14305174D02*
X14177444Y-14295650D01*
X14177444Y-14295650D02*
X14158396Y-14267079D01*
X14158396Y-14267079D02*
X14148872Y-14248031D01*
X14148872Y-14248031D02*
X14139349Y-14219460D01*
X14139349Y-14219460D02*
X14129825Y-14171841D01*
X14129825Y-14171841D02*
X14129825Y-14133746D01*
X14129825Y-14133746D02*
X14139349Y-14086127D01*
X14139349Y-14086127D02*
X14148872Y-14057555D01*
X14148872Y-14057555D02*
X14158396Y-14038508D01*
X14158396Y-14038508D02*
X14177444Y-14009936D01*
X14177444Y-14009936D02*
X14186968Y-14000412D01*
X14263158Y-14095650D02*
X14263158Y-14228984D01*
X14263158Y-14114698D02*
X14272682Y-14105174D01*
X14272682Y-14105174D02*
X14291730Y-14095650D01*
X14291730Y-14095650D02*
X14320301Y-14095650D01*
X14320301Y-14095650D02*
X14339349Y-14105174D01*
X14339349Y-14105174D02*
X14348872Y-14124222D01*
X14348872Y-14124222D02*
X14348872Y-14228984D01*
X14472682Y-14228984D02*
X14453634Y-14219460D01*
X14453634Y-14219460D02*
X14444111Y-14209936D01*
X14444111Y-14209936D02*
X14434587Y-14190888D01*
X14434587Y-14190888D02*
X14434587Y-14133746D01*
X14434587Y-14133746D02*
X14444111Y-14114698D01*
X14444111Y-14114698D02*
X14453634Y-14105174D01*
X14453634Y-14105174D02*
X14472682Y-14095650D01*
X14472682Y-14095650D02*
X14501253Y-14095650D01*
X14501253Y-14095650D02*
X14520301Y-14105174D01*
X14520301Y-14105174D02*
X14529825Y-14114698D01*
X14529825Y-14114698D02*
X14539349Y-14133746D01*
X14539349Y-14133746D02*
X14539349Y-14190888D01*
X14539349Y-14190888D02*
X14529825Y-14209936D01*
X14529825Y-14209936D02*
X14520301Y-14219460D01*
X14520301Y-14219460D02*
X14501253Y-14228984D01*
X14501253Y-14228984D02*
X14472682Y-14228984D01*
X14596492Y-14095650D02*
X14672682Y-14095650D01*
X14625063Y-14028984D02*
X14625063Y-14200412D01*
X14625063Y-14200412D02*
X14634587Y-14219460D01*
X14634587Y-14219460D02*
X14653634Y-14228984D01*
X14653634Y-14228984D02*
X14672682Y-14228984D01*
X14891730Y-14095650D02*
X14891730Y-14295650D01*
X14891730Y-14105174D02*
X14910777Y-14095650D01*
X14910777Y-14095650D02*
X14948873Y-14095650D01*
X14948873Y-14095650D02*
X14967920Y-14105174D01*
X14967920Y-14105174D02*
X14977444Y-14114698D01*
X14977444Y-14114698D02*
X14986968Y-14133746D01*
X14986968Y-14133746D02*
X14986968Y-14190888D01*
X14986968Y-14190888D02*
X14977444Y-14209936D01*
X14977444Y-14209936D02*
X14967920Y-14219460D01*
X14967920Y-14219460D02*
X14948873Y-14228984D01*
X14948873Y-14228984D02*
X14910777Y-14228984D01*
X14910777Y-14228984D02*
X14891730Y-14219460D01*
X15101253Y-14228984D02*
X15082206Y-14219460D01*
X15082206Y-14219460D02*
X15072682Y-14200412D01*
X15072682Y-14200412D02*
X15072682Y-14028984D01*
X15263158Y-14228984D02*
X15263158Y-14124222D01*
X15263158Y-14124222D02*
X15253634Y-14105174D01*
X15253634Y-14105174D02*
X15234587Y-14095650D01*
X15234587Y-14095650D02*
X15196492Y-14095650D01*
X15196492Y-14095650D02*
X15177444Y-14105174D01*
X15263158Y-14219460D02*
X15244111Y-14228984D01*
X15244111Y-14228984D02*
X15196492Y-14228984D01*
X15196492Y-14228984D02*
X15177444Y-14219460D01*
X15177444Y-14219460D02*
X15167920Y-14200412D01*
X15167920Y-14200412D02*
X15167920Y-14181365D01*
X15167920Y-14181365D02*
X15177444Y-14162317D01*
X15177444Y-14162317D02*
X15196492Y-14152793D01*
X15196492Y-14152793D02*
X15244111Y-14152793D01*
X15244111Y-14152793D02*
X15263158Y-14143269D01*
X15329825Y-14095650D02*
X15406015Y-14095650D01*
X15358396Y-14028984D02*
X15358396Y-14200412D01*
X15358396Y-14200412D02*
X15367920Y-14219460D01*
X15367920Y-14219460D02*
X15386968Y-14228984D01*
X15386968Y-14228984D02*
X15406015Y-14228984D01*
X15548873Y-14219460D02*
X15529825Y-14228984D01*
X15529825Y-14228984D02*
X15491730Y-14228984D01*
X15491730Y-14228984D02*
X15472682Y-14219460D01*
X15472682Y-14219460D02*
X15463158Y-14200412D01*
X15463158Y-14200412D02*
X15463158Y-14124222D01*
X15463158Y-14124222D02*
X15472682Y-14105174D01*
X15472682Y-14105174D02*
X15491730Y-14095650D01*
X15491730Y-14095650D02*
X15529825Y-14095650D01*
X15529825Y-14095650D02*
X15548873Y-14105174D01*
X15548873Y-14105174D02*
X15558396Y-14124222D01*
X15558396Y-14124222D02*
X15558396Y-14143269D01*
X15558396Y-14143269D02*
X15463158Y-14162317D01*
X15729825Y-14228984D02*
X15729825Y-14028984D01*
X15729825Y-14219460D02*
X15710777Y-14228984D01*
X15710777Y-14228984D02*
X15672682Y-14228984D01*
X15672682Y-14228984D02*
X15653634Y-14219460D01*
X15653634Y-14219460D02*
X15644111Y-14209936D01*
X15644111Y-14209936D02*
X15634587Y-14190888D01*
X15634587Y-14190888D02*
X15634587Y-14133746D01*
X15634587Y-14133746D02*
X15644111Y-14114698D01*
X15644111Y-14114698D02*
X15653634Y-14105174D01*
X15653634Y-14105174D02*
X15672682Y-14095650D01*
X15672682Y-14095650D02*
X15710777Y-14095650D01*
X15710777Y-14095650D02*
X15729825Y-14105174D01*
X15806015Y-14305174D02*
X15815539Y-14295650D01*
X15815539Y-14295650D02*
X15834587Y-14267079D01*
X15834587Y-14267079D02*
X15844111Y-14248031D01*
X15844111Y-14248031D02*
X15853634Y-14219460D01*
X15853634Y-14219460D02*
X15863158Y-14171841D01*
X15863158Y-14171841D02*
X15863158Y-14133746D01*
X15863158Y-14133746D02*
X15853634Y-14086127D01*
X15853634Y-14086127D02*
X15844111Y-14057555D01*
X15844111Y-14057555D02*
X15834587Y-14038508D01*
X15834587Y-14038508D02*
X15815539Y-14009936D01*
X15815539Y-14009936D02*
X15806015Y-14000412D01*
M02*
