%TF.GenerationSoftware,KiCad,Pcbnew,9.0.6*%
%TF.CreationDate,2026-02-11T23:07:03-07:00*%
%TF.ProjectId,JAARK_PCB_MOTOR,4a414152-4b5f-4504-9342-5f4d4f544f52,rev?*%
%TF.SameCoordinates,Original*%
%TF.FileFunction,Drillmap*%
%TF.FilePolarity,Positive*%
%FSLAX45Y45*%
G04 Gerber Fmt 4.5, Leading zero omitted, Abs format (unit mm)*
G04 Created by KiCad (PCBNEW 9.0.6) date 2026-02-11 23:07:03*
%MOMM*%
%LPD*%
G01*
G04 APERTURE LIST*
%ADD10C,0.050000*%
%ADD11C,0.200000*%
%ADD12C,0.100000*%
%ADD13C,0.104000*%
%ADD14C,0.107000*%
%ADD15C,0.120000*%
%ADD16C,0.150000*%
%ADD17C,0.160000*%
G04 APERTURE END LIST*
D10*
X18802500Y-4495000D02*
X9302500Y-4495000D01*
X9302500Y-4495000D02*
X9052500Y-4745000D01*
X18802500Y-13495000D02*
X9302500Y-13495000D01*
X19052500Y-13245000D02*
X18802500Y-13495000D01*
X19052500Y-4745000D02*
X19052500Y-13245000D01*
X9052500Y-4745000D02*
X9052500Y-13245000D01*
X9302500Y-13495000D02*
X9052500Y-13245000D01*
X18802500Y-4495000D02*
X19052500Y-4745000D01*
D11*
D12*
X11049240Y-8717520D02*
X11079240Y-8747520D01*
X11079240Y-8717520D02*
X11049240Y-8747520D01*
X11161000Y-8814040D02*
X11191000Y-8844040D01*
X11191000Y-8814040D02*
X11161000Y-8844040D01*
X11310000Y-11385000D02*
X11340000Y-11415000D01*
X11340000Y-11385000D02*
X11310000Y-11415000D01*
X12365000Y-11385000D02*
X12395000Y-11415000D01*
X12395000Y-11385000D02*
X12365000Y-11415000D01*
X13045000Y-11385000D02*
X13075000Y-11415000D01*
X13075000Y-11385000D02*
X13045000Y-11415000D01*
X13885000Y-10060000D02*
X13915000Y-10090000D01*
X13915000Y-10060000D02*
X13885000Y-10090000D01*
X14005000Y-10955000D02*
X14035000Y-10985000D01*
X14035000Y-10955000D02*
X14005000Y-10985000D01*
X14185000Y-10765000D02*
X14215000Y-10795000D01*
X14215000Y-10765000D02*
X14185000Y-10795000D01*
X14235000Y-10462500D02*
X14265000Y-10492500D01*
X14265000Y-10462500D02*
X14235000Y-10492500D01*
X10810000Y-11875000D02*
G75*
G02*
X10740000Y-11875000I-35000J0D01*
G01*
X10740000Y-11875000D02*
G75*
G02*
X10810000Y-11875000I35000J0D01*
G01*
X11315000Y-10900000D02*
G75*
G02*
X11245000Y-10900000I-35000J0D01*
G01*
X11245000Y-10900000D02*
G75*
G02*
X11315000Y-10900000I35000J0D01*
G01*
X12305000Y-10530000D02*
G75*
G02*
X12235000Y-10530000I-35000J0D01*
G01*
X12235000Y-10530000D02*
G75*
G02*
X12305000Y-10530000I35000J0D01*
G01*
X14731000Y-11221000D02*
G75*
G02*
X14661000Y-11221000I-35000J0D01*
G01*
X14661000Y-11221000D02*
G75*
G02*
X14731000Y-11221000I35000J0D01*
G01*
X15185000Y-11050000D02*
G75*
G02*
X15115000Y-11050000I-35000J0D01*
G01*
X15115000Y-11050000D02*
G75*
G02*
X15185000Y-11050000I35000J0D01*
G01*
X15842500Y-10107500D02*
G75*
G02*
X15772500Y-10107500I-35000J0D01*
G01*
X15772500Y-10107500D02*
G75*
G02*
X15842500Y-10107500I35000J0D01*
G01*
X17874000Y-7012000D02*
G75*
G02*
X17804000Y-7012000I-35000J0D01*
G01*
X17804000Y-7012000D02*
G75*
G02*
X17874000Y-7012000I35000J0D01*
G01*
X17945000Y-11870000D02*
G75*
G02*
X17875000Y-11870000I-35000J0D01*
G01*
X17875000Y-11870000D02*
G75*
G02*
X17945000Y-11870000I35000J0D01*
G01*
X18307500Y-5975000D02*
G75*
G02*
X18237500Y-5975000I-35000J0D01*
G01*
X18237500Y-5975000D02*
G75*
G02*
X18307500Y-5975000I35000J0D01*
G01*
X18355000Y-12200000D02*
G75*
G02*
X18285000Y-12200000I-35000J0D01*
G01*
X18285000Y-12200000D02*
G75*
G02*
X18355000Y-12200000I35000J0D01*
G01*
X18640000Y-6307500D02*
G75*
G02*
X18570000Y-6307500I-35000J0D01*
G01*
X18570000Y-6307500D02*
G75*
G02*
X18640000Y-6307500I35000J0D01*
G01*
X12567920Y-8062600D02*
X12567920Y-8142600D01*
X12527920Y-8102600D02*
X12607920Y-8102600D01*
X12567920Y-8372480D02*
X12567920Y-8452480D01*
X12527920Y-8412480D02*
X12607920Y-8412480D01*
X12567920Y-8687440D02*
X12567920Y-8767440D01*
X12527920Y-8727440D02*
X12607920Y-8727440D01*
X13583920Y-8062600D02*
X13583920Y-8142600D01*
X13543920Y-8102600D02*
X13623920Y-8102600D01*
X13583920Y-8372480D02*
X13583920Y-8452480D01*
X13543920Y-8412480D02*
X13623920Y-8412480D01*
X13583920Y-8687440D02*
X13583920Y-8767440D01*
X13543920Y-8727440D02*
X13623920Y-8727440D01*
X11839154Y-8542234D02*
X11839154Y-8475766D01*
X11772686Y-8475766D01*
X11772686Y-8542234D01*
X11839154Y-8542234D01*
X11839154Y-8796234D02*
X11839154Y-8729766D01*
X11772686Y-8729766D01*
X11772686Y-8796234D01*
X11839154Y-8796234D01*
X11966154Y-8669234D02*
X11966154Y-8602766D01*
X11899686Y-8602766D01*
X11899686Y-8669234D01*
X11966154Y-8669234D01*
X11298960Y-9496800D02*
X11346960Y-9448800D01*
X11298960Y-9400800D01*
X11250960Y-9448800D01*
X11298960Y-9496800D01*
X11558960Y-9496800D02*
X11606960Y-9448800D01*
X11558960Y-9400800D01*
X11510960Y-9448800D01*
X11558960Y-9496800D01*
X11818960Y-9496800D02*
X11866960Y-9448800D01*
X11818960Y-9400800D01*
X11770960Y-9448800D01*
X11818960Y-9496800D01*
X9430250Y-6285000D02*
X9530250Y-6385000D01*
X9530250Y-6285000D02*
X9430250Y-6385000D01*
X9530250Y-6335000D02*
G75*
G02*
X9430250Y-6335000I-50000J0D01*
G01*
X9430250Y-6335000D02*
G75*
G02*
X9530250Y-6335000I50000J0D01*
G01*
X9905250Y-6345000D02*
X10005250Y-6445000D01*
X10005250Y-6345000D02*
X9905250Y-6445000D01*
X10005250Y-6395000D02*
G75*
G02*
X9905250Y-6395000I-50000J0D01*
G01*
X9905250Y-6395000D02*
G75*
G02*
X10005250Y-6395000I50000J0D01*
G01*
X10339000Y-5607000D02*
X10439000Y-5707000D01*
X10439000Y-5607000D02*
X10339000Y-5707000D01*
X10439000Y-5657000D02*
G75*
G02*
X10339000Y-5657000I-50000J0D01*
G01*
X10339000Y-5657000D02*
G75*
G02*
X10439000Y-5657000I50000J0D01*
G01*
X16650000Y-11050000D02*
X16750000Y-11150000D01*
X16750000Y-11050000D02*
X16650000Y-11150000D01*
X16750000Y-11100000D02*
G75*
G02*
X16650000Y-11100000I-50000J0D01*
G01*
X16650000Y-11100000D02*
G75*
G02*
X16750000Y-11100000I50000J0D01*
G01*
X17632500Y-11950000D02*
X17732500Y-12050000D01*
X17732500Y-11950000D02*
X17632500Y-12050000D01*
X17732500Y-12000000D02*
G75*
G02*
X17632500Y-12000000I-50000J0D01*
G01*
X17632500Y-12000000D02*
G75*
G02*
X17732500Y-12000000I50000J0D01*
G01*
X17790000Y-6247500D02*
X17890000Y-6347500D01*
X17890000Y-6247500D02*
X17790000Y-6347500D01*
X17890000Y-6297500D02*
G75*
G02*
X17790000Y-6297500I-50000J0D01*
G01*
X17790000Y-6297500D02*
G75*
G02*
X17890000Y-6297500I50000J0D01*
G01*
X18637500Y-11887500D02*
X18737500Y-11987500D01*
X18737500Y-11887500D02*
X18637500Y-11987500D01*
X18737500Y-11937500D02*
G75*
G02*
X18637500Y-11937500I-50000J0D01*
G01*
X18637500Y-11937500D02*
G75*
G02*
X18737500Y-11937500I50000J0D01*
G01*
D13*
X12193500Y-5795500D02*
X12297500Y-5899500D01*
X12297500Y-5795500D02*
X12193500Y-5899500D01*
X12245500Y-5795500D02*
X12245500Y-5899500D01*
X12193500Y-5847500D02*
X12297500Y-5847500D01*
X12193500Y-6049500D02*
X12297500Y-6153500D01*
X12297500Y-6049500D02*
X12193500Y-6153500D01*
X12245500Y-6049500D02*
X12245500Y-6153500D01*
X12193500Y-6101500D02*
X12297500Y-6101500D01*
X12193500Y-11891500D02*
X12297500Y-11995500D01*
X12297500Y-11891500D02*
X12193500Y-11995500D01*
X12245500Y-11891500D02*
X12245500Y-11995500D01*
X12193500Y-11943500D02*
X12297500Y-11943500D01*
X12193500Y-12145500D02*
X12297500Y-12249500D01*
X12297500Y-12145500D02*
X12193500Y-12249500D01*
X12245500Y-12145500D02*
X12245500Y-12249500D01*
X12193500Y-12197500D02*
X12297500Y-12197500D01*
X12447500Y-5795500D02*
X12551500Y-5899500D01*
X12551500Y-5795500D02*
X12447500Y-5899500D01*
X12499500Y-5795500D02*
X12499500Y-5899500D01*
X12447500Y-5847500D02*
X12551500Y-5847500D01*
X12447500Y-6049500D02*
X12551500Y-6153500D01*
X12551500Y-6049500D02*
X12447500Y-6153500D01*
X12499500Y-6049500D02*
X12499500Y-6153500D01*
X12447500Y-6101500D02*
X12551500Y-6101500D01*
X12447500Y-11891500D02*
X12551500Y-11995500D01*
X12551500Y-11891500D02*
X12447500Y-11995500D01*
X12499500Y-11891500D02*
X12499500Y-11995500D01*
X12447500Y-11943500D02*
X12551500Y-11943500D01*
X12447500Y-12145500D02*
X12551500Y-12249500D01*
X12551500Y-12145500D02*
X12447500Y-12249500D01*
X12499500Y-12145500D02*
X12499500Y-12249500D01*
X12447500Y-12197500D02*
X12551500Y-12197500D01*
X12701500Y-5795500D02*
X12805500Y-5899500D01*
X12805500Y-5795500D02*
X12701500Y-5899500D01*
X12753500Y-5795500D02*
X12753500Y-5899500D01*
X12701500Y-5847500D02*
X12805500Y-5847500D01*
X12701500Y-6049500D02*
X12805500Y-6153500D01*
X12805500Y-6049500D02*
X12701500Y-6153500D01*
X12753500Y-6049500D02*
X12753500Y-6153500D01*
X12701500Y-6101500D02*
X12805500Y-6101500D01*
X12701500Y-11891500D02*
X12805500Y-11995500D01*
X12805500Y-11891500D02*
X12701500Y-11995500D01*
X12753500Y-11891500D02*
X12753500Y-11995500D01*
X12701500Y-11943500D02*
X12805500Y-11943500D01*
X12701500Y-12145500D02*
X12805500Y-12249500D01*
X12805500Y-12145500D02*
X12701500Y-12249500D01*
X12753500Y-12145500D02*
X12753500Y-12249500D01*
X12701500Y-12197500D02*
X12805500Y-12197500D01*
X12955500Y-5795500D02*
X13059500Y-5899500D01*
X13059500Y-5795500D02*
X12955500Y-5899500D01*
X13007500Y-5795500D02*
X13007500Y-5899500D01*
X12955500Y-5847500D02*
X13059500Y-5847500D01*
X12955500Y-6049500D02*
X13059500Y-6153500D01*
X13059500Y-6049500D02*
X12955500Y-6153500D01*
X13007500Y-6049500D02*
X13007500Y-6153500D01*
X12955500Y-6101500D02*
X13059500Y-6101500D01*
X12955500Y-11891500D02*
X13059500Y-11995500D01*
X13059500Y-11891500D02*
X12955500Y-11995500D01*
X13007500Y-11891500D02*
X13007500Y-11995500D01*
X12955500Y-11943500D02*
X13059500Y-11943500D01*
X12955500Y-12145500D02*
X13059500Y-12249500D01*
X13059500Y-12145500D02*
X12955500Y-12249500D01*
X13007500Y-12145500D02*
X13007500Y-12249500D01*
X12955500Y-12197500D02*
X13059500Y-12197500D01*
X13209500Y-5795500D02*
X13313500Y-5899500D01*
X13313500Y-5795500D02*
X13209500Y-5899500D01*
X13261500Y-5795500D02*
X13261500Y-5899500D01*
X13209500Y-5847500D02*
X13313500Y-5847500D01*
X13209500Y-6049500D02*
X13313500Y-6153500D01*
X13313500Y-6049500D02*
X13209500Y-6153500D01*
X13261500Y-6049500D02*
X13261500Y-6153500D01*
X13209500Y-6101500D02*
X13313500Y-6101500D01*
X13209500Y-11891500D02*
X13313500Y-11995500D01*
X13313500Y-11891500D02*
X13209500Y-11995500D01*
X13261500Y-11891500D02*
X13261500Y-11995500D01*
X13209500Y-11943500D02*
X13313500Y-11943500D01*
X13209500Y-12145500D02*
X13313500Y-12249500D01*
X13313500Y-12145500D02*
X13209500Y-12249500D01*
X13261500Y-12145500D02*
X13261500Y-12249500D01*
X13209500Y-12197500D02*
X13313500Y-12197500D01*
X13463500Y-5795500D02*
X13567500Y-5899500D01*
X13567500Y-5795500D02*
X13463500Y-5899500D01*
X13515500Y-5795500D02*
X13515500Y-5899500D01*
X13463500Y-5847500D02*
X13567500Y-5847500D01*
X13463500Y-6049500D02*
X13567500Y-6153500D01*
X13567500Y-6049500D02*
X13463500Y-6153500D01*
X13515500Y-6049500D02*
X13515500Y-6153500D01*
X13463500Y-6101500D02*
X13567500Y-6101500D01*
X13463500Y-11891500D02*
X13567500Y-11995500D01*
X13567500Y-11891500D02*
X13463500Y-11995500D01*
X13515500Y-11891500D02*
X13515500Y-11995500D01*
X13463500Y-11943500D02*
X13567500Y-11943500D01*
X13463500Y-12145500D02*
X13567500Y-12249500D01*
X13567500Y-12145500D02*
X13463500Y-12249500D01*
X13515500Y-12145500D02*
X13515500Y-12249500D01*
X13463500Y-12197500D02*
X13567500Y-12197500D01*
X13717500Y-5795500D02*
X13821500Y-5899500D01*
X13821500Y-5795500D02*
X13717500Y-5899500D01*
X13769500Y-5795500D02*
X13769500Y-5899500D01*
X13717500Y-5847500D02*
X13821500Y-5847500D01*
X13717500Y-6049500D02*
X13821500Y-6153500D01*
X13821500Y-6049500D02*
X13717500Y-6153500D01*
X13769500Y-6049500D02*
X13769500Y-6153500D01*
X13717500Y-6101500D02*
X13821500Y-6101500D01*
X13717500Y-11891500D02*
X13821500Y-11995500D01*
X13821500Y-11891500D02*
X13717500Y-11995500D01*
X13769500Y-11891500D02*
X13769500Y-11995500D01*
X13717500Y-11943500D02*
X13821500Y-11943500D01*
X13717500Y-12145500D02*
X13821500Y-12249500D01*
X13821500Y-12145500D02*
X13717500Y-12249500D01*
X13769500Y-12145500D02*
X13769500Y-12249500D01*
X13717500Y-12197500D02*
X13821500Y-12197500D01*
X13971500Y-5795500D02*
X14075500Y-5899500D01*
X14075500Y-5795500D02*
X13971500Y-5899500D01*
X14023500Y-5795500D02*
X14023500Y-5899500D01*
X13971500Y-5847500D02*
X14075500Y-5847500D01*
X13971500Y-6049500D02*
X14075500Y-6153500D01*
X14075500Y-6049500D02*
X13971500Y-6153500D01*
X14023500Y-6049500D02*
X14023500Y-6153500D01*
X13971500Y-6101500D02*
X14075500Y-6101500D01*
X13971500Y-11891500D02*
X14075500Y-11995500D01*
X14075500Y-11891500D02*
X13971500Y-11995500D01*
X14023500Y-11891500D02*
X14023500Y-11995500D01*
X13971500Y-11943500D02*
X14075500Y-11943500D01*
X13971500Y-12145500D02*
X14075500Y-12249500D01*
X14075500Y-12145500D02*
X13971500Y-12249500D01*
X14023500Y-12145500D02*
X14023500Y-12249500D01*
X13971500Y-12197500D02*
X14075500Y-12197500D01*
X14225500Y-5795500D02*
X14329500Y-5899500D01*
X14329500Y-5795500D02*
X14225500Y-5899500D01*
X14277500Y-5795500D02*
X14277500Y-5899500D01*
X14225500Y-5847500D02*
X14329500Y-5847500D01*
X14225500Y-6049500D02*
X14329500Y-6153500D01*
X14329500Y-6049500D02*
X14225500Y-6153500D01*
X14277500Y-6049500D02*
X14277500Y-6153500D01*
X14225500Y-6101500D02*
X14329500Y-6101500D01*
X14225500Y-11891500D02*
X14329500Y-11995500D01*
X14329500Y-11891500D02*
X14225500Y-11995500D01*
X14277500Y-11891500D02*
X14277500Y-11995500D01*
X14225500Y-11943500D02*
X14329500Y-11943500D01*
X14225500Y-12145500D02*
X14329500Y-12249500D01*
X14329500Y-12145500D02*
X14225500Y-12249500D01*
X14277500Y-12145500D02*
X14277500Y-12249500D01*
X14225500Y-12197500D02*
X14329500Y-12197500D01*
X14479500Y-5795500D02*
X14583500Y-5899500D01*
X14583500Y-5795500D02*
X14479500Y-5899500D01*
X14531500Y-5795500D02*
X14531500Y-5899500D01*
X14479500Y-5847500D02*
X14583500Y-5847500D01*
X14479500Y-6049500D02*
X14583500Y-6153500D01*
X14583500Y-6049500D02*
X14479500Y-6153500D01*
X14531500Y-6049500D02*
X14531500Y-6153500D01*
X14479500Y-6101500D02*
X14583500Y-6101500D01*
X14479500Y-11891500D02*
X14583500Y-11995500D01*
X14583500Y-11891500D02*
X14479500Y-11995500D01*
X14531500Y-11891500D02*
X14531500Y-11995500D01*
X14479500Y-11943500D02*
X14583500Y-11943500D01*
X14479500Y-12145500D02*
X14583500Y-12249500D01*
X14583500Y-12145500D02*
X14479500Y-12249500D01*
X14531500Y-12145500D02*
X14531500Y-12249500D01*
X14479500Y-12197500D02*
X14583500Y-12197500D01*
X14733500Y-5795500D02*
X14837500Y-5899500D01*
X14837500Y-5795500D02*
X14733500Y-5899500D01*
X14785500Y-5795500D02*
X14785500Y-5899500D01*
X14733500Y-5847500D02*
X14837500Y-5847500D01*
X14733500Y-6049500D02*
X14837500Y-6153500D01*
X14837500Y-6049500D02*
X14733500Y-6153500D01*
X14785500Y-6049500D02*
X14785500Y-6153500D01*
X14733500Y-6101500D02*
X14837500Y-6101500D01*
X14733500Y-11891500D02*
X14837500Y-11995500D01*
X14837500Y-11891500D02*
X14733500Y-11995500D01*
X14785500Y-11891500D02*
X14785500Y-11995500D01*
X14733500Y-11943500D02*
X14837500Y-11943500D01*
X14733500Y-12145500D02*
X14837500Y-12249500D01*
X14837500Y-12145500D02*
X14733500Y-12249500D01*
X14785500Y-12145500D02*
X14785500Y-12249500D01*
X14733500Y-12197500D02*
X14837500Y-12197500D01*
X14987500Y-5795500D02*
X15091500Y-5899500D01*
X15091500Y-5795500D02*
X14987500Y-5899500D01*
X15039500Y-5795500D02*
X15039500Y-5899500D01*
X14987500Y-5847500D02*
X15091500Y-5847500D01*
X14987500Y-6049500D02*
X15091500Y-6153500D01*
X15091500Y-6049500D02*
X14987500Y-6153500D01*
X15039500Y-6049500D02*
X15039500Y-6153500D01*
X14987500Y-6101500D02*
X15091500Y-6101500D01*
X14987500Y-11891500D02*
X15091500Y-11995500D01*
X15091500Y-11891500D02*
X14987500Y-11995500D01*
X15039500Y-11891500D02*
X15039500Y-11995500D01*
X14987500Y-11943500D02*
X15091500Y-11943500D01*
X14987500Y-12145500D02*
X15091500Y-12249500D01*
X15091500Y-12145500D02*
X14987500Y-12249500D01*
X15039500Y-12145500D02*
X15039500Y-12249500D01*
X14987500Y-12197500D02*
X15091500Y-12197500D01*
X15241500Y-5795500D02*
X15345500Y-5899500D01*
X15345500Y-5795500D02*
X15241500Y-5899500D01*
X15293500Y-5795500D02*
X15293500Y-5899500D01*
X15241500Y-5847500D02*
X15345500Y-5847500D01*
X15241500Y-6049500D02*
X15345500Y-6153500D01*
X15345500Y-6049500D02*
X15241500Y-6153500D01*
X15293500Y-6049500D02*
X15293500Y-6153500D01*
X15241500Y-6101500D02*
X15345500Y-6101500D01*
X15241500Y-11891500D02*
X15345500Y-11995500D01*
X15345500Y-11891500D02*
X15241500Y-11995500D01*
X15293500Y-11891500D02*
X15293500Y-11995500D01*
X15241500Y-11943500D02*
X15345500Y-11943500D01*
X15241500Y-12145500D02*
X15345500Y-12249500D01*
X15345500Y-12145500D02*
X15241500Y-12249500D01*
X15293500Y-12145500D02*
X15293500Y-12249500D01*
X15241500Y-12197500D02*
X15345500Y-12197500D01*
X15495500Y-5795500D02*
X15599500Y-5899500D01*
X15599500Y-5795500D02*
X15495500Y-5899500D01*
X15547500Y-5795500D02*
X15547500Y-5899500D01*
X15495500Y-5847500D02*
X15599500Y-5847500D01*
X15495500Y-6049500D02*
X15599500Y-6153500D01*
X15599500Y-6049500D02*
X15495500Y-6153500D01*
X15547500Y-6049500D02*
X15547500Y-6153500D01*
X15495500Y-6101500D02*
X15599500Y-6101500D01*
X15495500Y-11891500D02*
X15599500Y-11995500D01*
X15599500Y-11891500D02*
X15495500Y-11995500D01*
X15547500Y-11891500D02*
X15547500Y-11995500D01*
X15495500Y-11943500D02*
X15599500Y-11943500D01*
X15495500Y-12145500D02*
X15599500Y-12249500D01*
X15599500Y-12145500D02*
X15495500Y-12249500D01*
X15547500Y-12145500D02*
X15547500Y-12249500D01*
X15495500Y-12197500D02*
X15599500Y-12197500D01*
X15749500Y-5795500D02*
X15853500Y-5899500D01*
X15853500Y-5795500D02*
X15749500Y-5899500D01*
X15801500Y-5795500D02*
X15801500Y-5899500D01*
X15749500Y-5847500D02*
X15853500Y-5847500D01*
X15749500Y-6049500D02*
X15853500Y-6153500D01*
X15853500Y-6049500D02*
X15749500Y-6153500D01*
X15801500Y-6049500D02*
X15801500Y-6153500D01*
X15749500Y-6101500D02*
X15853500Y-6101500D01*
X15749500Y-11891500D02*
X15853500Y-11995500D01*
X15853500Y-11891500D02*
X15749500Y-11995500D01*
X15801500Y-11891500D02*
X15801500Y-11995500D01*
X15749500Y-11943500D02*
X15853500Y-11943500D01*
X15749500Y-12145500D02*
X15853500Y-12249500D01*
X15853500Y-12145500D02*
X15749500Y-12249500D01*
X15801500Y-12145500D02*
X15801500Y-12249500D01*
X15749500Y-12197500D02*
X15853500Y-12197500D01*
X16003500Y-5795500D02*
X16107500Y-5899500D01*
X16107500Y-5795500D02*
X16003500Y-5899500D01*
X16055500Y-5795500D02*
X16055500Y-5899500D01*
X16003500Y-5847500D02*
X16107500Y-5847500D01*
X16003500Y-6049500D02*
X16107500Y-6153500D01*
X16107500Y-6049500D02*
X16003500Y-6153500D01*
X16055500Y-6049500D02*
X16055500Y-6153500D01*
X16003500Y-6101500D02*
X16107500Y-6101500D01*
X16003500Y-11891500D02*
X16107500Y-11995500D01*
X16107500Y-11891500D02*
X16003500Y-11995500D01*
X16055500Y-11891500D02*
X16055500Y-11995500D01*
X16003500Y-11943500D02*
X16107500Y-11943500D01*
X16003500Y-12145500D02*
X16107500Y-12249500D01*
X16107500Y-12145500D02*
X16003500Y-12249500D01*
X16055500Y-12145500D02*
X16055500Y-12249500D01*
X16003500Y-12197500D02*
X16107500Y-12197500D01*
X16257500Y-5795500D02*
X16361500Y-5899500D01*
X16361500Y-5795500D02*
X16257500Y-5899500D01*
X16309500Y-5795500D02*
X16309500Y-5899500D01*
X16257500Y-5847500D02*
X16361500Y-5847500D01*
X16257500Y-6049500D02*
X16361500Y-6153500D01*
X16361500Y-6049500D02*
X16257500Y-6153500D01*
X16309500Y-6049500D02*
X16309500Y-6153500D01*
X16257500Y-6101500D02*
X16361500Y-6101500D01*
X16257500Y-11891500D02*
X16361500Y-11995500D01*
X16361500Y-11891500D02*
X16257500Y-11995500D01*
X16309500Y-11891500D02*
X16309500Y-11995500D01*
X16257500Y-11943500D02*
X16361500Y-11943500D01*
X16257500Y-12145500D02*
X16361500Y-12249500D01*
X16361500Y-12145500D02*
X16257500Y-12249500D01*
X16309500Y-12145500D02*
X16309500Y-12249500D01*
X16257500Y-12197500D02*
X16361500Y-12197500D01*
X16511500Y-5795500D02*
X16615500Y-5899500D01*
X16615500Y-5795500D02*
X16511500Y-5899500D01*
X16563500Y-5795500D02*
X16563500Y-5899500D01*
X16511500Y-5847500D02*
X16615500Y-5847500D01*
X16511500Y-6049500D02*
X16615500Y-6153500D01*
X16615500Y-6049500D02*
X16511500Y-6153500D01*
X16563500Y-6049500D02*
X16563500Y-6153500D01*
X16511500Y-6101500D02*
X16615500Y-6101500D01*
X16511500Y-11891500D02*
X16615500Y-11995500D01*
X16615500Y-11891500D02*
X16511500Y-11995500D01*
X16563500Y-11891500D02*
X16563500Y-11995500D01*
X16511500Y-11943500D02*
X16615500Y-11943500D01*
X16511500Y-12145500D02*
X16615500Y-12249500D01*
X16615500Y-12145500D02*
X16511500Y-12249500D01*
X16563500Y-12145500D02*
X16563500Y-12249500D01*
X16511500Y-12197500D02*
X16615500Y-12197500D01*
X16765500Y-5795500D02*
X16869500Y-5899500D01*
X16869500Y-5795500D02*
X16765500Y-5899500D01*
X16817500Y-5795500D02*
X16817500Y-5899500D01*
X16765500Y-5847500D02*
X16869500Y-5847500D01*
X16765500Y-6049500D02*
X16869500Y-6153500D01*
X16869500Y-6049500D02*
X16765500Y-6153500D01*
X16817500Y-6049500D02*
X16817500Y-6153500D01*
X16765500Y-6101500D02*
X16869500Y-6101500D01*
X16765500Y-11891500D02*
X16869500Y-11995500D01*
X16869500Y-11891500D02*
X16765500Y-11995500D01*
X16817500Y-11891500D02*
X16817500Y-11995500D01*
X16765500Y-11943500D02*
X16869500Y-11943500D01*
X16765500Y-12145500D02*
X16869500Y-12249500D01*
X16869500Y-12145500D02*
X16765500Y-12249500D01*
X16817500Y-12145500D02*
X16817500Y-12249500D01*
X16765500Y-12197500D02*
X16869500Y-12197500D01*
D14*
X10431620Y-8536780D02*
X10538620Y-8643780D01*
X10538620Y-8536780D02*
X10431620Y-8643780D01*
X10522951Y-8628111D02*
X10522951Y-8552449D01*
X10447289Y-8552449D01*
X10447289Y-8628111D01*
X10522951Y-8628111D01*
X10431620Y-8790780D02*
X10538620Y-8897780D01*
X10538620Y-8790780D02*
X10431620Y-8897780D01*
X10522951Y-8882111D02*
X10522951Y-8806449D01*
X10447289Y-8806449D01*
X10447289Y-8882111D01*
X10522951Y-8882111D01*
X10431620Y-9044780D02*
X10538620Y-9151780D01*
X10538620Y-9044780D02*
X10431620Y-9151780D01*
X10522951Y-9136111D02*
X10522951Y-9060449D01*
X10447289Y-9060449D01*
X10447289Y-9136111D01*
X10522951Y-9136111D01*
X10431620Y-9298780D02*
X10538620Y-9405780D01*
X10538620Y-9298780D02*
X10431620Y-9405780D01*
X10522951Y-9390111D02*
X10522951Y-9314449D01*
X10447289Y-9314449D01*
X10447289Y-9390111D01*
X10522951Y-9390111D01*
X10431620Y-9552780D02*
X10538620Y-9659780D01*
X10538620Y-9552780D02*
X10431620Y-9659780D01*
X10522951Y-9644111D02*
X10522951Y-9568449D01*
X10447289Y-9568449D01*
X10447289Y-9644111D01*
X10522951Y-9644111D01*
X10431620Y-9806780D02*
X10538620Y-9913780D01*
X10538620Y-9806780D02*
X10431620Y-9913780D01*
X10522951Y-9898111D02*
X10522951Y-9822449D01*
X10447289Y-9822449D01*
X10447289Y-9898111D01*
X10522951Y-9898111D01*
D15*
X9490920Y-5243520D02*
X9610920Y-5363520D01*
X9610920Y-5243520D02*
X9490920Y-5363520D01*
X9550920Y-5363520D02*
X9610920Y-5303520D01*
X9550920Y-5243520D01*
X9490920Y-5303520D01*
X9550920Y-5363520D01*
X9840920Y-5243520D02*
X9960920Y-5363520D01*
X9960920Y-5243520D02*
X9840920Y-5363520D01*
X9900920Y-5363520D02*
X9960920Y-5303520D01*
X9900920Y-5243520D01*
X9840920Y-5303520D01*
X9900920Y-5363520D01*
X18085000Y-8272500D02*
X18205000Y-8392500D01*
X18205000Y-8272500D02*
X18085000Y-8392500D01*
X18145000Y-8392500D02*
X18205000Y-8332500D01*
X18145000Y-8272500D01*
X18085000Y-8332500D01*
X18145000Y-8392500D01*
X18085000Y-8622500D02*
X18205000Y-8742500D01*
X18205000Y-8622500D02*
X18085000Y-8742500D01*
X18145000Y-8742500D02*
X18205000Y-8682500D01*
X18145000Y-8622500D01*
X18085000Y-8682500D01*
X18145000Y-8742500D01*
X18095000Y-9762500D02*
X18215000Y-9882500D01*
X18215000Y-9762500D02*
X18095000Y-9882500D01*
X18155000Y-9882500D02*
X18215000Y-9822500D01*
X18155000Y-9762500D01*
X18095000Y-9822500D01*
X18155000Y-9882500D01*
X18095000Y-10112500D02*
X18215000Y-10232500D01*
X18215000Y-10112500D02*
X18095000Y-10232500D01*
X18155000Y-10232500D02*
X18215000Y-10172500D01*
X18155000Y-10112500D01*
X18095000Y-10172500D01*
X18155000Y-10232500D01*
X18120000Y-5262500D02*
X18240000Y-5382500D01*
X18240000Y-5262500D02*
X18120000Y-5382500D01*
X18180000Y-5382500D02*
X18240000Y-5322500D01*
X18180000Y-5262500D01*
X18120000Y-5322500D01*
X18180000Y-5382500D01*
X18177500Y-12540000D02*
X18297500Y-12660000D01*
X18297500Y-12540000D02*
X18177500Y-12660000D01*
X18237500Y-12660000D02*
X18297500Y-12600000D01*
X18237500Y-12540000D01*
X18177500Y-12600000D01*
X18237500Y-12660000D01*
X18470000Y-5262500D02*
X18590000Y-5382500D01*
X18590000Y-5262500D02*
X18470000Y-5382500D01*
X18530000Y-5382500D02*
X18590000Y-5322500D01*
X18530000Y-5262500D01*
X18470000Y-5322500D01*
X18530000Y-5382500D01*
X18527500Y-12540000D02*
X18647500Y-12660000D01*
X18647500Y-12540000D02*
X18527500Y-12660000D01*
X18587500Y-12660000D02*
X18647500Y-12600000D01*
X18587500Y-12540000D01*
X18527500Y-12600000D01*
X18587500Y-12660000D01*
D16*
X10460000Y-12385000D02*
X10460000Y-12535000D01*
X10385000Y-12460000D02*
X10535000Y-12460000D01*
X10535000Y-12460000D02*
G75*
G02*
X10385000Y-12460000I-75000J0D01*
G01*
X10385000Y-12460000D02*
G75*
G02*
X10535000Y-12460000I75000J0D01*
G01*
X10845000Y-6349000D02*
X10845000Y-6499000D01*
X10770000Y-6424000D02*
X10920000Y-6424000D01*
X10920000Y-6424000D02*
G75*
G02*
X10770000Y-6424000I-75000J0D01*
G01*
X10770000Y-6424000D02*
G75*
G02*
X10920000Y-6424000I75000J0D01*
G01*
D17*
X10643289Y-5096289D02*
X10643289Y-4983151D01*
X10530151Y-4983151D01*
X10530151Y-5096289D01*
X10643289Y-5096289D01*
X10666720Y-5039720D02*
G75*
G02*
X10506720Y-5039720I-80000J0D01*
G01*
X10506720Y-5039720D02*
G75*
G02*
X10666720Y-5039720I80000J0D01*
G01*
X10643289Y-5436289D02*
X10643289Y-5323151D01*
X10530151Y-5323151D01*
X10530151Y-5436289D01*
X10643289Y-5436289D01*
X10666720Y-5379720D02*
G75*
G02*
X10506720Y-5379720I-80000J0D01*
G01*
X10506720Y-5379720D02*
G75*
G02*
X10666720Y-5379720I80000J0D01*
G01*
X11635289Y-5096289D02*
X11635289Y-4983151D01*
X11522151Y-4983151D01*
X11522151Y-5096289D01*
X11635289Y-5096289D01*
X11658720Y-5039720D02*
G75*
G02*
X11498720Y-5039720I-80000J0D01*
G01*
X11498720Y-5039720D02*
G75*
G02*
X11658720Y-5039720I80000J0D01*
G01*
X11635289Y-5436289D02*
X11635289Y-5323151D01*
X11522151Y-5323151D01*
X11522151Y-5436289D01*
X11635289Y-5436289D01*
X11658720Y-5379720D02*
G75*
G02*
X11498720Y-5379720I-80000J0D01*
G01*
X11498720Y-5379720D02*
G75*
G02*
X11658720Y-5379720I80000J0D01*
G01*
D11*
X9310777Y-13808984D02*
X9310777Y-13608984D01*
X9310777Y-13608984D02*
X9358396Y-13608984D01*
X9358396Y-13608984D02*
X9386967Y-13618508D01*
X9386967Y-13618508D02*
X9406015Y-13637555D01*
X9406015Y-13637555D02*
X9415539Y-13656603D01*
X9415539Y-13656603D02*
X9425063Y-13694698D01*
X9425063Y-13694698D02*
X9425063Y-13723269D01*
X9425063Y-13723269D02*
X9415539Y-13761365D01*
X9415539Y-13761365D02*
X9406015Y-13780412D01*
X9406015Y-13780412D02*
X9386967Y-13799460D01*
X9386967Y-13799460D02*
X9358396Y-13808984D01*
X9358396Y-13808984D02*
X9310777Y-13808984D01*
X9510777Y-13808984D02*
X9510777Y-13675650D01*
X9510777Y-13713746D02*
X9520301Y-13694698D01*
X9520301Y-13694698D02*
X9529824Y-13685174D01*
X9529824Y-13685174D02*
X9548872Y-13675650D01*
X9548872Y-13675650D02*
X9567920Y-13675650D01*
X9634586Y-13808984D02*
X9634586Y-13675650D01*
X9634586Y-13608984D02*
X9625063Y-13618508D01*
X9625063Y-13618508D02*
X9634586Y-13628031D01*
X9634586Y-13628031D02*
X9644110Y-13618508D01*
X9644110Y-13618508D02*
X9634586Y-13608984D01*
X9634586Y-13608984D02*
X9634586Y-13628031D01*
X9758396Y-13808984D02*
X9739348Y-13799460D01*
X9739348Y-13799460D02*
X9729824Y-13780412D01*
X9729824Y-13780412D02*
X9729824Y-13608984D01*
X9863158Y-13808984D02*
X9844110Y-13799460D01*
X9844110Y-13799460D02*
X9834586Y-13780412D01*
X9834586Y-13780412D02*
X9834586Y-13608984D01*
X10091729Y-13808984D02*
X10091729Y-13608984D01*
X10091729Y-13608984D02*
X10158396Y-13751841D01*
X10158396Y-13751841D02*
X10225063Y-13608984D01*
X10225063Y-13608984D02*
X10225063Y-13808984D01*
X10406015Y-13808984D02*
X10406015Y-13704222D01*
X10406015Y-13704222D02*
X10396491Y-13685174D01*
X10396491Y-13685174D02*
X10377444Y-13675650D01*
X10377444Y-13675650D02*
X10339348Y-13675650D01*
X10339348Y-13675650D02*
X10320301Y-13685174D01*
X10406015Y-13799460D02*
X10386967Y-13808984D01*
X10386967Y-13808984D02*
X10339348Y-13808984D01*
X10339348Y-13808984D02*
X10320301Y-13799460D01*
X10320301Y-13799460D02*
X10310777Y-13780412D01*
X10310777Y-13780412D02*
X10310777Y-13761365D01*
X10310777Y-13761365D02*
X10320301Y-13742317D01*
X10320301Y-13742317D02*
X10339348Y-13732793D01*
X10339348Y-13732793D02*
X10386967Y-13732793D01*
X10386967Y-13732793D02*
X10406015Y-13723269D01*
X10501253Y-13675650D02*
X10501253Y-13875650D01*
X10501253Y-13685174D02*
X10520301Y-13675650D01*
X10520301Y-13675650D02*
X10558396Y-13675650D01*
X10558396Y-13675650D02*
X10577444Y-13685174D01*
X10577444Y-13685174D02*
X10586967Y-13694698D01*
X10586967Y-13694698D02*
X10596491Y-13713746D01*
X10596491Y-13713746D02*
X10596491Y-13770888D01*
X10596491Y-13770888D02*
X10586967Y-13789936D01*
X10586967Y-13789936D02*
X10577444Y-13799460D01*
X10577444Y-13799460D02*
X10558396Y-13808984D01*
X10558396Y-13808984D02*
X10520301Y-13808984D01*
X10520301Y-13808984D02*
X10501253Y-13799460D01*
X10682205Y-13789936D02*
X10691729Y-13799460D01*
X10691729Y-13799460D02*
X10682205Y-13808984D01*
X10682205Y-13808984D02*
X10672682Y-13799460D01*
X10672682Y-13799460D02*
X10682205Y-13789936D01*
X10682205Y-13789936D02*
X10682205Y-13808984D01*
X10682205Y-13685174D02*
X10691729Y-13694698D01*
X10691729Y-13694698D02*
X10682205Y-13704222D01*
X10682205Y-13704222D02*
X10672682Y-13694698D01*
X10672682Y-13694698D02*
X10682205Y-13685174D01*
X10682205Y-13685174D02*
X10682205Y-13704222D01*
D12*
X9020000Y-14122500D02*
X9050000Y-14152500D01*
X9050000Y-14122500D02*
X9020000Y-14152500D01*
D11*
X9348872Y-14028984D02*
X9367920Y-14028984D01*
X9367920Y-14028984D02*
X9386967Y-14038508D01*
X9386967Y-14038508D02*
X9396491Y-14048031D01*
X9396491Y-14048031D02*
X9406015Y-14067079D01*
X9406015Y-14067079D02*
X9415539Y-14105174D01*
X9415539Y-14105174D02*
X9415539Y-14152793D01*
X9415539Y-14152793D02*
X9406015Y-14190888D01*
X9406015Y-14190888D02*
X9396491Y-14209936D01*
X9396491Y-14209936D02*
X9386967Y-14219460D01*
X9386967Y-14219460D02*
X9367920Y-14228984D01*
X9367920Y-14228984D02*
X9348872Y-14228984D01*
X9348872Y-14228984D02*
X9329824Y-14219460D01*
X9329824Y-14219460D02*
X9320301Y-14209936D01*
X9320301Y-14209936D02*
X9310777Y-14190888D01*
X9310777Y-14190888D02*
X9301253Y-14152793D01*
X9301253Y-14152793D02*
X9301253Y-14105174D01*
X9301253Y-14105174D02*
X9310777Y-14067079D01*
X9310777Y-14067079D02*
X9320301Y-14048031D01*
X9320301Y-14048031D02*
X9329824Y-14038508D01*
X9329824Y-14038508D02*
X9348872Y-14028984D01*
X9501253Y-14209936D02*
X9510777Y-14219460D01*
X9510777Y-14219460D02*
X9501253Y-14228984D01*
X9501253Y-14228984D02*
X9491729Y-14219460D01*
X9491729Y-14219460D02*
X9501253Y-14209936D01*
X9501253Y-14209936D02*
X9501253Y-14228984D01*
X9577444Y-14028984D02*
X9701253Y-14028984D01*
X9701253Y-14028984D02*
X9634586Y-14105174D01*
X9634586Y-14105174D02*
X9663158Y-14105174D01*
X9663158Y-14105174D02*
X9682205Y-14114698D01*
X9682205Y-14114698D02*
X9691729Y-14124222D01*
X9691729Y-14124222D02*
X9701253Y-14143269D01*
X9701253Y-14143269D02*
X9701253Y-14190888D01*
X9701253Y-14190888D02*
X9691729Y-14209936D01*
X9691729Y-14209936D02*
X9682205Y-14219460D01*
X9682205Y-14219460D02*
X9663158Y-14228984D01*
X9663158Y-14228984D02*
X9606015Y-14228984D01*
X9606015Y-14228984D02*
X9586967Y-14219460D01*
X9586967Y-14219460D02*
X9577444Y-14209936D01*
X9825063Y-14028984D02*
X9844110Y-14028984D01*
X9844110Y-14028984D02*
X9863158Y-14038508D01*
X9863158Y-14038508D02*
X9872682Y-14048031D01*
X9872682Y-14048031D02*
X9882205Y-14067079D01*
X9882205Y-14067079D02*
X9891729Y-14105174D01*
X9891729Y-14105174D02*
X9891729Y-14152793D01*
X9891729Y-14152793D02*
X9882205Y-14190888D01*
X9882205Y-14190888D02*
X9872682Y-14209936D01*
X9872682Y-14209936D02*
X9863158Y-14219460D01*
X9863158Y-14219460D02*
X9844110Y-14228984D01*
X9844110Y-14228984D02*
X9825063Y-14228984D01*
X9825063Y-14228984D02*
X9806015Y-14219460D01*
X9806015Y-14219460D02*
X9796491Y-14209936D01*
X9796491Y-14209936D02*
X9786967Y-14190888D01*
X9786967Y-14190888D02*
X9777444Y-14152793D01*
X9777444Y-14152793D02*
X9777444Y-14105174D01*
X9777444Y-14105174D02*
X9786967Y-14067079D01*
X9786967Y-14067079D02*
X9796491Y-14048031D01*
X9796491Y-14048031D02*
X9806015Y-14038508D01*
X9806015Y-14038508D02*
X9825063Y-14028984D01*
X10015539Y-14028984D02*
X10034586Y-14028984D01*
X10034586Y-14028984D02*
X10053634Y-14038508D01*
X10053634Y-14038508D02*
X10063158Y-14048031D01*
X10063158Y-14048031D02*
X10072682Y-14067079D01*
X10072682Y-14067079D02*
X10082205Y-14105174D01*
X10082205Y-14105174D02*
X10082205Y-14152793D01*
X10082205Y-14152793D02*
X10072682Y-14190888D01*
X10072682Y-14190888D02*
X10063158Y-14209936D01*
X10063158Y-14209936D02*
X10053634Y-14219460D01*
X10053634Y-14219460D02*
X10034586Y-14228984D01*
X10034586Y-14228984D02*
X10015539Y-14228984D01*
X10015539Y-14228984D02*
X9996491Y-14219460D01*
X9996491Y-14219460D02*
X9986967Y-14209936D01*
X9986967Y-14209936D02*
X9977444Y-14190888D01*
X9977444Y-14190888D02*
X9967920Y-14152793D01*
X9967920Y-14152793D02*
X9967920Y-14105174D01*
X9967920Y-14105174D02*
X9977444Y-14067079D01*
X9977444Y-14067079D02*
X9986967Y-14048031D01*
X9986967Y-14048031D02*
X9996491Y-14038508D01*
X9996491Y-14038508D02*
X10015539Y-14028984D01*
X10167920Y-14228984D02*
X10167920Y-14095650D01*
X10167920Y-14114698D02*
X10177444Y-14105174D01*
X10177444Y-14105174D02*
X10196491Y-14095650D01*
X10196491Y-14095650D02*
X10225063Y-14095650D01*
X10225063Y-14095650D02*
X10244110Y-14105174D01*
X10244110Y-14105174D02*
X10253634Y-14124222D01*
X10253634Y-14124222D02*
X10253634Y-14228984D01*
X10253634Y-14124222D02*
X10263158Y-14105174D01*
X10263158Y-14105174D02*
X10282205Y-14095650D01*
X10282205Y-14095650D02*
X10310777Y-14095650D01*
X10310777Y-14095650D02*
X10329825Y-14105174D01*
X10329825Y-14105174D02*
X10339348Y-14124222D01*
X10339348Y-14124222D02*
X10339348Y-14228984D01*
X10434586Y-14228984D02*
X10434586Y-14095650D01*
X10434586Y-14114698D02*
X10444110Y-14105174D01*
X10444110Y-14105174D02*
X10463158Y-14095650D01*
X10463158Y-14095650D02*
X10491729Y-14095650D01*
X10491729Y-14095650D02*
X10510777Y-14105174D01*
X10510777Y-14105174D02*
X10520301Y-14124222D01*
X10520301Y-14124222D02*
X10520301Y-14228984D01*
X10520301Y-14124222D02*
X10529825Y-14105174D01*
X10529825Y-14105174D02*
X10548872Y-14095650D01*
X10548872Y-14095650D02*
X10577444Y-14095650D01*
X10577444Y-14095650D02*
X10596491Y-14105174D01*
X10596491Y-14105174D02*
X10606015Y-14124222D01*
X10606015Y-14124222D02*
X10606015Y-14228984D01*
X10996491Y-14019460D02*
X10825063Y-14276603D01*
X11253634Y-14028984D02*
X11272682Y-14028984D01*
X11272682Y-14028984D02*
X11291729Y-14038508D01*
X11291729Y-14038508D02*
X11301253Y-14048031D01*
X11301253Y-14048031D02*
X11310777Y-14067079D01*
X11310777Y-14067079D02*
X11320301Y-14105174D01*
X11320301Y-14105174D02*
X11320301Y-14152793D01*
X11320301Y-14152793D02*
X11310777Y-14190888D01*
X11310777Y-14190888D02*
X11301253Y-14209936D01*
X11301253Y-14209936D02*
X11291729Y-14219460D01*
X11291729Y-14219460D02*
X11272682Y-14228984D01*
X11272682Y-14228984D02*
X11253634Y-14228984D01*
X11253634Y-14228984D02*
X11234586Y-14219460D01*
X11234586Y-14219460D02*
X11225063Y-14209936D01*
X11225063Y-14209936D02*
X11215539Y-14190888D01*
X11215539Y-14190888D02*
X11206015Y-14152793D01*
X11206015Y-14152793D02*
X11206015Y-14105174D01*
X11206015Y-14105174D02*
X11215539Y-14067079D01*
X11215539Y-14067079D02*
X11225063Y-14048031D01*
X11225063Y-14048031D02*
X11234586Y-14038508D01*
X11234586Y-14038508D02*
X11253634Y-14028984D01*
X11406015Y-14209936D02*
X11415539Y-14219460D01*
X11415539Y-14219460D02*
X11406015Y-14228984D01*
X11406015Y-14228984D02*
X11396491Y-14219460D01*
X11396491Y-14219460D02*
X11406015Y-14209936D01*
X11406015Y-14209936D02*
X11406015Y-14228984D01*
X11539348Y-14028984D02*
X11558396Y-14028984D01*
X11558396Y-14028984D02*
X11577444Y-14038508D01*
X11577444Y-14038508D02*
X11586967Y-14048031D01*
X11586967Y-14048031D02*
X11596491Y-14067079D01*
X11596491Y-14067079D02*
X11606015Y-14105174D01*
X11606015Y-14105174D02*
X11606015Y-14152793D01*
X11606015Y-14152793D02*
X11596491Y-14190888D01*
X11596491Y-14190888D02*
X11586967Y-14209936D01*
X11586967Y-14209936D02*
X11577444Y-14219460D01*
X11577444Y-14219460D02*
X11558396Y-14228984D01*
X11558396Y-14228984D02*
X11539348Y-14228984D01*
X11539348Y-14228984D02*
X11520301Y-14219460D01*
X11520301Y-14219460D02*
X11510777Y-14209936D01*
X11510777Y-14209936D02*
X11501253Y-14190888D01*
X11501253Y-14190888D02*
X11491729Y-14152793D01*
X11491729Y-14152793D02*
X11491729Y-14105174D01*
X11491729Y-14105174D02*
X11501253Y-14067079D01*
X11501253Y-14067079D02*
X11510777Y-14048031D01*
X11510777Y-14048031D02*
X11520301Y-14038508D01*
X11520301Y-14038508D02*
X11539348Y-14028984D01*
X11796491Y-14228984D02*
X11682206Y-14228984D01*
X11739348Y-14228984D02*
X11739348Y-14028984D01*
X11739348Y-14028984D02*
X11720301Y-14057555D01*
X11720301Y-14057555D02*
X11701253Y-14076603D01*
X11701253Y-14076603D02*
X11682206Y-14086127D01*
X11986967Y-14228984D02*
X11872682Y-14228984D01*
X11929825Y-14228984D02*
X11929825Y-14028984D01*
X11929825Y-14028984D02*
X11910777Y-14057555D01*
X11910777Y-14057555D02*
X11891729Y-14076603D01*
X11891729Y-14076603D02*
X11872682Y-14086127D01*
X12101253Y-14114698D02*
X12082206Y-14105174D01*
X12082206Y-14105174D02*
X12072682Y-14095650D01*
X12072682Y-14095650D02*
X12063158Y-14076603D01*
X12063158Y-14076603D02*
X12063158Y-14067079D01*
X12063158Y-14067079D02*
X12072682Y-14048031D01*
X12072682Y-14048031D02*
X12082206Y-14038508D01*
X12082206Y-14038508D02*
X12101253Y-14028984D01*
X12101253Y-14028984D02*
X12139348Y-14028984D01*
X12139348Y-14028984D02*
X12158396Y-14038508D01*
X12158396Y-14038508D02*
X12167920Y-14048031D01*
X12167920Y-14048031D02*
X12177444Y-14067079D01*
X12177444Y-14067079D02*
X12177444Y-14076603D01*
X12177444Y-14076603D02*
X12167920Y-14095650D01*
X12167920Y-14095650D02*
X12158396Y-14105174D01*
X12158396Y-14105174D02*
X12139348Y-14114698D01*
X12139348Y-14114698D02*
X12101253Y-14114698D01*
X12101253Y-14114698D02*
X12082206Y-14124222D01*
X12082206Y-14124222D02*
X12072682Y-14133746D01*
X12072682Y-14133746D02*
X12063158Y-14152793D01*
X12063158Y-14152793D02*
X12063158Y-14190888D01*
X12063158Y-14190888D02*
X12072682Y-14209936D01*
X12072682Y-14209936D02*
X12082206Y-14219460D01*
X12082206Y-14219460D02*
X12101253Y-14228984D01*
X12101253Y-14228984D02*
X12139348Y-14228984D01*
X12139348Y-14228984D02*
X12158396Y-14219460D01*
X12158396Y-14219460D02*
X12167920Y-14209936D01*
X12167920Y-14209936D02*
X12177444Y-14190888D01*
X12177444Y-14190888D02*
X12177444Y-14152793D01*
X12177444Y-14152793D02*
X12167920Y-14133746D01*
X12167920Y-14133746D02*
X12158396Y-14124222D01*
X12158396Y-14124222D02*
X12139348Y-14114698D01*
X12253634Y-14028984D02*
X12253634Y-14067079D01*
X12329825Y-14028984D02*
X12329825Y-14067079D01*
X12625063Y-14305174D02*
X12615539Y-14295650D01*
X12615539Y-14295650D02*
X12596491Y-14267079D01*
X12596491Y-14267079D02*
X12586968Y-14248031D01*
X12586968Y-14248031D02*
X12577444Y-14219460D01*
X12577444Y-14219460D02*
X12567920Y-14171841D01*
X12567920Y-14171841D02*
X12567920Y-14133746D01*
X12567920Y-14133746D02*
X12577444Y-14086127D01*
X12577444Y-14086127D02*
X12586968Y-14057555D01*
X12586968Y-14057555D02*
X12596491Y-14038508D01*
X12596491Y-14038508D02*
X12615539Y-14009936D01*
X12615539Y-14009936D02*
X12625063Y-14000412D01*
X12710777Y-14228984D02*
X12748872Y-14228984D01*
X12748872Y-14228984D02*
X12767920Y-14219460D01*
X12767920Y-14219460D02*
X12777444Y-14209936D01*
X12777444Y-14209936D02*
X12796491Y-14181365D01*
X12796491Y-14181365D02*
X12806015Y-14143269D01*
X12806015Y-14143269D02*
X12806015Y-14067079D01*
X12806015Y-14067079D02*
X12796491Y-14048031D01*
X12796491Y-14048031D02*
X12786968Y-14038508D01*
X12786968Y-14038508D02*
X12767920Y-14028984D01*
X12767920Y-14028984D02*
X12729825Y-14028984D01*
X12729825Y-14028984D02*
X12710777Y-14038508D01*
X12710777Y-14038508D02*
X12701253Y-14048031D01*
X12701253Y-14048031D02*
X12691729Y-14067079D01*
X12691729Y-14067079D02*
X12691729Y-14114698D01*
X12691729Y-14114698D02*
X12701253Y-14133746D01*
X12701253Y-14133746D02*
X12710777Y-14143269D01*
X12710777Y-14143269D02*
X12729825Y-14152793D01*
X12729825Y-14152793D02*
X12767920Y-14152793D01*
X12767920Y-14152793D02*
X12786968Y-14143269D01*
X12786968Y-14143269D02*
X12796491Y-14133746D01*
X12796491Y-14133746D02*
X12806015Y-14114698D01*
X13044110Y-14228984D02*
X13044110Y-14028984D01*
X13129825Y-14228984D02*
X13129825Y-14124222D01*
X13129825Y-14124222D02*
X13120301Y-14105174D01*
X13120301Y-14105174D02*
X13101253Y-14095650D01*
X13101253Y-14095650D02*
X13072682Y-14095650D01*
X13072682Y-14095650D02*
X13053634Y-14105174D01*
X13053634Y-14105174D02*
X13044110Y-14114698D01*
X13253634Y-14228984D02*
X13234587Y-14219460D01*
X13234587Y-14219460D02*
X13225063Y-14209936D01*
X13225063Y-14209936D02*
X13215539Y-14190888D01*
X13215539Y-14190888D02*
X13215539Y-14133746D01*
X13215539Y-14133746D02*
X13225063Y-14114698D01*
X13225063Y-14114698D02*
X13234587Y-14105174D01*
X13234587Y-14105174D02*
X13253634Y-14095650D01*
X13253634Y-14095650D02*
X13282206Y-14095650D01*
X13282206Y-14095650D02*
X13301253Y-14105174D01*
X13301253Y-14105174D02*
X13310777Y-14114698D01*
X13310777Y-14114698D02*
X13320301Y-14133746D01*
X13320301Y-14133746D02*
X13320301Y-14190888D01*
X13320301Y-14190888D02*
X13310777Y-14209936D01*
X13310777Y-14209936D02*
X13301253Y-14219460D01*
X13301253Y-14219460D02*
X13282206Y-14228984D01*
X13282206Y-14228984D02*
X13253634Y-14228984D01*
X13434587Y-14228984D02*
X13415539Y-14219460D01*
X13415539Y-14219460D02*
X13406015Y-14200412D01*
X13406015Y-14200412D02*
X13406015Y-14028984D01*
X13586968Y-14219460D02*
X13567920Y-14228984D01*
X13567920Y-14228984D02*
X13529825Y-14228984D01*
X13529825Y-14228984D02*
X13510777Y-14219460D01*
X13510777Y-14219460D02*
X13501253Y-14200412D01*
X13501253Y-14200412D02*
X13501253Y-14124222D01*
X13501253Y-14124222D02*
X13510777Y-14105174D01*
X13510777Y-14105174D02*
X13529825Y-14095650D01*
X13529825Y-14095650D02*
X13567920Y-14095650D01*
X13567920Y-14095650D02*
X13586968Y-14105174D01*
X13586968Y-14105174D02*
X13596491Y-14124222D01*
X13596491Y-14124222D02*
X13596491Y-14143269D01*
X13596491Y-14143269D02*
X13501253Y-14162317D01*
X13672682Y-14219460D02*
X13691730Y-14228984D01*
X13691730Y-14228984D02*
X13729825Y-14228984D01*
X13729825Y-14228984D02*
X13748872Y-14219460D01*
X13748872Y-14219460D02*
X13758396Y-14200412D01*
X13758396Y-14200412D02*
X13758396Y-14190888D01*
X13758396Y-14190888D02*
X13748872Y-14171841D01*
X13748872Y-14171841D02*
X13729825Y-14162317D01*
X13729825Y-14162317D02*
X13701253Y-14162317D01*
X13701253Y-14162317D02*
X13682206Y-14152793D01*
X13682206Y-14152793D02*
X13672682Y-14133746D01*
X13672682Y-14133746D02*
X13672682Y-14124222D01*
X13672682Y-14124222D02*
X13682206Y-14105174D01*
X13682206Y-14105174D02*
X13701253Y-14095650D01*
X13701253Y-14095650D02*
X13729825Y-14095650D01*
X13729825Y-14095650D02*
X13748872Y-14105174D01*
X13825063Y-14305174D02*
X13834587Y-14295650D01*
X13834587Y-14295650D02*
X13853634Y-14267079D01*
X13853634Y-14267079D02*
X13863158Y-14248031D01*
X13863158Y-14248031D02*
X13872682Y-14219460D01*
X13872682Y-14219460D02*
X13882206Y-14171841D01*
X13882206Y-14171841D02*
X13882206Y-14133746D01*
X13882206Y-14133746D02*
X13872682Y-14086127D01*
X13872682Y-14086127D02*
X13863158Y-14057555D01*
X13863158Y-14057555D02*
X13853634Y-14038508D01*
X13853634Y-14038508D02*
X13834587Y-14009936D01*
X13834587Y-14009936D02*
X13825063Y-14000412D01*
D12*
X9050000Y-14401500D02*
G75*
G02*
X8980000Y-14401500I-35000J0D01*
G01*
X8980000Y-14401500D02*
G75*
G02*
X9050000Y-14401500I35000J0D01*
G01*
D11*
X9348872Y-14292984D02*
X9367920Y-14292984D01*
X9367920Y-14292984D02*
X9386967Y-14302508D01*
X9386967Y-14302508D02*
X9396491Y-14312031D01*
X9396491Y-14312031D02*
X9406015Y-14331079D01*
X9406015Y-14331079D02*
X9415539Y-14369174D01*
X9415539Y-14369174D02*
X9415539Y-14416793D01*
X9415539Y-14416793D02*
X9406015Y-14454888D01*
X9406015Y-14454888D02*
X9396491Y-14473936D01*
X9396491Y-14473936D02*
X9386967Y-14483460D01*
X9386967Y-14483460D02*
X9367920Y-14492984D01*
X9367920Y-14492984D02*
X9348872Y-14492984D01*
X9348872Y-14492984D02*
X9329824Y-14483460D01*
X9329824Y-14483460D02*
X9320301Y-14473936D01*
X9320301Y-14473936D02*
X9310777Y-14454888D01*
X9310777Y-14454888D02*
X9301253Y-14416793D01*
X9301253Y-14416793D02*
X9301253Y-14369174D01*
X9301253Y-14369174D02*
X9310777Y-14331079D01*
X9310777Y-14331079D02*
X9320301Y-14312031D01*
X9320301Y-14312031D02*
X9329824Y-14302508D01*
X9329824Y-14302508D02*
X9348872Y-14292984D01*
X9501253Y-14473936D02*
X9510777Y-14483460D01*
X9510777Y-14483460D02*
X9501253Y-14492984D01*
X9501253Y-14492984D02*
X9491729Y-14483460D01*
X9491729Y-14483460D02*
X9501253Y-14473936D01*
X9501253Y-14473936D02*
X9501253Y-14492984D01*
X9577444Y-14292984D02*
X9710777Y-14292984D01*
X9710777Y-14292984D02*
X9625063Y-14492984D01*
X9825063Y-14292984D02*
X9844110Y-14292984D01*
X9844110Y-14292984D02*
X9863158Y-14302508D01*
X9863158Y-14302508D02*
X9872682Y-14312031D01*
X9872682Y-14312031D02*
X9882205Y-14331079D01*
X9882205Y-14331079D02*
X9891729Y-14369174D01*
X9891729Y-14369174D02*
X9891729Y-14416793D01*
X9891729Y-14416793D02*
X9882205Y-14454888D01*
X9882205Y-14454888D02*
X9872682Y-14473936D01*
X9872682Y-14473936D02*
X9863158Y-14483460D01*
X9863158Y-14483460D02*
X9844110Y-14492984D01*
X9844110Y-14492984D02*
X9825063Y-14492984D01*
X9825063Y-14492984D02*
X9806015Y-14483460D01*
X9806015Y-14483460D02*
X9796491Y-14473936D01*
X9796491Y-14473936D02*
X9786967Y-14454888D01*
X9786967Y-14454888D02*
X9777444Y-14416793D01*
X9777444Y-14416793D02*
X9777444Y-14369174D01*
X9777444Y-14369174D02*
X9786967Y-14331079D01*
X9786967Y-14331079D02*
X9796491Y-14312031D01*
X9796491Y-14312031D02*
X9806015Y-14302508D01*
X9806015Y-14302508D02*
X9825063Y-14292984D01*
X10015539Y-14292984D02*
X10034586Y-14292984D01*
X10034586Y-14292984D02*
X10053634Y-14302508D01*
X10053634Y-14302508D02*
X10063158Y-14312031D01*
X10063158Y-14312031D02*
X10072682Y-14331079D01*
X10072682Y-14331079D02*
X10082205Y-14369174D01*
X10082205Y-14369174D02*
X10082205Y-14416793D01*
X10082205Y-14416793D02*
X10072682Y-14454888D01*
X10072682Y-14454888D02*
X10063158Y-14473936D01*
X10063158Y-14473936D02*
X10053634Y-14483460D01*
X10053634Y-14483460D02*
X10034586Y-14492984D01*
X10034586Y-14492984D02*
X10015539Y-14492984D01*
X10015539Y-14492984D02*
X9996491Y-14483460D01*
X9996491Y-14483460D02*
X9986967Y-14473936D01*
X9986967Y-14473936D02*
X9977444Y-14454888D01*
X9977444Y-14454888D02*
X9967920Y-14416793D01*
X9967920Y-14416793D02*
X9967920Y-14369174D01*
X9967920Y-14369174D02*
X9977444Y-14331079D01*
X9977444Y-14331079D02*
X9986967Y-14312031D01*
X9986967Y-14312031D02*
X9996491Y-14302508D01*
X9996491Y-14302508D02*
X10015539Y-14292984D01*
X10167920Y-14492984D02*
X10167920Y-14359650D01*
X10167920Y-14378698D02*
X10177444Y-14369174D01*
X10177444Y-14369174D02*
X10196491Y-14359650D01*
X10196491Y-14359650D02*
X10225063Y-14359650D01*
X10225063Y-14359650D02*
X10244110Y-14369174D01*
X10244110Y-14369174D02*
X10253634Y-14388222D01*
X10253634Y-14388222D02*
X10253634Y-14492984D01*
X10253634Y-14388222D02*
X10263158Y-14369174D01*
X10263158Y-14369174D02*
X10282205Y-14359650D01*
X10282205Y-14359650D02*
X10310777Y-14359650D01*
X10310777Y-14359650D02*
X10329825Y-14369174D01*
X10329825Y-14369174D02*
X10339348Y-14388222D01*
X10339348Y-14388222D02*
X10339348Y-14492984D01*
X10434586Y-14492984D02*
X10434586Y-14359650D01*
X10434586Y-14378698D02*
X10444110Y-14369174D01*
X10444110Y-14369174D02*
X10463158Y-14359650D01*
X10463158Y-14359650D02*
X10491729Y-14359650D01*
X10491729Y-14359650D02*
X10510777Y-14369174D01*
X10510777Y-14369174D02*
X10520301Y-14388222D01*
X10520301Y-14388222D02*
X10520301Y-14492984D01*
X10520301Y-14388222D02*
X10529825Y-14369174D01*
X10529825Y-14369174D02*
X10548872Y-14359650D01*
X10548872Y-14359650D02*
X10577444Y-14359650D01*
X10577444Y-14359650D02*
X10596491Y-14369174D01*
X10596491Y-14369174D02*
X10606015Y-14388222D01*
X10606015Y-14388222D02*
X10606015Y-14492984D01*
X10996491Y-14283460D02*
X10825063Y-14540603D01*
X11253634Y-14292984D02*
X11272682Y-14292984D01*
X11272682Y-14292984D02*
X11291729Y-14302508D01*
X11291729Y-14302508D02*
X11301253Y-14312031D01*
X11301253Y-14312031D02*
X11310777Y-14331079D01*
X11310777Y-14331079D02*
X11320301Y-14369174D01*
X11320301Y-14369174D02*
X11320301Y-14416793D01*
X11320301Y-14416793D02*
X11310777Y-14454888D01*
X11310777Y-14454888D02*
X11301253Y-14473936D01*
X11301253Y-14473936D02*
X11291729Y-14483460D01*
X11291729Y-14483460D02*
X11272682Y-14492984D01*
X11272682Y-14492984D02*
X11253634Y-14492984D01*
X11253634Y-14492984D02*
X11234586Y-14483460D01*
X11234586Y-14483460D02*
X11225063Y-14473936D01*
X11225063Y-14473936D02*
X11215539Y-14454888D01*
X11215539Y-14454888D02*
X11206015Y-14416793D01*
X11206015Y-14416793D02*
X11206015Y-14369174D01*
X11206015Y-14369174D02*
X11215539Y-14331079D01*
X11215539Y-14331079D02*
X11225063Y-14312031D01*
X11225063Y-14312031D02*
X11234586Y-14302508D01*
X11234586Y-14302508D02*
X11253634Y-14292984D01*
X11406015Y-14473936D02*
X11415539Y-14483460D01*
X11415539Y-14483460D02*
X11406015Y-14492984D01*
X11406015Y-14492984D02*
X11396491Y-14483460D01*
X11396491Y-14483460D02*
X11406015Y-14473936D01*
X11406015Y-14473936D02*
X11406015Y-14492984D01*
X11539348Y-14292984D02*
X11558396Y-14292984D01*
X11558396Y-14292984D02*
X11577444Y-14302508D01*
X11577444Y-14302508D02*
X11586967Y-14312031D01*
X11586967Y-14312031D02*
X11596491Y-14331079D01*
X11596491Y-14331079D02*
X11606015Y-14369174D01*
X11606015Y-14369174D02*
X11606015Y-14416793D01*
X11606015Y-14416793D02*
X11596491Y-14454888D01*
X11596491Y-14454888D02*
X11586967Y-14473936D01*
X11586967Y-14473936D02*
X11577444Y-14483460D01*
X11577444Y-14483460D02*
X11558396Y-14492984D01*
X11558396Y-14492984D02*
X11539348Y-14492984D01*
X11539348Y-14492984D02*
X11520301Y-14483460D01*
X11520301Y-14483460D02*
X11510777Y-14473936D01*
X11510777Y-14473936D02*
X11501253Y-14454888D01*
X11501253Y-14454888D02*
X11491729Y-14416793D01*
X11491729Y-14416793D02*
X11491729Y-14369174D01*
X11491729Y-14369174D02*
X11501253Y-14331079D01*
X11501253Y-14331079D02*
X11510777Y-14312031D01*
X11510777Y-14312031D02*
X11520301Y-14302508D01*
X11520301Y-14302508D02*
X11539348Y-14292984D01*
X11682206Y-14312031D02*
X11691729Y-14302508D01*
X11691729Y-14302508D02*
X11710777Y-14292984D01*
X11710777Y-14292984D02*
X11758396Y-14292984D01*
X11758396Y-14292984D02*
X11777444Y-14302508D01*
X11777444Y-14302508D02*
X11786967Y-14312031D01*
X11786967Y-14312031D02*
X11796491Y-14331079D01*
X11796491Y-14331079D02*
X11796491Y-14350127D01*
X11796491Y-14350127D02*
X11786967Y-14378698D01*
X11786967Y-14378698D02*
X11672682Y-14492984D01*
X11672682Y-14492984D02*
X11796491Y-14492984D01*
X11863158Y-14292984D02*
X11996491Y-14292984D01*
X11996491Y-14292984D02*
X11910777Y-14492984D01*
X12158396Y-14292984D02*
X12120301Y-14292984D01*
X12120301Y-14292984D02*
X12101253Y-14302508D01*
X12101253Y-14302508D02*
X12091729Y-14312031D01*
X12091729Y-14312031D02*
X12072682Y-14340603D01*
X12072682Y-14340603D02*
X12063158Y-14378698D01*
X12063158Y-14378698D02*
X12063158Y-14454888D01*
X12063158Y-14454888D02*
X12072682Y-14473936D01*
X12072682Y-14473936D02*
X12082206Y-14483460D01*
X12082206Y-14483460D02*
X12101253Y-14492984D01*
X12101253Y-14492984D02*
X12139348Y-14492984D01*
X12139348Y-14492984D02*
X12158396Y-14483460D01*
X12158396Y-14483460D02*
X12167920Y-14473936D01*
X12167920Y-14473936D02*
X12177444Y-14454888D01*
X12177444Y-14454888D02*
X12177444Y-14407269D01*
X12177444Y-14407269D02*
X12167920Y-14388222D01*
X12167920Y-14388222D02*
X12158396Y-14378698D01*
X12158396Y-14378698D02*
X12139348Y-14369174D01*
X12139348Y-14369174D02*
X12101253Y-14369174D01*
X12101253Y-14369174D02*
X12082206Y-14378698D01*
X12082206Y-14378698D02*
X12072682Y-14388222D01*
X12072682Y-14388222D02*
X12063158Y-14407269D01*
X12253634Y-14292984D02*
X12253634Y-14331079D01*
X12329825Y-14292984D02*
X12329825Y-14331079D01*
X12625063Y-14569174D02*
X12615539Y-14559650D01*
X12615539Y-14559650D02*
X12596491Y-14531079D01*
X12596491Y-14531079D02*
X12586968Y-14512031D01*
X12586968Y-14512031D02*
X12577444Y-14483460D01*
X12577444Y-14483460D02*
X12567920Y-14435841D01*
X12567920Y-14435841D02*
X12567920Y-14397746D01*
X12567920Y-14397746D02*
X12577444Y-14350127D01*
X12577444Y-14350127D02*
X12586968Y-14321555D01*
X12586968Y-14321555D02*
X12596491Y-14302508D01*
X12596491Y-14302508D02*
X12615539Y-14273936D01*
X12615539Y-14273936D02*
X12625063Y-14264412D01*
X12806015Y-14492984D02*
X12691729Y-14492984D01*
X12748872Y-14492984D02*
X12748872Y-14292984D01*
X12748872Y-14292984D02*
X12729825Y-14321555D01*
X12729825Y-14321555D02*
X12710777Y-14340603D01*
X12710777Y-14340603D02*
X12691729Y-14350127D01*
X12996491Y-14492984D02*
X12882206Y-14492984D01*
X12939348Y-14492984D02*
X12939348Y-14292984D01*
X12939348Y-14292984D02*
X12920301Y-14321555D01*
X12920301Y-14321555D02*
X12901253Y-14340603D01*
X12901253Y-14340603D02*
X12882206Y-14350127D01*
X13234587Y-14492984D02*
X13234587Y-14292984D01*
X13320301Y-14492984D02*
X13320301Y-14388222D01*
X13320301Y-14388222D02*
X13310777Y-14369174D01*
X13310777Y-14369174D02*
X13291730Y-14359650D01*
X13291730Y-14359650D02*
X13263158Y-14359650D01*
X13263158Y-14359650D02*
X13244110Y-14369174D01*
X13244110Y-14369174D02*
X13234587Y-14378698D01*
X13444110Y-14492984D02*
X13425063Y-14483460D01*
X13425063Y-14483460D02*
X13415539Y-14473936D01*
X13415539Y-14473936D02*
X13406015Y-14454888D01*
X13406015Y-14454888D02*
X13406015Y-14397746D01*
X13406015Y-14397746D02*
X13415539Y-14378698D01*
X13415539Y-14378698D02*
X13425063Y-14369174D01*
X13425063Y-14369174D02*
X13444110Y-14359650D01*
X13444110Y-14359650D02*
X13472682Y-14359650D01*
X13472682Y-14359650D02*
X13491730Y-14369174D01*
X13491730Y-14369174D02*
X13501253Y-14378698D01*
X13501253Y-14378698D02*
X13510777Y-14397746D01*
X13510777Y-14397746D02*
X13510777Y-14454888D01*
X13510777Y-14454888D02*
X13501253Y-14473936D01*
X13501253Y-14473936D02*
X13491730Y-14483460D01*
X13491730Y-14483460D02*
X13472682Y-14492984D01*
X13472682Y-14492984D02*
X13444110Y-14492984D01*
X13625063Y-14492984D02*
X13606015Y-14483460D01*
X13606015Y-14483460D02*
X13596491Y-14464412D01*
X13596491Y-14464412D02*
X13596491Y-14292984D01*
X13777444Y-14483460D02*
X13758396Y-14492984D01*
X13758396Y-14492984D02*
X13720301Y-14492984D01*
X13720301Y-14492984D02*
X13701253Y-14483460D01*
X13701253Y-14483460D02*
X13691730Y-14464412D01*
X13691730Y-14464412D02*
X13691730Y-14388222D01*
X13691730Y-14388222D02*
X13701253Y-14369174D01*
X13701253Y-14369174D02*
X13720301Y-14359650D01*
X13720301Y-14359650D02*
X13758396Y-14359650D01*
X13758396Y-14359650D02*
X13777444Y-14369174D01*
X13777444Y-14369174D02*
X13786968Y-14388222D01*
X13786968Y-14388222D02*
X13786968Y-14407269D01*
X13786968Y-14407269D02*
X13691730Y-14426317D01*
X13863158Y-14483460D02*
X13882206Y-14492984D01*
X13882206Y-14492984D02*
X13920301Y-14492984D01*
X13920301Y-14492984D02*
X13939349Y-14483460D01*
X13939349Y-14483460D02*
X13948872Y-14464412D01*
X13948872Y-14464412D02*
X13948872Y-14454888D01*
X13948872Y-14454888D02*
X13939349Y-14435841D01*
X13939349Y-14435841D02*
X13920301Y-14426317D01*
X13920301Y-14426317D02*
X13891730Y-14426317D01*
X13891730Y-14426317D02*
X13872682Y-14416793D01*
X13872682Y-14416793D02*
X13863158Y-14397746D01*
X13863158Y-14397746D02*
X13863158Y-14388222D01*
X13863158Y-14388222D02*
X13872682Y-14369174D01*
X13872682Y-14369174D02*
X13891730Y-14359650D01*
X13891730Y-14359650D02*
X13920301Y-14359650D01*
X13920301Y-14359650D02*
X13939349Y-14369174D01*
X14015539Y-14569174D02*
X14025063Y-14559650D01*
X14025063Y-14559650D02*
X14044111Y-14531079D01*
X14044111Y-14531079D02*
X14053634Y-14512031D01*
X14053634Y-14512031D02*
X14063158Y-14483460D01*
X14063158Y-14483460D02*
X14072682Y-14435841D01*
X14072682Y-14435841D02*
X14072682Y-14397746D01*
X14072682Y-14397746D02*
X14063158Y-14350127D01*
X14063158Y-14350127D02*
X14053634Y-14321555D01*
X14053634Y-14321555D02*
X14044111Y-14302508D01*
X14044111Y-14302508D02*
X14025063Y-14273936D01*
X14025063Y-14273936D02*
X14015539Y-14264412D01*
D12*
X9010000Y-14625500D02*
X9010000Y-14705500D01*
X8970000Y-14665500D02*
X9050000Y-14665500D01*
D11*
X9348872Y-14556984D02*
X9367920Y-14556984D01*
X9367920Y-14556984D02*
X9386967Y-14566508D01*
X9386967Y-14566508D02*
X9396491Y-14576031D01*
X9396491Y-14576031D02*
X9406015Y-14595079D01*
X9406015Y-14595079D02*
X9415539Y-14633174D01*
X9415539Y-14633174D02*
X9415539Y-14680793D01*
X9415539Y-14680793D02*
X9406015Y-14718888D01*
X9406015Y-14718888D02*
X9396491Y-14737936D01*
X9396491Y-14737936D02*
X9386967Y-14747460D01*
X9386967Y-14747460D02*
X9367920Y-14756984D01*
X9367920Y-14756984D02*
X9348872Y-14756984D01*
X9348872Y-14756984D02*
X9329824Y-14747460D01*
X9329824Y-14747460D02*
X9320301Y-14737936D01*
X9320301Y-14737936D02*
X9310777Y-14718888D01*
X9310777Y-14718888D02*
X9301253Y-14680793D01*
X9301253Y-14680793D02*
X9301253Y-14633174D01*
X9301253Y-14633174D02*
X9310777Y-14595079D01*
X9310777Y-14595079D02*
X9320301Y-14576031D01*
X9320301Y-14576031D02*
X9329824Y-14566508D01*
X9329824Y-14566508D02*
X9348872Y-14556984D01*
X9501253Y-14737936D02*
X9510777Y-14747460D01*
X9510777Y-14747460D02*
X9501253Y-14756984D01*
X9501253Y-14756984D02*
X9491729Y-14747460D01*
X9491729Y-14747460D02*
X9501253Y-14737936D01*
X9501253Y-14737936D02*
X9501253Y-14756984D01*
X9625063Y-14642698D02*
X9606015Y-14633174D01*
X9606015Y-14633174D02*
X9596491Y-14623650D01*
X9596491Y-14623650D02*
X9586967Y-14604603D01*
X9586967Y-14604603D02*
X9586967Y-14595079D01*
X9586967Y-14595079D02*
X9596491Y-14576031D01*
X9596491Y-14576031D02*
X9606015Y-14566508D01*
X9606015Y-14566508D02*
X9625063Y-14556984D01*
X9625063Y-14556984D02*
X9663158Y-14556984D01*
X9663158Y-14556984D02*
X9682205Y-14566508D01*
X9682205Y-14566508D02*
X9691729Y-14576031D01*
X9691729Y-14576031D02*
X9701253Y-14595079D01*
X9701253Y-14595079D02*
X9701253Y-14604603D01*
X9701253Y-14604603D02*
X9691729Y-14623650D01*
X9691729Y-14623650D02*
X9682205Y-14633174D01*
X9682205Y-14633174D02*
X9663158Y-14642698D01*
X9663158Y-14642698D02*
X9625063Y-14642698D01*
X9625063Y-14642698D02*
X9606015Y-14652222D01*
X9606015Y-14652222D02*
X9596491Y-14661746D01*
X9596491Y-14661746D02*
X9586967Y-14680793D01*
X9586967Y-14680793D02*
X9586967Y-14718888D01*
X9586967Y-14718888D02*
X9596491Y-14737936D01*
X9596491Y-14737936D02*
X9606015Y-14747460D01*
X9606015Y-14747460D02*
X9625063Y-14756984D01*
X9625063Y-14756984D02*
X9663158Y-14756984D01*
X9663158Y-14756984D02*
X9682205Y-14747460D01*
X9682205Y-14747460D02*
X9691729Y-14737936D01*
X9691729Y-14737936D02*
X9701253Y-14718888D01*
X9701253Y-14718888D02*
X9701253Y-14680793D01*
X9701253Y-14680793D02*
X9691729Y-14661746D01*
X9691729Y-14661746D02*
X9682205Y-14652222D01*
X9682205Y-14652222D02*
X9663158Y-14642698D01*
X9825063Y-14556984D02*
X9844110Y-14556984D01*
X9844110Y-14556984D02*
X9863158Y-14566508D01*
X9863158Y-14566508D02*
X9872682Y-14576031D01*
X9872682Y-14576031D02*
X9882205Y-14595079D01*
X9882205Y-14595079D02*
X9891729Y-14633174D01*
X9891729Y-14633174D02*
X9891729Y-14680793D01*
X9891729Y-14680793D02*
X9882205Y-14718888D01*
X9882205Y-14718888D02*
X9872682Y-14737936D01*
X9872682Y-14737936D02*
X9863158Y-14747460D01*
X9863158Y-14747460D02*
X9844110Y-14756984D01*
X9844110Y-14756984D02*
X9825063Y-14756984D01*
X9825063Y-14756984D02*
X9806015Y-14747460D01*
X9806015Y-14747460D02*
X9796491Y-14737936D01*
X9796491Y-14737936D02*
X9786967Y-14718888D01*
X9786967Y-14718888D02*
X9777444Y-14680793D01*
X9777444Y-14680793D02*
X9777444Y-14633174D01*
X9777444Y-14633174D02*
X9786967Y-14595079D01*
X9786967Y-14595079D02*
X9796491Y-14576031D01*
X9796491Y-14576031D02*
X9806015Y-14566508D01*
X9806015Y-14566508D02*
X9825063Y-14556984D01*
X10015539Y-14556984D02*
X10034586Y-14556984D01*
X10034586Y-14556984D02*
X10053634Y-14566508D01*
X10053634Y-14566508D02*
X10063158Y-14576031D01*
X10063158Y-14576031D02*
X10072682Y-14595079D01*
X10072682Y-14595079D02*
X10082205Y-14633174D01*
X10082205Y-14633174D02*
X10082205Y-14680793D01*
X10082205Y-14680793D02*
X10072682Y-14718888D01*
X10072682Y-14718888D02*
X10063158Y-14737936D01*
X10063158Y-14737936D02*
X10053634Y-14747460D01*
X10053634Y-14747460D02*
X10034586Y-14756984D01*
X10034586Y-14756984D02*
X10015539Y-14756984D01*
X10015539Y-14756984D02*
X9996491Y-14747460D01*
X9996491Y-14747460D02*
X9986967Y-14737936D01*
X9986967Y-14737936D02*
X9977444Y-14718888D01*
X9977444Y-14718888D02*
X9967920Y-14680793D01*
X9967920Y-14680793D02*
X9967920Y-14633174D01*
X9967920Y-14633174D02*
X9977444Y-14595079D01*
X9977444Y-14595079D02*
X9986967Y-14576031D01*
X9986967Y-14576031D02*
X9996491Y-14566508D01*
X9996491Y-14566508D02*
X10015539Y-14556984D01*
X10167920Y-14756984D02*
X10167920Y-14623650D01*
X10167920Y-14642698D02*
X10177444Y-14633174D01*
X10177444Y-14633174D02*
X10196491Y-14623650D01*
X10196491Y-14623650D02*
X10225063Y-14623650D01*
X10225063Y-14623650D02*
X10244110Y-14633174D01*
X10244110Y-14633174D02*
X10253634Y-14652222D01*
X10253634Y-14652222D02*
X10253634Y-14756984D01*
X10253634Y-14652222D02*
X10263158Y-14633174D01*
X10263158Y-14633174D02*
X10282205Y-14623650D01*
X10282205Y-14623650D02*
X10310777Y-14623650D01*
X10310777Y-14623650D02*
X10329825Y-14633174D01*
X10329825Y-14633174D02*
X10339348Y-14652222D01*
X10339348Y-14652222D02*
X10339348Y-14756984D01*
X10434586Y-14756984D02*
X10434586Y-14623650D01*
X10434586Y-14642698D02*
X10444110Y-14633174D01*
X10444110Y-14633174D02*
X10463158Y-14623650D01*
X10463158Y-14623650D02*
X10491729Y-14623650D01*
X10491729Y-14623650D02*
X10510777Y-14633174D01*
X10510777Y-14633174D02*
X10520301Y-14652222D01*
X10520301Y-14652222D02*
X10520301Y-14756984D01*
X10520301Y-14652222D02*
X10529825Y-14633174D01*
X10529825Y-14633174D02*
X10548872Y-14623650D01*
X10548872Y-14623650D02*
X10577444Y-14623650D01*
X10577444Y-14623650D02*
X10596491Y-14633174D01*
X10596491Y-14633174D02*
X10606015Y-14652222D01*
X10606015Y-14652222D02*
X10606015Y-14756984D01*
X10996491Y-14547460D02*
X10825063Y-14804603D01*
X11253634Y-14556984D02*
X11272682Y-14556984D01*
X11272682Y-14556984D02*
X11291729Y-14566508D01*
X11291729Y-14566508D02*
X11301253Y-14576031D01*
X11301253Y-14576031D02*
X11310777Y-14595079D01*
X11310777Y-14595079D02*
X11320301Y-14633174D01*
X11320301Y-14633174D02*
X11320301Y-14680793D01*
X11320301Y-14680793D02*
X11310777Y-14718888D01*
X11310777Y-14718888D02*
X11301253Y-14737936D01*
X11301253Y-14737936D02*
X11291729Y-14747460D01*
X11291729Y-14747460D02*
X11272682Y-14756984D01*
X11272682Y-14756984D02*
X11253634Y-14756984D01*
X11253634Y-14756984D02*
X11234586Y-14747460D01*
X11234586Y-14747460D02*
X11225063Y-14737936D01*
X11225063Y-14737936D02*
X11215539Y-14718888D01*
X11215539Y-14718888D02*
X11206015Y-14680793D01*
X11206015Y-14680793D02*
X11206015Y-14633174D01*
X11206015Y-14633174D02*
X11215539Y-14595079D01*
X11215539Y-14595079D02*
X11225063Y-14576031D01*
X11225063Y-14576031D02*
X11234586Y-14566508D01*
X11234586Y-14566508D02*
X11253634Y-14556984D01*
X11406015Y-14737936D02*
X11415539Y-14747460D01*
X11415539Y-14747460D02*
X11406015Y-14756984D01*
X11406015Y-14756984D02*
X11396491Y-14747460D01*
X11396491Y-14747460D02*
X11406015Y-14737936D01*
X11406015Y-14737936D02*
X11406015Y-14756984D01*
X11539348Y-14556984D02*
X11558396Y-14556984D01*
X11558396Y-14556984D02*
X11577444Y-14566508D01*
X11577444Y-14566508D02*
X11586967Y-14576031D01*
X11586967Y-14576031D02*
X11596491Y-14595079D01*
X11596491Y-14595079D02*
X11606015Y-14633174D01*
X11606015Y-14633174D02*
X11606015Y-14680793D01*
X11606015Y-14680793D02*
X11596491Y-14718888D01*
X11596491Y-14718888D02*
X11586967Y-14737936D01*
X11586967Y-14737936D02*
X11577444Y-14747460D01*
X11577444Y-14747460D02*
X11558396Y-14756984D01*
X11558396Y-14756984D02*
X11539348Y-14756984D01*
X11539348Y-14756984D02*
X11520301Y-14747460D01*
X11520301Y-14747460D02*
X11510777Y-14737936D01*
X11510777Y-14737936D02*
X11501253Y-14718888D01*
X11501253Y-14718888D02*
X11491729Y-14680793D01*
X11491729Y-14680793D02*
X11491729Y-14633174D01*
X11491729Y-14633174D02*
X11501253Y-14595079D01*
X11501253Y-14595079D02*
X11510777Y-14576031D01*
X11510777Y-14576031D02*
X11520301Y-14566508D01*
X11520301Y-14566508D02*
X11539348Y-14556984D01*
X11672682Y-14556984D02*
X11796491Y-14556984D01*
X11796491Y-14556984D02*
X11729825Y-14633174D01*
X11729825Y-14633174D02*
X11758396Y-14633174D01*
X11758396Y-14633174D02*
X11777444Y-14642698D01*
X11777444Y-14642698D02*
X11786967Y-14652222D01*
X11786967Y-14652222D02*
X11796491Y-14671269D01*
X11796491Y-14671269D02*
X11796491Y-14718888D01*
X11796491Y-14718888D02*
X11786967Y-14737936D01*
X11786967Y-14737936D02*
X11777444Y-14747460D01*
X11777444Y-14747460D02*
X11758396Y-14756984D01*
X11758396Y-14756984D02*
X11701253Y-14756984D01*
X11701253Y-14756984D02*
X11682206Y-14747460D01*
X11682206Y-14747460D02*
X11672682Y-14737936D01*
X11986967Y-14756984D02*
X11872682Y-14756984D01*
X11929825Y-14756984D02*
X11929825Y-14556984D01*
X11929825Y-14556984D02*
X11910777Y-14585555D01*
X11910777Y-14585555D02*
X11891729Y-14604603D01*
X11891729Y-14604603D02*
X11872682Y-14614127D01*
X12167920Y-14556984D02*
X12072682Y-14556984D01*
X12072682Y-14556984D02*
X12063158Y-14652222D01*
X12063158Y-14652222D02*
X12072682Y-14642698D01*
X12072682Y-14642698D02*
X12091729Y-14633174D01*
X12091729Y-14633174D02*
X12139348Y-14633174D01*
X12139348Y-14633174D02*
X12158396Y-14642698D01*
X12158396Y-14642698D02*
X12167920Y-14652222D01*
X12167920Y-14652222D02*
X12177444Y-14671269D01*
X12177444Y-14671269D02*
X12177444Y-14718888D01*
X12177444Y-14718888D02*
X12167920Y-14737936D01*
X12167920Y-14737936D02*
X12158396Y-14747460D01*
X12158396Y-14747460D02*
X12139348Y-14756984D01*
X12139348Y-14756984D02*
X12091729Y-14756984D01*
X12091729Y-14756984D02*
X12072682Y-14747460D01*
X12072682Y-14747460D02*
X12063158Y-14737936D01*
X12253634Y-14556984D02*
X12253634Y-14595079D01*
X12329825Y-14556984D02*
X12329825Y-14595079D01*
X12625063Y-14833174D02*
X12615539Y-14823650D01*
X12615539Y-14823650D02*
X12596491Y-14795079D01*
X12596491Y-14795079D02*
X12586968Y-14776031D01*
X12586968Y-14776031D02*
X12577444Y-14747460D01*
X12577444Y-14747460D02*
X12567920Y-14699841D01*
X12567920Y-14699841D02*
X12567920Y-14661746D01*
X12567920Y-14661746D02*
X12577444Y-14614127D01*
X12577444Y-14614127D02*
X12586968Y-14585555D01*
X12586968Y-14585555D02*
X12596491Y-14566508D01*
X12596491Y-14566508D02*
X12615539Y-14537936D01*
X12615539Y-14537936D02*
X12625063Y-14528412D01*
X12786968Y-14556984D02*
X12748872Y-14556984D01*
X12748872Y-14556984D02*
X12729825Y-14566508D01*
X12729825Y-14566508D02*
X12720301Y-14576031D01*
X12720301Y-14576031D02*
X12701253Y-14604603D01*
X12701253Y-14604603D02*
X12691729Y-14642698D01*
X12691729Y-14642698D02*
X12691729Y-14718888D01*
X12691729Y-14718888D02*
X12701253Y-14737936D01*
X12701253Y-14737936D02*
X12710777Y-14747460D01*
X12710777Y-14747460D02*
X12729825Y-14756984D01*
X12729825Y-14756984D02*
X12767920Y-14756984D01*
X12767920Y-14756984D02*
X12786968Y-14747460D01*
X12786968Y-14747460D02*
X12796491Y-14737936D01*
X12796491Y-14737936D02*
X12806015Y-14718888D01*
X12806015Y-14718888D02*
X12806015Y-14671269D01*
X12806015Y-14671269D02*
X12796491Y-14652222D01*
X12796491Y-14652222D02*
X12786968Y-14642698D01*
X12786968Y-14642698D02*
X12767920Y-14633174D01*
X12767920Y-14633174D02*
X12729825Y-14633174D01*
X12729825Y-14633174D02*
X12710777Y-14642698D01*
X12710777Y-14642698D02*
X12701253Y-14652222D01*
X12701253Y-14652222D02*
X12691729Y-14671269D01*
X13044110Y-14756984D02*
X13044110Y-14556984D01*
X13129825Y-14756984D02*
X13129825Y-14652222D01*
X13129825Y-14652222D02*
X13120301Y-14633174D01*
X13120301Y-14633174D02*
X13101253Y-14623650D01*
X13101253Y-14623650D02*
X13072682Y-14623650D01*
X13072682Y-14623650D02*
X13053634Y-14633174D01*
X13053634Y-14633174D02*
X13044110Y-14642698D01*
X13253634Y-14756984D02*
X13234587Y-14747460D01*
X13234587Y-14747460D02*
X13225063Y-14737936D01*
X13225063Y-14737936D02*
X13215539Y-14718888D01*
X13215539Y-14718888D02*
X13215539Y-14661746D01*
X13215539Y-14661746D02*
X13225063Y-14642698D01*
X13225063Y-14642698D02*
X13234587Y-14633174D01*
X13234587Y-14633174D02*
X13253634Y-14623650D01*
X13253634Y-14623650D02*
X13282206Y-14623650D01*
X13282206Y-14623650D02*
X13301253Y-14633174D01*
X13301253Y-14633174D02*
X13310777Y-14642698D01*
X13310777Y-14642698D02*
X13320301Y-14661746D01*
X13320301Y-14661746D02*
X13320301Y-14718888D01*
X13320301Y-14718888D02*
X13310777Y-14737936D01*
X13310777Y-14737936D02*
X13301253Y-14747460D01*
X13301253Y-14747460D02*
X13282206Y-14756984D01*
X13282206Y-14756984D02*
X13253634Y-14756984D01*
X13434587Y-14756984D02*
X13415539Y-14747460D01*
X13415539Y-14747460D02*
X13406015Y-14728412D01*
X13406015Y-14728412D02*
X13406015Y-14556984D01*
X13586968Y-14747460D02*
X13567920Y-14756984D01*
X13567920Y-14756984D02*
X13529825Y-14756984D01*
X13529825Y-14756984D02*
X13510777Y-14747460D01*
X13510777Y-14747460D02*
X13501253Y-14728412D01*
X13501253Y-14728412D02*
X13501253Y-14652222D01*
X13501253Y-14652222D02*
X13510777Y-14633174D01*
X13510777Y-14633174D02*
X13529825Y-14623650D01*
X13529825Y-14623650D02*
X13567920Y-14623650D01*
X13567920Y-14623650D02*
X13586968Y-14633174D01*
X13586968Y-14633174D02*
X13596491Y-14652222D01*
X13596491Y-14652222D02*
X13596491Y-14671269D01*
X13596491Y-14671269D02*
X13501253Y-14690317D01*
X13672682Y-14747460D02*
X13691730Y-14756984D01*
X13691730Y-14756984D02*
X13729825Y-14756984D01*
X13729825Y-14756984D02*
X13748872Y-14747460D01*
X13748872Y-14747460D02*
X13758396Y-14728412D01*
X13758396Y-14728412D02*
X13758396Y-14718888D01*
X13758396Y-14718888D02*
X13748872Y-14699841D01*
X13748872Y-14699841D02*
X13729825Y-14690317D01*
X13729825Y-14690317D02*
X13701253Y-14690317D01*
X13701253Y-14690317D02*
X13682206Y-14680793D01*
X13682206Y-14680793D02*
X13672682Y-14661746D01*
X13672682Y-14661746D02*
X13672682Y-14652222D01*
X13672682Y-14652222D02*
X13682206Y-14633174D01*
X13682206Y-14633174D02*
X13701253Y-14623650D01*
X13701253Y-14623650D02*
X13729825Y-14623650D01*
X13729825Y-14623650D02*
X13748872Y-14633174D01*
X13825063Y-14833174D02*
X13834587Y-14823650D01*
X13834587Y-14823650D02*
X13853634Y-14795079D01*
X13853634Y-14795079D02*
X13863158Y-14776031D01*
X13863158Y-14776031D02*
X13872682Y-14747460D01*
X13872682Y-14747460D02*
X13882206Y-14699841D01*
X13882206Y-14699841D02*
X13882206Y-14661746D01*
X13882206Y-14661746D02*
X13872682Y-14614127D01*
X13872682Y-14614127D02*
X13863158Y-14585555D01*
X13863158Y-14585555D02*
X13853634Y-14566508D01*
X13853634Y-14566508D02*
X13834587Y-14537936D01*
X13834587Y-14537936D02*
X13825063Y-14528412D01*
D12*
X9036234Y-14962734D02*
X9036234Y-14896266D01*
X8969766Y-14896266D01*
X8969766Y-14962734D01*
X9036234Y-14962734D01*
D11*
X9348872Y-14820984D02*
X9367920Y-14820984D01*
X9367920Y-14820984D02*
X9386967Y-14830508D01*
X9386967Y-14830508D02*
X9396491Y-14840031D01*
X9396491Y-14840031D02*
X9406015Y-14859079D01*
X9406015Y-14859079D02*
X9415539Y-14897174D01*
X9415539Y-14897174D02*
X9415539Y-14944793D01*
X9415539Y-14944793D02*
X9406015Y-14982888D01*
X9406015Y-14982888D02*
X9396491Y-15001936D01*
X9396491Y-15001936D02*
X9386967Y-15011460D01*
X9386967Y-15011460D02*
X9367920Y-15020984D01*
X9367920Y-15020984D02*
X9348872Y-15020984D01*
X9348872Y-15020984D02*
X9329824Y-15011460D01*
X9329824Y-15011460D02*
X9320301Y-15001936D01*
X9320301Y-15001936D02*
X9310777Y-14982888D01*
X9310777Y-14982888D02*
X9301253Y-14944793D01*
X9301253Y-14944793D02*
X9301253Y-14897174D01*
X9301253Y-14897174D02*
X9310777Y-14859079D01*
X9310777Y-14859079D02*
X9320301Y-14840031D01*
X9320301Y-14840031D02*
X9329824Y-14830508D01*
X9329824Y-14830508D02*
X9348872Y-14820984D01*
X9501253Y-15001936D02*
X9510777Y-15011460D01*
X9510777Y-15011460D02*
X9501253Y-15020984D01*
X9501253Y-15020984D02*
X9491729Y-15011460D01*
X9491729Y-15011460D02*
X9501253Y-15001936D01*
X9501253Y-15001936D02*
X9501253Y-15020984D01*
X9606015Y-15020984D02*
X9644110Y-15020984D01*
X9644110Y-15020984D02*
X9663158Y-15011460D01*
X9663158Y-15011460D02*
X9672682Y-15001936D01*
X9672682Y-15001936D02*
X9691729Y-14973365D01*
X9691729Y-14973365D02*
X9701253Y-14935269D01*
X9701253Y-14935269D02*
X9701253Y-14859079D01*
X9701253Y-14859079D02*
X9691729Y-14840031D01*
X9691729Y-14840031D02*
X9682205Y-14830508D01*
X9682205Y-14830508D02*
X9663158Y-14820984D01*
X9663158Y-14820984D02*
X9625063Y-14820984D01*
X9625063Y-14820984D02*
X9606015Y-14830508D01*
X9606015Y-14830508D02*
X9596491Y-14840031D01*
X9596491Y-14840031D02*
X9586967Y-14859079D01*
X9586967Y-14859079D02*
X9586967Y-14906698D01*
X9586967Y-14906698D02*
X9596491Y-14925746D01*
X9596491Y-14925746D02*
X9606015Y-14935269D01*
X9606015Y-14935269D02*
X9625063Y-14944793D01*
X9625063Y-14944793D02*
X9663158Y-14944793D01*
X9663158Y-14944793D02*
X9682205Y-14935269D01*
X9682205Y-14935269D02*
X9691729Y-14925746D01*
X9691729Y-14925746D02*
X9701253Y-14906698D01*
X9872682Y-14887650D02*
X9872682Y-15020984D01*
X9825063Y-14811460D02*
X9777444Y-14954317D01*
X9777444Y-14954317D02*
X9901253Y-14954317D01*
X10015539Y-14820984D02*
X10034586Y-14820984D01*
X10034586Y-14820984D02*
X10053634Y-14830508D01*
X10053634Y-14830508D02*
X10063158Y-14840031D01*
X10063158Y-14840031D02*
X10072682Y-14859079D01*
X10072682Y-14859079D02*
X10082205Y-14897174D01*
X10082205Y-14897174D02*
X10082205Y-14944793D01*
X10082205Y-14944793D02*
X10072682Y-14982888D01*
X10072682Y-14982888D02*
X10063158Y-15001936D01*
X10063158Y-15001936D02*
X10053634Y-15011460D01*
X10053634Y-15011460D02*
X10034586Y-15020984D01*
X10034586Y-15020984D02*
X10015539Y-15020984D01*
X10015539Y-15020984D02*
X9996491Y-15011460D01*
X9996491Y-15011460D02*
X9986967Y-15001936D01*
X9986967Y-15001936D02*
X9977444Y-14982888D01*
X9977444Y-14982888D02*
X9967920Y-14944793D01*
X9967920Y-14944793D02*
X9967920Y-14897174D01*
X9967920Y-14897174D02*
X9977444Y-14859079D01*
X9977444Y-14859079D02*
X9986967Y-14840031D01*
X9986967Y-14840031D02*
X9996491Y-14830508D01*
X9996491Y-14830508D02*
X10015539Y-14820984D01*
X10167920Y-15020984D02*
X10167920Y-14887650D01*
X10167920Y-14906698D02*
X10177444Y-14897174D01*
X10177444Y-14897174D02*
X10196491Y-14887650D01*
X10196491Y-14887650D02*
X10225063Y-14887650D01*
X10225063Y-14887650D02*
X10244110Y-14897174D01*
X10244110Y-14897174D02*
X10253634Y-14916222D01*
X10253634Y-14916222D02*
X10253634Y-15020984D01*
X10253634Y-14916222D02*
X10263158Y-14897174D01*
X10263158Y-14897174D02*
X10282205Y-14887650D01*
X10282205Y-14887650D02*
X10310777Y-14887650D01*
X10310777Y-14887650D02*
X10329825Y-14897174D01*
X10329825Y-14897174D02*
X10339348Y-14916222D01*
X10339348Y-14916222D02*
X10339348Y-15020984D01*
X10434586Y-15020984D02*
X10434586Y-14887650D01*
X10434586Y-14906698D02*
X10444110Y-14897174D01*
X10444110Y-14897174D02*
X10463158Y-14887650D01*
X10463158Y-14887650D02*
X10491729Y-14887650D01*
X10491729Y-14887650D02*
X10510777Y-14897174D01*
X10510777Y-14897174D02*
X10520301Y-14916222D01*
X10520301Y-14916222D02*
X10520301Y-15020984D01*
X10520301Y-14916222D02*
X10529825Y-14897174D01*
X10529825Y-14897174D02*
X10548872Y-14887650D01*
X10548872Y-14887650D02*
X10577444Y-14887650D01*
X10577444Y-14887650D02*
X10596491Y-14897174D01*
X10596491Y-14897174D02*
X10606015Y-14916222D01*
X10606015Y-14916222D02*
X10606015Y-15020984D01*
X10996491Y-14811460D02*
X10825063Y-15068603D01*
X11253634Y-14820984D02*
X11272682Y-14820984D01*
X11272682Y-14820984D02*
X11291729Y-14830508D01*
X11291729Y-14830508D02*
X11301253Y-14840031D01*
X11301253Y-14840031D02*
X11310777Y-14859079D01*
X11310777Y-14859079D02*
X11320301Y-14897174D01*
X11320301Y-14897174D02*
X11320301Y-14944793D01*
X11320301Y-14944793D02*
X11310777Y-14982888D01*
X11310777Y-14982888D02*
X11301253Y-15001936D01*
X11301253Y-15001936D02*
X11291729Y-15011460D01*
X11291729Y-15011460D02*
X11272682Y-15020984D01*
X11272682Y-15020984D02*
X11253634Y-15020984D01*
X11253634Y-15020984D02*
X11234586Y-15011460D01*
X11234586Y-15011460D02*
X11225063Y-15001936D01*
X11225063Y-15001936D02*
X11215539Y-14982888D01*
X11215539Y-14982888D02*
X11206015Y-14944793D01*
X11206015Y-14944793D02*
X11206015Y-14897174D01*
X11206015Y-14897174D02*
X11215539Y-14859079D01*
X11215539Y-14859079D02*
X11225063Y-14840031D01*
X11225063Y-14840031D02*
X11234586Y-14830508D01*
X11234586Y-14830508D02*
X11253634Y-14820984D01*
X11406015Y-15001936D02*
X11415539Y-15011460D01*
X11415539Y-15011460D02*
X11406015Y-15020984D01*
X11406015Y-15020984D02*
X11396491Y-15011460D01*
X11396491Y-15011460D02*
X11406015Y-15001936D01*
X11406015Y-15001936D02*
X11406015Y-15020984D01*
X11539348Y-14820984D02*
X11558396Y-14820984D01*
X11558396Y-14820984D02*
X11577444Y-14830508D01*
X11577444Y-14830508D02*
X11586967Y-14840031D01*
X11586967Y-14840031D02*
X11596491Y-14859079D01*
X11596491Y-14859079D02*
X11606015Y-14897174D01*
X11606015Y-14897174D02*
X11606015Y-14944793D01*
X11606015Y-14944793D02*
X11596491Y-14982888D01*
X11596491Y-14982888D02*
X11586967Y-15001936D01*
X11586967Y-15001936D02*
X11577444Y-15011460D01*
X11577444Y-15011460D02*
X11558396Y-15020984D01*
X11558396Y-15020984D02*
X11539348Y-15020984D01*
X11539348Y-15020984D02*
X11520301Y-15011460D01*
X11520301Y-15011460D02*
X11510777Y-15001936D01*
X11510777Y-15001936D02*
X11501253Y-14982888D01*
X11501253Y-14982888D02*
X11491729Y-14944793D01*
X11491729Y-14944793D02*
X11491729Y-14897174D01*
X11491729Y-14897174D02*
X11501253Y-14859079D01*
X11501253Y-14859079D02*
X11510777Y-14840031D01*
X11510777Y-14840031D02*
X11520301Y-14830508D01*
X11520301Y-14830508D02*
X11539348Y-14820984D01*
X11672682Y-14820984D02*
X11796491Y-14820984D01*
X11796491Y-14820984D02*
X11729825Y-14897174D01*
X11729825Y-14897174D02*
X11758396Y-14897174D01*
X11758396Y-14897174D02*
X11777444Y-14906698D01*
X11777444Y-14906698D02*
X11786967Y-14916222D01*
X11786967Y-14916222D02*
X11796491Y-14935269D01*
X11796491Y-14935269D02*
X11796491Y-14982888D01*
X11796491Y-14982888D02*
X11786967Y-15001936D01*
X11786967Y-15001936D02*
X11777444Y-15011460D01*
X11777444Y-15011460D02*
X11758396Y-15020984D01*
X11758396Y-15020984D02*
X11701253Y-15020984D01*
X11701253Y-15020984D02*
X11682206Y-15011460D01*
X11682206Y-15011460D02*
X11672682Y-15001936D01*
X11863158Y-14820984D02*
X11996491Y-14820984D01*
X11996491Y-14820984D02*
X11910777Y-15020984D01*
X12110777Y-14820984D02*
X12129825Y-14820984D01*
X12129825Y-14820984D02*
X12148872Y-14830508D01*
X12148872Y-14830508D02*
X12158396Y-14840031D01*
X12158396Y-14840031D02*
X12167920Y-14859079D01*
X12167920Y-14859079D02*
X12177444Y-14897174D01*
X12177444Y-14897174D02*
X12177444Y-14944793D01*
X12177444Y-14944793D02*
X12167920Y-14982888D01*
X12167920Y-14982888D02*
X12158396Y-15001936D01*
X12158396Y-15001936D02*
X12148872Y-15011460D01*
X12148872Y-15011460D02*
X12129825Y-15020984D01*
X12129825Y-15020984D02*
X12110777Y-15020984D01*
X12110777Y-15020984D02*
X12091729Y-15011460D01*
X12091729Y-15011460D02*
X12082206Y-15001936D01*
X12082206Y-15001936D02*
X12072682Y-14982888D01*
X12072682Y-14982888D02*
X12063158Y-14944793D01*
X12063158Y-14944793D02*
X12063158Y-14897174D01*
X12063158Y-14897174D02*
X12072682Y-14859079D01*
X12072682Y-14859079D02*
X12082206Y-14840031D01*
X12082206Y-14840031D02*
X12091729Y-14830508D01*
X12091729Y-14830508D02*
X12110777Y-14820984D01*
X12253634Y-14820984D02*
X12253634Y-14859079D01*
X12329825Y-14820984D02*
X12329825Y-14859079D01*
X12625063Y-15097174D02*
X12615539Y-15087650D01*
X12615539Y-15087650D02*
X12596491Y-15059079D01*
X12596491Y-15059079D02*
X12586968Y-15040031D01*
X12586968Y-15040031D02*
X12577444Y-15011460D01*
X12577444Y-15011460D02*
X12567920Y-14963841D01*
X12567920Y-14963841D02*
X12567920Y-14925746D01*
X12567920Y-14925746D02*
X12577444Y-14878127D01*
X12577444Y-14878127D02*
X12586968Y-14849555D01*
X12586968Y-14849555D02*
X12596491Y-14830508D01*
X12596491Y-14830508D02*
X12615539Y-14801936D01*
X12615539Y-14801936D02*
X12625063Y-14792412D01*
X12682206Y-14820984D02*
X12806015Y-14820984D01*
X12806015Y-14820984D02*
X12739348Y-14897174D01*
X12739348Y-14897174D02*
X12767920Y-14897174D01*
X12767920Y-14897174D02*
X12786968Y-14906698D01*
X12786968Y-14906698D02*
X12796491Y-14916222D01*
X12796491Y-14916222D02*
X12806015Y-14935269D01*
X12806015Y-14935269D02*
X12806015Y-14982888D01*
X12806015Y-14982888D02*
X12796491Y-15001936D01*
X12796491Y-15001936D02*
X12786968Y-15011460D01*
X12786968Y-15011460D02*
X12767920Y-15020984D01*
X12767920Y-15020984D02*
X12710777Y-15020984D01*
X12710777Y-15020984D02*
X12691729Y-15011460D01*
X12691729Y-15011460D02*
X12682206Y-15001936D01*
X13044110Y-15020984D02*
X13044110Y-14820984D01*
X13129825Y-15020984D02*
X13129825Y-14916222D01*
X13129825Y-14916222D02*
X13120301Y-14897174D01*
X13120301Y-14897174D02*
X13101253Y-14887650D01*
X13101253Y-14887650D02*
X13072682Y-14887650D01*
X13072682Y-14887650D02*
X13053634Y-14897174D01*
X13053634Y-14897174D02*
X13044110Y-14906698D01*
X13253634Y-15020984D02*
X13234587Y-15011460D01*
X13234587Y-15011460D02*
X13225063Y-15001936D01*
X13225063Y-15001936D02*
X13215539Y-14982888D01*
X13215539Y-14982888D02*
X13215539Y-14925746D01*
X13215539Y-14925746D02*
X13225063Y-14906698D01*
X13225063Y-14906698D02*
X13234587Y-14897174D01*
X13234587Y-14897174D02*
X13253634Y-14887650D01*
X13253634Y-14887650D02*
X13282206Y-14887650D01*
X13282206Y-14887650D02*
X13301253Y-14897174D01*
X13301253Y-14897174D02*
X13310777Y-14906698D01*
X13310777Y-14906698D02*
X13320301Y-14925746D01*
X13320301Y-14925746D02*
X13320301Y-14982888D01*
X13320301Y-14982888D02*
X13310777Y-15001936D01*
X13310777Y-15001936D02*
X13301253Y-15011460D01*
X13301253Y-15011460D02*
X13282206Y-15020984D01*
X13282206Y-15020984D02*
X13253634Y-15020984D01*
X13434587Y-15020984D02*
X13415539Y-15011460D01*
X13415539Y-15011460D02*
X13406015Y-14992412D01*
X13406015Y-14992412D02*
X13406015Y-14820984D01*
X13586968Y-15011460D02*
X13567920Y-15020984D01*
X13567920Y-15020984D02*
X13529825Y-15020984D01*
X13529825Y-15020984D02*
X13510777Y-15011460D01*
X13510777Y-15011460D02*
X13501253Y-14992412D01*
X13501253Y-14992412D02*
X13501253Y-14916222D01*
X13501253Y-14916222D02*
X13510777Y-14897174D01*
X13510777Y-14897174D02*
X13529825Y-14887650D01*
X13529825Y-14887650D02*
X13567920Y-14887650D01*
X13567920Y-14887650D02*
X13586968Y-14897174D01*
X13586968Y-14897174D02*
X13596491Y-14916222D01*
X13596491Y-14916222D02*
X13596491Y-14935269D01*
X13596491Y-14935269D02*
X13501253Y-14954317D01*
X13672682Y-15011460D02*
X13691730Y-15020984D01*
X13691730Y-15020984D02*
X13729825Y-15020984D01*
X13729825Y-15020984D02*
X13748872Y-15011460D01*
X13748872Y-15011460D02*
X13758396Y-14992412D01*
X13758396Y-14992412D02*
X13758396Y-14982888D01*
X13758396Y-14982888D02*
X13748872Y-14963841D01*
X13748872Y-14963841D02*
X13729825Y-14954317D01*
X13729825Y-14954317D02*
X13701253Y-14954317D01*
X13701253Y-14954317D02*
X13682206Y-14944793D01*
X13682206Y-14944793D02*
X13672682Y-14925746D01*
X13672682Y-14925746D02*
X13672682Y-14916222D01*
X13672682Y-14916222D02*
X13682206Y-14897174D01*
X13682206Y-14897174D02*
X13701253Y-14887650D01*
X13701253Y-14887650D02*
X13729825Y-14887650D01*
X13729825Y-14887650D02*
X13748872Y-14897174D01*
X13825063Y-15097174D02*
X13834587Y-15087650D01*
X13834587Y-15087650D02*
X13853634Y-15059079D01*
X13853634Y-15059079D02*
X13863158Y-15040031D01*
X13863158Y-15040031D02*
X13872682Y-15011460D01*
X13872682Y-15011460D02*
X13882206Y-14963841D01*
X13882206Y-14963841D02*
X13882206Y-14925746D01*
X13882206Y-14925746D02*
X13872682Y-14878127D01*
X13872682Y-14878127D02*
X13863158Y-14849555D01*
X13863158Y-14849555D02*
X13853634Y-14830508D01*
X13853634Y-14830508D02*
X13834587Y-14801936D01*
X13834587Y-14801936D02*
X13825063Y-14792412D01*
D12*
X9002000Y-15241500D02*
X9050000Y-15193500D01*
X9002000Y-15145500D01*
X8954000Y-15193500D01*
X9002000Y-15241500D01*
D11*
X9348872Y-15084984D02*
X9367920Y-15084984D01*
X9367920Y-15084984D02*
X9386967Y-15094508D01*
X9386967Y-15094508D02*
X9396491Y-15104031D01*
X9396491Y-15104031D02*
X9406015Y-15123079D01*
X9406015Y-15123079D02*
X9415539Y-15161174D01*
X9415539Y-15161174D02*
X9415539Y-15208793D01*
X9415539Y-15208793D02*
X9406015Y-15246888D01*
X9406015Y-15246888D02*
X9396491Y-15265936D01*
X9396491Y-15265936D02*
X9386967Y-15275460D01*
X9386967Y-15275460D02*
X9367920Y-15284984D01*
X9367920Y-15284984D02*
X9348872Y-15284984D01*
X9348872Y-15284984D02*
X9329824Y-15275460D01*
X9329824Y-15275460D02*
X9320301Y-15265936D01*
X9320301Y-15265936D02*
X9310777Y-15246888D01*
X9310777Y-15246888D02*
X9301253Y-15208793D01*
X9301253Y-15208793D02*
X9301253Y-15161174D01*
X9301253Y-15161174D02*
X9310777Y-15123079D01*
X9310777Y-15123079D02*
X9320301Y-15104031D01*
X9320301Y-15104031D02*
X9329824Y-15094508D01*
X9329824Y-15094508D02*
X9348872Y-15084984D01*
X9501253Y-15265936D02*
X9510777Y-15275460D01*
X9510777Y-15275460D02*
X9501253Y-15284984D01*
X9501253Y-15284984D02*
X9491729Y-15275460D01*
X9491729Y-15275460D02*
X9501253Y-15265936D01*
X9501253Y-15265936D02*
X9501253Y-15284984D01*
X9606015Y-15284984D02*
X9644110Y-15284984D01*
X9644110Y-15284984D02*
X9663158Y-15275460D01*
X9663158Y-15275460D02*
X9672682Y-15265936D01*
X9672682Y-15265936D02*
X9691729Y-15237365D01*
X9691729Y-15237365D02*
X9701253Y-15199269D01*
X9701253Y-15199269D02*
X9701253Y-15123079D01*
X9701253Y-15123079D02*
X9691729Y-15104031D01*
X9691729Y-15104031D02*
X9682205Y-15094508D01*
X9682205Y-15094508D02*
X9663158Y-15084984D01*
X9663158Y-15084984D02*
X9625063Y-15084984D01*
X9625063Y-15084984D02*
X9606015Y-15094508D01*
X9606015Y-15094508D02*
X9596491Y-15104031D01*
X9596491Y-15104031D02*
X9586967Y-15123079D01*
X9586967Y-15123079D02*
X9586967Y-15170698D01*
X9586967Y-15170698D02*
X9596491Y-15189746D01*
X9596491Y-15189746D02*
X9606015Y-15199269D01*
X9606015Y-15199269D02*
X9625063Y-15208793D01*
X9625063Y-15208793D02*
X9663158Y-15208793D01*
X9663158Y-15208793D02*
X9682205Y-15199269D01*
X9682205Y-15199269D02*
X9691729Y-15189746D01*
X9691729Y-15189746D02*
X9701253Y-15170698D01*
X9872682Y-15084984D02*
X9834586Y-15084984D01*
X9834586Y-15084984D02*
X9815539Y-15094508D01*
X9815539Y-15094508D02*
X9806015Y-15104031D01*
X9806015Y-15104031D02*
X9786967Y-15132603D01*
X9786967Y-15132603D02*
X9777444Y-15170698D01*
X9777444Y-15170698D02*
X9777444Y-15246888D01*
X9777444Y-15246888D02*
X9786967Y-15265936D01*
X9786967Y-15265936D02*
X9796491Y-15275460D01*
X9796491Y-15275460D02*
X9815539Y-15284984D01*
X9815539Y-15284984D02*
X9853634Y-15284984D01*
X9853634Y-15284984D02*
X9872682Y-15275460D01*
X9872682Y-15275460D02*
X9882205Y-15265936D01*
X9882205Y-15265936D02*
X9891729Y-15246888D01*
X9891729Y-15246888D02*
X9891729Y-15199269D01*
X9891729Y-15199269D02*
X9882205Y-15180222D01*
X9882205Y-15180222D02*
X9872682Y-15170698D01*
X9872682Y-15170698D02*
X9853634Y-15161174D01*
X9853634Y-15161174D02*
X9815539Y-15161174D01*
X9815539Y-15161174D02*
X9796491Y-15170698D01*
X9796491Y-15170698D02*
X9786967Y-15180222D01*
X9786967Y-15180222D02*
X9777444Y-15199269D01*
X10015539Y-15084984D02*
X10034586Y-15084984D01*
X10034586Y-15084984D02*
X10053634Y-15094508D01*
X10053634Y-15094508D02*
X10063158Y-15104031D01*
X10063158Y-15104031D02*
X10072682Y-15123079D01*
X10072682Y-15123079D02*
X10082205Y-15161174D01*
X10082205Y-15161174D02*
X10082205Y-15208793D01*
X10082205Y-15208793D02*
X10072682Y-15246888D01*
X10072682Y-15246888D02*
X10063158Y-15265936D01*
X10063158Y-15265936D02*
X10053634Y-15275460D01*
X10053634Y-15275460D02*
X10034586Y-15284984D01*
X10034586Y-15284984D02*
X10015539Y-15284984D01*
X10015539Y-15284984D02*
X9996491Y-15275460D01*
X9996491Y-15275460D02*
X9986967Y-15265936D01*
X9986967Y-15265936D02*
X9977444Y-15246888D01*
X9977444Y-15246888D02*
X9967920Y-15208793D01*
X9967920Y-15208793D02*
X9967920Y-15161174D01*
X9967920Y-15161174D02*
X9977444Y-15123079D01*
X9977444Y-15123079D02*
X9986967Y-15104031D01*
X9986967Y-15104031D02*
X9996491Y-15094508D01*
X9996491Y-15094508D02*
X10015539Y-15084984D01*
X10167920Y-15284984D02*
X10167920Y-15151650D01*
X10167920Y-15170698D02*
X10177444Y-15161174D01*
X10177444Y-15161174D02*
X10196491Y-15151650D01*
X10196491Y-15151650D02*
X10225063Y-15151650D01*
X10225063Y-15151650D02*
X10244110Y-15161174D01*
X10244110Y-15161174D02*
X10253634Y-15180222D01*
X10253634Y-15180222D02*
X10253634Y-15284984D01*
X10253634Y-15180222D02*
X10263158Y-15161174D01*
X10263158Y-15161174D02*
X10282205Y-15151650D01*
X10282205Y-15151650D02*
X10310777Y-15151650D01*
X10310777Y-15151650D02*
X10329825Y-15161174D01*
X10329825Y-15161174D02*
X10339348Y-15180222D01*
X10339348Y-15180222D02*
X10339348Y-15284984D01*
X10434586Y-15284984D02*
X10434586Y-15151650D01*
X10434586Y-15170698D02*
X10444110Y-15161174D01*
X10444110Y-15161174D02*
X10463158Y-15151650D01*
X10463158Y-15151650D02*
X10491729Y-15151650D01*
X10491729Y-15151650D02*
X10510777Y-15161174D01*
X10510777Y-15161174D02*
X10520301Y-15180222D01*
X10520301Y-15180222D02*
X10520301Y-15284984D01*
X10520301Y-15180222D02*
X10529825Y-15161174D01*
X10529825Y-15161174D02*
X10548872Y-15151650D01*
X10548872Y-15151650D02*
X10577444Y-15151650D01*
X10577444Y-15151650D02*
X10596491Y-15161174D01*
X10596491Y-15161174D02*
X10606015Y-15180222D01*
X10606015Y-15180222D02*
X10606015Y-15284984D01*
X10996491Y-15075460D02*
X10825063Y-15332603D01*
X11253634Y-15084984D02*
X11272682Y-15084984D01*
X11272682Y-15084984D02*
X11291729Y-15094508D01*
X11291729Y-15094508D02*
X11301253Y-15104031D01*
X11301253Y-15104031D02*
X11310777Y-15123079D01*
X11310777Y-15123079D02*
X11320301Y-15161174D01*
X11320301Y-15161174D02*
X11320301Y-15208793D01*
X11320301Y-15208793D02*
X11310777Y-15246888D01*
X11310777Y-15246888D02*
X11301253Y-15265936D01*
X11301253Y-15265936D02*
X11291729Y-15275460D01*
X11291729Y-15275460D02*
X11272682Y-15284984D01*
X11272682Y-15284984D02*
X11253634Y-15284984D01*
X11253634Y-15284984D02*
X11234586Y-15275460D01*
X11234586Y-15275460D02*
X11225063Y-15265936D01*
X11225063Y-15265936D02*
X11215539Y-15246888D01*
X11215539Y-15246888D02*
X11206015Y-15208793D01*
X11206015Y-15208793D02*
X11206015Y-15161174D01*
X11206015Y-15161174D02*
X11215539Y-15123079D01*
X11215539Y-15123079D02*
X11225063Y-15104031D01*
X11225063Y-15104031D02*
X11234586Y-15094508D01*
X11234586Y-15094508D02*
X11253634Y-15084984D01*
X11406015Y-15265936D02*
X11415539Y-15275460D01*
X11415539Y-15275460D02*
X11406015Y-15284984D01*
X11406015Y-15284984D02*
X11396491Y-15275460D01*
X11396491Y-15275460D02*
X11406015Y-15265936D01*
X11406015Y-15265936D02*
X11406015Y-15284984D01*
X11539348Y-15084984D02*
X11558396Y-15084984D01*
X11558396Y-15084984D02*
X11577444Y-15094508D01*
X11577444Y-15094508D02*
X11586967Y-15104031D01*
X11586967Y-15104031D02*
X11596491Y-15123079D01*
X11596491Y-15123079D02*
X11606015Y-15161174D01*
X11606015Y-15161174D02*
X11606015Y-15208793D01*
X11606015Y-15208793D02*
X11596491Y-15246888D01*
X11596491Y-15246888D02*
X11586967Y-15265936D01*
X11586967Y-15265936D02*
X11577444Y-15275460D01*
X11577444Y-15275460D02*
X11558396Y-15284984D01*
X11558396Y-15284984D02*
X11539348Y-15284984D01*
X11539348Y-15284984D02*
X11520301Y-15275460D01*
X11520301Y-15275460D02*
X11510777Y-15265936D01*
X11510777Y-15265936D02*
X11501253Y-15246888D01*
X11501253Y-15246888D02*
X11491729Y-15208793D01*
X11491729Y-15208793D02*
X11491729Y-15161174D01*
X11491729Y-15161174D02*
X11501253Y-15123079D01*
X11501253Y-15123079D02*
X11510777Y-15104031D01*
X11510777Y-15104031D02*
X11520301Y-15094508D01*
X11520301Y-15094508D02*
X11539348Y-15084984D01*
X11672682Y-15084984D02*
X11796491Y-15084984D01*
X11796491Y-15084984D02*
X11729825Y-15161174D01*
X11729825Y-15161174D02*
X11758396Y-15161174D01*
X11758396Y-15161174D02*
X11777444Y-15170698D01*
X11777444Y-15170698D02*
X11786967Y-15180222D01*
X11786967Y-15180222D02*
X11796491Y-15199269D01*
X11796491Y-15199269D02*
X11796491Y-15246888D01*
X11796491Y-15246888D02*
X11786967Y-15265936D01*
X11786967Y-15265936D02*
X11777444Y-15275460D01*
X11777444Y-15275460D02*
X11758396Y-15284984D01*
X11758396Y-15284984D02*
X11701253Y-15284984D01*
X11701253Y-15284984D02*
X11682206Y-15275460D01*
X11682206Y-15275460D02*
X11672682Y-15265936D01*
X11863158Y-15084984D02*
X11996491Y-15084984D01*
X11996491Y-15084984D02*
X11910777Y-15284984D01*
X12101253Y-15170698D02*
X12082206Y-15161174D01*
X12082206Y-15161174D02*
X12072682Y-15151650D01*
X12072682Y-15151650D02*
X12063158Y-15132603D01*
X12063158Y-15132603D02*
X12063158Y-15123079D01*
X12063158Y-15123079D02*
X12072682Y-15104031D01*
X12072682Y-15104031D02*
X12082206Y-15094508D01*
X12082206Y-15094508D02*
X12101253Y-15084984D01*
X12101253Y-15084984D02*
X12139348Y-15084984D01*
X12139348Y-15084984D02*
X12158396Y-15094508D01*
X12158396Y-15094508D02*
X12167920Y-15104031D01*
X12167920Y-15104031D02*
X12177444Y-15123079D01*
X12177444Y-15123079D02*
X12177444Y-15132603D01*
X12177444Y-15132603D02*
X12167920Y-15151650D01*
X12167920Y-15151650D02*
X12158396Y-15161174D01*
X12158396Y-15161174D02*
X12139348Y-15170698D01*
X12139348Y-15170698D02*
X12101253Y-15170698D01*
X12101253Y-15170698D02*
X12082206Y-15180222D01*
X12082206Y-15180222D02*
X12072682Y-15189746D01*
X12072682Y-15189746D02*
X12063158Y-15208793D01*
X12063158Y-15208793D02*
X12063158Y-15246888D01*
X12063158Y-15246888D02*
X12072682Y-15265936D01*
X12072682Y-15265936D02*
X12082206Y-15275460D01*
X12082206Y-15275460D02*
X12101253Y-15284984D01*
X12101253Y-15284984D02*
X12139348Y-15284984D01*
X12139348Y-15284984D02*
X12158396Y-15275460D01*
X12158396Y-15275460D02*
X12167920Y-15265936D01*
X12167920Y-15265936D02*
X12177444Y-15246888D01*
X12177444Y-15246888D02*
X12177444Y-15208793D01*
X12177444Y-15208793D02*
X12167920Y-15189746D01*
X12167920Y-15189746D02*
X12158396Y-15180222D01*
X12158396Y-15180222D02*
X12139348Y-15170698D01*
X12253634Y-15084984D02*
X12253634Y-15123079D01*
X12329825Y-15084984D02*
X12329825Y-15123079D01*
X12625063Y-15361174D02*
X12615539Y-15351650D01*
X12615539Y-15351650D02*
X12596491Y-15323079D01*
X12596491Y-15323079D02*
X12586968Y-15304031D01*
X12586968Y-15304031D02*
X12577444Y-15275460D01*
X12577444Y-15275460D02*
X12567920Y-15227841D01*
X12567920Y-15227841D02*
X12567920Y-15189746D01*
X12567920Y-15189746D02*
X12577444Y-15142127D01*
X12577444Y-15142127D02*
X12586968Y-15113555D01*
X12586968Y-15113555D02*
X12596491Y-15094508D01*
X12596491Y-15094508D02*
X12615539Y-15065936D01*
X12615539Y-15065936D02*
X12625063Y-15056412D01*
X12682206Y-15084984D02*
X12806015Y-15084984D01*
X12806015Y-15084984D02*
X12739348Y-15161174D01*
X12739348Y-15161174D02*
X12767920Y-15161174D01*
X12767920Y-15161174D02*
X12786968Y-15170698D01*
X12786968Y-15170698D02*
X12796491Y-15180222D01*
X12796491Y-15180222D02*
X12806015Y-15199269D01*
X12806015Y-15199269D02*
X12806015Y-15246888D01*
X12806015Y-15246888D02*
X12796491Y-15265936D01*
X12796491Y-15265936D02*
X12786968Y-15275460D01*
X12786968Y-15275460D02*
X12767920Y-15284984D01*
X12767920Y-15284984D02*
X12710777Y-15284984D01*
X12710777Y-15284984D02*
X12691729Y-15275460D01*
X12691729Y-15275460D02*
X12682206Y-15265936D01*
X13044110Y-15284984D02*
X13044110Y-15084984D01*
X13129825Y-15284984D02*
X13129825Y-15180222D01*
X13129825Y-15180222D02*
X13120301Y-15161174D01*
X13120301Y-15161174D02*
X13101253Y-15151650D01*
X13101253Y-15151650D02*
X13072682Y-15151650D01*
X13072682Y-15151650D02*
X13053634Y-15161174D01*
X13053634Y-15161174D02*
X13044110Y-15170698D01*
X13253634Y-15284984D02*
X13234587Y-15275460D01*
X13234587Y-15275460D02*
X13225063Y-15265936D01*
X13225063Y-15265936D02*
X13215539Y-15246888D01*
X13215539Y-15246888D02*
X13215539Y-15189746D01*
X13215539Y-15189746D02*
X13225063Y-15170698D01*
X13225063Y-15170698D02*
X13234587Y-15161174D01*
X13234587Y-15161174D02*
X13253634Y-15151650D01*
X13253634Y-15151650D02*
X13282206Y-15151650D01*
X13282206Y-15151650D02*
X13301253Y-15161174D01*
X13301253Y-15161174D02*
X13310777Y-15170698D01*
X13310777Y-15170698D02*
X13320301Y-15189746D01*
X13320301Y-15189746D02*
X13320301Y-15246888D01*
X13320301Y-15246888D02*
X13310777Y-15265936D01*
X13310777Y-15265936D02*
X13301253Y-15275460D01*
X13301253Y-15275460D02*
X13282206Y-15284984D01*
X13282206Y-15284984D02*
X13253634Y-15284984D01*
X13434587Y-15284984D02*
X13415539Y-15275460D01*
X13415539Y-15275460D02*
X13406015Y-15256412D01*
X13406015Y-15256412D02*
X13406015Y-15084984D01*
X13586968Y-15275460D02*
X13567920Y-15284984D01*
X13567920Y-15284984D02*
X13529825Y-15284984D01*
X13529825Y-15284984D02*
X13510777Y-15275460D01*
X13510777Y-15275460D02*
X13501253Y-15256412D01*
X13501253Y-15256412D02*
X13501253Y-15180222D01*
X13501253Y-15180222D02*
X13510777Y-15161174D01*
X13510777Y-15161174D02*
X13529825Y-15151650D01*
X13529825Y-15151650D02*
X13567920Y-15151650D01*
X13567920Y-15151650D02*
X13586968Y-15161174D01*
X13586968Y-15161174D02*
X13596491Y-15180222D01*
X13596491Y-15180222D02*
X13596491Y-15199269D01*
X13596491Y-15199269D02*
X13501253Y-15218317D01*
X13672682Y-15275460D02*
X13691730Y-15284984D01*
X13691730Y-15284984D02*
X13729825Y-15284984D01*
X13729825Y-15284984D02*
X13748872Y-15275460D01*
X13748872Y-15275460D02*
X13758396Y-15256412D01*
X13758396Y-15256412D02*
X13758396Y-15246888D01*
X13758396Y-15246888D02*
X13748872Y-15227841D01*
X13748872Y-15227841D02*
X13729825Y-15218317D01*
X13729825Y-15218317D02*
X13701253Y-15218317D01*
X13701253Y-15218317D02*
X13682206Y-15208793D01*
X13682206Y-15208793D02*
X13672682Y-15189746D01*
X13672682Y-15189746D02*
X13672682Y-15180222D01*
X13672682Y-15180222D02*
X13682206Y-15161174D01*
X13682206Y-15161174D02*
X13701253Y-15151650D01*
X13701253Y-15151650D02*
X13729825Y-15151650D01*
X13729825Y-15151650D02*
X13748872Y-15161174D01*
X13825063Y-15361174D02*
X13834587Y-15351650D01*
X13834587Y-15351650D02*
X13853634Y-15323079D01*
X13853634Y-15323079D02*
X13863158Y-15304031D01*
X13863158Y-15304031D02*
X13872682Y-15275460D01*
X13872682Y-15275460D02*
X13882206Y-15227841D01*
X13882206Y-15227841D02*
X13882206Y-15189746D01*
X13882206Y-15189746D02*
X13872682Y-15142127D01*
X13872682Y-15142127D02*
X13863158Y-15113555D01*
X13863158Y-15113555D02*
X13853634Y-15094508D01*
X13853634Y-15094508D02*
X13834587Y-15065936D01*
X13834587Y-15065936D02*
X13825063Y-15056412D01*
D12*
X8950000Y-15407500D02*
X9050000Y-15507500D01*
X9050000Y-15407500D02*
X8950000Y-15507500D01*
X9050000Y-15457500D02*
G75*
G02*
X8950000Y-15457500I-50000J0D01*
G01*
X8950000Y-15457500D02*
G75*
G02*
X9050000Y-15457500I50000J0D01*
G01*
D11*
X9415539Y-15548984D02*
X9301253Y-15548984D01*
X9358396Y-15548984D02*
X9358396Y-15348984D01*
X9358396Y-15348984D02*
X9339348Y-15377555D01*
X9339348Y-15377555D02*
X9320301Y-15396603D01*
X9320301Y-15396603D02*
X9301253Y-15406127D01*
X9501253Y-15529936D02*
X9510777Y-15539460D01*
X9510777Y-15539460D02*
X9501253Y-15548984D01*
X9501253Y-15548984D02*
X9491729Y-15539460D01*
X9491729Y-15539460D02*
X9501253Y-15529936D01*
X9501253Y-15529936D02*
X9501253Y-15548984D01*
X9634586Y-15348984D02*
X9653634Y-15348984D01*
X9653634Y-15348984D02*
X9672682Y-15358508D01*
X9672682Y-15358508D02*
X9682205Y-15368031D01*
X9682205Y-15368031D02*
X9691729Y-15387079D01*
X9691729Y-15387079D02*
X9701253Y-15425174D01*
X9701253Y-15425174D02*
X9701253Y-15472793D01*
X9701253Y-15472793D02*
X9691729Y-15510888D01*
X9691729Y-15510888D02*
X9682205Y-15529936D01*
X9682205Y-15529936D02*
X9672682Y-15539460D01*
X9672682Y-15539460D02*
X9653634Y-15548984D01*
X9653634Y-15548984D02*
X9634586Y-15548984D01*
X9634586Y-15548984D02*
X9615539Y-15539460D01*
X9615539Y-15539460D02*
X9606015Y-15529936D01*
X9606015Y-15529936D02*
X9596491Y-15510888D01*
X9596491Y-15510888D02*
X9586967Y-15472793D01*
X9586967Y-15472793D02*
X9586967Y-15425174D01*
X9586967Y-15425174D02*
X9596491Y-15387079D01*
X9596491Y-15387079D02*
X9606015Y-15368031D01*
X9606015Y-15368031D02*
X9615539Y-15358508D01*
X9615539Y-15358508D02*
X9634586Y-15348984D01*
X9825063Y-15348984D02*
X9844110Y-15348984D01*
X9844110Y-15348984D02*
X9863158Y-15358508D01*
X9863158Y-15358508D02*
X9872682Y-15368031D01*
X9872682Y-15368031D02*
X9882205Y-15387079D01*
X9882205Y-15387079D02*
X9891729Y-15425174D01*
X9891729Y-15425174D02*
X9891729Y-15472793D01*
X9891729Y-15472793D02*
X9882205Y-15510888D01*
X9882205Y-15510888D02*
X9872682Y-15529936D01*
X9872682Y-15529936D02*
X9863158Y-15539460D01*
X9863158Y-15539460D02*
X9844110Y-15548984D01*
X9844110Y-15548984D02*
X9825063Y-15548984D01*
X9825063Y-15548984D02*
X9806015Y-15539460D01*
X9806015Y-15539460D02*
X9796491Y-15529936D01*
X9796491Y-15529936D02*
X9786967Y-15510888D01*
X9786967Y-15510888D02*
X9777444Y-15472793D01*
X9777444Y-15472793D02*
X9777444Y-15425174D01*
X9777444Y-15425174D02*
X9786967Y-15387079D01*
X9786967Y-15387079D02*
X9796491Y-15368031D01*
X9796491Y-15368031D02*
X9806015Y-15358508D01*
X9806015Y-15358508D02*
X9825063Y-15348984D01*
X10015539Y-15348984D02*
X10034586Y-15348984D01*
X10034586Y-15348984D02*
X10053634Y-15358508D01*
X10053634Y-15358508D02*
X10063158Y-15368031D01*
X10063158Y-15368031D02*
X10072682Y-15387079D01*
X10072682Y-15387079D02*
X10082205Y-15425174D01*
X10082205Y-15425174D02*
X10082205Y-15472793D01*
X10082205Y-15472793D02*
X10072682Y-15510888D01*
X10072682Y-15510888D02*
X10063158Y-15529936D01*
X10063158Y-15529936D02*
X10053634Y-15539460D01*
X10053634Y-15539460D02*
X10034586Y-15548984D01*
X10034586Y-15548984D02*
X10015539Y-15548984D01*
X10015539Y-15548984D02*
X9996491Y-15539460D01*
X9996491Y-15539460D02*
X9986967Y-15529936D01*
X9986967Y-15529936D02*
X9977444Y-15510888D01*
X9977444Y-15510888D02*
X9967920Y-15472793D01*
X9967920Y-15472793D02*
X9967920Y-15425174D01*
X9967920Y-15425174D02*
X9977444Y-15387079D01*
X9977444Y-15387079D02*
X9986967Y-15368031D01*
X9986967Y-15368031D02*
X9996491Y-15358508D01*
X9996491Y-15358508D02*
X10015539Y-15348984D01*
X10167920Y-15548984D02*
X10167920Y-15415650D01*
X10167920Y-15434698D02*
X10177444Y-15425174D01*
X10177444Y-15425174D02*
X10196491Y-15415650D01*
X10196491Y-15415650D02*
X10225063Y-15415650D01*
X10225063Y-15415650D02*
X10244110Y-15425174D01*
X10244110Y-15425174D02*
X10253634Y-15444222D01*
X10253634Y-15444222D02*
X10253634Y-15548984D01*
X10253634Y-15444222D02*
X10263158Y-15425174D01*
X10263158Y-15425174D02*
X10282205Y-15415650D01*
X10282205Y-15415650D02*
X10310777Y-15415650D01*
X10310777Y-15415650D02*
X10329825Y-15425174D01*
X10329825Y-15425174D02*
X10339348Y-15444222D01*
X10339348Y-15444222D02*
X10339348Y-15548984D01*
X10434586Y-15548984D02*
X10434586Y-15415650D01*
X10434586Y-15434698D02*
X10444110Y-15425174D01*
X10444110Y-15425174D02*
X10463158Y-15415650D01*
X10463158Y-15415650D02*
X10491729Y-15415650D01*
X10491729Y-15415650D02*
X10510777Y-15425174D01*
X10510777Y-15425174D02*
X10520301Y-15444222D01*
X10520301Y-15444222D02*
X10520301Y-15548984D01*
X10520301Y-15444222D02*
X10529825Y-15425174D01*
X10529825Y-15425174D02*
X10548872Y-15415650D01*
X10548872Y-15415650D02*
X10577444Y-15415650D01*
X10577444Y-15415650D02*
X10596491Y-15425174D01*
X10596491Y-15425174D02*
X10606015Y-15444222D01*
X10606015Y-15444222D02*
X10606015Y-15548984D01*
X10996491Y-15339460D02*
X10825063Y-15596603D01*
X11253634Y-15348984D02*
X11272682Y-15348984D01*
X11272682Y-15348984D02*
X11291729Y-15358508D01*
X11291729Y-15358508D02*
X11301253Y-15368031D01*
X11301253Y-15368031D02*
X11310777Y-15387079D01*
X11310777Y-15387079D02*
X11320301Y-15425174D01*
X11320301Y-15425174D02*
X11320301Y-15472793D01*
X11320301Y-15472793D02*
X11310777Y-15510888D01*
X11310777Y-15510888D02*
X11301253Y-15529936D01*
X11301253Y-15529936D02*
X11291729Y-15539460D01*
X11291729Y-15539460D02*
X11272682Y-15548984D01*
X11272682Y-15548984D02*
X11253634Y-15548984D01*
X11253634Y-15548984D02*
X11234586Y-15539460D01*
X11234586Y-15539460D02*
X11225063Y-15529936D01*
X11225063Y-15529936D02*
X11215539Y-15510888D01*
X11215539Y-15510888D02*
X11206015Y-15472793D01*
X11206015Y-15472793D02*
X11206015Y-15425174D01*
X11206015Y-15425174D02*
X11215539Y-15387079D01*
X11215539Y-15387079D02*
X11225063Y-15368031D01*
X11225063Y-15368031D02*
X11234586Y-15358508D01*
X11234586Y-15358508D02*
X11253634Y-15348984D01*
X11406015Y-15529936D02*
X11415539Y-15539460D01*
X11415539Y-15539460D02*
X11406015Y-15548984D01*
X11406015Y-15548984D02*
X11396491Y-15539460D01*
X11396491Y-15539460D02*
X11406015Y-15529936D01*
X11406015Y-15529936D02*
X11406015Y-15548984D01*
X11539348Y-15348984D02*
X11558396Y-15348984D01*
X11558396Y-15348984D02*
X11577444Y-15358508D01*
X11577444Y-15358508D02*
X11586967Y-15368031D01*
X11586967Y-15368031D02*
X11596491Y-15387079D01*
X11596491Y-15387079D02*
X11606015Y-15425174D01*
X11606015Y-15425174D02*
X11606015Y-15472793D01*
X11606015Y-15472793D02*
X11596491Y-15510888D01*
X11596491Y-15510888D02*
X11586967Y-15529936D01*
X11586967Y-15529936D02*
X11577444Y-15539460D01*
X11577444Y-15539460D02*
X11558396Y-15548984D01*
X11558396Y-15548984D02*
X11539348Y-15548984D01*
X11539348Y-15548984D02*
X11520301Y-15539460D01*
X11520301Y-15539460D02*
X11510777Y-15529936D01*
X11510777Y-15529936D02*
X11501253Y-15510888D01*
X11501253Y-15510888D02*
X11491729Y-15472793D01*
X11491729Y-15472793D02*
X11491729Y-15425174D01*
X11491729Y-15425174D02*
X11501253Y-15387079D01*
X11501253Y-15387079D02*
X11510777Y-15368031D01*
X11510777Y-15368031D02*
X11520301Y-15358508D01*
X11520301Y-15358508D02*
X11539348Y-15348984D01*
X11672682Y-15348984D02*
X11796491Y-15348984D01*
X11796491Y-15348984D02*
X11729825Y-15425174D01*
X11729825Y-15425174D02*
X11758396Y-15425174D01*
X11758396Y-15425174D02*
X11777444Y-15434698D01*
X11777444Y-15434698D02*
X11786967Y-15444222D01*
X11786967Y-15444222D02*
X11796491Y-15463269D01*
X11796491Y-15463269D02*
X11796491Y-15510888D01*
X11796491Y-15510888D02*
X11786967Y-15529936D01*
X11786967Y-15529936D02*
X11777444Y-15539460D01*
X11777444Y-15539460D02*
X11758396Y-15548984D01*
X11758396Y-15548984D02*
X11701253Y-15548984D01*
X11701253Y-15548984D02*
X11682206Y-15539460D01*
X11682206Y-15539460D02*
X11672682Y-15529936D01*
X11891729Y-15548984D02*
X11929825Y-15548984D01*
X11929825Y-15548984D02*
X11948872Y-15539460D01*
X11948872Y-15539460D02*
X11958396Y-15529936D01*
X11958396Y-15529936D02*
X11977444Y-15501365D01*
X11977444Y-15501365D02*
X11986967Y-15463269D01*
X11986967Y-15463269D02*
X11986967Y-15387079D01*
X11986967Y-15387079D02*
X11977444Y-15368031D01*
X11977444Y-15368031D02*
X11967920Y-15358508D01*
X11967920Y-15358508D02*
X11948872Y-15348984D01*
X11948872Y-15348984D02*
X11910777Y-15348984D01*
X11910777Y-15348984D02*
X11891729Y-15358508D01*
X11891729Y-15358508D02*
X11882206Y-15368031D01*
X11882206Y-15368031D02*
X11872682Y-15387079D01*
X11872682Y-15387079D02*
X11872682Y-15434698D01*
X11872682Y-15434698D02*
X11882206Y-15453746D01*
X11882206Y-15453746D02*
X11891729Y-15463269D01*
X11891729Y-15463269D02*
X11910777Y-15472793D01*
X11910777Y-15472793D02*
X11948872Y-15472793D01*
X11948872Y-15472793D02*
X11967920Y-15463269D01*
X11967920Y-15463269D02*
X11977444Y-15453746D01*
X11977444Y-15453746D02*
X11986967Y-15434698D01*
X12158396Y-15415650D02*
X12158396Y-15548984D01*
X12110777Y-15339460D02*
X12063158Y-15482317D01*
X12063158Y-15482317D02*
X12186967Y-15482317D01*
X12253634Y-15348984D02*
X12253634Y-15387079D01*
X12329825Y-15348984D02*
X12329825Y-15387079D01*
X12625063Y-15625174D02*
X12615539Y-15615650D01*
X12615539Y-15615650D02*
X12596491Y-15587079D01*
X12596491Y-15587079D02*
X12586968Y-15568031D01*
X12586968Y-15568031D02*
X12577444Y-15539460D01*
X12577444Y-15539460D02*
X12567920Y-15491841D01*
X12567920Y-15491841D02*
X12567920Y-15453746D01*
X12567920Y-15453746D02*
X12577444Y-15406127D01*
X12577444Y-15406127D02*
X12586968Y-15377555D01*
X12586968Y-15377555D02*
X12596491Y-15358508D01*
X12596491Y-15358508D02*
X12615539Y-15329936D01*
X12615539Y-15329936D02*
X12625063Y-15320412D01*
X12682206Y-15348984D02*
X12815539Y-15348984D01*
X12815539Y-15348984D02*
X12729825Y-15548984D01*
X13044110Y-15548984D02*
X13044110Y-15348984D01*
X13129825Y-15548984D02*
X13129825Y-15444222D01*
X13129825Y-15444222D02*
X13120301Y-15425174D01*
X13120301Y-15425174D02*
X13101253Y-15415650D01*
X13101253Y-15415650D02*
X13072682Y-15415650D01*
X13072682Y-15415650D02*
X13053634Y-15425174D01*
X13053634Y-15425174D02*
X13044110Y-15434698D01*
X13253634Y-15548984D02*
X13234587Y-15539460D01*
X13234587Y-15539460D02*
X13225063Y-15529936D01*
X13225063Y-15529936D02*
X13215539Y-15510888D01*
X13215539Y-15510888D02*
X13215539Y-15453746D01*
X13215539Y-15453746D02*
X13225063Y-15434698D01*
X13225063Y-15434698D02*
X13234587Y-15425174D01*
X13234587Y-15425174D02*
X13253634Y-15415650D01*
X13253634Y-15415650D02*
X13282206Y-15415650D01*
X13282206Y-15415650D02*
X13301253Y-15425174D01*
X13301253Y-15425174D02*
X13310777Y-15434698D01*
X13310777Y-15434698D02*
X13320301Y-15453746D01*
X13320301Y-15453746D02*
X13320301Y-15510888D01*
X13320301Y-15510888D02*
X13310777Y-15529936D01*
X13310777Y-15529936D02*
X13301253Y-15539460D01*
X13301253Y-15539460D02*
X13282206Y-15548984D01*
X13282206Y-15548984D02*
X13253634Y-15548984D01*
X13434587Y-15548984D02*
X13415539Y-15539460D01*
X13415539Y-15539460D02*
X13406015Y-15520412D01*
X13406015Y-15520412D02*
X13406015Y-15348984D01*
X13586968Y-15539460D02*
X13567920Y-15548984D01*
X13567920Y-15548984D02*
X13529825Y-15548984D01*
X13529825Y-15548984D02*
X13510777Y-15539460D01*
X13510777Y-15539460D02*
X13501253Y-15520412D01*
X13501253Y-15520412D02*
X13501253Y-15444222D01*
X13501253Y-15444222D02*
X13510777Y-15425174D01*
X13510777Y-15425174D02*
X13529825Y-15415650D01*
X13529825Y-15415650D02*
X13567920Y-15415650D01*
X13567920Y-15415650D02*
X13586968Y-15425174D01*
X13586968Y-15425174D02*
X13596491Y-15444222D01*
X13596491Y-15444222D02*
X13596491Y-15463269D01*
X13596491Y-15463269D02*
X13501253Y-15482317D01*
X13672682Y-15539460D02*
X13691730Y-15548984D01*
X13691730Y-15548984D02*
X13729825Y-15548984D01*
X13729825Y-15548984D02*
X13748872Y-15539460D01*
X13748872Y-15539460D02*
X13758396Y-15520412D01*
X13758396Y-15520412D02*
X13758396Y-15510888D01*
X13758396Y-15510888D02*
X13748872Y-15491841D01*
X13748872Y-15491841D02*
X13729825Y-15482317D01*
X13729825Y-15482317D02*
X13701253Y-15482317D01*
X13701253Y-15482317D02*
X13682206Y-15472793D01*
X13682206Y-15472793D02*
X13672682Y-15453746D01*
X13672682Y-15453746D02*
X13672682Y-15444222D01*
X13672682Y-15444222D02*
X13682206Y-15425174D01*
X13682206Y-15425174D02*
X13701253Y-15415650D01*
X13701253Y-15415650D02*
X13729825Y-15415650D01*
X13729825Y-15415650D02*
X13748872Y-15425174D01*
X13825063Y-15625174D02*
X13834587Y-15615650D01*
X13834587Y-15615650D02*
X13853634Y-15587079D01*
X13853634Y-15587079D02*
X13863158Y-15568031D01*
X13863158Y-15568031D02*
X13872682Y-15539460D01*
X13872682Y-15539460D02*
X13882206Y-15491841D01*
X13882206Y-15491841D02*
X13882206Y-15453746D01*
X13882206Y-15453746D02*
X13872682Y-15406127D01*
X13872682Y-15406127D02*
X13863158Y-15377555D01*
X13863158Y-15377555D02*
X13853634Y-15358508D01*
X13853634Y-15358508D02*
X13834587Y-15329936D01*
X13834587Y-15329936D02*
X13825063Y-15320412D01*
D13*
X8946000Y-15669500D02*
X9050000Y-15773500D01*
X9050000Y-15669500D02*
X8946000Y-15773500D01*
X8998000Y-15669500D02*
X8998000Y-15773500D01*
X8946000Y-15721500D02*
X9050000Y-15721500D01*
D11*
X9415539Y-15812984D02*
X9301253Y-15812984D01*
X9358396Y-15812984D02*
X9358396Y-15612984D01*
X9358396Y-15612984D02*
X9339348Y-15641555D01*
X9339348Y-15641555D02*
X9320301Y-15660603D01*
X9320301Y-15660603D02*
X9301253Y-15670127D01*
X9501253Y-15793936D02*
X9510777Y-15803460D01*
X9510777Y-15803460D02*
X9501253Y-15812984D01*
X9501253Y-15812984D02*
X9491729Y-15803460D01*
X9491729Y-15803460D02*
X9501253Y-15793936D01*
X9501253Y-15793936D02*
X9501253Y-15812984D01*
X9634586Y-15612984D02*
X9653634Y-15612984D01*
X9653634Y-15612984D02*
X9672682Y-15622508D01*
X9672682Y-15622508D02*
X9682205Y-15632031D01*
X9682205Y-15632031D02*
X9691729Y-15651079D01*
X9691729Y-15651079D02*
X9701253Y-15689174D01*
X9701253Y-15689174D02*
X9701253Y-15736793D01*
X9701253Y-15736793D02*
X9691729Y-15774888D01*
X9691729Y-15774888D02*
X9682205Y-15793936D01*
X9682205Y-15793936D02*
X9672682Y-15803460D01*
X9672682Y-15803460D02*
X9653634Y-15812984D01*
X9653634Y-15812984D02*
X9634586Y-15812984D01*
X9634586Y-15812984D02*
X9615539Y-15803460D01*
X9615539Y-15803460D02*
X9606015Y-15793936D01*
X9606015Y-15793936D02*
X9596491Y-15774888D01*
X9596491Y-15774888D02*
X9586967Y-15736793D01*
X9586967Y-15736793D02*
X9586967Y-15689174D01*
X9586967Y-15689174D02*
X9596491Y-15651079D01*
X9596491Y-15651079D02*
X9606015Y-15632031D01*
X9606015Y-15632031D02*
X9615539Y-15622508D01*
X9615539Y-15622508D02*
X9634586Y-15612984D01*
X9872682Y-15679650D02*
X9872682Y-15812984D01*
X9825063Y-15603460D02*
X9777444Y-15746317D01*
X9777444Y-15746317D02*
X9901253Y-15746317D01*
X10015539Y-15612984D02*
X10034586Y-15612984D01*
X10034586Y-15612984D02*
X10053634Y-15622508D01*
X10053634Y-15622508D02*
X10063158Y-15632031D01*
X10063158Y-15632031D02*
X10072682Y-15651079D01*
X10072682Y-15651079D02*
X10082205Y-15689174D01*
X10082205Y-15689174D02*
X10082205Y-15736793D01*
X10082205Y-15736793D02*
X10072682Y-15774888D01*
X10072682Y-15774888D02*
X10063158Y-15793936D01*
X10063158Y-15793936D02*
X10053634Y-15803460D01*
X10053634Y-15803460D02*
X10034586Y-15812984D01*
X10034586Y-15812984D02*
X10015539Y-15812984D01*
X10015539Y-15812984D02*
X9996491Y-15803460D01*
X9996491Y-15803460D02*
X9986967Y-15793936D01*
X9986967Y-15793936D02*
X9977444Y-15774888D01*
X9977444Y-15774888D02*
X9967920Y-15736793D01*
X9967920Y-15736793D02*
X9967920Y-15689174D01*
X9967920Y-15689174D02*
X9977444Y-15651079D01*
X9977444Y-15651079D02*
X9986967Y-15632031D01*
X9986967Y-15632031D02*
X9996491Y-15622508D01*
X9996491Y-15622508D02*
X10015539Y-15612984D01*
X10167920Y-15812984D02*
X10167920Y-15679650D01*
X10167920Y-15698698D02*
X10177444Y-15689174D01*
X10177444Y-15689174D02*
X10196491Y-15679650D01*
X10196491Y-15679650D02*
X10225063Y-15679650D01*
X10225063Y-15679650D02*
X10244110Y-15689174D01*
X10244110Y-15689174D02*
X10253634Y-15708222D01*
X10253634Y-15708222D02*
X10253634Y-15812984D01*
X10253634Y-15708222D02*
X10263158Y-15689174D01*
X10263158Y-15689174D02*
X10282205Y-15679650D01*
X10282205Y-15679650D02*
X10310777Y-15679650D01*
X10310777Y-15679650D02*
X10329825Y-15689174D01*
X10329825Y-15689174D02*
X10339348Y-15708222D01*
X10339348Y-15708222D02*
X10339348Y-15812984D01*
X10434586Y-15812984D02*
X10434586Y-15679650D01*
X10434586Y-15698698D02*
X10444110Y-15689174D01*
X10444110Y-15689174D02*
X10463158Y-15679650D01*
X10463158Y-15679650D02*
X10491729Y-15679650D01*
X10491729Y-15679650D02*
X10510777Y-15689174D01*
X10510777Y-15689174D02*
X10520301Y-15708222D01*
X10520301Y-15708222D02*
X10520301Y-15812984D01*
X10520301Y-15708222D02*
X10529825Y-15689174D01*
X10529825Y-15689174D02*
X10548872Y-15679650D01*
X10548872Y-15679650D02*
X10577444Y-15679650D01*
X10577444Y-15679650D02*
X10596491Y-15689174D01*
X10596491Y-15689174D02*
X10606015Y-15708222D01*
X10606015Y-15708222D02*
X10606015Y-15812984D01*
X10996491Y-15603460D02*
X10825063Y-15860603D01*
X11253634Y-15612984D02*
X11272682Y-15612984D01*
X11272682Y-15612984D02*
X11291729Y-15622508D01*
X11291729Y-15622508D02*
X11301253Y-15632031D01*
X11301253Y-15632031D02*
X11310777Y-15651079D01*
X11310777Y-15651079D02*
X11320301Y-15689174D01*
X11320301Y-15689174D02*
X11320301Y-15736793D01*
X11320301Y-15736793D02*
X11310777Y-15774888D01*
X11310777Y-15774888D02*
X11301253Y-15793936D01*
X11301253Y-15793936D02*
X11291729Y-15803460D01*
X11291729Y-15803460D02*
X11272682Y-15812984D01*
X11272682Y-15812984D02*
X11253634Y-15812984D01*
X11253634Y-15812984D02*
X11234586Y-15803460D01*
X11234586Y-15803460D02*
X11225063Y-15793936D01*
X11225063Y-15793936D02*
X11215539Y-15774888D01*
X11215539Y-15774888D02*
X11206015Y-15736793D01*
X11206015Y-15736793D02*
X11206015Y-15689174D01*
X11206015Y-15689174D02*
X11215539Y-15651079D01*
X11215539Y-15651079D02*
X11225063Y-15632031D01*
X11225063Y-15632031D02*
X11234586Y-15622508D01*
X11234586Y-15622508D02*
X11253634Y-15612984D01*
X11406015Y-15793936D02*
X11415539Y-15803460D01*
X11415539Y-15803460D02*
X11406015Y-15812984D01*
X11406015Y-15812984D02*
X11396491Y-15803460D01*
X11396491Y-15803460D02*
X11406015Y-15793936D01*
X11406015Y-15793936D02*
X11406015Y-15812984D01*
X11539348Y-15612984D02*
X11558396Y-15612984D01*
X11558396Y-15612984D02*
X11577444Y-15622508D01*
X11577444Y-15622508D02*
X11586967Y-15632031D01*
X11586967Y-15632031D02*
X11596491Y-15651079D01*
X11596491Y-15651079D02*
X11606015Y-15689174D01*
X11606015Y-15689174D02*
X11606015Y-15736793D01*
X11606015Y-15736793D02*
X11596491Y-15774888D01*
X11596491Y-15774888D02*
X11586967Y-15793936D01*
X11586967Y-15793936D02*
X11577444Y-15803460D01*
X11577444Y-15803460D02*
X11558396Y-15812984D01*
X11558396Y-15812984D02*
X11539348Y-15812984D01*
X11539348Y-15812984D02*
X11520301Y-15803460D01*
X11520301Y-15803460D02*
X11510777Y-15793936D01*
X11510777Y-15793936D02*
X11501253Y-15774888D01*
X11501253Y-15774888D02*
X11491729Y-15736793D01*
X11491729Y-15736793D02*
X11491729Y-15689174D01*
X11491729Y-15689174D02*
X11501253Y-15651079D01*
X11501253Y-15651079D02*
X11510777Y-15632031D01*
X11510777Y-15632031D02*
X11520301Y-15622508D01*
X11520301Y-15622508D02*
X11539348Y-15612984D01*
X11777444Y-15679650D02*
X11777444Y-15812984D01*
X11729825Y-15603460D02*
X11682206Y-15746317D01*
X11682206Y-15746317D02*
X11806015Y-15746317D01*
X11920301Y-15612984D02*
X11939348Y-15612984D01*
X11939348Y-15612984D02*
X11958396Y-15622508D01*
X11958396Y-15622508D02*
X11967920Y-15632031D01*
X11967920Y-15632031D02*
X11977444Y-15651079D01*
X11977444Y-15651079D02*
X11986967Y-15689174D01*
X11986967Y-15689174D02*
X11986967Y-15736793D01*
X11986967Y-15736793D02*
X11977444Y-15774888D01*
X11977444Y-15774888D02*
X11967920Y-15793936D01*
X11967920Y-15793936D02*
X11958396Y-15803460D01*
X11958396Y-15803460D02*
X11939348Y-15812984D01*
X11939348Y-15812984D02*
X11920301Y-15812984D01*
X11920301Y-15812984D02*
X11901253Y-15803460D01*
X11901253Y-15803460D02*
X11891729Y-15793936D01*
X11891729Y-15793936D02*
X11882206Y-15774888D01*
X11882206Y-15774888D02*
X11872682Y-15736793D01*
X11872682Y-15736793D02*
X11872682Y-15689174D01*
X11872682Y-15689174D02*
X11882206Y-15651079D01*
X11882206Y-15651079D02*
X11891729Y-15632031D01*
X11891729Y-15632031D02*
X11901253Y-15622508D01*
X11901253Y-15622508D02*
X11920301Y-15612984D01*
X12082206Y-15812984D02*
X12120301Y-15812984D01*
X12120301Y-15812984D02*
X12139348Y-15803460D01*
X12139348Y-15803460D02*
X12148872Y-15793936D01*
X12148872Y-15793936D02*
X12167920Y-15765365D01*
X12167920Y-15765365D02*
X12177444Y-15727269D01*
X12177444Y-15727269D02*
X12177444Y-15651079D01*
X12177444Y-15651079D02*
X12167920Y-15632031D01*
X12167920Y-15632031D02*
X12158396Y-15622508D01*
X12158396Y-15622508D02*
X12139348Y-15612984D01*
X12139348Y-15612984D02*
X12101253Y-15612984D01*
X12101253Y-15612984D02*
X12082206Y-15622508D01*
X12082206Y-15622508D02*
X12072682Y-15632031D01*
X12072682Y-15632031D02*
X12063158Y-15651079D01*
X12063158Y-15651079D02*
X12063158Y-15698698D01*
X12063158Y-15698698D02*
X12072682Y-15717746D01*
X12072682Y-15717746D02*
X12082206Y-15727269D01*
X12082206Y-15727269D02*
X12101253Y-15736793D01*
X12101253Y-15736793D02*
X12139348Y-15736793D01*
X12139348Y-15736793D02*
X12158396Y-15727269D01*
X12158396Y-15727269D02*
X12167920Y-15717746D01*
X12167920Y-15717746D02*
X12177444Y-15698698D01*
X12253634Y-15612984D02*
X12253634Y-15651079D01*
X12329825Y-15612984D02*
X12329825Y-15651079D01*
X12625063Y-15889174D02*
X12615539Y-15879650D01*
X12615539Y-15879650D02*
X12596491Y-15851079D01*
X12596491Y-15851079D02*
X12586968Y-15832031D01*
X12586968Y-15832031D02*
X12577444Y-15803460D01*
X12577444Y-15803460D02*
X12567920Y-15755841D01*
X12567920Y-15755841D02*
X12567920Y-15717746D01*
X12567920Y-15717746D02*
X12577444Y-15670127D01*
X12577444Y-15670127D02*
X12586968Y-15641555D01*
X12586968Y-15641555D02*
X12596491Y-15622508D01*
X12596491Y-15622508D02*
X12615539Y-15593936D01*
X12615539Y-15593936D02*
X12625063Y-15584412D01*
X12682206Y-15612984D02*
X12815539Y-15612984D01*
X12815539Y-15612984D02*
X12729825Y-15812984D01*
X12977444Y-15612984D02*
X12939348Y-15612984D01*
X12939348Y-15612984D02*
X12920301Y-15622508D01*
X12920301Y-15622508D02*
X12910777Y-15632031D01*
X12910777Y-15632031D02*
X12891729Y-15660603D01*
X12891729Y-15660603D02*
X12882206Y-15698698D01*
X12882206Y-15698698D02*
X12882206Y-15774888D01*
X12882206Y-15774888D02*
X12891729Y-15793936D01*
X12891729Y-15793936D02*
X12901253Y-15803460D01*
X12901253Y-15803460D02*
X12920301Y-15812984D01*
X12920301Y-15812984D02*
X12958396Y-15812984D01*
X12958396Y-15812984D02*
X12977444Y-15803460D01*
X12977444Y-15803460D02*
X12986968Y-15793936D01*
X12986968Y-15793936D02*
X12996491Y-15774888D01*
X12996491Y-15774888D02*
X12996491Y-15727269D01*
X12996491Y-15727269D02*
X12986968Y-15708222D01*
X12986968Y-15708222D02*
X12977444Y-15698698D01*
X12977444Y-15698698D02*
X12958396Y-15689174D01*
X12958396Y-15689174D02*
X12920301Y-15689174D01*
X12920301Y-15689174D02*
X12901253Y-15698698D01*
X12901253Y-15698698D02*
X12891729Y-15708222D01*
X12891729Y-15708222D02*
X12882206Y-15727269D01*
X13234587Y-15812984D02*
X13234587Y-15612984D01*
X13320301Y-15812984D02*
X13320301Y-15708222D01*
X13320301Y-15708222D02*
X13310777Y-15689174D01*
X13310777Y-15689174D02*
X13291730Y-15679650D01*
X13291730Y-15679650D02*
X13263158Y-15679650D01*
X13263158Y-15679650D02*
X13244110Y-15689174D01*
X13244110Y-15689174D02*
X13234587Y-15698698D01*
X13444110Y-15812984D02*
X13425063Y-15803460D01*
X13425063Y-15803460D02*
X13415539Y-15793936D01*
X13415539Y-15793936D02*
X13406015Y-15774888D01*
X13406015Y-15774888D02*
X13406015Y-15717746D01*
X13406015Y-15717746D02*
X13415539Y-15698698D01*
X13415539Y-15698698D02*
X13425063Y-15689174D01*
X13425063Y-15689174D02*
X13444110Y-15679650D01*
X13444110Y-15679650D02*
X13472682Y-15679650D01*
X13472682Y-15679650D02*
X13491730Y-15689174D01*
X13491730Y-15689174D02*
X13501253Y-15698698D01*
X13501253Y-15698698D02*
X13510777Y-15717746D01*
X13510777Y-15717746D02*
X13510777Y-15774888D01*
X13510777Y-15774888D02*
X13501253Y-15793936D01*
X13501253Y-15793936D02*
X13491730Y-15803460D01*
X13491730Y-15803460D02*
X13472682Y-15812984D01*
X13472682Y-15812984D02*
X13444110Y-15812984D01*
X13625063Y-15812984D02*
X13606015Y-15803460D01*
X13606015Y-15803460D02*
X13596491Y-15784412D01*
X13596491Y-15784412D02*
X13596491Y-15612984D01*
X13777444Y-15803460D02*
X13758396Y-15812984D01*
X13758396Y-15812984D02*
X13720301Y-15812984D01*
X13720301Y-15812984D02*
X13701253Y-15803460D01*
X13701253Y-15803460D02*
X13691730Y-15784412D01*
X13691730Y-15784412D02*
X13691730Y-15708222D01*
X13691730Y-15708222D02*
X13701253Y-15689174D01*
X13701253Y-15689174D02*
X13720301Y-15679650D01*
X13720301Y-15679650D02*
X13758396Y-15679650D01*
X13758396Y-15679650D02*
X13777444Y-15689174D01*
X13777444Y-15689174D02*
X13786968Y-15708222D01*
X13786968Y-15708222D02*
X13786968Y-15727269D01*
X13786968Y-15727269D02*
X13691730Y-15746317D01*
X13863158Y-15803460D02*
X13882206Y-15812984D01*
X13882206Y-15812984D02*
X13920301Y-15812984D01*
X13920301Y-15812984D02*
X13939349Y-15803460D01*
X13939349Y-15803460D02*
X13948872Y-15784412D01*
X13948872Y-15784412D02*
X13948872Y-15774888D01*
X13948872Y-15774888D02*
X13939349Y-15755841D01*
X13939349Y-15755841D02*
X13920301Y-15746317D01*
X13920301Y-15746317D02*
X13891730Y-15746317D01*
X13891730Y-15746317D02*
X13872682Y-15736793D01*
X13872682Y-15736793D02*
X13863158Y-15717746D01*
X13863158Y-15717746D02*
X13863158Y-15708222D01*
X13863158Y-15708222D02*
X13872682Y-15689174D01*
X13872682Y-15689174D02*
X13891730Y-15679650D01*
X13891730Y-15679650D02*
X13920301Y-15679650D01*
X13920301Y-15679650D02*
X13939349Y-15689174D01*
X14015539Y-15889174D02*
X14025063Y-15879650D01*
X14025063Y-15879650D02*
X14044111Y-15851079D01*
X14044111Y-15851079D02*
X14053634Y-15832031D01*
X14053634Y-15832031D02*
X14063158Y-15803460D01*
X14063158Y-15803460D02*
X14072682Y-15755841D01*
X14072682Y-15755841D02*
X14072682Y-15717746D01*
X14072682Y-15717746D02*
X14063158Y-15670127D01*
X14063158Y-15670127D02*
X14053634Y-15641555D01*
X14053634Y-15641555D02*
X14044111Y-15622508D01*
X14044111Y-15622508D02*
X14025063Y-15593936D01*
X14025063Y-15593936D02*
X14015539Y-15584412D01*
D14*
X8943000Y-15932000D02*
X9050000Y-16039000D01*
X9050000Y-15932000D02*
X8943000Y-16039000D01*
X9034331Y-16023331D02*
X9034331Y-15947669D01*
X8958669Y-15947669D01*
X8958669Y-16023331D01*
X9034331Y-16023331D01*
D11*
X9415539Y-16076984D02*
X9301253Y-16076984D01*
X9358396Y-16076984D02*
X9358396Y-15876984D01*
X9358396Y-15876984D02*
X9339348Y-15905555D01*
X9339348Y-15905555D02*
X9320301Y-15924603D01*
X9320301Y-15924603D02*
X9301253Y-15934127D01*
X9501253Y-16057936D02*
X9510777Y-16067460D01*
X9510777Y-16067460D02*
X9501253Y-16076984D01*
X9501253Y-16076984D02*
X9491729Y-16067460D01*
X9491729Y-16067460D02*
X9501253Y-16057936D01*
X9501253Y-16057936D02*
X9501253Y-16076984D01*
X9634586Y-15876984D02*
X9653634Y-15876984D01*
X9653634Y-15876984D02*
X9672682Y-15886508D01*
X9672682Y-15886508D02*
X9682205Y-15896031D01*
X9682205Y-15896031D02*
X9691729Y-15915079D01*
X9691729Y-15915079D02*
X9701253Y-15953174D01*
X9701253Y-15953174D02*
X9701253Y-16000793D01*
X9701253Y-16000793D02*
X9691729Y-16038888D01*
X9691729Y-16038888D02*
X9682205Y-16057936D01*
X9682205Y-16057936D02*
X9672682Y-16067460D01*
X9672682Y-16067460D02*
X9653634Y-16076984D01*
X9653634Y-16076984D02*
X9634586Y-16076984D01*
X9634586Y-16076984D02*
X9615539Y-16067460D01*
X9615539Y-16067460D02*
X9606015Y-16057936D01*
X9606015Y-16057936D02*
X9596491Y-16038888D01*
X9596491Y-16038888D02*
X9586967Y-16000793D01*
X9586967Y-16000793D02*
X9586967Y-15953174D01*
X9586967Y-15953174D02*
X9596491Y-15915079D01*
X9596491Y-15915079D02*
X9606015Y-15896031D01*
X9606015Y-15896031D02*
X9615539Y-15886508D01*
X9615539Y-15886508D02*
X9634586Y-15876984D01*
X9767920Y-15876984D02*
X9901253Y-15876984D01*
X9901253Y-15876984D02*
X9815539Y-16076984D01*
X10015539Y-15876984D02*
X10034586Y-15876984D01*
X10034586Y-15876984D02*
X10053634Y-15886508D01*
X10053634Y-15886508D02*
X10063158Y-15896031D01*
X10063158Y-15896031D02*
X10072682Y-15915079D01*
X10072682Y-15915079D02*
X10082205Y-15953174D01*
X10082205Y-15953174D02*
X10082205Y-16000793D01*
X10082205Y-16000793D02*
X10072682Y-16038888D01*
X10072682Y-16038888D02*
X10063158Y-16057936D01*
X10063158Y-16057936D02*
X10053634Y-16067460D01*
X10053634Y-16067460D02*
X10034586Y-16076984D01*
X10034586Y-16076984D02*
X10015539Y-16076984D01*
X10015539Y-16076984D02*
X9996491Y-16067460D01*
X9996491Y-16067460D02*
X9986967Y-16057936D01*
X9986967Y-16057936D02*
X9977444Y-16038888D01*
X9977444Y-16038888D02*
X9967920Y-16000793D01*
X9967920Y-16000793D02*
X9967920Y-15953174D01*
X9967920Y-15953174D02*
X9977444Y-15915079D01*
X9977444Y-15915079D02*
X9986967Y-15896031D01*
X9986967Y-15896031D02*
X9996491Y-15886508D01*
X9996491Y-15886508D02*
X10015539Y-15876984D01*
X10167920Y-16076984D02*
X10167920Y-15943650D01*
X10167920Y-15962698D02*
X10177444Y-15953174D01*
X10177444Y-15953174D02*
X10196491Y-15943650D01*
X10196491Y-15943650D02*
X10225063Y-15943650D01*
X10225063Y-15943650D02*
X10244110Y-15953174D01*
X10244110Y-15953174D02*
X10253634Y-15972222D01*
X10253634Y-15972222D02*
X10253634Y-16076984D01*
X10253634Y-15972222D02*
X10263158Y-15953174D01*
X10263158Y-15953174D02*
X10282205Y-15943650D01*
X10282205Y-15943650D02*
X10310777Y-15943650D01*
X10310777Y-15943650D02*
X10329825Y-15953174D01*
X10329825Y-15953174D02*
X10339348Y-15972222D01*
X10339348Y-15972222D02*
X10339348Y-16076984D01*
X10434586Y-16076984D02*
X10434586Y-15943650D01*
X10434586Y-15962698D02*
X10444110Y-15953174D01*
X10444110Y-15953174D02*
X10463158Y-15943650D01*
X10463158Y-15943650D02*
X10491729Y-15943650D01*
X10491729Y-15943650D02*
X10510777Y-15953174D01*
X10510777Y-15953174D02*
X10520301Y-15972222D01*
X10520301Y-15972222D02*
X10520301Y-16076984D01*
X10520301Y-15972222D02*
X10529825Y-15953174D01*
X10529825Y-15953174D02*
X10548872Y-15943650D01*
X10548872Y-15943650D02*
X10577444Y-15943650D01*
X10577444Y-15943650D02*
X10596491Y-15953174D01*
X10596491Y-15953174D02*
X10606015Y-15972222D01*
X10606015Y-15972222D02*
X10606015Y-16076984D01*
X10996491Y-15867460D02*
X10825063Y-16124603D01*
X11253634Y-15876984D02*
X11272682Y-15876984D01*
X11272682Y-15876984D02*
X11291729Y-15886508D01*
X11291729Y-15886508D02*
X11301253Y-15896031D01*
X11301253Y-15896031D02*
X11310777Y-15915079D01*
X11310777Y-15915079D02*
X11320301Y-15953174D01*
X11320301Y-15953174D02*
X11320301Y-16000793D01*
X11320301Y-16000793D02*
X11310777Y-16038888D01*
X11310777Y-16038888D02*
X11301253Y-16057936D01*
X11301253Y-16057936D02*
X11291729Y-16067460D01*
X11291729Y-16067460D02*
X11272682Y-16076984D01*
X11272682Y-16076984D02*
X11253634Y-16076984D01*
X11253634Y-16076984D02*
X11234586Y-16067460D01*
X11234586Y-16067460D02*
X11225063Y-16057936D01*
X11225063Y-16057936D02*
X11215539Y-16038888D01*
X11215539Y-16038888D02*
X11206015Y-16000793D01*
X11206015Y-16000793D02*
X11206015Y-15953174D01*
X11206015Y-15953174D02*
X11215539Y-15915079D01*
X11215539Y-15915079D02*
X11225063Y-15896031D01*
X11225063Y-15896031D02*
X11234586Y-15886508D01*
X11234586Y-15886508D02*
X11253634Y-15876984D01*
X11406015Y-16057936D02*
X11415539Y-16067460D01*
X11415539Y-16067460D02*
X11406015Y-16076984D01*
X11406015Y-16076984D02*
X11396491Y-16067460D01*
X11396491Y-16067460D02*
X11406015Y-16057936D01*
X11406015Y-16057936D02*
X11406015Y-16076984D01*
X11539348Y-15876984D02*
X11558396Y-15876984D01*
X11558396Y-15876984D02*
X11577444Y-15886508D01*
X11577444Y-15886508D02*
X11586967Y-15896031D01*
X11586967Y-15896031D02*
X11596491Y-15915079D01*
X11596491Y-15915079D02*
X11606015Y-15953174D01*
X11606015Y-15953174D02*
X11606015Y-16000793D01*
X11606015Y-16000793D02*
X11596491Y-16038888D01*
X11596491Y-16038888D02*
X11586967Y-16057936D01*
X11586967Y-16057936D02*
X11577444Y-16067460D01*
X11577444Y-16067460D02*
X11558396Y-16076984D01*
X11558396Y-16076984D02*
X11539348Y-16076984D01*
X11539348Y-16076984D02*
X11520301Y-16067460D01*
X11520301Y-16067460D02*
X11510777Y-16057936D01*
X11510777Y-16057936D02*
X11501253Y-16038888D01*
X11501253Y-16038888D02*
X11491729Y-16000793D01*
X11491729Y-16000793D02*
X11491729Y-15953174D01*
X11491729Y-15953174D02*
X11501253Y-15915079D01*
X11501253Y-15915079D02*
X11510777Y-15896031D01*
X11510777Y-15896031D02*
X11520301Y-15886508D01*
X11520301Y-15886508D02*
X11539348Y-15876984D01*
X11777444Y-15943650D02*
X11777444Y-16076984D01*
X11729825Y-15867460D02*
X11682206Y-16010317D01*
X11682206Y-16010317D02*
X11806015Y-16010317D01*
X11872682Y-15896031D02*
X11882206Y-15886508D01*
X11882206Y-15886508D02*
X11901253Y-15876984D01*
X11901253Y-15876984D02*
X11948872Y-15876984D01*
X11948872Y-15876984D02*
X11967920Y-15886508D01*
X11967920Y-15886508D02*
X11977444Y-15896031D01*
X11977444Y-15896031D02*
X11986967Y-15915079D01*
X11986967Y-15915079D02*
X11986967Y-15934127D01*
X11986967Y-15934127D02*
X11977444Y-15962698D01*
X11977444Y-15962698D02*
X11863158Y-16076984D01*
X11863158Y-16076984D02*
X11986967Y-16076984D01*
X12177444Y-16076984D02*
X12063158Y-16076984D01*
X12120301Y-16076984D02*
X12120301Y-15876984D01*
X12120301Y-15876984D02*
X12101253Y-15905555D01*
X12101253Y-15905555D02*
X12082206Y-15924603D01*
X12082206Y-15924603D02*
X12063158Y-15934127D01*
X12253634Y-15876984D02*
X12253634Y-15915079D01*
X12329825Y-15876984D02*
X12329825Y-15915079D01*
X12625063Y-16153174D02*
X12615539Y-16143650D01*
X12615539Y-16143650D02*
X12596491Y-16115079D01*
X12596491Y-16115079D02*
X12586968Y-16096031D01*
X12586968Y-16096031D02*
X12577444Y-16067460D01*
X12577444Y-16067460D02*
X12567920Y-16019841D01*
X12567920Y-16019841D02*
X12567920Y-15981746D01*
X12567920Y-15981746D02*
X12577444Y-15934127D01*
X12577444Y-15934127D02*
X12586968Y-15905555D01*
X12586968Y-15905555D02*
X12596491Y-15886508D01*
X12596491Y-15886508D02*
X12615539Y-15857936D01*
X12615539Y-15857936D02*
X12625063Y-15848412D01*
X12786968Y-15876984D02*
X12748872Y-15876984D01*
X12748872Y-15876984D02*
X12729825Y-15886508D01*
X12729825Y-15886508D02*
X12720301Y-15896031D01*
X12720301Y-15896031D02*
X12701253Y-15924603D01*
X12701253Y-15924603D02*
X12691729Y-15962698D01*
X12691729Y-15962698D02*
X12691729Y-16038888D01*
X12691729Y-16038888D02*
X12701253Y-16057936D01*
X12701253Y-16057936D02*
X12710777Y-16067460D01*
X12710777Y-16067460D02*
X12729825Y-16076984D01*
X12729825Y-16076984D02*
X12767920Y-16076984D01*
X12767920Y-16076984D02*
X12786968Y-16067460D01*
X12786968Y-16067460D02*
X12796491Y-16057936D01*
X12796491Y-16057936D02*
X12806015Y-16038888D01*
X12806015Y-16038888D02*
X12806015Y-15991269D01*
X12806015Y-15991269D02*
X12796491Y-15972222D01*
X12796491Y-15972222D02*
X12786968Y-15962698D01*
X12786968Y-15962698D02*
X12767920Y-15953174D01*
X12767920Y-15953174D02*
X12729825Y-15953174D01*
X12729825Y-15953174D02*
X12710777Y-15962698D01*
X12710777Y-15962698D02*
X12701253Y-15972222D01*
X12701253Y-15972222D02*
X12691729Y-15991269D01*
X13044110Y-16076984D02*
X13044110Y-15876984D01*
X13129825Y-16076984D02*
X13129825Y-15972222D01*
X13129825Y-15972222D02*
X13120301Y-15953174D01*
X13120301Y-15953174D02*
X13101253Y-15943650D01*
X13101253Y-15943650D02*
X13072682Y-15943650D01*
X13072682Y-15943650D02*
X13053634Y-15953174D01*
X13053634Y-15953174D02*
X13044110Y-15962698D01*
X13253634Y-16076984D02*
X13234587Y-16067460D01*
X13234587Y-16067460D02*
X13225063Y-16057936D01*
X13225063Y-16057936D02*
X13215539Y-16038888D01*
X13215539Y-16038888D02*
X13215539Y-15981746D01*
X13215539Y-15981746D02*
X13225063Y-15962698D01*
X13225063Y-15962698D02*
X13234587Y-15953174D01*
X13234587Y-15953174D02*
X13253634Y-15943650D01*
X13253634Y-15943650D02*
X13282206Y-15943650D01*
X13282206Y-15943650D02*
X13301253Y-15953174D01*
X13301253Y-15953174D02*
X13310777Y-15962698D01*
X13310777Y-15962698D02*
X13320301Y-15981746D01*
X13320301Y-15981746D02*
X13320301Y-16038888D01*
X13320301Y-16038888D02*
X13310777Y-16057936D01*
X13310777Y-16057936D02*
X13301253Y-16067460D01*
X13301253Y-16067460D02*
X13282206Y-16076984D01*
X13282206Y-16076984D02*
X13253634Y-16076984D01*
X13434587Y-16076984D02*
X13415539Y-16067460D01*
X13415539Y-16067460D02*
X13406015Y-16048412D01*
X13406015Y-16048412D02*
X13406015Y-15876984D01*
X13586968Y-16067460D02*
X13567920Y-16076984D01*
X13567920Y-16076984D02*
X13529825Y-16076984D01*
X13529825Y-16076984D02*
X13510777Y-16067460D01*
X13510777Y-16067460D02*
X13501253Y-16048412D01*
X13501253Y-16048412D02*
X13501253Y-15972222D01*
X13501253Y-15972222D02*
X13510777Y-15953174D01*
X13510777Y-15953174D02*
X13529825Y-15943650D01*
X13529825Y-15943650D02*
X13567920Y-15943650D01*
X13567920Y-15943650D02*
X13586968Y-15953174D01*
X13586968Y-15953174D02*
X13596491Y-15972222D01*
X13596491Y-15972222D02*
X13596491Y-15991269D01*
X13596491Y-15991269D02*
X13501253Y-16010317D01*
X13672682Y-16067460D02*
X13691730Y-16076984D01*
X13691730Y-16076984D02*
X13729825Y-16076984D01*
X13729825Y-16076984D02*
X13748872Y-16067460D01*
X13748872Y-16067460D02*
X13758396Y-16048412D01*
X13758396Y-16048412D02*
X13758396Y-16038888D01*
X13758396Y-16038888D02*
X13748872Y-16019841D01*
X13748872Y-16019841D02*
X13729825Y-16010317D01*
X13729825Y-16010317D02*
X13701253Y-16010317D01*
X13701253Y-16010317D02*
X13682206Y-16000793D01*
X13682206Y-16000793D02*
X13672682Y-15981746D01*
X13672682Y-15981746D02*
X13672682Y-15972222D01*
X13672682Y-15972222D02*
X13682206Y-15953174D01*
X13682206Y-15953174D02*
X13701253Y-15943650D01*
X13701253Y-15943650D02*
X13729825Y-15943650D01*
X13729825Y-15943650D02*
X13748872Y-15953174D01*
X13825063Y-16153174D02*
X13834587Y-16143650D01*
X13834587Y-16143650D02*
X13853634Y-16115079D01*
X13853634Y-16115079D02*
X13863158Y-16096031D01*
X13863158Y-16096031D02*
X13872682Y-16067460D01*
X13872682Y-16067460D02*
X13882206Y-16019841D01*
X13882206Y-16019841D02*
X13882206Y-15981746D01*
X13882206Y-15981746D02*
X13872682Y-15934127D01*
X13872682Y-15934127D02*
X13863158Y-15905555D01*
X13863158Y-15905555D02*
X13853634Y-15886508D01*
X13853634Y-15886508D02*
X13834587Y-15857936D01*
X13834587Y-15857936D02*
X13825063Y-15848412D01*
D15*
X8930000Y-16189500D02*
X9050000Y-16309500D01*
X9050000Y-16189500D02*
X8930000Y-16309500D01*
X8990000Y-16309500D02*
X9050000Y-16249500D01*
X8990000Y-16189500D01*
X8930000Y-16249500D01*
X8990000Y-16309500D01*
D11*
X9415539Y-16340984D02*
X9301253Y-16340984D01*
X9358396Y-16340984D02*
X9358396Y-16140984D01*
X9358396Y-16140984D02*
X9339348Y-16169555D01*
X9339348Y-16169555D02*
X9320301Y-16188603D01*
X9320301Y-16188603D02*
X9301253Y-16198127D01*
X9501253Y-16321936D02*
X9510777Y-16331460D01*
X9510777Y-16331460D02*
X9501253Y-16340984D01*
X9501253Y-16340984D02*
X9491729Y-16331460D01*
X9491729Y-16331460D02*
X9501253Y-16321936D01*
X9501253Y-16321936D02*
X9501253Y-16340984D01*
X9586967Y-16160031D02*
X9596491Y-16150508D01*
X9596491Y-16150508D02*
X9615539Y-16140984D01*
X9615539Y-16140984D02*
X9663158Y-16140984D01*
X9663158Y-16140984D02*
X9682205Y-16150508D01*
X9682205Y-16150508D02*
X9691729Y-16160031D01*
X9691729Y-16160031D02*
X9701253Y-16179079D01*
X9701253Y-16179079D02*
X9701253Y-16198127D01*
X9701253Y-16198127D02*
X9691729Y-16226698D01*
X9691729Y-16226698D02*
X9577444Y-16340984D01*
X9577444Y-16340984D02*
X9701253Y-16340984D01*
X9825063Y-16140984D02*
X9844110Y-16140984D01*
X9844110Y-16140984D02*
X9863158Y-16150508D01*
X9863158Y-16150508D02*
X9872682Y-16160031D01*
X9872682Y-16160031D02*
X9882205Y-16179079D01*
X9882205Y-16179079D02*
X9891729Y-16217174D01*
X9891729Y-16217174D02*
X9891729Y-16264793D01*
X9891729Y-16264793D02*
X9882205Y-16302888D01*
X9882205Y-16302888D02*
X9872682Y-16321936D01*
X9872682Y-16321936D02*
X9863158Y-16331460D01*
X9863158Y-16331460D02*
X9844110Y-16340984D01*
X9844110Y-16340984D02*
X9825063Y-16340984D01*
X9825063Y-16340984D02*
X9806015Y-16331460D01*
X9806015Y-16331460D02*
X9796491Y-16321936D01*
X9796491Y-16321936D02*
X9786967Y-16302888D01*
X9786967Y-16302888D02*
X9777444Y-16264793D01*
X9777444Y-16264793D02*
X9777444Y-16217174D01*
X9777444Y-16217174D02*
X9786967Y-16179079D01*
X9786967Y-16179079D02*
X9796491Y-16160031D01*
X9796491Y-16160031D02*
X9806015Y-16150508D01*
X9806015Y-16150508D02*
X9825063Y-16140984D01*
X10015539Y-16140984D02*
X10034586Y-16140984D01*
X10034586Y-16140984D02*
X10053634Y-16150508D01*
X10053634Y-16150508D02*
X10063158Y-16160031D01*
X10063158Y-16160031D02*
X10072682Y-16179079D01*
X10072682Y-16179079D02*
X10082205Y-16217174D01*
X10082205Y-16217174D02*
X10082205Y-16264793D01*
X10082205Y-16264793D02*
X10072682Y-16302888D01*
X10072682Y-16302888D02*
X10063158Y-16321936D01*
X10063158Y-16321936D02*
X10053634Y-16331460D01*
X10053634Y-16331460D02*
X10034586Y-16340984D01*
X10034586Y-16340984D02*
X10015539Y-16340984D01*
X10015539Y-16340984D02*
X9996491Y-16331460D01*
X9996491Y-16331460D02*
X9986967Y-16321936D01*
X9986967Y-16321936D02*
X9977444Y-16302888D01*
X9977444Y-16302888D02*
X9967920Y-16264793D01*
X9967920Y-16264793D02*
X9967920Y-16217174D01*
X9967920Y-16217174D02*
X9977444Y-16179079D01*
X9977444Y-16179079D02*
X9986967Y-16160031D01*
X9986967Y-16160031D02*
X9996491Y-16150508D01*
X9996491Y-16150508D02*
X10015539Y-16140984D01*
X10167920Y-16340984D02*
X10167920Y-16207650D01*
X10167920Y-16226698D02*
X10177444Y-16217174D01*
X10177444Y-16217174D02*
X10196491Y-16207650D01*
X10196491Y-16207650D02*
X10225063Y-16207650D01*
X10225063Y-16207650D02*
X10244110Y-16217174D01*
X10244110Y-16217174D02*
X10253634Y-16236222D01*
X10253634Y-16236222D02*
X10253634Y-16340984D01*
X10253634Y-16236222D02*
X10263158Y-16217174D01*
X10263158Y-16217174D02*
X10282205Y-16207650D01*
X10282205Y-16207650D02*
X10310777Y-16207650D01*
X10310777Y-16207650D02*
X10329825Y-16217174D01*
X10329825Y-16217174D02*
X10339348Y-16236222D01*
X10339348Y-16236222D02*
X10339348Y-16340984D01*
X10434586Y-16340984D02*
X10434586Y-16207650D01*
X10434586Y-16226698D02*
X10444110Y-16217174D01*
X10444110Y-16217174D02*
X10463158Y-16207650D01*
X10463158Y-16207650D02*
X10491729Y-16207650D01*
X10491729Y-16207650D02*
X10510777Y-16217174D01*
X10510777Y-16217174D02*
X10520301Y-16236222D01*
X10520301Y-16236222D02*
X10520301Y-16340984D01*
X10520301Y-16236222D02*
X10529825Y-16217174D01*
X10529825Y-16217174D02*
X10548872Y-16207650D01*
X10548872Y-16207650D02*
X10577444Y-16207650D01*
X10577444Y-16207650D02*
X10596491Y-16217174D01*
X10596491Y-16217174D02*
X10606015Y-16236222D01*
X10606015Y-16236222D02*
X10606015Y-16340984D01*
X10996491Y-16131460D02*
X10825063Y-16388603D01*
X11253634Y-16140984D02*
X11272682Y-16140984D01*
X11272682Y-16140984D02*
X11291729Y-16150508D01*
X11291729Y-16150508D02*
X11301253Y-16160031D01*
X11301253Y-16160031D02*
X11310777Y-16179079D01*
X11310777Y-16179079D02*
X11320301Y-16217174D01*
X11320301Y-16217174D02*
X11320301Y-16264793D01*
X11320301Y-16264793D02*
X11310777Y-16302888D01*
X11310777Y-16302888D02*
X11301253Y-16321936D01*
X11301253Y-16321936D02*
X11291729Y-16331460D01*
X11291729Y-16331460D02*
X11272682Y-16340984D01*
X11272682Y-16340984D02*
X11253634Y-16340984D01*
X11253634Y-16340984D02*
X11234586Y-16331460D01*
X11234586Y-16331460D02*
X11225063Y-16321936D01*
X11225063Y-16321936D02*
X11215539Y-16302888D01*
X11215539Y-16302888D02*
X11206015Y-16264793D01*
X11206015Y-16264793D02*
X11206015Y-16217174D01*
X11206015Y-16217174D02*
X11215539Y-16179079D01*
X11215539Y-16179079D02*
X11225063Y-16160031D01*
X11225063Y-16160031D02*
X11234586Y-16150508D01*
X11234586Y-16150508D02*
X11253634Y-16140984D01*
X11406015Y-16321936D02*
X11415539Y-16331460D01*
X11415539Y-16331460D02*
X11406015Y-16340984D01*
X11406015Y-16340984D02*
X11396491Y-16331460D01*
X11396491Y-16331460D02*
X11406015Y-16321936D01*
X11406015Y-16321936D02*
X11406015Y-16340984D01*
X11539348Y-16140984D02*
X11558396Y-16140984D01*
X11558396Y-16140984D02*
X11577444Y-16150508D01*
X11577444Y-16150508D02*
X11586967Y-16160031D01*
X11586967Y-16160031D02*
X11596491Y-16179079D01*
X11596491Y-16179079D02*
X11606015Y-16217174D01*
X11606015Y-16217174D02*
X11606015Y-16264793D01*
X11606015Y-16264793D02*
X11596491Y-16302888D01*
X11596491Y-16302888D02*
X11586967Y-16321936D01*
X11586967Y-16321936D02*
X11577444Y-16331460D01*
X11577444Y-16331460D02*
X11558396Y-16340984D01*
X11558396Y-16340984D02*
X11539348Y-16340984D01*
X11539348Y-16340984D02*
X11520301Y-16331460D01*
X11520301Y-16331460D02*
X11510777Y-16321936D01*
X11510777Y-16321936D02*
X11501253Y-16302888D01*
X11501253Y-16302888D02*
X11491729Y-16264793D01*
X11491729Y-16264793D02*
X11491729Y-16217174D01*
X11491729Y-16217174D02*
X11501253Y-16179079D01*
X11501253Y-16179079D02*
X11510777Y-16160031D01*
X11510777Y-16160031D02*
X11520301Y-16150508D01*
X11520301Y-16150508D02*
X11539348Y-16140984D01*
X11777444Y-16207650D02*
X11777444Y-16340984D01*
X11729825Y-16131460D02*
X11682206Y-16274317D01*
X11682206Y-16274317D02*
X11806015Y-16274317D01*
X11863158Y-16140984D02*
X11996491Y-16140984D01*
X11996491Y-16140984D02*
X11910777Y-16340984D01*
X12063158Y-16160031D02*
X12072682Y-16150508D01*
X12072682Y-16150508D02*
X12091729Y-16140984D01*
X12091729Y-16140984D02*
X12139348Y-16140984D01*
X12139348Y-16140984D02*
X12158396Y-16150508D01*
X12158396Y-16150508D02*
X12167920Y-16160031D01*
X12167920Y-16160031D02*
X12177444Y-16179079D01*
X12177444Y-16179079D02*
X12177444Y-16198127D01*
X12177444Y-16198127D02*
X12167920Y-16226698D01*
X12167920Y-16226698D02*
X12053634Y-16340984D01*
X12053634Y-16340984D02*
X12177444Y-16340984D01*
X12253634Y-16140984D02*
X12253634Y-16179079D01*
X12329825Y-16140984D02*
X12329825Y-16179079D01*
X12625063Y-16417174D02*
X12615539Y-16407650D01*
X12615539Y-16407650D02*
X12596491Y-16379079D01*
X12596491Y-16379079D02*
X12586968Y-16360031D01*
X12586968Y-16360031D02*
X12577444Y-16331460D01*
X12577444Y-16331460D02*
X12567920Y-16283841D01*
X12567920Y-16283841D02*
X12567920Y-16245746D01*
X12567920Y-16245746D02*
X12577444Y-16198127D01*
X12577444Y-16198127D02*
X12586968Y-16169555D01*
X12586968Y-16169555D02*
X12596491Y-16150508D01*
X12596491Y-16150508D02*
X12615539Y-16121936D01*
X12615539Y-16121936D02*
X12625063Y-16112412D01*
X12806015Y-16340984D02*
X12691729Y-16340984D01*
X12748872Y-16340984D02*
X12748872Y-16140984D01*
X12748872Y-16140984D02*
X12729825Y-16169555D01*
X12729825Y-16169555D02*
X12710777Y-16188603D01*
X12710777Y-16188603D02*
X12691729Y-16198127D01*
X12929825Y-16140984D02*
X12948872Y-16140984D01*
X12948872Y-16140984D02*
X12967920Y-16150508D01*
X12967920Y-16150508D02*
X12977444Y-16160031D01*
X12977444Y-16160031D02*
X12986968Y-16179079D01*
X12986968Y-16179079D02*
X12996491Y-16217174D01*
X12996491Y-16217174D02*
X12996491Y-16264793D01*
X12996491Y-16264793D02*
X12986968Y-16302888D01*
X12986968Y-16302888D02*
X12977444Y-16321936D01*
X12977444Y-16321936D02*
X12967920Y-16331460D01*
X12967920Y-16331460D02*
X12948872Y-16340984D01*
X12948872Y-16340984D02*
X12929825Y-16340984D01*
X12929825Y-16340984D02*
X12910777Y-16331460D01*
X12910777Y-16331460D02*
X12901253Y-16321936D01*
X12901253Y-16321936D02*
X12891729Y-16302888D01*
X12891729Y-16302888D02*
X12882206Y-16264793D01*
X12882206Y-16264793D02*
X12882206Y-16217174D01*
X12882206Y-16217174D02*
X12891729Y-16179079D01*
X12891729Y-16179079D02*
X12901253Y-16160031D01*
X12901253Y-16160031D02*
X12910777Y-16150508D01*
X12910777Y-16150508D02*
X12929825Y-16140984D01*
X13234587Y-16340984D02*
X13234587Y-16140984D01*
X13320301Y-16340984D02*
X13320301Y-16236222D01*
X13320301Y-16236222D02*
X13310777Y-16217174D01*
X13310777Y-16217174D02*
X13291730Y-16207650D01*
X13291730Y-16207650D02*
X13263158Y-16207650D01*
X13263158Y-16207650D02*
X13244110Y-16217174D01*
X13244110Y-16217174D02*
X13234587Y-16226698D01*
X13444110Y-16340984D02*
X13425063Y-16331460D01*
X13425063Y-16331460D02*
X13415539Y-16321936D01*
X13415539Y-16321936D02*
X13406015Y-16302888D01*
X13406015Y-16302888D02*
X13406015Y-16245746D01*
X13406015Y-16245746D02*
X13415539Y-16226698D01*
X13415539Y-16226698D02*
X13425063Y-16217174D01*
X13425063Y-16217174D02*
X13444110Y-16207650D01*
X13444110Y-16207650D02*
X13472682Y-16207650D01*
X13472682Y-16207650D02*
X13491730Y-16217174D01*
X13491730Y-16217174D02*
X13501253Y-16226698D01*
X13501253Y-16226698D02*
X13510777Y-16245746D01*
X13510777Y-16245746D02*
X13510777Y-16302888D01*
X13510777Y-16302888D02*
X13501253Y-16321936D01*
X13501253Y-16321936D02*
X13491730Y-16331460D01*
X13491730Y-16331460D02*
X13472682Y-16340984D01*
X13472682Y-16340984D02*
X13444110Y-16340984D01*
X13625063Y-16340984D02*
X13606015Y-16331460D01*
X13606015Y-16331460D02*
X13596491Y-16312412D01*
X13596491Y-16312412D02*
X13596491Y-16140984D01*
X13777444Y-16331460D02*
X13758396Y-16340984D01*
X13758396Y-16340984D02*
X13720301Y-16340984D01*
X13720301Y-16340984D02*
X13701253Y-16331460D01*
X13701253Y-16331460D02*
X13691730Y-16312412D01*
X13691730Y-16312412D02*
X13691730Y-16236222D01*
X13691730Y-16236222D02*
X13701253Y-16217174D01*
X13701253Y-16217174D02*
X13720301Y-16207650D01*
X13720301Y-16207650D02*
X13758396Y-16207650D01*
X13758396Y-16207650D02*
X13777444Y-16217174D01*
X13777444Y-16217174D02*
X13786968Y-16236222D01*
X13786968Y-16236222D02*
X13786968Y-16255269D01*
X13786968Y-16255269D02*
X13691730Y-16274317D01*
X13863158Y-16331460D02*
X13882206Y-16340984D01*
X13882206Y-16340984D02*
X13920301Y-16340984D01*
X13920301Y-16340984D02*
X13939349Y-16331460D01*
X13939349Y-16331460D02*
X13948872Y-16312412D01*
X13948872Y-16312412D02*
X13948872Y-16302888D01*
X13948872Y-16302888D02*
X13939349Y-16283841D01*
X13939349Y-16283841D02*
X13920301Y-16274317D01*
X13920301Y-16274317D02*
X13891730Y-16274317D01*
X13891730Y-16274317D02*
X13872682Y-16264793D01*
X13872682Y-16264793D02*
X13863158Y-16245746D01*
X13863158Y-16245746D02*
X13863158Y-16236222D01*
X13863158Y-16236222D02*
X13872682Y-16217174D01*
X13872682Y-16217174D02*
X13891730Y-16207650D01*
X13891730Y-16207650D02*
X13920301Y-16207650D01*
X13920301Y-16207650D02*
X13939349Y-16217174D01*
X14015539Y-16417174D02*
X14025063Y-16407650D01*
X14025063Y-16407650D02*
X14044111Y-16379079D01*
X14044111Y-16379079D02*
X14053634Y-16360031D01*
X14053634Y-16360031D02*
X14063158Y-16331460D01*
X14063158Y-16331460D02*
X14072682Y-16283841D01*
X14072682Y-16283841D02*
X14072682Y-16245746D01*
X14072682Y-16245746D02*
X14063158Y-16198127D01*
X14063158Y-16198127D02*
X14053634Y-16169555D01*
X14053634Y-16169555D02*
X14044111Y-16150508D01*
X14044111Y-16150508D02*
X14025063Y-16121936D01*
X14025063Y-16121936D02*
X14015539Y-16112412D01*
D16*
X8975000Y-16438500D02*
X8975000Y-16588500D01*
X8900000Y-16513500D02*
X9050000Y-16513500D01*
X9050000Y-16513500D02*
G75*
G02*
X8900000Y-16513500I-75000J0D01*
G01*
X8900000Y-16513500D02*
G75*
G02*
X9050000Y-16513500I75000J0D01*
G01*
D11*
X9415539Y-16604984D02*
X9301253Y-16604984D01*
X9358396Y-16604984D02*
X9358396Y-16404984D01*
X9358396Y-16404984D02*
X9339348Y-16433555D01*
X9339348Y-16433555D02*
X9320301Y-16452603D01*
X9320301Y-16452603D02*
X9301253Y-16462127D01*
X9501253Y-16585936D02*
X9510777Y-16595460D01*
X9510777Y-16595460D02*
X9501253Y-16604984D01*
X9501253Y-16604984D02*
X9491729Y-16595460D01*
X9491729Y-16595460D02*
X9501253Y-16585936D01*
X9501253Y-16585936D02*
X9501253Y-16604984D01*
X9691729Y-16404984D02*
X9596491Y-16404984D01*
X9596491Y-16404984D02*
X9586967Y-16500222D01*
X9586967Y-16500222D02*
X9596491Y-16490698D01*
X9596491Y-16490698D02*
X9615539Y-16481174D01*
X9615539Y-16481174D02*
X9663158Y-16481174D01*
X9663158Y-16481174D02*
X9682205Y-16490698D01*
X9682205Y-16490698D02*
X9691729Y-16500222D01*
X9691729Y-16500222D02*
X9701253Y-16519269D01*
X9701253Y-16519269D02*
X9701253Y-16566888D01*
X9701253Y-16566888D02*
X9691729Y-16585936D01*
X9691729Y-16585936D02*
X9682205Y-16595460D01*
X9682205Y-16595460D02*
X9663158Y-16604984D01*
X9663158Y-16604984D02*
X9615539Y-16604984D01*
X9615539Y-16604984D02*
X9596491Y-16595460D01*
X9596491Y-16595460D02*
X9586967Y-16585936D01*
X9825063Y-16404984D02*
X9844110Y-16404984D01*
X9844110Y-16404984D02*
X9863158Y-16414508D01*
X9863158Y-16414508D02*
X9872682Y-16424031D01*
X9872682Y-16424031D02*
X9882205Y-16443079D01*
X9882205Y-16443079D02*
X9891729Y-16481174D01*
X9891729Y-16481174D02*
X9891729Y-16528793D01*
X9891729Y-16528793D02*
X9882205Y-16566888D01*
X9882205Y-16566888D02*
X9872682Y-16585936D01*
X9872682Y-16585936D02*
X9863158Y-16595460D01*
X9863158Y-16595460D02*
X9844110Y-16604984D01*
X9844110Y-16604984D02*
X9825063Y-16604984D01*
X9825063Y-16604984D02*
X9806015Y-16595460D01*
X9806015Y-16595460D02*
X9796491Y-16585936D01*
X9796491Y-16585936D02*
X9786967Y-16566888D01*
X9786967Y-16566888D02*
X9777444Y-16528793D01*
X9777444Y-16528793D02*
X9777444Y-16481174D01*
X9777444Y-16481174D02*
X9786967Y-16443079D01*
X9786967Y-16443079D02*
X9796491Y-16424031D01*
X9796491Y-16424031D02*
X9806015Y-16414508D01*
X9806015Y-16414508D02*
X9825063Y-16404984D01*
X10015539Y-16404984D02*
X10034586Y-16404984D01*
X10034586Y-16404984D02*
X10053634Y-16414508D01*
X10053634Y-16414508D02*
X10063158Y-16424031D01*
X10063158Y-16424031D02*
X10072682Y-16443079D01*
X10072682Y-16443079D02*
X10082205Y-16481174D01*
X10082205Y-16481174D02*
X10082205Y-16528793D01*
X10082205Y-16528793D02*
X10072682Y-16566888D01*
X10072682Y-16566888D02*
X10063158Y-16585936D01*
X10063158Y-16585936D02*
X10053634Y-16595460D01*
X10053634Y-16595460D02*
X10034586Y-16604984D01*
X10034586Y-16604984D02*
X10015539Y-16604984D01*
X10015539Y-16604984D02*
X9996491Y-16595460D01*
X9996491Y-16595460D02*
X9986967Y-16585936D01*
X9986967Y-16585936D02*
X9977444Y-16566888D01*
X9977444Y-16566888D02*
X9967920Y-16528793D01*
X9967920Y-16528793D02*
X9967920Y-16481174D01*
X9967920Y-16481174D02*
X9977444Y-16443079D01*
X9977444Y-16443079D02*
X9986967Y-16424031D01*
X9986967Y-16424031D02*
X9996491Y-16414508D01*
X9996491Y-16414508D02*
X10015539Y-16404984D01*
X10167920Y-16604984D02*
X10167920Y-16471650D01*
X10167920Y-16490698D02*
X10177444Y-16481174D01*
X10177444Y-16481174D02*
X10196491Y-16471650D01*
X10196491Y-16471650D02*
X10225063Y-16471650D01*
X10225063Y-16471650D02*
X10244110Y-16481174D01*
X10244110Y-16481174D02*
X10253634Y-16500222D01*
X10253634Y-16500222D02*
X10253634Y-16604984D01*
X10253634Y-16500222D02*
X10263158Y-16481174D01*
X10263158Y-16481174D02*
X10282205Y-16471650D01*
X10282205Y-16471650D02*
X10310777Y-16471650D01*
X10310777Y-16471650D02*
X10329825Y-16481174D01*
X10329825Y-16481174D02*
X10339348Y-16500222D01*
X10339348Y-16500222D02*
X10339348Y-16604984D01*
X10434586Y-16604984D02*
X10434586Y-16471650D01*
X10434586Y-16490698D02*
X10444110Y-16481174D01*
X10444110Y-16481174D02*
X10463158Y-16471650D01*
X10463158Y-16471650D02*
X10491729Y-16471650D01*
X10491729Y-16471650D02*
X10510777Y-16481174D01*
X10510777Y-16481174D02*
X10520301Y-16500222D01*
X10520301Y-16500222D02*
X10520301Y-16604984D01*
X10520301Y-16500222D02*
X10529825Y-16481174D01*
X10529825Y-16481174D02*
X10548872Y-16471650D01*
X10548872Y-16471650D02*
X10577444Y-16471650D01*
X10577444Y-16471650D02*
X10596491Y-16481174D01*
X10596491Y-16481174D02*
X10606015Y-16500222D01*
X10606015Y-16500222D02*
X10606015Y-16604984D01*
X10996491Y-16395460D02*
X10825063Y-16652603D01*
X11253634Y-16404984D02*
X11272682Y-16404984D01*
X11272682Y-16404984D02*
X11291729Y-16414508D01*
X11291729Y-16414508D02*
X11301253Y-16424031D01*
X11301253Y-16424031D02*
X11310777Y-16443079D01*
X11310777Y-16443079D02*
X11320301Y-16481174D01*
X11320301Y-16481174D02*
X11320301Y-16528793D01*
X11320301Y-16528793D02*
X11310777Y-16566888D01*
X11310777Y-16566888D02*
X11301253Y-16585936D01*
X11301253Y-16585936D02*
X11291729Y-16595460D01*
X11291729Y-16595460D02*
X11272682Y-16604984D01*
X11272682Y-16604984D02*
X11253634Y-16604984D01*
X11253634Y-16604984D02*
X11234586Y-16595460D01*
X11234586Y-16595460D02*
X11225063Y-16585936D01*
X11225063Y-16585936D02*
X11215539Y-16566888D01*
X11215539Y-16566888D02*
X11206015Y-16528793D01*
X11206015Y-16528793D02*
X11206015Y-16481174D01*
X11206015Y-16481174D02*
X11215539Y-16443079D01*
X11215539Y-16443079D02*
X11225063Y-16424031D01*
X11225063Y-16424031D02*
X11234586Y-16414508D01*
X11234586Y-16414508D02*
X11253634Y-16404984D01*
X11406015Y-16585936D02*
X11415539Y-16595460D01*
X11415539Y-16595460D02*
X11406015Y-16604984D01*
X11406015Y-16604984D02*
X11396491Y-16595460D01*
X11396491Y-16595460D02*
X11406015Y-16585936D01*
X11406015Y-16585936D02*
X11406015Y-16604984D01*
X11539348Y-16404984D02*
X11558396Y-16404984D01*
X11558396Y-16404984D02*
X11577444Y-16414508D01*
X11577444Y-16414508D02*
X11586967Y-16424031D01*
X11586967Y-16424031D02*
X11596491Y-16443079D01*
X11596491Y-16443079D02*
X11606015Y-16481174D01*
X11606015Y-16481174D02*
X11606015Y-16528793D01*
X11606015Y-16528793D02*
X11596491Y-16566888D01*
X11596491Y-16566888D02*
X11586967Y-16585936D01*
X11586967Y-16585936D02*
X11577444Y-16595460D01*
X11577444Y-16595460D02*
X11558396Y-16604984D01*
X11558396Y-16604984D02*
X11539348Y-16604984D01*
X11539348Y-16604984D02*
X11520301Y-16595460D01*
X11520301Y-16595460D02*
X11510777Y-16585936D01*
X11510777Y-16585936D02*
X11501253Y-16566888D01*
X11501253Y-16566888D02*
X11491729Y-16528793D01*
X11491729Y-16528793D02*
X11491729Y-16481174D01*
X11491729Y-16481174D02*
X11501253Y-16443079D01*
X11501253Y-16443079D02*
X11510777Y-16424031D01*
X11510777Y-16424031D02*
X11520301Y-16414508D01*
X11520301Y-16414508D02*
X11539348Y-16404984D01*
X11786967Y-16404984D02*
X11691729Y-16404984D01*
X11691729Y-16404984D02*
X11682206Y-16500222D01*
X11682206Y-16500222D02*
X11691729Y-16490698D01*
X11691729Y-16490698D02*
X11710777Y-16481174D01*
X11710777Y-16481174D02*
X11758396Y-16481174D01*
X11758396Y-16481174D02*
X11777444Y-16490698D01*
X11777444Y-16490698D02*
X11786967Y-16500222D01*
X11786967Y-16500222D02*
X11796491Y-16519269D01*
X11796491Y-16519269D02*
X11796491Y-16566888D01*
X11796491Y-16566888D02*
X11786967Y-16585936D01*
X11786967Y-16585936D02*
X11777444Y-16595460D01*
X11777444Y-16595460D02*
X11758396Y-16604984D01*
X11758396Y-16604984D02*
X11710777Y-16604984D01*
X11710777Y-16604984D02*
X11691729Y-16595460D01*
X11691729Y-16595460D02*
X11682206Y-16585936D01*
X11891729Y-16604984D02*
X11929825Y-16604984D01*
X11929825Y-16604984D02*
X11948872Y-16595460D01*
X11948872Y-16595460D02*
X11958396Y-16585936D01*
X11958396Y-16585936D02*
X11977444Y-16557365D01*
X11977444Y-16557365D02*
X11986967Y-16519269D01*
X11986967Y-16519269D02*
X11986967Y-16443079D01*
X11986967Y-16443079D02*
X11977444Y-16424031D01*
X11977444Y-16424031D02*
X11967920Y-16414508D01*
X11967920Y-16414508D02*
X11948872Y-16404984D01*
X11948872Y-16404984D02*
X11910777Y-16404984D01*
X11910777Y-16404984D02*
X11891729Y-16414508D01*
X11891729Y-16414508D02*
X11882206Y-16424031D01*
X11882206Y-16424031D02*
X11872682Y-16443079D01*
X11872682Y-16443079D02*
X11872682Y-16490698D01*
X11872682Y-16490698D02*
X11882206Y-16509746D01*
X11882206Y-16509746D02*
X11891729Y-16519269D01*
X11891729Y-16519269D02*
X11910777Y-16528793D01*
X11910777Y-16528793D02*
X11948872Y-16528793D01*
X11948872Y-16528793D02*
X11967920Y-16519269D01*
X11967920Y-16519269D02*
X11977444Y-16509746D01*
X11977444Y-16509746D02*
X11986967Y-16490698D01*
X12177444Y-16604984D02*
X12063158Y-16604984D01*
X12120301Y-16604984D02*
X12120301Y-16404984D01*
X12120301Y-16404984D02*
X12101253Y-16433555D01*
X12101253Y-16433555D02*
X12082206Y-16452603D01*
X12082206Y-16452603D02*
X12063158Y-16462127D01*
X12253634Y-16404984D02*
X12253634Y-16443079D01*
X12329825Y-16404984D02*
X12329825Y-16443079D01*
X12625063Y-16681174D02*
X12615539Y-16671650D01*
X12615539Y-16671650D02*
X12596491Y-16643079D01*
X12596491Y-16643079D02*
X12586968Y-16624031D01*
X12586968Y-16624031D02*
X12577444Y-16595460D01*
X12577444Y-16595460D02*
X12567920Y-16547841D01*
X12567920Y-16547841D02*
X12567920Y-16509746D01*
X12567920Y-16509746D02*
X12577444Y-16462127D01*
X12577444Y-16462127D02*
X12586968Y-16433555D01*
X12586968Y-16433555D02*
X12596491Y-16414508D01*
X12596491Y-16414508D02*
X12615539Y-16385936D01*
X12615539Y-16385936D02*
X12625063Y-16376412D01*
X12691729Y-16424031D02*
X12701253Y-16414508D01*
X12701253Y-16414508D02*
X12720301Y-16404984D01*
X12720301Y-16404984D02*
X12767920Y-16404984D01*
X12767920Y-16404984D02*
X12786968Y-16414508D01*
X12786968Y-16414508D02*
X12796491Y-16424031D01*
X12796491Y-16424031D02*
X12806015Y-16443079D01*
X12806015Y-16443079D02*
X12806015Y-16462127D01*
X12806015Y-16462127D02*
X12796491Y-16490698D01*
X12796491Y-16490698D02*
X12682206Y-16604984D01*
X12682206Y-16604984D02*
X12806015Y-16604984D01*
X13044110Y-16604984D02*
X13044110Y-16404984D01*
X13129825Y-16604984D02*
X13129825Y-16500222D01*
X13129825Y-16500222D02*
X13120301Y-16481174D01*
X13120301Y-16481174D02*
X13101253Y-16471650D01*
X13101253Y-16471650D02*
X13072682Y-16471650D01*
X13072682Y-16471650D02*
X13053634Y-16481174D01*
X13053634Y-16481174D02*
X13044110Y-16490698D01*
X13253634Y-16604984D02*
X13234587Y-16595460D01*
X13234587Y-16595460D02*
X13225063Y-16585936D01*
X13225063Y-16585936D02*
X13215539Y-16566888D01*
X13215539Y-16566888D02*
X13215539Y-16509746D01*
X13215539Y-16509746D02*
X13225063Y-16490698D01*
X13225063Y-16490698D02*
X13234587Y-16481174D01*
X13234587Y-16481174D02*
X13253634Y-16471650D01*
X13253634Y-16471650D02*
X13282206Y-16471650D01*
X13282206Y-16471650D02*
X13301253Y-16481174D01*
X13301253Y-16481174D02*
X13310777Y-16490698D01*
X13310777Y-16490698D02*
X13320301Y-16509746D01*
X13320301Y-16509746D02*
X13320301Y-16566888D01*
X13320301Y-16566888D02*
X13310777Y-16585936D01*
X13310777Y-16585936D02*
X13301253Y-16595460D01*
X13301253Y-16595460D02*
X13282206Y-16604984D01*
X13282206Y-16604984D02*
X13253634Y-16604984D01*
X13434587Y-16604984D02*
X13415539Y-16595460D01*
X13415539Y-16595460D02*
X13406015Y-16576412D01*
X13406015Y-16576412D02*
X13406015Y-16404984D01*
X13586968Y-16595460D02*
X13567920Y-16604984D01*
X13567920Y-16604984D02*
X13529825Y-16604984D01*
X13529825Y-16604984D02*
X13510777Y-16595460D01*
X13510777Y-16595460D02*
X13501253Y-16576412D01*
X13501253Y-16576412D02*
X13501253Y-16500222D01*
X13501253Y-16500222D02*
X13510777Y-16481174D01*
X13510777Y-16481174D02*
X13529825Y-16471650D01*
X13529825Y-16471650D02*
X13567920Y-16471650D01*
X13567920Y-16471650D02*
X13586968Y-16481174D01*
X13586968Y-16481174D02*
X13596491Y-16500222D01*
X13596491Y-16500222D02*
X13596491Y-16519269D01*
X13596491Y-16519269D02*
X13501253Y-16538317D01*
X13672682Y-16595460D02*
X13691730Y-16604984D01*
X13691730Y-16604984D02*
X13729825Y-16604984D01*
X13729825Y-16604984D02*
X13748872Y-16595460D01*
X13748872Y-16595460D02*
X13758396Y-16576412D01*
X13758396Y-16576412D02*
X13758396Y-16566888D01*
X13758396Y-16566888D02*
X13748872Y-16547841D01*
X13748872Y-16547841D02*
X13729825Y-16538317D01*
X13729825Y-16538317D02*
X13701253Y-16538317D01*
X13701253Y-16538317D02*
X13682206Y-16528793D01*
X13682206Y-16528793D02*
X13672682Y-16509746D01*
X13672682Y-16509746D02*
X13672682Y-16500222D01*
X13672682Y-16500222D02*
X13682206Y-16481174D01*
X13682206Y-16481174D02*
X13701253Y-16471650D01*
X13701253Y-16471650D02*
X13729825Y-16471650D01*
X13729825Y-16471650D02*
X13748872Y-16481174D01*
X13825063Y-16681174D02*
X13834587Y-16671650D01*
X13834587Y-16671650D02*
X13853634Y-16643079D01*
X13853634Y-16643079D02*
X13863158Y-16624031D01*
X13863158Y-16624031D02*
X13872682Y-16595460D01*
X13872682Y-16595460D02*
X13882206Y-16547841D01*
X13882206Y-16547841D02*
X13882206Y-16509746D01*
X13882206Y-16509746D02*
X13872682Y-16462127D01*
X13872682Y-16462127D02*
X13863158Y-16433555D01*
X13863158Y-16433555D02*
X13853634Y-16414508D01*
X13853634Y-16414508D02*
X13834587Y-16385936D01*
X13834587Y-16385936D02*
X13825063Y-16376412D01*
D17*
X9026569Y-16840069D02*
X9026569Y-16726931D01*
X8913431Y-16726931D01*
X8913431Y-16840069D01*
X9026569Y-16840069D01*
X9050000Y-16783500D02*
G75*
G02*
X8890000Y-16783500I-80000J0D01*
G01*
X8890000Y-16783500D02*
G75*
G02*
X9050000Y-16783500I80000J0D01*
G01*
D11*
X9415539Y-16874984D02*
X9301253Y-16874984D01*
X9358396Y-16874984D02*
X9358396Y-16674984D01*
X9358396Y-16674984D02*
X9339348Y-16703555D01*
X9339348Y-16703555D02*
X9320301Y-16722603D01*
X9320301Y-16722603D02*
X9301253Y-16732127D01*
X9501253Y-16855936D02*
X9510777Y-16865460D01*
X9510777Y-16865460D02*
X9501253Y-16874984D01*
X9501253Y-16874984D02*
X9491729Y-16865460D01*
X9491729Y-16865460D02*
X9501253Y-16855936D01*
X9501253Y-16855936D02*
X9501253Y-16874984D01*
X9682205Y-16674984D02*
X9644110Y-16674984D01*
X9644110Y-16674984D02*
X9625063Y-16684508D01*
X9625063Y-16684508D02*
X9615539Y-16694031D01*
X9615539Y-16694031D02*
X9596491Y-16722603D01*
X9596491Y-16722603D02*
X9586967Y-16760698D01*
X9586967Y-16760698D02*
X9586967Y-16836889D01*
X9586967Y-16836889D02*
X9596491Y-16855936D01*
X9596491Y-16855936D02*
X9606015Y-16865460D01*
X9606015Y-16865460D02*
X9625063Y-16874984D01*
X9625063Y-16874984D02*
X9663158Y-16874984D01*
X9663158Y-16874984D02*
X9682205Y-16865460D01*
X9682205Y-16865460D02*
X9691729Y-16855936D01*
X9691729Y-16855936D02*
X9701253Y-16836889D01*
X9701253Y-16836889D02*
X9701253Y-16789270D01*
X9701253Y-16789270D02*
X9691729Y-16770222D01*
X9691729Y-16770222D02*
X9682205Y-16760698D01*
X9682205Y-16760698D02*
X9663158Y-16751174D01*
X9663158Y-16751174D02*
X9625063Y-16751174D01*
X9625063Y-16751174D02*
X9606015Y-16760698D01*
X9606015Y-16760698D02*
X9596491Y-16770222D01*
X9596491Y-16770222D02*
X9586967Y-16789270D01*
X9825063Y-16674984D02*
X9844110Y-16674984D01*
X9844110Y-16674984D02*
X9863158Y-16684508D01*
X9863158Y-16684508D02*
X9872682Y-16694031D01*
X9872682Y-16694031D02*
X9882205Y-16713079D01*
X9882205Y-16713079D02*
X9891729Y-16751174D01*
X9891729Y-16751174D02*
X9891729Y-16798793D01*
X9891729Y-16798793D02*
X9882205Y-16836889D01*
X9882205Y-16836889D02*
X9872682Y-16855936D01*
X9872682Y-16855936D02*
X9863158Y-16865460D01*
X9863158Y-16865460D02*
X9844110Y-16874984D01*
X9844110Y-16874984D02*
X9825063Y-16874984D01*
X9825063Y-16874984D02*
X9806015Y-16865460D01*
X9806015Y-16865460D02*
X9796491Y-16855936D01*
X9796491Y-16855936D02*
X9786967Y-16836889D01*
X9786967Y-16836889D02*
X9777444Y-16798793D01*
X9777444Y-16798793D02*
X9777444Y-16751174D01*
X9777444Y-16751174D02*
X9786967Y-16713079D01*
X9786967Y-16713079D02*
X9796491Y-16694031D01*
X9796491Y-16694031D02*
X9806015Y-16684508D01*
X9806015Y-16684508D02*
X9825063Y-16674984D01*
X10015539Y-16674984D02*
X10034586Y-16674984D01*
X10034586Y-16674984D02*
X10053634Y-16684508D01*
X10053634Y-16684508D02*
X10063158Y-16694031D01*
X10063158Y-16694031D02*
X10072682Y-16713079D01*
X10072682Y-16713079D02*
X10082205Y-16751174D01*
X10082205Y-16751174D02*
X10082205Y-16798793D01*
X10082205Y-16798793D02*
X10072682Y-16836889D01*
X10072682Y-16836889D02*
X10063158Y-16855936D01*
X10063158Y-16855936D02*
X10053634Y-16865460D01*
X10053634Y-16865460D02*
X10034586Y-16874984D01*
X10034586Y-16874984D02*
X10015539Y-16874984D01*
X10015539Y-16874984D02*
X9996491Y-16865460D01*
X9996491Y-16865460D02*
X9986967Y-16855936D01*
X9986967Y-16855936D02*
X9977444Y-16836889D01*
X9977444Y-16836889D02*
X9967920Y-16798793D01*
X9967920Y-16798793D02*
X9967920Y-16751174D01*
X9967920Y-16751174D02*
X9977444Y-16713079D01*
X9977444Y-16713079D02*
X9986967Y-16694031D01*
X9986967Y-16694031D02*
X9996491Y-16684508D01*
X9996491Y-16684508D02*
X10015539Y-16674984D01*
X10167920Y-16874984D02*
X10167920Y-16741650D01*
X10167920Y-16760698D02*
X10177444Y-16751174D01*
X10177444Y-16751174D02*
X10196491Y-16741650D01*
X10196491Y-16741650D02*
X10225063Y-16741650D01*
X10225063Y-16741650D02*
X10244110Y-16751174D01*
X10244110Y-16751174D02*
X10253634Y-16770222D01*
X10253634Y-16770222D02*
X10253634Y-16874984D01*
X10253634Y-16770222D02*
X10263158Y-16751174D01*
X10263158Y-16751174D02*
X10282205Y-16741650D01*
X10282205Y-16741650D02*
X10310777Y-16741650D01*
X10310777Y-16741650D02*
X10329825Y-16751174D01*
X10329825Y-16751174D02*
X10339348Y-16770222D01*
X10339348Y-16770222D02*
X10339348Y-16874984D01*
X10434586Y-16874984D02*
X10434586Y-16741650D01*
X10434586Y-16760698D02*
X10444110Y-16751174D01*
X10444110Y-16751174D02*
X10463158Y-16741650D01*
X10463158Y-16741650D02*
X10491729Y-16741650D01*
X10491729Y-16741650D02*
X10510777Y-16751174D01*
X10510777Y-16751174D02*
X10520301Y-16770222D01*
X10520301Y-16770222D02*
X10520301Y-16874984D01*
X10520301Y-16770222D02*
X10529825Y-16751174D01*
X10529825Y-16751174D02*
X10548872Y-16741650D01*
X10548872Y-16741650D02*
X10577444Y-16741650D01*
X10577444Y-16741650D02*
X10596491Y-16751174D01*
X10596491Y-16751174D02*
X10606015Y-16770222D01*
X10606015Y-16770222D02*
X10606015Y-16874984D01*
X10996491Y-16665460D02*
X10825063Y-16922603D01*
X11253634Y-16674984D02*
X11272682Y-16674984D01*
X11272682Y-16674984D02*
X11291729Y-16684508D01*
X11291729Y-16684508D02*
X11301253Y-16694031D01*
X11301253Y-16694031D02*
X11310777Y-16713079D01*
X11310777Y-16713079D02*
X11320301Y-16751174D01*
X11320301Y-16751174D02*
X11320301Y-16798793D01*
X11320301Y-16798793D02*
X11310777Y-16836889D01*
X11310777Y-16836889D02*
X11301253Y-16855936D01*
X11301253Y-16855936D02*
X11291729Y-16865460D01*
X11291729Y-16865460D02*
X11272682Y-16874984D01*
X11272682Y-16874984D02*
X11253634Y-16874984D01*
X11253634Y-16874984D02*
X11234586Y-16865460D01*
X11234586Y-16865460D02*
X11225063Y-16855936D01*
X11225063Y-16855936D02*
X11215539Y-16836889D01*
X11215539Y-16836889D02*
X11206015Y-16798793D01*
X11206015Y-16798793D02*
X11206015Y-16751174D01*
X11206015Y-16751174D02*
X11215539Y-16713079D01*
X11215539Y-16713079D02*
X11225063Y-16694031D01*
X11225063Y-16694031D02*
X11234586Y-16684508D01*
X11234586Y-16684508D02*
X11253634Y-16674984D01*
X11406015Y-16855936D02*
X11415539Y-16865460D01*
X11415539Y-16865460D02*
X11406015Y-16874984D01*
X11406015Y-16874984D02*
X11396491Y-16865460D01*
X11396491Y-16865460D02*
X11406015Y-16855936D01*
X11406015Y-16855936D02*
X11406015Y-16874984D01*
X11539348Y-16674984D02*
X11558396Y-16674984D01*
X11558396Y-16674984D02*
X11577444Y-16684508D01*
X11577444Y-16684508D02*
X11586967Y-16694031D01*
X11586967Y-16694031D02*
X11596491Y-16713079D01*
X11596491Y-16713079D02*
X11606015Y-16751174D01*
X11606015Y-16751174D02*
X11606015Y-16798793D01*
X11606015Y-16798793D02*
X11596491Y-16836889D01*
X11596491Y-16836889D02*
X11586967Y-16855936D01*
X11586967Y-16855936D02*
X11577444Y-16865460D01*
X11577444Y-16865460D02*
X11558396Y-16874984D01*
X11558396Y-16874984D02*
X11539348Y-16874984D01*
X11539348Y-16874984D02*
X11520301Y-16865460D01*
X11520301Y-16865460D02*
X11510777Y-16855936D01*
X11510777Y-16855936D02*
X11501253Y-16836889D01*
X11501253Y-16836889D02*
X11491729Y-16798793D01*
X11491729Y-16798793D02*
X11491729Y-16751174D01*
X11491729Y-16751174D02*
X11501253Y-16713079D01*
X11501253Y-16713079D02*
X11510777Y-16694031D01*
X11510777Y-16694031D02*
X11520301Y-16684508D01*
X11520301Y-16684508D02*
X11539348Y-16674984D01*
X11777444Y-16674984D02*
X11739348Y-16674984D01*
X11739348Y-16674984D02*
X11720301Y-16684508D01*
X11720301Y-16684508D02*
X11710777Y-16694031D01*
X11710777Y-16694031D02*
X11691729Y-16722603D01*
X11691729Y-16722603D02*
X11682206Y-16760698D01*
X11682206Y-16760698D02*
X11682206Y-16836889D01*
X11682206Y-16836889D02*
X11691729Y-16855936D01*
X11691729Y-16855936D02*
X11701253Y-16865460D01*
X11701253Y-16865460D02*
X11720301Y-16874984D01*
X11720301Y-16874984D02*
X11758396Y-16874984D01*
X11758396Y-16874984D02*
X11777444Y-16865460D01*
X11777444Y-16865460D02*
X11786967Y-16855936D01*
X11786967Y-16855936D02*
X11796491Y-16836889D01*
X11796491Y-16836889D02*
X11796491Y-16789270D01*
X11796491Y-16789270D02*
X11786967Y-16770222D01*
X11786967Y-16770222D02*
X11777444Y-16760698D01*
X11777444Y-16760698D02*
X11758396Y-16751174D01*
X11758396Y-16751174D02*
X11720301Y-16751174D01*
X11720301Y-16751174D02*
X11701253Y-16760698D01*
X11701253Y-16760698D02*
X11691729Y-16770222D01*
X11691729Y-16770222D02*
X11682206Y-16789270D01*
X11863158Y-16674984D02*
X11986967Y-16674984D01*
X11986967Y-16674984D02*
X11920301Y-16751174D01*
X11920301Y-16751174D02*
X11948872Y-16751174D01*
X11948872Y-16751174D02*
X11967920Y-16760698D01*
X11967920Y-16760698D02*
X11977444Y-16770222D01*
X11977444Y-16770222D02*
X11986967Y-16789270D01*
X11986967Y-16789270D02*
X11986967Y-16836889D01*
X11986967Y-16836889D02*
X11977444Y-16855936D01*
X11977444Y-16855936D02*
X11967920Y-16865460D01*
X11967920Y-16865460D02*
X11948872Y-16874984D01*
X11948872Y-16874984D02*
X11891729Y-16874984D01*
X11891729Y-16874984D02*
X11872682Y-16865460D01*
X11872682Y-16865460D02*
X11863158Y-16855936D01*
X12110777Y-16674984D02*
X12129825Y-16674984D01*
X12129825Y-16674984D02*
X12148872Y-16684508D01*
X12148872Y-16684508D02*
X12158396Y-16694031D01*
X12158396Y-16694031D02*
X12167920Y-16713079D01*
X12167920Y-16713079D02*
X12177444Y-16751174D01*
X12177444Y-16751174D02*
X12177444Y-16798793D01*
X12177444Y-16798793D02*
X12167920Y-16836889D01*
X12167920Y-16836889D02*
X12158396Y-16855936D01*
X12158396Y-16855936D02*
X12148872Y-16865460D01*
X12148872Y-16865460D02*
X12129825Y-16874984D01*
X12129825Y-16874984D02*
X12110777Y-16874984D01*
X12110777Y-16874984D02*
X12091729Y-16865460D01*
X12091729Y-16865460D02*
X12082206Y-16855936D01*
X12082206Y-16855936D02*
X12072682Y-16836889D01*
X12072682Y-16836889D02*
X12063158Y-16798793D01*
X12063158Y-16798793D02*
X12063158Y-16751174D01*
X12063158Y-16751174D02*
X12072682Y-16713079D01*
X12072682Y-16713079D02*
X12082206Y-16694031D01*
X12082206Y-16694031D02*
X12091729Y-16684508D01*
X12091729Y-16684508D02*
X12110777Y-16674984D01*
X12253634Y-16674984D02*
X12253634Y-16713079D01*
X12329825Y-16674984D02*
X12329825Y-16713079D01*
X12625063Y-16951174D02*
X12615539Y-16941650D01*
X12615539Y-16941650D02*
X12596491Y-16913079D01*
X12596491Y-16913079D02*
X12586968Y-16894031D01*
X12586968Y-16894031D02*
X12577444Y-16865460D01*
X12577444Y-16865460D02*
X12567920Y-16817841D01*
X12567920Y-16817841D02*
X12567920Y-16779746D01*
X12567920Y-16779746D02*
X12577444Y-16732127D01*
X12577444Y-16732127D02*
X12586968Y-16703555D01*
X12586968Y-16703555D02*
X12596491Y-16684508D01*
X12596491Y-16684508D02*
X12615539Y-16655936D01*
X12615539Y-16655936D02*
X12625063Y-16646412D01*
X12786968Y-16741650D02*
X12786968Y-16874984D01*
X12739348Y-16665460D02*
X12691729Y-16808317D01*
X12691729Y-16808317D02*
X12815539Y-16808317D01*
X13044110Y-16874984D02*
X13044110Y-16674984D01*
X13129825Y-16874984D02*
X13129825Y-16770222D01*
X13129825Y-16770222D02*
X13120301Y-16751174D01*
X13120301Y-16751174D02*
X13101253Y-16741650D01*
X13101253Y-16741650D02*
X13072682Y-16741650D01*
X13072682Y-16741650D02*
X13053634Y-16751174D01*
X13053634Y-16751174D02*
X13044110Y-16760698D01*
X13253634Y-16874984D02*
X13234587Y-16865460D01*
X13234587Y-16865460D02*
X13225063Y-16855936D01*
X13225063Y-16855936D02*
X13215539Y-16836889D01*
X13215539Y-16836889D02*
X13215539Y-16779746D01*
X13215539Y-16779746D02*
X13225063Y-16760698D01*
X13225063Y-16760698D02*
X13234587Y-16751174D01*
X13234587Y-16751174D02*
X13253634Y-16741650D01*
X13253634Y-16741650D02*
X13282206Y-16741650D01*
X13282206Y-16741650D02*
X13301253Y-16751174D01*
X13301253Y-16751174D02*
X13310777Y-16760698D01*
X13310777Y-16760698D02*
X13320301Y-16779746D01*
X13320301Y-16779746D02*
X13320301Y-16836889D01*
X13320301Y-16836889D02*
X13310777Y-16855936D01*
X13310777Y-16855936D02*
X13301253Y-16865460D01*
X13301253Y-16865460D02*
X13282206Y-16874984D01*
X13282206Y-16874984D02*
X13253634Y-16874984D01*
X13434587Y-16874984D02*
X13415539Y-16865460D01*
X13415539Y-16865460D02*
X13406015Y-16846412D01*
X13406015Y-16846412D02*
X13406015Y-16674984D01*
X13586968Y-16865460D02*
X13567920Y-16874984D01*
X13567920Y-16874984D02*
X13529825Y-16874984D01*
X13529825Y-16874984D02*
X13510777Y-16865460D01*
X13510777Y-16865460D02*
X13501253Y-16846412D01*
X13501253Y-16846412D02*
X13501253Y-16770222D01*
X13501253Y-16770222D02*
X13510777Y-16751174D01*
X13510777Y-16751174D02*
X13529825Y-16741650D01*
X13529825Y-16741650D02*
X13567920Y-16741650D01*
X13567920Y-16741650D02*
X13586968Y-16751174D01*
X13586968Y-16751174D02*
X13596491Y-16770222D01*
X13596491Y-16770222D02*
X13596491Y-16789270D01*
X13596491Y-16789270D02*
X13501253Y-16808317D01*
X13672682Y-16865460D02*
X13691730Y-16874984D01*
X13691730Y-16874984D02*
X13729825Y-16874984D01*
X13729825Y-16874984D02*
X13748872Y-16865460D01*
X13748872Y-16865460D02*
X13758396Y-16846412D01*
X13758396Y-16846412D02*
X13758396Y-16836889D01*
X13758396Y-16836889D02*
X13748872Y-16817841D01*
X13748872Y-16817841D02*
X13729825Y-16808317D01*
X13729825Y-16808317D02*
X13701253Y-16808317D01*
X13701253Y-16808317D02*
X13682206Y-16798793D01*
X13682206Y-16798793D02*
X13672682Y-16779746D01*
X13672682Y-16779746D02*
X13672682Y-16770222D01*
X13672682Y-16770222D02*
X13682206Y-16751174D01*
X13682206Y-16751174D02*
X13701253Y-16741650D01*
X13701253Y-16741650D02*
X13729825Y-16741650D01*
X13729825Y-16741650D02*
X13748872Y-16751174D01*
X13825063Y-16951174D02*
X13834587Y-16941650D01*
X13834587Y-16941650D02*
X13853634Y-16913079D01*
X13853634Y-16913079D02*
X13863158Y-16894031D01*
X13863158Y-16894031D02*
X13872682Y-16865460D01*
X13872682Y-16865460D02*
X13882206Y-16817841D01*
X13882206Y-16817841D02*
X13882206Y-16779746D01*
X13882206Y-16779746D02*
X13872682Y-16732127D01*
X13872682Y-16732127D02*
X13863158Y-16703555D01*
X13863158Y-16703555D02*
X13853634Y-16684508D01*
X13853634Y-16684508D02*
X13834587Y-16655936D01*
X13834587Y-16655936D02*
X13825063Y-16646412D01*
M02*
