G04 #@! TF.GenerationSoftware,KiCad,Pcbnew,9.0.6*
G04 #@! TF.CreationDate,2026-02-11T23:07:03-07:00*
G04 #@! TF.ProjectId,JAARK_PCB_MOTOR,4a414152-4b5f-4504-9342-5f4d4f544f52,rev?*
G04 #@! TF.SameCoordinates,Original*
G04 #@! TF.FileFunction,Soldermask,Top*
G04 #@! TF.FilePolarity,Negative*
%FSLAX46Y46*%
G04 Gerber Fmt 4.6, Leading zero omitted, Abs format (unit mm)*
G04 Created by KiCad (PCBNEW 9.0.6) date 2026-02-11 23:07:03*
%MOMM*%
%LPD*%
G01*
G04 APERTURE LIST*
%ADD10C,1.600000*%
%ADD11C,2.400000*%
%ADD12C,1.493000*%
%ADD13R,0.800000X0.900000*%
%ADD14R,1.450000X1.000000*%
%ADD15R,1.800000X1.800000*%
%ADD16C,1.800000*%
%ADD17R,0.475000X0.300000*%
%ADD18R,1.150000X1.450000*%
%ADD19C,3.200000*%
%ADD20R,1.390000X0.910000*%
%ADD21R,1.500000X1.500000*%
%ADD22R,1.070000X0.740000*%
%ADD23R,1.450000X1.150000*%
%ADD24C,1.605000*%
%ADD25R,2.200000X2.500000*%
%ADD26R,1.560000X1.560000*%
%ADD27C,1.560000*%
%ADD28R,1.470000X0.970000*%
%ADD29R,0.950000X1.400000*%
%ADD30R,3.500000X1.850000*%
%ADD31C,1.440000*%
%ADD32R,0.950000X1.450000*%
G04 APERTURE END LIST*
D10*
G04 #@! TO.C,R6*
X125679200Y-84124800D03*
X135839200Y-84124800D03*
G04 #@! TD*
D11*
G04 #@! TO.C,U1*
X105867200Y-53797200D03*
X105867200Y-50397200D03*
X115787200Y-53797200D03*
X115787200Y-50397200D03*
G04 #@! TD*
D10*
G04 #@! TO.C,R5*
X125679200Y-87274400D03*
X135839200Y-87274400D03*
G04 #@! TD*
D12*
G04 #@! TO.C,Q2*
X118189600Y-94488000D03*
X115589600Y-94488000D03*
X112989600Y-94488000D03*
G04 #@! TD*
D10*
G04 #@! TO.C,R7*
X135839200Y-81026000D03*
X125679200Y-81026000D03*
G04 #@! TD*
D13*
G04 #@! TO.C,Q1*
X94802500Y-61500000D03*
X96702500Y-61500000D03*
X95752500Y-59400000D03*
G04 #@! TD*
D14*
G04 #@! TO.C,R2*
X149805000Y-108750000D03*
X149805000Y-106850000D03*
G04 #@! TD*
D15*
G04 #@! TO.C,J6*
X185300000Y-53225000D03*
D16*
X181800000Y-53225000D03*
G04 #@! TD*
D15*
G04 #@! TO.C,J1*
X99009200Y-53035200D03*
D16*
X95509200Y-53035200D03*
G04 #@! TD*
D15*
G04 #@! TO.C,J5*
X182375000Y-126000000D03*
D16*
X185875000Y-126000000D03*
G04 #@! TD*
D17*
G04 #@! TO.C,IC1*
X139379000Y-107025000D03*
X139379000Y-107525000D03*
X139379000Y-108025000D03*
X141055000Y-108025000D03*
X141055000Y-107525000D03*
X141055000Y-107025000D03*
G04 #@! TD*
D18*
G04 #@! TO.C,C3*
X130080000Y-103200000D03*
X128280000Y-103200000D03*
G04 #@! TD*
D19*
G04 #@! TO.C,M3_3*
X107000000Y-106000000D03*
G04 #@! TD*
D20*
G04 #@! TO.C,C6*
X144580000Y-106855000D03*
X144580000Y-108495000D03*
G04 #@! TD*
D21*
G04 #@! TO.C,GND1*
X105640000Y-64240000D03*
G04 #@! TD*
D15*
G04 #@! TO.C,J7*
X181450000Y-86825000D03*
D16*
X181450000Y-83325000D03*
G04 #@! TD*
D22*
G04 #@! TO.C,D4*
X99577500Y-62275000D03*
X99577500Y-58725000D03*
G04 #@! TD*
D21*
G04 #@! TO.C,3V3*
X110970000Y-115710000D03*
G04 #@! TD*
D23*
G04 #@! TO.C,C9*
X110940000Y-122020000D03*
X110940000Y-120220000D03*
G04 #@! TD*
D19*
G04 #@! TO.C,M3_1*
X167000000Y-82000000D03*
G04 #@! TD*
D20*
G04 #@! TO.C,C4*
X128005000Y-106675000D03*
X128005000Y-108315000D03*
G04 #@! TD*
D16*
G04 #@! TO.C,J4*
X181550000Y-98225000D03*
D15*
X181550000Y-101725000D03*
G04 #@! TD*
D24*
G04 #@! TO.C,J3*
X104851200Y-98602800D03*
X104851200Y-96062800D03*
X104851200Y-93522800D03*
X104851200Y-90982800D03*
X104851200Y-88442800D03*
X104851200Y-85902800D03*
G04 #@! TD*
D25*
G04 #@! TO.C,L1*
X132855000Y-107525000D03*
X135955000Y-107525000D03*
G04 #@! TD*
D26*
G04 #@! TO.C,J2*
X122455000Y-121975000D03*
D27*
X122455000Y-119435000D03*
X124995000Y-121975000D03*
X124995000Y-119435000D03*
X127535000Y-121975000D03*
X127535000Y-119435000D03*
X130075000Y-121975000D03*
X130075000Y-119435000D03*
X132615000Y-121975000D03*
X132615000Y-119435000D03*
X135155000Y-121975000D03*
X135155000Y-119435000D03*
X137695000Y-121975000D03*
X137695000Y-119435000D03*
X140235000Y-121975000D03*
X140235000Y-119435000D03*
X142775000Y-121975000D03*
X142775000Y-119435000D03*
X145315000Y-121975000D03*
X145315000Y-119435000D03*
X147855000Y-121975000D03*
X147855000Y-119435000D03*
X150395000Y-121975000D03*
X150395000Y-119435000D03*
X152935000Y-121975000D03*
X152935000Y-119435000D03*
X155475000Y-121975000D03*
X155475000Y-119435000D03*
X158015000Y-121975000D03*
X158015000Y-119435000D03*
X160555000Y-121975000D03*
X160555000Y-119435000D03*
X163095000Y-121975000D03*
X163095000Y-119435000D03*
X165635000Y-121975000D03*
X165635000Y-119435000D03*
X168175000Y-121975000D03*
X168175000Y-119435000D03*
D26*
X122455000Y-61015000D03*
D27*
X122455000Y-58475000D03*
X124995000Y-61015000D03*
X124995000Y-58475000D03*
X127535000Y-61015000D03*
X127535000Y-58475000D03*
X130075000Y-61015000D03*
X130075000Y-58475000D03*
X132615000Y-61015000D03*
X132615000Y-58475000D03*
X135155000Y-61015000D03*
X135155000Y-58475000D03*
X137695000Y-61015000D03*
X137695000Y-58475000D03*
X140235000Y-61015000D03*
X140235000Y-58475000D03*
X142775000Y-61015000D03*
X142775000Y-58475000D03*
X145315000Y-61015000D03*
X145315000Y-58475000D03*
X147855000Y-61015000D03*
X147855000Y-58475000D03*
X150395000Y-61015000D03*
X150395000Y-58475000D03*
X152935000Y-61015000D03*
X152935000Y-58475000D03*
X155475000Y-61015000D03*
X155475000Y-58475000D03*
X158015000Y-61015000D03*
X158015000Y-58475000D03*
X160555000Y-61015000D03*
X160555000Y-58475000D03*
X163095000Y-61015000D03*
X163095000Y-58475000D03*
X165635000Y-61015000D03*
X165635000Y-58475000D03*
X168175000Y-61015000D03*
X168175000Y-58475000D03*
G04 #@! TD*
D21*
G04 #@! TO.C,5V1*
X107770000Y-112510000D03*
G04 #@! TD*
D28*
G04 #@! TO.C,C2*
X125730000Y-103930000D03*
X125730000Y-102270000D03*
G04 #@! TD*
D29*
G04 #@! TO.C,R4*
X140940000Y-102590000D03*
X139040000Y-102590000D03*
G04 #@! TD*
D21*
G04 #@! TO.C,12V1*
X104370000Y-115650000D03*
G04 #@! TD*
D14*
G04 #@! TO.C,R1*
X146930000Y-108625000D03*
X146930000Y-106725000D03*
G04 #@! TD*
D30*
G04 #@! TO.C,C7*
X109900000Y-130500000D03*
X104600000Y-130500000D03*
G04 #@! TD*
D18*
G04 #@! TO.C,C8*
X112800000Y-111400000D03*
X111000000Y-111400000D03*
G04 #@! TD*
D19*
G04 #@! TO.C,M3_4*
X107000000Y-78000000D03*
G04 #@! TD*
D31*
G04 #@! TO.C,Q3*
X118059200Y-85090000D03*
X119329200Y-86360000D03*
X118059200Y-87630000D03*
G04 #@! TD*
D20*
G04 #@! TO.C,C1*
X125705000Y-108295000D03*
X125705000Y-106655000D03*
G04 #@! TD*
D19*
G04 #@! TO.C,M3_2*
X167000000Y-102000000D03*
G04 #@! TD*
D32*
G04 #@! TO.C,R3*
X138990000Y-104750000D03*
X140990000Y-104750000D03*
G04 #@! TD*
D20*
G04 #@! TO.C,C5*
X130330000Y-106685000D03*
X130330000Y-108325000D03*
G04 #@! TD*
M02*
