M48
; DRILL file {KiCad 9.0.6} date 2026-02-11T23:07:03-0700
; FORMAT={-:-/ absolute / metric / decimal}
; #@! TF.CreationDate,2026-02-11T23:07:03-07:00
; #@! TF.GenerationSoftware,Kicad,Pcbnew,9.0.6
; #@! TF.FileFunction,Plated,1,2,PTH
FMAT,2
METRIC
; #@! TA.AperFunction,Plated,PTH,ViaDrill
T1C0.300
; #@! TA.AperFunction,Plated,PTH,ViaDrill
T2C0.700
; #@! TA.AperFunction,Plated,PTH,ComponentDrill
T3C0.800
; #@! TA.AperFunction,Plated,PTH,ComponentDrill
T4C0.940
; #@! TA.AperFunction,Plated,PTH,ComponentDrill
T5C0.960
; #@! TA.AperFunction,Plated,PTH,ViaDrill
T6C1.000
; #@! TA.AperFunction,Plated,PTH,ComponentDrill
T7C1.040
; #@! TA.AperFunction,Plated,PTH,ComponentDrill
T8C1.070
; #@! TA.AperFunction,Plated,PTH,ComponentDrill
T9C1.200
; #@! TA.AperFunction,Plated,PTH,ViaDrill
T10C1.500
; #@! TA.AperFunction,Plated,PTH,ComponentDrill
T11C1.600
%
G90
G05
T1
X110.642Y-87.325
X111.76Y-88.29
X113.25Y-114.0
X123.8Y-114.0
X130.6Y-114.0
X139.0Y-100.75
X140.2Y-109.7
X142.0Y-107.8
X142.5Y-104.775
T2
X107.75Y-118.75
X112.8Y-109.0
X122.7Y-105.3
X146.96Y-112.21
X151.5Y-110.5
X158.075Y-101.075
X178.39Y-70.12
X179.1Y-118.7
X182.725Y-59.75
X183.2Y-122.0
X186.05Y-63.075
T3
X125.679Y-81.026
X125.679Y-84.125
X125.679Y-87.274
X135.839Y-81.026
X135.839Y-84.125
X135.839Y-87.274
T4
X118.059Y-85.09
X118.059Y-87.63
X119.329Y-86.36
T5
X112.99Y-94.488
X115.59Y-94.488
X118.19Y-94.488
T6
X94.802Y-63.35
X99.552Y-63.95
X103.89Y-56.57
X167.0Y-111.0
X176.825Y-120.0
X178.4Y-62.975
X186.875Y-119.375
T7
X122.455Y-58.475
X122.455Y-61.015
X122.455Y-119.435
X122.455Y-121.975
X124.995Y-58.475
X124.995Y-61.015
X124.995Y-119.435
X124.995Y-121.975
X127.535Y-58.475
X127.535Y-61.015
X127.535Y-119.435
X127.535Y-121.975
X130.075Y-58.475
X130.075Y-61.015
X130.075Y-119.435
X130.075Y-121.975
X132.615Y-58.475
X132.615Y-61.015
X132.615Y-119.435
X132.615Y-121.975
X135.155Y-58.475
X135.155Y-61.015
X135.155Y-119.435
X135.155Y-121.975
X137.695Y-58.475
X137.695Y-61.015
X137.695Y-119.435
X137.695Y-121.975
X140.235Y-58.475
X140.235Y-61.015
X140.235Y-119.435
X140.235Y-121.975
X142.775Y-58.475
X142.775Y-61.015
X142.775Y-119.435
X142.775Y-121.975
X145.315Y-58.475
X145.315Y-61.015
X145.315Y-119.435
X145.315Y-121.975
X147.855Y-58.475
X147.855Y-61.015
X147.855Y-119.435
X147.855Y-121.975
X150.395Y-58.475
X150.395Y-61.015
X150.395Y-119.435
X150.395Y-121.975
X152.935Y-58.475
X152.935Y-61.015
X152.935Y-119.435
X152.935Y-121.975
X155.475Y-58.475
X155.475Y-61.015
X155.475Y-119.435
X155.475Y-121.975
X158.015Y-58.475
X158.015Y-61.015
X158.015Y-119.435
X158.015Y-121.975
X160.555Y-58.475
X160.555Y-61.015
X160.555Y-119.435
X160.555Y-121.975
X163.095Y-58.475
X163.095Y-61.015
X163.095Y-119.435
X163.095Y-121.975
X165.635Y-58.475
X165.635Y-61.015
X165.635Y-119.435
X165.635Y-121.975
X168.175Y-58.475
X168.175Y-61.015
X168.175Y-119.435
X168.175Y-121.975
T8
X104.851Y-85.903
X104.851Y-88.443
X104.851Y-90.983
X104.851Y-93.523
X104.851Y-96.063
X104.851Y-98.603
T9
X95.509Y-53.035
X99.009Y-53.035
X181.45Y-83.325
X181.45Y-86.825
X181.55Y-98.225
X181.55Y-101.725
X181.8Y-53.225
X182.375Y-126.0
X185.3Y-53.225
X185.875Y-126.0
T10
X104.6Y-124.6
X108.45Y-64.24
T11
X105.867Y-50.397
X105.867Y-53.797
X115.787Y-50.397
X115.787Y-53.797
M30
