G04 #@! TF.GenerationSoftware,KiCad,Pcbnew,9.0.6*
G04 #@! TF.CreationDate,2026-02-11T23:07:03-07:00*
G04 #@! TF.ProjectId,JAARK_PCB_MOTOR,4a414152-4b5f-4504-9342-5f4d4f544f52,rev?*
G04 #@! TF.SameCoordinates,Original*
G04 #@! TF.FileFunction,Legend,Bot*
G04 #@! TF.FilePolarity,Positive*
%FSLAX46Y46*%
G04 Gerber Fmt 4.6, Leading zero omitted, Abs format (unit mm)*
G04 Created by KiCad (PCBNEW 9.0.6) date 2026-02-11 23:07:03*
%MOMM*%
%LPD*%
G01*
G04 APERTURE LIST*
%ADD10C,0.300000*%
%ADD11C,0.200000*%
%ADD12C,0.254000*%
%ADD13C,0.152400*%
%ADD14C,1.600000*%
%ADD15C,2.400000*%
%ADD16C,1.493000*%
%ADD17R,1.800000X1.800000*%
%ADD18C,1.800000*%
%ADD19C,3.200000*%
%ADD20C,1.605000*%
%ADD21R,1.560000X1.560000*%
%ADD22C,1.560000*%
%ADD23C,1.440000*%
%ADD24R,1.450000X1.150000*%
%ADD25R,1.397000X1.016000*%
%ADD26R,0.650000X1.525000*%
%ADD27R,3.400000X2.710000*%
%ADD28R,1.820000X0.620000*%
G04 APERTURE END LIST*
D10*
X167926314Y-94614517D02*
X167997742Y-94543089D01*
X167997742Y-94543089D02*
X168069171Y-94400232D01*
X168069171Y-94400232D02*
X168069171Y-94043089D01*
X168069171Y-94043089D02*
X167997742Y-93900232D01*
X167997742Y-93900232D02*
X167926314Y-93828803D01*
X167926314Y-93828803D02*
X167783457Y-93757374D01*
X167783457Y-93757374D02*
X167640600Y-93757374D01*
X167640600Y-93757374D02*
X167426314Y-93828803D01*
X167426314Y-93828803D02*
X166569171Y-94685946D01*
X166569171Y-94685946D02*
X166569171Y-93757374D01*
X168069171Y-92828803D02*
X168069171Y-92685946D01*
X168069171Y-92685946D02*
X167997742Y-92543089D01*
X167997742Y-92543089D02*
X167926314Y-92471661D01*
X167926314Y-92471661D02*
X167783457Y-92400232D01*
X167783457Y-92400232D02*
X167497742Y-92328803D01*
X167497742Y-92328803D02*
X167140600Y-92328803D01*
X167140600Y-92328803D02*
X166854885Y-92400232D01*
X166854885Y-92400232D02*
X166712028Y-92471661D01*
X166712028Y-92471661D02*
X166640600Y-92543089D01*
X166640600Y-92543089D02*
X166569171Y-92685946D01*
X166569171Y-92685946D02*
X166569171Y-92828803D01*
X166569171Y-92828803D02*
X166640600Y-92971661D01*
X166640600Y-92971661D02*
X166712028Y-93043089D01*
X166712028Y-93043089D02*
X166854885Y-93114518D01*
X166854885Y-93114518D02*
X167140600Y-93185946D01*
X167140600Y-93185946D02*
X167497742Y-93185946D01*
X167497742Y-93185946D02*
X167783457Y-93114518D01*
X167783457Y-93114518D02*
X167926314Y-93043089D01*
X167926314Y-93043089D02*
X167997742Y-92971661D01*
X167997742Y-92971661D02*
X168069171Y-92828803D01*
X166569171Y-91685947D02*
X167569171Y-91685947D01*
X167426314Y-91685947D02*
X167497742Y-91614518D01*
X167497742Y-91614518D02*
X167569171Y-91471661D01*
X167569171Y-91471661D02*
X167569171Y-91257375D01*
X167569171Y-91257375D02*
X167497742Y-91114518D01*
X167497742Y-91114518D02*
X167354885Y-91043090D01*
X167354885Y-91043090D02*
X166569171Y-91043090D01*
X167354885Y-91043090D02*
X167497742Y-90971661D01*
X167497742Y-90971661D02*
X167569171Y-90828804D01*
X167569171Y-90828804D02*
X167569171Y-90614518D01*
X167569171Y-90614518D02*
X167497742Y-90471661D01*
X167497742Y-90471661D02*
X167354885Y-90400232D01*
X167354885Y-90400232D02*
X166569171Y-90400232D01*
X166569171Y-89685947D02*
X167569171Y-89685947D01*
X167426314Y-89685947D02*
X167497742Y-89614518D01*
X167497742Y-89614518D02*
X167569171Y-89471661D01*
X167569171Y-89471661D02*
X167569171Y-89257375D01*
X167569171Y-89257375D02*
X167497742Y-89114518D01*
X167497742Y-89114518D02*
X167354885Y-89043090D01*
X167354885Y-89043090D02*
X166569171Y-89043090D01*
X167354885Y-89043090D02*
X167497742Y-88971661D01*
X167497742Y-88971661D02*
X167569171Y-88828804D01*
X167569171Y-88828804D02*
X167569171Y-88614518D01*
X167569171Y-88614518D02*
X167497742Y-88471661D01*
X167497742Y-88471661D02*
X167354885Y-88400232D01*
X167354885Y-88400232D02*
X166569171Y-88400232D01*
X140839432Y-90045628D02*
X141125146Y-90045628D01*
X141125146Y-90045628D02*
X141268003Y-90117057D01*
X141268003Y-90117057D02*
X141339432Y-90188485D01*
X141339432Y-90188485D02*
X141482289Y-90402771D01*
X141482289Y-90402771D02*
X141553717Y-90688485D01*
X141553717Y-90688485D02*
X141553717Y-91259914D01*
X141553717Y-91259914D02*
X141482289Y-91402771D01*
X141482289Y-91402771D02*
X141410860Y-91474200D01*
X141410860Y-91474200D02*
X141268003Y-91545628D01*
X141268003Y-91545628D02*
X140982289Y-91545628D01*
X140982289Y-91545628D02*
X140839432Y-91474200D01*
X140839432Y-91474200D02*
X140768003Y-91402771D01*
X140768003Y-91402771D02*
X140696574Y-91259914D01*
X140696574Y-91259914D02*
X140696574Y-90902771D01*
X140696574Y-90902771D02*
X140768003Y-90759914D01*
X140768003Y-90759914D02*
X140839432Y-90688485D01*
X140839432Y-90688485D02*
X140982289Y-90617057D01*
X140982289Y-90617057D02*
X141268003Y-90617057D01*
X141268003Y-90617057D02*
X141410860Y-90688485D01*
X141410860Y-90688485D02*
X141482289Y-90759914D01*
X141482289Y-90759914D02*
X141553717Y-90902771D01*
X139768003Y-90045628D02*
X139625146Y-90045628D01*
X139625146Y-90045628D02*
X139482289Y-90117057D01*
X139482289Y-90117057D02*
X139410861Y-90188485D01*
X139410861Y-90188485D02*
X139339432Y-90331342D01*
X139339432Y-90331342D02*
X139268003Y-90617057D01*
X139268003Y-90617057D02*
X139268003Y-90974200D01*
X139268003Y-90974200D02*
X139339432Y-91259914D01*
X139339432Y-91259914D02*
X139410861Y-91402771D01*
X139410861Y-91402771D02*
X139482289Y-91474200D01*
X139482289Y-91474200D02*
X139625146Y-91545628D01*
X139625146Y-91545628D02*
X139768003Y-91545628D01*
X139768003Y-91545628D02*
X139910861Y-91474200D01*
X139910861Y-91474200D02*
X139982289Y-91402771D01*
X139982289Y-91402771D02*
X140053718Y-91259914D01*
X140053718Y-91259914D02*
X140125146Y-90974200D01*
X140125146Y-90974200D02*
X140125146Y-90617057D01*
X140125146Y-90617057D02*
X140053718Y-90331342D01*
X140053718Y-90331342D02*
X139982289Y-90188485D01*
X139982289Y-90188485D02*
X139910861Y-90117057D01*
X139910861Y-90117057D02*
X139768003Y-90045628D01*
X138625147Y-91545628D02*
X138625147Y-90545628D01*
X138625147Y-90688485D02*
X138553718Y-90617057D01*
X138553718Y-90617057D02*
X138410861Y-90545628D01*
X138410861Y-90545628D02*
X138196575Y-90545628D01*
X138196575Y-90545628D02*
X138053718Y-90617057D01*
X138053718Y-90617057D02*
X137982290Y-90759914D01*
X137982290Y-90759914D02*
X137982290Y-91545628D01*
X137982290Y-90759914D02*
X137910861Y-90617057D01*
X137910861Y-90617057D02*
X137768004Y-90545628D01*
X137768004Y-90545628D02*
X137553718Y-90545628D01*
X137553718Y-90545628D02*
X137410861Y-90617057D01*
X137410861Y-90617057D02*
X137339432Y-90759914D01*
X137339432Y-90759914D02*
X137339432Y-91545628D01*
X136625147Y-91545628D02*
X136625147Y-90545628D01*
X136625147Y-90688485D02*
X136553718Y-90617057D01*
X136553718Y-90617057D02*
X136410861Y-90545628D01*
X136410861Y-90545628D02*
X136196575Y-90545628D01*
X136196575Y-90545628D02*
X136053718Y-90617057D01*
X136053718Y-90617057D02*
X135982290Y-90759914D01*
X135982290Y-90759914D02*
X135982290Y-91545628D01*
X135982290Y-90759914D02*
X135910861Y-90617057D01*
X135910861Y-90617057D02*
X135768004Y-90545628D01*
X135768004Y-90545628D02*
X135553718Y-90545628D01*
X135553718Y-90545628D02*
X135410861Y-90617057D01*
X135410861Y-90617057D02*
X135339432Y-90759914D01*
X135339432Y-90759914D02*
X135339432Y-91545628D01*
X108795114Y-93700117D02*
X108866542Y-93628689D01*
X108866542Y-93628689D02*
X108937971Y-93485832D01*
X108937971Y-93485832D02*
X108937971Y-93128689D01*
X108937971Y-93128689D02*
X108866542Y-92985832D01*
X108866542Y-92985832D02*
X108795114Y-92914403D01*
X108795114Y-92914403D02*
X108652257Y-92842974D01*
X108652257Y-92842974D02*
X108509400Y-92842974D01*
X108509400Y-92842974D02*
X108295114Y-92914403D01*
X108295114Y-92914403D02*
X107437971Y-93771546D01*
X107437971Y-93771546D02*
X107437971Y-92842974D01*
X108295114Y-91985832D02*
X108366542Y-92128689D01*
X108366542Y-92128689D02*
X108437971Y-92200118D01*
X108437971Y-92200118D02*
X108580828Y-92271546D01*
X108580828Y-92271546D02*
X108652257Y-92271546D01*
X108652257Y-92271546D02*
X108795114Y-92200118D01*
X108795114Y-92200118D02*
X108866542Y-92128689D01*
X108866542Y-92128689D02*
X108937971Y-91985832D01*
X108937971Y-91985832D02*
X108937971Y-91700118D01*
X108937971Y-91700118D02*
X108866542Y-91557261D01*
X108866542Y-91557261D02*
X108795114Y-91485832D01*
X108795114Y-91485832D02*
X108652257Y-91414403D01*
X108652257Y-91414403D02*
X108580828Y-91414403D01*
X108580828Y-91414403D02*
X108437971Y-91485832D01*
X108437971Y-91485832D02*
X108366542Y-91557261D01*
X108366542Y-91557261D02*
X108295114Y-91700118D01*
X108295114Y-91700118D02*
X108295114Y-91985832D01*
X108295114Y-91985832D02*
X108223685Y-92128689D01*
X108223685Y-92128689D02*
X108152257Y-92200118D01*
X108152257Y-92200118D02*
X108009400Y-92271546D01*
X108009400Y-92271546D02*
X107723685Y-92271546D01*
X107723685Y-92271546D02*
X107580828Y-92200118D01*
X107580828Y-92200118D02*
X107509400Y-92128689D01*
X107509400Y-92128689D02*
X107437971Y-91985832D01*
X107437971Y-91985832D02*
X107437971Y-91700118D01*
X107437971Y-91700118D02*
X107509400Y-91557261D01*
X107509400Y-91557261D02*
X107580828Y-91485832D01*
X107580828Y-91485832D02*
X107723685Y-91414403D01*
X107723685Y-91414403D02*
X108009400Y-91414403D01*
X108009400Y-91414403D02*
X108152257Y-91485832D01*
X108152257Y-91485832D02*
X108223685Y-91557261D01*
X108223685Y-91557261D02*
X108295114Y-91700118D01*
X107437971Y-90771547D02*
X108437971Y-90771547D01*
X108295114Y-90771547D02*
X108366542Y-90700118D01*
X108366542Y-90700118D02*
X108437971Y-90557261D01*
X108437971Y-90557261D02*
X108437971Y-90342975D01*
X108437971Y-90342975D02*
X108366542Y-90200118D01*
X108366542Y-90200118D02*
X108223685Y-90128690D01*
X108223685Y-90128690D02*
X107437971Y-90128690D01*
X108223685Y-90128690D02*
X108366542Y-90057261D01*
X108366542Y-90057261D02*
X108437971Y-89914404D01*
X108437971Y-89914404D02*
X108437971Y-89700118D01*
X108437971Y-89700118D02*
X108366542Y-89557261D01*
X108366542Y-89557261D02*
X108223685Y-89485832D01*
X108223685Y-89485832D02*
X107437971Y-89485832D01*
X107437971Y-88771547D02*
X108437971Y-88771547D01*
X108295114Y-88771547D02*
X108366542Y-88700118D01*
X108366542Y-88700118D02*
X108437971Y-88557261D01*
X108437971Y-88557261D02*
X108437971Y-88342975D01*
X108437971Y-88342975D02*
X108366542Y-88200118D01*
X108366542Y-88200118D02*
X108223685Y-88128690D01*
X108223685Y-88128690D02*
X107437971Y-88128690D01*
X108223685Y-88128690D02*
X108366542Y-88057261D01*
X108366542Y-88057261D02*
X108437971Y-87914404D01*
X108437971Y-87914404D02*
X108437971Y-87700118D01*
X108437971Y-87700118D02*
X108366542Y-87557261D01*
X108366542Y-87557261D02*
X108223685Y-87485832D01*
X108223685Y-87485832D02*
X107437971Y-87485832D01*
D11*
X184643926Y-70784019D02*
X184643926Y-69784019D01*
X184643926Y-69784019D02*
X184310593Y-70498304D01*
X184310593Y-70498304D02*
X183977260Y-69784019D01*
X183977260Y-69784019D02*
X183977260Y-70784019D01*
X183358212Y-70784019D02*
X183453450Y-70736400D01*
X183453450Y-70736400D02*
X183501069Y-70688780D01*
X183501069Y-70688780D02*
X183548688Y-70593542D01*
X183548688Y-70593542D02*
X183548688Y-70307828D01*
X183548688Y-70307828D02*
X183501069Y-70212590D01*
X183501069Y-70212590D02*
X183453450Y-70164971D01*
X183453450Y-70164971D02*
X183358212Y-70117352D01*
X183358212Y-70117352D02*
X183215355Y-70117352D01*
X183215355Y-70117352D02*
X183120117Y-70164971D01*
X183120117Y-70164971D02*
X183072498Y-70212590D01*
X183072498Y-70212590D02*
X183024879Y-70307828D01*
X183024879Y-70307828D02*
X183024879Y-70593542D01*
X183024879Y-70593542D02*
X183072498Y-70688780D01*
X183072498Y-70688780D02*
X183120117Y-70736400D01*
X183120117Y-70736400D02*
X183215355Y-70784019D01*
X183215355Y-70784019D02*
X183358212Y-70784019D01*
X182739164Y-70117352D02*
X182358212Y-70117352D01*
X182596307Y-69784019D02*
X182596307Y-70641161D01*
X182596307Y-70641161D02*
X182548688Y-70736400D01*
X182548688Y-70736400D02*
X182453450Y-70784019D01*
X182453450Y-70784019D02*
X182358212Y-70784019D01*
X181882021Y-70784019D02*
X181977259Y-70736400D01*
X181977259Y-70736400D02*
X182024878Y-70688780D01*
X182024878Y-70688780D02*
X182072497Y-70593542D01*
X182072497Y-70593542D02*
X182072497Y-70307828D01*
X182072497Y-70307828D02*
X182024878Y-70212590D01*
X182024878Y-70212590D02*
X181977259Y-70164971D01*
X181977259Y-70164971D02*
X181882021Y-70117352D01*
X181882021Y-70117352D02*
X181739164Y-70117352D01*
X181739164Y-70117352D02*
X181643926Y-70164971D01*
X181643926Y-70164971D02*
X181596307Y-70212590D01*
X181596307Y-70212590D02*
X181548688Y-70307828D01*
X181548688Y-70307828D02*
X181548688Y-70593542D01*
X181548688Y-70593542D02*
X181596307Y-70688780D01*
X181596307Y-70688780D02*
X181643926Y-70736400D01*
X181643926Y-70736400D02*
X181739164Y-70784019D01*
X181739164Y-70784019D02*
X181882021Y-70784019D01*
X181120116Y-70784019D02*
X181120116Y-70117352D01*
X181120116Y-70307828D02*
X181072497Y-70212590D01*
X181072497Y-70212590D02*
X181024878Y-70164971D01*
X181024878Y-70164971D02*
X180929640Y-70117352D01*
X180929640Y-70117352D02*
X180834402Y-70117352D01*
X179786782Y-69879257D02*
X179739163Y-69831638D01*
X179739163Y-69831638D02*
X179643925Y-69784019D01*
X179643925Y-69784019D02*
X179405830Y-69784019D01*
X179405830Y-69784019D02*
X179310592Y-69831638D01*
X179310592Y-69831638D02*
X179262973Y-69879257D01*
X179262973Y-69879257D02*
X179215354Y-69974495D01*
X179215354Y-69974495D02*
X179215354Y-70069733D01*
X179215354Y-70069733D02*
X179262973Y-70212590D01*
X179262973Y-70212590D02*
X179834401Y-70784019D01*
X179834401Y-70784019D02*
X179215354Y-70784019D01*
D12*
X188303365Y-109983571D02*
X188363842Y-109923095D01*
X188363842Y-109923095D02*
X188424318Y-109741666D01*
X188424318Y-109741666D02*
X188424318Y-109620714D01*
X188424318Y-109620714D02*
X188363842Y-109439285D01*
X188363842Y-109439285D02*
X188242889Y-109318333D01*
X188242889Y-109318333D02*
X188121937Y-109257856D01*
X188121937Y-109257856D02*
X187880032Y-109197380D01*
X187880032Y-109197380D02*
X187698603Y-109197380D01*
X187698603Y-109197380D02*
X187456699Y-109257856D01*
X187456699Y-109257856D02*
X187335746Y-109318333D01*
X187335746Y-109318333D02*
X187214794Y-109439285D01*
X187214794Y-109439285D02*
X187154318Y-109620714D01*
X187154318Y-109620714D02*
X187154318Y-109741666D01*
X187154318Y-109741666D02*
X187214794Y-109923095D01*
X187214794Y-109923095D02*
X187275270Y-109983571D01*
X188424318Y-111193095D02*
X188424318Y-110467380D01*
X188424318Y-110830237D02*
X187154318Y-110830237D01*
X187154318Y-110830237D02*
X187335746Y-110709285D01*
X187335746Y-110709285D02*
X187456699Y-110588333D01*
X187456699Y-110588333D02*
X187517175Y-110467380D01*
X187154318Y-111616428D02*
X187154318Y-112402619D01*
X187154318Y-112402619D02*
X187638127Y-111979285D01*
X187638127Y-111979285D02*
X187638127Y-112160714D01*
X187638127Y-112160714D02*
X187698603Y-112281666D01*
X187698603Y-112281666D02*
X187759080Y-112342142D01*
X187759080Y-112342142D02*
X187880032Y-112402619D01*
X187880032Y-112402619D02*
X188182413Y-112402619D01*
X188182413Y-112402619D02*
X188303365Y-112342142D01*
X188303365Y-112342142D02*
X188363842Y-112281666D01*
X188363842Y-112281666D02*
X188424318Y-112160714D01*
X188424318Y-112160714D02*
X188424318Y-111797857D01*
X188424318Y-111797857D02*
X188363842Y-111676904D01*
X188363842Y-111676904D02*
X188303365Y-111616428D01*
X179624318Y-111663571D02*
X179019556Y-111240237D01*
X179624318Y-110937856D02*
X178354318Y-110937856D01*
X178354318Y-110937856D02*
X178354318Y-111421666D01*
X178354318Y-111421666D02*
X178414794Y-111542618D01*
X178414794Y-111542618D02*
X178475270Y-111603095D01*
X178475270Y-111603095D02*
X178596222Y-111663571D01*
X178596222Y-111663571D02*
X178777651Y-111663571D01*
X178777651Y-111663571D02*
X178898603Y-111603095D01*
X178898603Y-111603095D02*
X178959080Y-111542618D01*
X178959080Y-111542618D02*
X179019556Y-111421666D01*
X179019556Y-111421666D02*
X179019556Y-110937856D01*
X179624318Y-112873095D02*
X179624318Y-112147380D01*
X179624318Y-112510237D02*
X178354318Y-112510237D01*
X178354318Y-112510237D02*
X178535746Y-112389285D01*
X178535746Y-112389285D02*
X178656699Y-112268333D01*
X178656699Y-112268333D02*
X178717175Y-112147380D01*
X178354318Y-113659285D02*
X178354318Y-113780238D01*
X178354318Y-113780238D02*
X178414794Y-113901190D01*
X178414794Y-113901190D02*
X178475270Y-113961666D01*
X178475270Y-113961666D02*
X178596222Y-114022142D01*
X178596222Y-114022142D02*
X178838127Y-114082619D01*
X178838127Y-114082619D02*
X179140508Y-114082619D01*
X179140508Y-114082619D02*
X179382413Y-114022142D01*
X179382413Y-114022142D02*
X179503365Y-113961666D01*
X179503365Y-113961666D02*
X179563842Y-113901190D01*
X179563842Y-113901190D02*
X179624318Y-113780238D01*
X179624318Y-113780238D02*
X179624318Y-113659285D01*
X179624318Y-113659285D02*
X179563842Y-113538333D01*
X179563842Y-113538333D02*
X179503365Y-113477857D01*
X179503365Y-113477857D02*
X179382413Y-113417380D01*
X179382413Y-113417380D02*
X179140508Y-113356904D01*
X179140508Y-113356904D02*
X178838127Y-113356904D01*
X178838127Y-113356904D02*
X178596222Y-113417380D01*
X178596222Y-113417380D02*
X178475270Y-113477857D01*
X178475270Y-113477857D02*
X178414794Y-113538333D01*
X178414794Y-113538333D02*
X178354318Y-113659285D01*
X189019524Y-69349318D02*
X189019524Y-68079318D01*
X187689047Y-69228365D02*
X187749523Y-69288842D01*
X187749523Y-69288842D02*
X187930952Y-69349318D01*
X187930952Y-69349318D02*
X188051904Y-69349318D01*
X188051904Y-69349318D02*
X188233333Y-69288842D01*
X188233333Y-69288842D02*
X188354285Y-69167889D01*
X188354285Y-69167889D02*
X188414762Y-69046937D01*
X188414762Y-69046937D02*
X188475238Y-68805032D01*
X188475238Y-68805032D02*
X188475238Y-68623603D01*
X188475238Y-68623603D02*
X188414762Y-68381699D01*
X188414762Y-68381699D02*
X188354285Y-68260746D01*
X188354285Y-68260746D02*
X188233333Y-68139794D01*
X188233333Y-68139794D02*
X188051904Y-68079318D01*
X188051904Y-68079318D02*
X187930952Y-68079318D01*
X187930952Y-68079318D02*
X187749523Y-68139794D01*
X187749523Y-68139794D02*
X187689047Y-68200270D01*
X186479523Y-69349318D02*
X187205238Y-69349318D01*
X186842381Y-69349318D02*
X186842381Y-68079318D01*
X186842381Y-68079318D02*
X186963333Y-68260746D01*
X186963333Y-68260746D02*
X187084285Y-68381699D01*
X187084285Y-68381699D02*
X187205238Y-68442175D01*
X185693333Y-68079318D02*
X185572380Y-68079318D01*
X185572380Y-68079318D02*
X185451428Y-68139794D01*
X185451428Y-68139794D02*
X185390952Y-68200270D01*
X185390952Y-68200270D02*
X185330476Y-68321222D01*
X185330476Y-68321222D02*
X185269999Y-68563127D01*
X185269999Y-68563127D02*
X185269999Y-68865508D01*
X185269999Y-68865508D02*
X185330476Y-69107413D01*
X185330476Y-69107413D02*
X185390952Y-69228365D01*
X185390952Y-69228365D02*
X185451428Y-69288842D01*
X185451428Y-69288842D02*
X185572380Y-69349318D01*
X185572380Y-69349318D02*
X185693333Y-69349318D01*
X185693333Y-69349318D02*
X185814285Y-69288842D01*
X185814285Y-69288842D02*
X185874761Y-69228365D01*
X185874761Y-69228365D02*
X185935238Y-69107413D01*
X185935238Y-69107413D02*
X185995714Y-68865508D01*
X185995714Y-68865508D02*
X185995714Y-68563127D01*
X185995714Y-68563127D02*
X185935238Y-68321222D01*
X185935238Y-68321222D02*
X185874761Y-68200270D01*
X185874761Y-68200270D02*
X185814285Y-68139794D01*
X185814285Y-68139794D02*
X185693333Y-68079318D01*
X177853365Y-69283571D02*
X177913842Y-69223095D01*
X177913842Y-69223095D02*
X177974318Y-69041666D01*
X177974318Y-69041666D02*
X177974318Y-68920714D01*
X177974318Y-68920714D02*
X177913842Y-68739285D01*
X177913842Y-68739285D02*
X177792889Y-68618333D01*
X177792889Y-68618333D02*
X177671937Y-68557856D01*
X177671937Y-68557856D02*
X177430032Y-68497380D01*
X177430032Y-68497380D02*
X177248603Y-68497380D01*
X177248603Y-68497380D02*
X177006699Y-68557856D01*
X177006699Y-68557856D02*
X176885746Y-68618333D01*
X176885746Y-68618333D02*
X176764794Y-68739285D01*
X176764794Y-68739285D02*
X176704318Y-68920714D01*
X176704318Y-68920714D02*
X176704318Y-69041666D01*
X176704318Y-69041666D02*
X176764794Y-69223095D01*
X176764794Y-69223095D02*
X176825270Y-69283571D01*
X177974318Y-70493095D02*
X177974318Y-69767380D01*
X177974318Y-70130237D02*
X176704318Y-70130237D01*
X176704318Y-70130237D02*
X176885746Y-70009285D01*
X176885746Y-70009285D02*
X177006699Y-69888333D01*
X177006699Y-69888333D02*
X177067175Y-69767380D01*
X176704318Y-71642142D02*
X176704318Y-71037380D01*
X176704318Y-71037380D02*
X177309080Y-70976904D01*
X177309080Y-70976904D02*
X177248603Y-71037380D01*
X177248603Y-71037380D02*
X177188127Y-71158333D01*
X177188127Y-71158333D02*
X177188127Y-71460714D01*
X177188127Y-71460714D02*
X177248603Y-71581666D01*
X177248603Y-71581666D02*
X177309080Y-71642142D01*
X177309080Y-71642142D02*
X177430032Y-71702619D01*
X177430032Y-71702619D02*
X177732413Y-71702619D01*
X177732413Y-71702619D02*
X177853365Y-71642142D01*
X177853365Y-71642142D02*
X177913842Y-71581666D01*
X177913842Y-71581666D02*
X177974318Y-71460714D01*
X177974318Y-71460714D02*
X177974318Y-71158333D01*
X177974318Y-71158333D02*
X177913842Y-71037380D01*
X177913842Y-71037380D02*
X177853365Y-70976904D01*
X175053365Y-115733571D02*
X175113842Y-115673095D01*
X175113842Y-115673095D02*
X175174318Y-115491666D01*
X175174318Y-115491666D02*
X175174318Y-115370714D01*
X175174318Y-115370714D02*
X175113842Y-115189285D01*
X175113842Y-115189285D02*
X174992889Y-115068333D01*
X174992889Y-115068333D02*
X174871937Y-115007856D01*
X174871937Y-115007856D02*
X174630032Y-114947380D01*
X174630032Y-114947380D02*
X174448603Y-114947380D01*
X174448603Y-114947380D02*
X174206699Y-115007856D01*
X174206699Y-115007856D02*
X174085746Y-115068333D01*
X174085746Y-115068333D02*
X173964794Y-115189285D01*
X173964794Y-115189285D02*
X173904318Y-115370714D01*
X173904318Y-115370714D02*
X173904318Y-115491666D01*
X173904318Y-115491666D02*
X173964794Y-115673095D01*
X173964794Y-115673095D02*
X174025270Y-115733571D01*
X175174318Y-116943095D02*
X175174318Y-116217380D01*
X175174318Y-116580237D02*
X173904318Y-116580237D01*
X173904318Y-116580237D02*
X174085746Y-116459285D01*
X174085746Y-116459285D02*
X174206699Y-116338333D01*
X174206699Y-116338333D02*
X174267175Y-116217380D01*
X174327651Y-118031666D02*
X175174318Y-118031666D01*
X173843842Y-117729285D02*
X174750984Y-117426904D01*
X174750984Y-117426904D02*
X174750984Y-118213095D01*
X183429762Y-111784318D02*
X183429762Y-110514318D01*
X182099285Y-111663365D02*
X182159761Y-111723842D01*
X182159761Y-111723842D02*
X182341190Y-111784318D01*
X182341190Y-111784318D02*
X182462142Y-111784318D01*
X182462142Y-111784318D02*
X182643571Y-111723842D01*
X182643571Y-111723842D02*
X182764523Y-111602889D01*
X182764523Y-111602889D02*
X182825000Y-111481937D01*
X182825000Y-111481937D02*
X182885476Y-111240032D01*
X182885476Y-111240032D02*
X182885476Y-111058603D01*
X182885476Y-111058603D02*
X182825000Y-110816699D01*
X182825000Y-110816699D02*
X182764523Y-110695746D01*
X182764523Y-110695746D02*
X182643571Y-110574794D01*
X182643571Y-110574794D02*
X182462142Y-110514318D01*
X182462142Y-110514318D02*
X182341190Y-110514318D01*
X182341190Y-110514318D02*
X182159761Y-110574794D01*
X182159761Y-110574794D02*
X182099285Y-110635270D01*
X181494523Y-111784318D02*
X181252619Y-111784318D01*
X181252619Y-111784318D02*
X181131666Y-111723842D01*
X181131666Y-111723842D02*
X181071190Y-111663365D01*
X181071190Y-111663365D02*
X180950238Y-111481937D01*
X180950238Y-111481937D02*
X180889761Y-111240032D01*
X180889761Y-111240032D02*
X180889761Y-110756222D01*
X180889761Y-110756222D02*
X180950238Y-110635270D01*
X180950238Y-110635270D02*
X181010714Y-110574794D01*
X181010714Y-110574794D02*
X181131666Y-110514318D01*
X181131666Y-110514318D02*
X181373571Y-110514318D01*
X181373571Y-110514318D02*
X181494523Y-110574794D01*
X181494523Y-110574794D02*
X181555000Y-110635270D01*
X181555000Y-110635270D02*
X181615476Y-110756222D01*
X181615476Y-110756222D02*
X181615476Y-111058603D01*
X181615476Y-111058603D02*
X181555000Y-111179556D01*
X181555000Y-111179556D02*
X181494523Y-111240032D01*
X181494523Y-111240032D02*
X181373571Y-111300508D01*
X181373571Y-111300508D02*
X181131666Y-111300508D01*
X181131666Y-111300508D02*
X181010714Y-111240032D01*
X181010714Y-111240032D02*
X180950238Y-111179556D01*
X180950238Y-111179556D02*
X180889761Y-111058603D01*
X174978365Y-69583571D02*
X175038842Y-69523095D01*
X175038842Y-69523095D02*
X175099318Y-69341666D01*
X175099318Y-69341666D02*
X175099318Y-69220714D01*
X175099318Y-69220714D02*
X175038842Y-69039285D01*
X175038842Y-69039285D02*
X174917889Y-68918333D01*
X174917889Y-68918333D02*
X174796937Y-68857856D01*
X174796937Y-68857856D02*
X174555032Y-68797380D01*
X174555032Y-68797380D02*
X174373603Y-68797380D01*
X174373603Y-68797380D02*
X174131699Y-68857856D01*
X174131699Y-68857856D02*
X174010746Y-68918333D01*
X174010746Y-68918333D02*
X173889794Y-69039285D01*
X173889794Y-69039285D02*
X173829318Y-69220714D01*
X173829318Y-69220714D02*
X173829318Y-69341666D01*
X173829318Y-69341666D02*
X173889794Y-69523095D01*
X173889794Y-69523095D02*
X173950270Y-69583571D01*
X175099318Y-70793095D02*
X175099318Y-70067380D01*
X175099318Y-70430237D02*
X173829318Y-70430237D01*
X173829318Y-70430237D02*
X174010746Y-70309285D01*
X174010746Y-70309285D02*
X174131699Y-70188333D01*
X174131699Y-70188333D02*
X174192175Y-70067380D01*
X173950270Y-71276904D02*
X173889794Y-71337380D01*
X173889794Y-71337380D02*
X173829318Y-71458333D01*
X173829318Y-71458333D02*
X173829318Y-71760714D01*
X173829318Y-71760714D02*
X173889794Y-71881666D01*
X173889794Y-71881666D02*
X173950270Y-71942142D01*
X173950270Y-71942142D02*
X174071222Y-72002619D01*
X174071222Y-72002619D02*
X174192175Y-72002619D01*
X174192175Y-72002619D02*
X174373603Y-71942142D01*
X174373603Y-71942142D02*
X175099318Y-71216428D01*
X175099318Y-71216428D02*
X175099318Y-72002619D01*
X188624318Y-65108571D02*
X188019556Y-64685237D01*
X188624318Y-64382856D02*
X187354318Y-64382856D01*
X187354318Y-64382856D02*
X187354318Y-64866666D01*
X187354318Y-64866666D02*
X187414794Y-64987618D01*
X187414794Y-64987618D02*
X187475270Y-65048095D01*
X187475270Y-65048095D02*
X187596222Y-65108571D01*
X187596222Y-65108571D02*
X187777651Y-65108571D01*
X187777651Y-65108571D02*
X187898603Y-65048095D01*
X187898603Y-65048095D02*
X187959080Y-64987618D01*
X187959080Y-64987618D02*
X188019556Y-64866666D01*
X188019556Y-64866666D02*
X188019556Y-64382856D01*
X188624318Y-66318095D02*
X188624318Y-65592380D01*
X188624318Y-65955237D02*
X187354318Y-65955237D01*
X187354318Y-65955237D02*
X187535746Y-65834285D01*
X187535746Y-65834285D02*
X187656699Y-65713333D01*
X187656699Y-65713333D02*
X187717175Y-65592380D01*
X188624318Y-67527619D02*
X188624318Y-66801904D01*
X188624318Y-67164761D02*
X187354318Y-67164761D01*
X187354318Y-67164761D02*
X187535746Y-67043809D01*
X187535746Y-67043809D02*
X187656699Y-66922857D01*
X187656699Y-66922857D02*
X187717175Y-66801904D01*
D11*
G04 #@! TO.C,C13*
X187900000Y-117150000D02*
G75*
G02*
X187800000Y-117150000I-50000J0D01*
G01*
X187800000Y-117150000D02*
G75*
G02*
X187900000Y-117150000I50000J0D01*
G01*
D13*
G04 #@! TO.C,R10*
X178338800Y-116151600D02*
X178338800Y-115948400D01*
X179761200Y-115948400D02*
X179761200Y-116151600D01*
D11*
G04 #@! TO.C,IC10*
X184675000Y-69187000D02*
X184675000Y-67662000D01*
G04 #@! TO.C,C15*
X177350000Y-64425000D02*
G75*
G02*
X177250000Y-64425000I-50000J0D01*
G01*
X177250000Y-64425000D02*
G75*
G02*
X177350000Y-64425000I50000J0D01*
G01*
G04 #@! TO.C,C14*
X176125000Y-116550000D02*
X177525000Y-116550000D01*
G04 #@! TO.C,IC9*
X180795000Y-112325000D02*
X180795000Y-113850000D01*
G04 #@! TO.C,C12*
X175100000Y-66050000D02*
X173700000Y-66050000D01*
D13*
G04 #@! TO.C,R11*
X185288800Y-66101600D02*
X185288800Y-65898400D01*
X186711200Y-65898400D02*
X186711200Y-66101600D01*
G04 #@! TD*
%LPC*%
D14*
G04 #@! TO.C,R6*
X125679200Y-84124800D03*
X135839200Y-84124800D03*
G04 #@! TD*
D15*
G04 #@! TO.C,U1*
X105867200Y-53797200D03*
X105867200Y-50397200D03*
X115787200Y-53797200D03*
X115787200Y-50397200D03*
G04 #@! TD*
D14*
G04 #@! TO.C,R5*
X125679200Y-87274400D03*
X135839200Y-87274400D03*
G04 #@! TD*
D16*
G04 #@! TO.C,Q2*
X118189600Y-94488000D03*
X115589600Y-94488000D03*
X112989600Y-94488000D03*
G04 #@! TD*
D14*
G04 #@! TO.C,R7*
X135839200Y-81026000D03*
X125679200Y-81026000D03*
G04 #@! TD*
D17*
G04 #@! TO.C,J6*
X185300000Y-53225000D03*
D18*
X181800000Y-53225000D03*
G04 #@! TD*
D17*
G04 #@! TO.C,J1*
X99009200Y-53035200D03*
D18*
X95509200Y-53035200D03*
G04 #@! TD*
D17*
G04 #@! TO.C,J5*
X182375000Y-126000000D03*
D18*
X185875000Y-126000000D03*
G04 #@! TD*
D19*
G04 #@! TO.C,M3_3*
X107000000Y-106000000D03*
G04 #@! TD*
D17*
G04 #@! TO.C,J7*
X181450000Y-86825000D03*
D18*
X181450000Y-83325000D03*
G04 #@! TD*
D19*
G04 #@! TO.C,M3_1*
X167000000Y-82000000D03*
G04 #@! TD*
D18*
G04 #@! TO.C,J4*
X181550000Y-98225000D03*
D17*
X181550000Y-101725000D03*
G04 #@! TD*
D20*
G04 #@! TO.C,J3*
X104851200Y-98602800D03*
X104851200Y-96062800D03*
X104851200Y-93522800D03*
X104851200Y-90982800D03*
X104851200Y-88442800D03*
X104851200Y-85902800D03*
G04 #@! TD*
D21*
G04 #@! TO.C,J2*
X122455000Y-121975000D03*
D22*
X122455000Y-119435000D03*
X124995000Y-121975000D03*
X124995000Y-119435000D03*
X127535000Y-121975000D03*
X127535000Y-119435000D03*
X130075000Y-121975000D03*
X130075000Y-119435000D03*
X132615000Y-121975000D03*
X132615000Y-119435000D03*
X135155000Y-121975000D03*
X135155000Y-119435000D03*
X137695000Y-121975000D03*
X137695000Y-119435000D03*
X140235000Y-121975000D03*
X140235000Y-119435000D03*
X142775000Y-121975000D03*
X142775000Y-119435000D03*
X145315000Y-121975000D03*
X145315000Y-119435000D03*
X147855000Y-121975000D03*
X147855000Y-119435000D03*
X150395000Y-121975000D03*
X150395000Y-119435000D03*
X152935000Y-121975000D03*
X152935000Y-119435000D03*
X155475000Y-121975000D03*
X155475000Y-119435000D03*
X158015000Y-121975000D03*
X158015000Y-119435000D03*
X160555000Y-121975000D03*
X160555000Y-119435000D03*
X163095000Y-121975000D03*
X163095000Y-119435000D03*
X165635000Y-121975000D03*
X165635000Y-119435000D03*
X168175000Y-121975000D03*
X168175000Y-119435000D03*
D21*
X122455000Y-61015000D03*
D22*
X122455000Y-58475000D03*
X124995000Y-61015000D03*
X124995000Y-58475000D03*
X127535000Y-61015000D03*
X127535000Y-58475000D03*
X130075000Y-61015000D03*
X130075000Y-58475000D03*
X132615000Y-61015000D03*
X132615000Y-58475000D03*
X135155000Y-61015000D03*
X135155000Y-58475000D03*
X137695000Y-61015000D03*
X137695000Y-58475000D03*
X140235000Y-61015000D03*
X140235000Y-58475000D03*
X142775000Y-61015000D03*
X142775000Y-58475000D03*
X145315000Y-61015000D03*
X145315000Y-58475000D03*
X147855000Y-61015000D03*
X147855000Y-58475000D03*
X150395000Y-61015000D03*
X150395000Y-58475000D03*
X152935000Y-61015000D03*
X152935000Y-58475000D03*
X155475000Y-61015000D03*
X155475000Y-58475000D03*
X158015000Y-61015000D03*
X158015000Y-58475000D03*
X160555000Y-61015000D03*
X160555000Y-58475000D03*
X163095000Y-61015000D03*
X163095000Y-58475000D03*
X165635000Y-61015000D03*
X165635000Y-58475000D03*
X168175000Y-61015000D03*
X168175000Y-58475000D03*
G04 #@! TD*
D19*
G04 #@! TO.C,M3_4*
X107000000Y-78000000D03*
G04 #@! TD*
D23*
G04 #@! TO.C,Q3*
X118059200Y-85090000D03*
X119329200Y-86360000D03*
X118059200Y-87630000D03*
G04 #@! TD*
D19*
G04 #@! TO.C,M3_2*
X167000000Y-102000000D03*
G04 #@! TD*
D24*
G04 #@! TO.C,C13*
X187850000Y-116300000D03*
X187850000Y-114500000D03*
G04 #@! TD*
D25*
G04 #@! TO.C,R10*
X179050000Y-116989800D03*
X179050000Y-115110200D03*
G04 #@! TD*
D26*
G04 #@! TO.C,IC10*
X184000000Y-68424000D03*
X182730000Y-68424000D03*
X181460000Y-68424000D03*
X180190000Y-68424000D03*
X180190000Y-63000000D03*
X181460000Y-63000000D03*
X182730000Y-63000000D03*
X184000000Y-63000000D03*
D27*
X182095000Y-65712000D03*
G04 #@! TD*
D24*
G04 #@! TO.C,C15*
X177300000Y-65275000D03*
X177300000Y-67075000D03*
G04 #@! TD*
D28*
G04 #@! TO.C,C14*
X176825000Y-114950000D03*
X176825000Y-118150000D03*
G04 #@! TD*
D26*
G04 #@! TO.C,IC9*
X181470000Y-113088000D03*
X182740000Y-113088000D03*
X184010000Y-113088000D03*
X185280000Y-113088000D03*
X185280000Y-118512000D03*
X184010000Y-118512000D03*
X182740000Y-118512000D03*
X181470000Y-118512000D03*
D27*
X183375000Y-115800000D03*
G04 #@! TD*
D28*
G04 #@! TO.C,C12*
X174400000Y-67650000D03*
X174400000Y-64450000D03*
G04 #@! TD*
D25*
G04 #@! TO.C,R11*
X186000000Y-65060200D03*
X186000000Y-66939800D03*
G04 #@! TD*
%LPD*%
M02*
