G04 #@! TF.GenerationSoftware,KiCad,Pcbnew,9.0.6*
G04 #@! TF.CreationDate,2026-02-11T23:07:03-07:00*
G04 #@! TF.ProjectId,JAARK_PCB_MOTOR,4a414152-4b5f-4504-9342-5f4d4f544f52,rev?*
G04 #@! TF.SameCoordinates,Original*
G04 #@! TF.FileFunction,Copper,L2,Bot*
G04 #@! TF.FilePolarity,Positive*
%FSLAX46Y46*%
G04 Gerber Fmt 4.6, Leading zero omitted, Abs format (unit mm)*
G04 Created by KiCad (PCBNEW 9.0.6) date 2026-02-11 23:07:03*
%MOMM*%
%LPD*%
G01*
G04 APERTURE LIST*
G04 #@! TA.AperFunction,ComponentPad*
%ADD10C,1.600000*%
G04 #@! TD*
G04 #@! TA.AperFunction,ComponentPad*
%ADD11C,2.400000*%
G04 #@! TD*
G04 #@! TA.AperFunction,ComponentPad*
%ADD12C,1.493000*%
G04 #@! TD*
G04 #@! TA.AperFunction,ComponentPad*
%ADD13R,1.800000X1.800000*%
G04 #@! TD*
G04 #@! TA.AperFunction,ComponentPad*
%ADD14C,1.800000*%
G04 #@! TD*
G04 #@! TA.AperFunction,ComponentPad*
%ADD15C,1.605000*%
G04 #@! TD*
G04 #@! TA.AperFunction,ComponentPad*
%ADD16R,1.560000X1.560000*%
G04 #@! TD*
G04 #@! TA.AperFunction,ComponentPad*
%ADD17C,1.560000*%
G04 #@! TD*
G04 #@! TA.AperFunction,ComponentPad*
%ADD18C,1.440000*%
G04 #@! TD*
G04 #@! TA.AperFunction,SMDPad,CuDef*
%ADD19R,1.450000X1.150000*%
G04 #@! TD*
G04 #@! TA.AperFunction,SMDPad,CuDef*
%ADD20R,1.397000X1.016000*%
G04 #@! TD*
G04 #@! TA.AperFunction,SMDPad,CuDef*
%ADD21R,0.650000X1.525000*%
G04 #@! TD*
G04 #@! TA.AperFunction,SMDPad,CuDef*
%ADD22R,3.400000X2.710000*%
G04 #@! TD*
G04 #@! TA.AperFunction,SMDPad,CuDef*
%ADD23R,1.820000X0.620000*%
G04 #@! TD*
G04 #@! TA.AperFunction,ViaPad*
%ADD24C,1.500000*%
G04 #@! TD*
G04 #@! TA.AperFunction,ViaPad*
%ADD25C,1.200000*%
G04 #@! TD*
G04 #@! TA.AperFunction,ViaPad*
%ADD26C,0.800000*%
G04 #@! TD*
G04 #@! TA.AperFunction,ViaPad*
%ADD27C,2.000000*%
G04 #@! TD*
G04 #@! TA.AperFunction,Conductor*
%ADD28C,0.750000*%
G04 #@! TD*
G04 #@! TA.AperFunction,Conductor*
%ADD29C,0.350000*%
G04 #@! TD*
G04 #@! TA.AperFunction,Conductor*
%ADD30C,1.500000*%
G04 #@! TD*
G04 #@! TA.AperFunction,Conductor*
%ADD31C,1.000000*%
G04 #@! TD*
G04 #@! TA.AperFunction,Conductor*
%ADD32C,0.500000*%
G04 #@! TD*
G04 #@! TA.AperFunction,Conductor*
%ADD33C,2.000000*%
G04 #@! TD*
G04 APERTURE END LIST*
D10*
G04 #@! TO.P,R6,2*
G04 #@! TO.N,Net-(Q3-B)*
X125679200Y-84124800D03*
G04 #@! TO.P,R6,1*
G04 #@! TO.N,/P_HC*
X135839200Y-84124800D03*
G04 #@! TD*
D11*
G04 #@! TO.P,U1,1,1*
G04 #@! TO.N,Net-(J1-Pad2)*
X105867200Y-53797200D03*
G04 #@! TO.P,U1,2,2*
X105867200Y-50397200D03*
G04 #@! TO.P,U1,3,3*
G04 #@! TO.N,Net-(Q1-D)*
X115787200Y-53797200D03*
G04 #@! TO.P,U1,4,4*
X115787200Y-50397200D03*
G04 #@! TD*
D10*
G04 #@! TO.P,R5,1*
G04 #@! TO.N,+5V*
X125679200Y-87274400D03*
G04 #@! TO.P,R5,2*
G04 #@! TO.N,Net-(Q3-C)*
X135839200Y-87274400D03*
G04 #@! TD*
D12*
G04 #@! TO.P,Q2,1,E*
G04 #@! TO.N,+5V*
X118189600Y-94488000D03*
G04 #@! TO.P,Q2,2,B*
G04 #@! TO.N,Net-(Q2-B)*
X115589600Y-94488000D03*
G04 #@! TO.P,Q2,3,C*
G04 #@! TO.N,Net-(J3-VCC)*
X112989600Y-94488000D03*
G04 #@! TD*
D10*
G04 #@! TO.P,R7,1*
G04 #@! TO.N,Net-(Q3-C)*
X135839200Y-81026000D03*
G04 #@! TO.P,R7,2*
G04 #@! TO.N,Net-(Q2-B)*
X125679200Y-81026000D03*
G04 #@! TD*
D13*
G04 #@! TO.P,J6,1,1*
G04 #@! TO.N,Net-(IC10-OUT2)*
X185300000Y-53225000D03*
D14*
G04 #@! TO.P,J6,2,2*
G04 #@! TO.N,Net-(IC10-OUT1)*
X181800000Y-53225000D03*
G04 #@! TD*
D13*
G04 #@! TO.P,J1,1,1*
G04 #@! TO.N,GND*
X99009200Y-53035200D03*
D14*
G04 #@! TO.P,J1,2,2*
G04 #@! TO.N,Net-(J1-Pad2)*
X95509200Y-53035200D03*
G04 #@! TD*
D13*
G04 #@! TO.P,J5,1,1*
G04 #@! TO.N,Net-(IC9-OUT2)*
X182375000Y-126000000D03*
D14*
G04 #@! TO.P,J5,2,2*
G04 #@! TO.N,Net-(IC9-OUT1)*
X185875000Y-126000000D03*
G04 #@! TD*
D13*
G04 #@! TO.P,J7,1,1*
G04 #@! TO.N,GND*
X181450000Y-86825000D03*
D14*
G04 #@! TO.P,J7,2,2*
G04 #@! TO.N,+5V*
X181450000Y-83325000D03*
G04 #@! TD*
G04 #@! TO.P,J4,2,2*
G04 #@! TO.N,+12V*
X181550000Y-98225000D03*
D13*
G04 #@! TO.P,J4,1,1*
G04 #@! TO.N,GND*
X181550000Y-101725000D03*
G04 #@! TD*
D15*
G04 #@! TO.P,J3,1,STATE*
G04 #@! TO.N,/ST_HC*
X104851200Y-98602800D03*
G04 #@! TO.P,J3,2,RXD*
G04 #@! TO.N,/RX_HC*
X104851200Y-96062800D03*
G04 #@! TO.P,J3,3,TXD*
G04 #@! TO.N,/TX_HC*
X104851200Y-93522800D03*
G04 #@! TO.P,J3,4,GND*
G04 #@! TO.N,GND*
X104851200Y-90982800D03*
G04 #@! TO.P,J3,5,VCC*
G04 #@! TO.N,Net-(J3-VCC)*
X104851200Y-88442800D03*
G04 #@! TO.P,J3,6,EN*
G04 #@! TO.N,/EN_HC*
X104851200Y-85902800D03*
G04 #@! TD*
D16*
G04 #@! TO.P,J2,A1,PC10*
G04 #@! TO.N,unconnected-(J2A-PC10-PadA1)*
X122455000Y-121975000D03*
D17*
G04 #@! TO.P,J2,A2,PC11*
G04 #@! TO.N,unconnected-(J2A-PC11-PadA2)*
X122455000Y-119435000D03*
G04 #@! TO.P,J2,A3,PC12*
G04 #@! TO.N,unconnected-(J2A-PC12-PadA3)*
X124995000Y-121975000D03*
G04 #@! TO.P,J2,A4,PD2*
G04 #@! TO.N,/ST_HC*
X124995000Y-119435000D03*
G04 #@! TO.P,J2,A5,VDD*
G04 #@! TO.N,unconnected-(J2A-VDD-PadA5)*
X127535000Y-121975000D03*
G04 #@! TO.P,J2,A6,E5V*
G04 #@! TO.N,+5V*
X127535000Y-119435000D03*
G04 #@! TO.P,J2,A7,BOOT0*
G04 #@! TO.N,unconnected-(J2A-BOOT0-PadA7)*
X130075000Y-121975000D03*
G04 #@! TO.P,J2,A8,GND*
G04 #@! TO.N,GND*
X130075000Y-119435000D03*
G04 #@! TO.P,J2,A9,NC*
G04 #@! TO.N,unconnected-(J2A-NC-PadA9)*
X132615000Y-121975000D03*
G04 #@! TO.P,J2,A10,NC*
G04 #@! TO.N,unconnected-(J2A-NC-PadA10)*
X132615000Y-119435000D03*
G04 #@! TO.P,J2,A11,NC*
G04 #@! TO.N,unconnected-(J2A-NC-PadA11)*
X135155000Y-121975000D03*
G04 #@! TO.P,J2,A12,IOREF*
G04 #@! TO.N,unconnected-(J2A-IOREF-PadA12)*
X135155000Y-119435000D03*
G04 #@! TO.P,J2,A13,PA13*
G04 #@! TO.N,unconnected-(J2A-PA13-PadA13)*
X137695000Y-121975000D03*
G04 #@! TO.P,J2,A14,RESET*
G04 #@! TO.N,unconnected-(J2A-RESET-PadA14)*
X137695000Y-119435000D03*
G04 #@! TO.P,J2,A15,PA14*
G04 #@! TO.N,unconnected-(J2A-PA14-PadA15)*
X140235000Y-121975000D03*
G04 #@! TO.P,J2,A16,+3V3*
G04 #@! TO.N,+3V3*
X140235000Y-119435000D03*
G04 #@! TO.P,J2,A17,PA15*
G04 #@! TO.N,unconnected-(J2A-PA15-PadA17)*
X142775000Y-121975000D03*
G04 #@! TO.P,J2,A18,+5V*
G04 #@! TO.N,unconnected-(J2A-+5V-PadA18)*
X142775000Y-119435000D03*
G04 #@! TO.P,J2,A19,GND*
G04 #@! TO.N,GND*
X145315000Y-121975000D03*
G04 #@! TO.P,J2,A20,GND*
X145315000Y-119435000D03*
G04 #@! TO.P,J2,A21,PB7*
G04 #@! TO.N,unconnected-(J2A-PB7-PadA21)*
X147855000Y-121975000D03*
G04 #@! TO.P,J2,A22,GND*
G04 #@! TO.N,GND*
X147855000Y-119435000D03*
G04 #@! TO.P,J2,A23,PC13*
G04 #@! TO.N,unconnected-(J2A-PC13-PadA23)*
X150395000Y-121975000D03*
G04 #@! TO.P,J2,A24,VIN*
G04 #@! TO.N,unconnected-(J2A-VIN-PadA24)*
X150395000Y-119435000D03*
G04 #@! TO.P,J2,A25,PC14*
G04 #@! TO.N,unconnected-(J2A-PC14-PadA25)*
X152935000Y-121975000D03*
G04 #@! TO.P,J2,A26,NC*
G04 #@! TO.N,unconnected-(J2A-NC-PadA26)*
X152935000Y-119435000D03*
G04 #@! TO.P,J2,A27,PC15*
G04 #@! TO.N,unconnected-(J2A-PC15-PadA27)*
X155475000Y-121975000D03*
G04 #@! TO.P,J2,A28,PA0*
G04 #@! TO.N,unconnected-(J2A-PA0-PadA28)*
X155475000Y-119435000D03*
G04 #@! TO.P,J2,A29,PH0*
G04 #@! TO.N,unconnected-(J2A-PH0-PadA29)*
X158015000Y-121975000D03*
G04 #@! TO.P,J2,A30,PA1*
G04 #@! TO.N,unconnected-(J2A-PA1-PadA30)*
X158015000Y-119435000D03*
G04 #@! TO.P,J2,A31,PH1*
G04 #@! TO.N,unconnected-(J2A-PH1-PadA31)*
X160555000Y-121975000D03*
G04 #@! TO.P,J2,A32,PA4*
G04 #@! TO.N,unconnected-(J2A-PA4-PadA32)*
X160555000Y-119435000D03*
G04 #@! TO.P,J2,A33,VBAT*
G04 #@! TO.N,unconnected-(J2A-VBAT-PadA33)*
X163095000Y-121975000D03*
G04 #@! TO.P,J2,A34,PB0*
G04 #@! TO.N,/P_HC*
X163095000Y-119435000D03*
G04 #@! TO.P,J2,A35,PC2*
G04 #@! TO.N,unconnected-(J2A-PC2-PadA35)*
X165635000Y-121975000D03*
G04 #@! TO.P,J2,A36,PC1*
G04 #@! TO.N,/IN2*
X165635000Y-119435000D03*
G04 #@! TO.P,J2,A37,PC3*
G04 #@! TO.N,unconnected-(J2A-PC3-PadA37)*
X168175000Y-121975000D03*
G04 #@! TO.P,J2,A38,PC0*
G04 #@! TO.N,/IN1*
X168175000Y-119435000D03*
D16*
G04 #@! TO.P,J2,B1,PC9*
G04 #@! TO.N,/EN_HC*
X122455000Y-61015000D03*
D17*
G04 #@! TO.P,J2,B2,PC8*
G04 #@! TO.N,unconnected-(J2B-PC8-PadB2)*
X122455000Y-58475000D03*
G04 #@! TO.P,J2,B3,PB8*
G04 #@! TO.N,unconnected-(J2B-PB8-PadB3)*
X124995000Y-61015000D03*
G04 #@! TO.P,J2,B4,PC6*
G04 #@! TO.N,unconnected-(J2B-PC6-PadB4)*
X124995000Y-58475000D03*
G04 #@! TO.P,J2,B5,PB9*
G04 #@! TO.N,unconnected-(J2B-PB9-PadB5)*
X127535000Y-61015000D03*
G04 #@! TO.P,J2,B6,PC5*
G04 #@! TO.N,unconnected-(J2B-PC5-PadB6)*
X127535000Y-58475000D03*
G04 #@! TO.P,J2,B7,AVDD*
G04 #@! TO.N,unconnected-(J2B-AVDD-PadB7)*
X130075000Y-61015000D03*
G04 #@! TO.P,J2,B8,U5V*
G04 #@! TO.N,unconnected-(J2B-U5V-PadB8)*
X130075000Y-58475000D03*
G04 #@! TO.P,J2,B9,GND*
G04 #@! TO.N,GND*
X132615000Y-61015000D03*
G04 #@! TO.P,J2,B10,NC*
G04 #@! TO.N,unconnected-(J2B-NC-PadB10)*
X132615000Y-58475000D03*
G04 #@! TO.P,J2,B11,PA5*
G04 #@! TO.N,unconnected-(J2B-PA5-PadB11)*
X135155000Y-61015000D03*
G04 #@! TO.P,J2,B12,PA12*
G04 #@! TO.N,unconnected-(J2B-PA12-PadB12)*
X135155000Y-58475000D03*
G04 #@! TO.P,J2,B13,PA6*
G04 #@! TO.N,unconnected-(J2B-PA6-PadB13)*
X137695000Y-61015000D03*
G04 #@! TO.P,J2,B14,PA11*
G04 #@! TO.N,unconnected-(J2B-PA11-PadB14)*
X137695000Y-58475000D03*
G04 #@! TO.P,J2,B15,PA7*
G04 #@! TO.N,unconnected-(J2B-PA7-PadB15)*
X140235000Y-61015000D03*
G04 #@! TO.P,J2,B16,PB12*
G04 #@! TO.N,unconnected-(J2B-PB12-PadB16)*
X140235000Y-58475000D03*
G04 #@! TO.P,J2,B17,PB6*
G04 #@! TO.N,unconnected-(J2B-PB6-PadB17)*
X142775000Y-61015000D03*
G04 #@! TO.P,J2,B18,NC*
G04 #@! TO.N,unconnected-(J2B-NC-PadB18)*
X142775000Y-58475000D03*
G04 #@! TO.P,J2,B19,PC7*
G04 #@! TO.N,unconnected-(J2B-PC7-PadB19)*
X145315000Y-61015000D03*
G04 #@! TO.P,J2,B20,GND*
G04 #@! TO.N,GND*
X145315000Y-58475000D03*
G04 #@! TO.P,J2,B21,PA9*
G04 #@! TO.N,/TX_HC*
X147855000Y-61015000D03*
G04 #@! TO.P,J2,B22,PB2*
G04 #@! TO.N,unconnected-(J2B-PB2-PadB22)*
X147855000Y-58475000D03*
G04 #@! TO.P,J2,B23,PA8*
G04 #@! TO.N,unconnected-(J2B-PA8-PadB23)*
X150395000Y-61015000D03*
G04 #@! TO.P,J2,B24,PB1*
G04 #@! TO.N,unconnected-(J2B-PB1-PadB24)*
X150395000Y-58475000D03*
G04 #@! TO.P,J2,B25,PB10*
G04 #@! TO.N,unconnected-(J2B-PB10-PadB25)*
X152935000Y-61015000D03*
G04 #@! TO.P,J2,B26,PB15*
G04 #@! TO.N,unconnected-(J2B-PB15-PadB26)*
X152935000Y-58475000D03*
G04 #@! TO.P,J2,B27,PB4*
G04 #@! TO.N,unconnected-(J2B-PB4-PadB27)*
X155475000Y-61015000D03*
G04 #@! TO.P,J2,B28,PB14*
G04 #@! TO.N,unconnected-(J2B-PB14-PadB28)*
X155475000Y-58475000D03*
G04 #@! TO.P,J2,B29,PB5*
G04 #@! TO.N,unconnected-(J2B-PB5-PadB29)*
X158015000Y-61015000D03*
G04 #@! TO.P,J2,B30,PB13*
G04 #@! TO.N,unconnected-(J2B-PB13-PadB30)*
X158015000Y-58475000D03*
G04 #@! TO.P,J2,B31,PB3*
G04 #@! TO.N,unconnected-(J2B-PB3-PadB31)*
X160555000Y-61015000D03*
G04 #@! TO.P,J2,B32,AGND*
G04 #@! TO.N,GND*
X160555000Y-58475000D03*
G04 #@! TO.P,J2,B33,PA10*
G04 #@! TO.N,/RX_HC*
X163095000Y-61015000D03*
G04 #@! TO.P,J2,B34,PC4*
G04 #@! TO.N,unconnected-(J2B-PC4-PadB34)*
X163095000Y-58475000D03*
G04 #@! TO.P,J2,B35,PA2*
G04 #@! TO.N,/IN4*
X165635000Y-61015000D03*
G04 #@! TO.P,J2,B36,NC*
G04 #@! TO.N,unconnected-(J2B-NC-PadB36)*
X165635000Y-58475000D03*
G04 #@! TO.P,J2,B37,PA3*
G04 #@! TO.N,/IN3*
X168175000Y-61015000D03*
G04 #@! TO.P,J2,B38,NC*
G04 #@! TO.N,unconnected-(J2B-NC-PadB38)*
X168175000Y-58475000D03*
G04 #@! TD*
D18*
G04 #@! TO.P,Q3,1,C*
G04 #@! TO.N,Net-(Q3-C)*
X118059200Y-85090000D03*
G04 #@! TO.P,Q3,2,B*
G04 #@! TO.N,Net-(Q3-B)*
X119329200Y-86360000D03*
G04 #@! TO.P,Q3,3,E*
G04 #@! TO.N,GND*
X118059200Y-87630000D03*
G04 #@! TD*
D19*
G04 #@! TO.P,C13,1*
G04 #@! TO.N,+12V*
X187850000Y-116300000D03*
G04 #@! TO.P,C13,2*
G04 #@! TO.N,GND*
X187850000Y-114500000D03*
G04 #@! TD*
D20*
G04 #@! TO.P,R10,1*
G04 #@! TO.N,Net-(IC9-ISEN)*
X179050000Y-116989800D03*
G04 #@! TO.P,R10,2*
G04 #@! TO.N,GND*
X179050000Y-115110200D03*
G04 #@! TD*
D21*
G04 #@! TO.P,IC10,1,GND*
G04 #@! TO.N,GND*
X184000000Y-68424000D03*
G04 #@! TO.P,IC10,2,IN2*
G04 #@! TO.N,/IN4*
X182730000Y-68424000D03*
G04 #@! TO.P,IC10,3,IN1*
G04 #@! TO.N,/IN3*
X181460000Y-68424000D03*
G04 #@! TO.P,IC10,4,VREF*
G04 #@! TO.N,+3V3*
X180190000Y-68424000D03*
G04 #@! TO.P,IC10,5,VM*
G04 #@! TO.N,+12V*
X180190000Y-63000000D03*
G04 #@! TO.P,IC10,6,OUT1*
G04 #@! TO.N,Net-(IC10-OUT1)*
X181460000Y-63000000D03*
G04 #@! TO.P,IC10,7,ISEN*
G04 #@! TO.N,Net-(IC10-ISEN)*
X182730000Y-63000000D03*
G04 #@! TO.P,IC10,8,OUT2*
G04 #@! TO.N,Net-(IC10-OUT2)*
X184000000Y-63000000D03*
D22*
G04 #@! TO.P,IC10,9,EP*
G04 #@! TO.N,GND*
X182095000Y-65712000D03*
G04 #@! TD*
D19*
G04 #@! TO.P,C15,1*
G04 #@! TO.N,+12V*
X177300000Y-65275000D03*
G04 #@! TO.P,C15,2*
G04 #@! TO.N,GND*
X177300000Y-67075000D03*
G04 #@! TD*
D23*
G04 #@! TO.P,C14,1*
G04 #@! TO.N,GND*
X176825000Y-114950000D03*
G04 #@! TO.P,C14,2*
G04 #@! TO.N,+12V*
X176825000Y-118150000D03*
G04 #@! TD*
D21*
G04 #@! TO.P,IC9,1,GND*
G04 #@! TO.N,GND*
X181470000Y-113088000D03*
G04 #@! TO.P,IC9,2,IN2*
G04 #@! TO.N,/IN1*
X182740000Y-113088000D03*
G04 #@! TO.P,IC9,3,IN1*
G04 #@! TO.N,/IN2*
X184010000Y-113088000D03*
G04 #@! TO.P,IC9,4,VREF*
G04 #@! TO.N,+3V3*
X185280000Y-113088000D03*
G04 #@! TO.P,IC9,5,VM*
G04 #@! TO.N,+12V*
X185280000Y-118512000D03*
G04 #@! TO.P,IC9,6,OUT1*
G04 #@! TO.N,Net-(IC9-OUT1)*
X184010000Y-118512000D03*
G04 #@! TO.P,IC9,7,ISEN*
G04 #@! TO.N,Net-(IC9-ISEN)*
X182740000Y-118512000D03*
G04 #@! TO.P,IC9,8,OUT2*
G04 #@! TO.N,Net-(IC9-OUT2)*
X181470000Y-118512000D03*
D22*
G04 #@! TO.P,IC9,9,EP*
G04 #@! TO.N,GND*
X183375000Y-115800000D03*
G04 #@! TD*
D23*
G04 #@! TO.P,C12,1*
G04 #@! TO.N,GND*
X174400000Y-67650000D03*
G04 #@! TO.P,C12,2*
G04 #@! TO.N,+12V*
X174400000Y-64450000D03*
G04 #@! TD*
D20*
G04 #@! TO.P,R11,1*
G04 #@! TO.N,Net-(IC10-ISEN)*
X186000000Y-65060200D03*
G04 #@! TO.P,R11,2*
G04 #@! TO.N,GND*
X186000000Y-66939800D03*
G04 #@! TD*
D24*
G04 #@! TO.N,+3V3*
X167000000Y-111000000D03*
D25*
G04 #@! TO.N,+5V*
X158075000Y-101075000D03*
D26*
G04 #@! TO.N,GND*
X139000000Y-100750000D03*
D24*
X99552500Y-63950000D03*
D25*
X107750000Y-118750000D03*
X122700000Y-105300000D03*
D26*
X140200000Y-109700000D03*
D27*
X108450000Y-64240000D03*
X104600000Y-124600000D03*
D24*
X94802500Y-63350000D03*
D25*
X112800000Y-109000000D03*
X151500000Y-110500000D03*
D24*
G04 #@! TO.N,+12V*
X176825000Y-120000000D03*
X178400000Y-62975000D03*
X186875000Y-119375000D03*
D26*
G04 #@! TO.N,Net-(IC1-EN)*
X142000000Y-107800000D03*
X142500000Y-104775000D03*
D24*
G04 #@! TO.N,Net-(Q1-D)*
X103890000Y-56570000D03*
D25*
G04 #@! TO.N,+5V*
X146960000Y-112210000D03*
D26*
G04 #@! TO.N,+3V3*
X130600000Y-114000000D03*
X123800000Y-114000000D03*
D25*
X178390000Y-70120000D03*
D26*
X113250000Y-114000000D03*
D25*
G04 #@! TO.N,Net-(IC9-ISEN)*
X183200000Y-122000000D03*
X179100000Y-118700000D03*
G04 #@! TO.N,Net-(IC10-ISEN)*
X182725000Y-59750000D03*
X186050000Y-63075000D03*
D26*
G04 #@! TO.N,/RX_HC*
X111760000Y-88290400D03*
G04 #@! TO.N,/TX_HC*
X110642400Y-87325200D03*
G04 #@! TD*
D28*
G04 #@! TO.N,Net-(Q2-B)*
X122275600Y-87802000D02*
X115589600Y-94488000D01*
X122275600Y-84429600D02*
X122275600Y-87802000D01*
X125679200Y-81026000D02*
X122275600Y-84429600D01*
D29*
G04 #@! TO.N,/P_HC*
X145975200Y-84124800D02*
X135839200Y-84124800D01*
X146025000Y-84075000D02*
X145975200Y-84124800D01*
G04 #@! TO.N,/TX_HC*
X110642400Y-87731600D02*
X104851200Y-93522800D01*
X110642400Y-87325200D02*
X110642400Y-87731600D01*
G04 #@! TO.N,/RX_HC*
X111760000Y-89154000D02*
X104851200Y-96062800D01*
X111760000Y-88290400D02*
X111760000Y-89154000D01*
G04 #@! TO.N,/ST_HC*
X112852800Y-98602800D02*
X104851200Y-98602800D01*
X124995000Y-110745000D02*
X112852800Y-98602800D01*
X124995000Y-119435000D02*
X124995000Y-110745000D01*
G04 #@! TO.N,GND*
X105257600Y-90982800D02*
X104851200Y-90982800D01*
G04 #@! TO.N,/TX_HC*
X105257600Y-93522800D02*
X104851200Y-93522800D01*
G04 #@! TO.N,/RX_HC*
X105257600Y-96062800D02*
X104851200Y-96062800D01*
G04 #@! TO.N,/ST_HC*
X104851200Y-98602800D02*
X105257600Y-99009200D01*
D30*
G04 #@! TO.N,Net-(J1-Pad2)*
X95509200Y-53035200D02*
X95509200Y-51918300D01*
X95509200Y-51918300D02*
X98077500Y-49350000D01*
X98077500Y-49350000D02*
X104737500Y-49350000D01*
X106000000Y-53664400D02*
X105867200Y-53797200D01*
X106000000Y-51802500D02*
X106000000Y-53664400D01*
X104737500Y-50540000D02*
X106000000Y-51802500D01*
X104737500Y-49350000D02*
X104737500Y-50540000D01*
X105867200Y-49467200D02*
X105867200Y-50397200D01*
X105750000Y-49350000D02*
X105867200Y-49467200D01*
X104737500Y-49350000D02*
X105750000Y-49350000D01*
D31*
G04 #@! TO.N,Net-(Q1-D)*
X113047500Y-56570000D02*
X109647500Y-56570000D01*
X115787200Y-53830300D02*
X113047500Y-56570000D01*
X115787200Y-53797200D02*
X115787200Y-53830300D01*
X115787200Y-50430300D02*
X109647500Y-56570000D01*
X115787200Y-50397200D02*
X115787200Y-50430300D01*
G04 #@! TO.N,+3V3*
X170400000Y-107600000D02*
X167000000Y-111000000D01*
X172000000Y-107600000D02*
X170400000Y-107600000D01*
D28*
G04 #@! TO.N,+5V*
X155690000Y-111590000D02*
X155690000Y-103460000D01*
X153970000Y-113310000D02*
X155690000Y-111590000D01*
X148060000Y-113310000D02*
X153970000Y-113310000D01*
X155690000Y-103460000D02*
X158075000Y-101075000D01*
X146960000Y-112210000D02*
X148060000Y-113310000D01*
D30*
G04 #@! TO.N,+12V*
X174400000Y-64450000D02*
X174400000Y-63950000D01*
X187850000Y-118400000D02*
X186875000Y-119375000D01*
X187850000Y-116300000D02*
X187850000Y-118400000D01*
X178400000Y-62975000D02*
X178325000Y-62975000D01*
D31*
X179175000Y-63000000D02*
X179150000Y-62975000D01*
D30*
X186350000Y-118875000D02*
X186850000Y-119375000D01*
X176825000Y-118150000D02*
X176825000Y-119975000D01*
D31*
X185987000Y-118512000D02*
X186350000Y-118875000D01*
D30*
X179150000Y-62975000D02*
X178400000Y-62975000D01*
X174400000Y-63950000D02*
X175375000Y-62975000D01*
X186850000Y-119375000D02*
X186875000Y-119375000D01*
X177675000Y-62975000D02*
X178325000Y-62975000D01*
D31*
X185280000Y-118512000D02*
X185987000Y-118512000D01*
D30*
X177300000Y-65275000D02*
X177300000Y-63350000D01*
D31*
X180190000Y-63000000D02*
X179175000Y-63000000D01*
D30*
X175375000Y-62975000D02*
X177675000Y-62975000D01*
X177300000Y-63350000D02*
X177675000Y-62975000D01*
X176825000Y-119975000D02*
X176825000Y-120000000D01*
D32*
G04 #@! TO.N,Net-(IC1-EN)*
X142030000Y-106570000D02*
X142500000Y-106100000D01*
X142030000Y-107775000D02*
X142030000Y-106570000D01*
X142500000Y-106100000D02*
X142500000Y-104775000D01*
D31*
G04 #@! TO.N,Net-(Q1-D)*
X103890000Y-56570000D02*
X103870000Y-56550000D01*
X109647500Y-56570000D02*
X103890000Y-56570000D01*
G04 #@! TO.N,+3V3*
X185300000Y-111100000D02*
X185300000Y-109500000D01*
D32*
X113750000Y-114000000D02*
X113250000Y-114000000D01*
D31*
X180190000Y-68424000D02*
X178389000Y-70225000D01*
D32*
X140235000Y-119435000D02*
X134800000Y-114000000D01*
D31*
X183400000Y-107600000D02*
X172000000Y-107600000D01*
X185300000Y-109500000D02*
X185200000Y-109400000D01*
D32*
X134800000Y-114000000D02*
X130600000Y-114000000D01*
D31*
X185280000Y-113088000D02*
X185280000Y-111120000D01*
X185200000Y-109400000D02*
X183400000Y-107600000D01*
X185280000Y-111120000D02*
X185300000Y-111100000D01*
D32*
X123750000Y-114000000D02*
X113750000Y-114000000D01*
D31*
G04 #@! TO.N,Net-(IC9-OUT2)*
X180825000Y-119157000D02*
X181470000Y-118512000D01*
D33*
X180825000Y-120400000D02*
X180825000Y-124850000D01*
D31*
X180825000Y-120400000D02*
X180825000Y-119157000D01*
D33*
X181975000Y-126000000D02*
X182375000Y-126000000D01*
X180825000Y-124850000D02*
X181975000Y-126000000D01*
D31*
G04 #@! TO.N,Net-(IC9-ISEN)*
X182740000Y-120165000D02*
X182750000Y-120175000D01*
X182750000Y-120175000D02*
X183200000Y-120625000D01*
X179100000Y-118700000D02*
X179100000Y-117039800D01*
X179100000Y-117039800D02*
X179050000Y-116989800D01*
X183200000Y-120625000D02*
X183200000Y-122000000D01*
X182740000Y-118512000D02*
X182740000Y-120165000D01*
G04 #@! TO.N,/IN1*
X182740000Y-111868500D02*
X182740000Y-113088000D01*
X176785000Y-110825000D02*
X181696500Y-110825000D01*
X181696500Y-110825000D02*
X182740000Y-111868500D01*
X168175000Y-119435000D02*
X176785000Y-110825000D01*
G04 #@! TO.N,Net-(IC9-OUT1)*
X185200000Y-120600000D02*
X184010000Y-119410000D01*
X184010000Y-119410000D02*
X184010000Y-118512000D01*
D33*
X185875000Y-121275000D02*
X185200000Y-120600000D01*
X185875000Y-122200000D02*
X185875000Y-121275000D01*
X185875000Y-122200000D02*
X185875000Y-126000000D01*
D31*
G04 #@! TO.N,/IN2*
X182506470Y-109050000D02*
X184010000Y-110553530D01*
X165635000Y-119435000D02*
X176020000Y-109050000D01*
X176020000Y-109050000D02*
X182506470Y-109050000D01*
X184010000Y-110553530D02*
X184010000Y-113088000D01*
G04 #@! TO.N,Net-(IC10-OUT2)*
X184625000Y-61175000D02*
X184675000Y-61175000D01*
D30*
X185300000Y-53225000D02*
X185324500Y-53249500D01*
D33*
X185300000Y-60550000D02*
X185300000Y-53225000D01*
D31*
X184000000Y-61800000D02*
X184250000Y-61550000D01*
X184000000Y-63000000D02*
X184000000Y-61800000D01*
D33*
X184675000Y-61175000D02*
X185300000Y-60550000D01*
D31*
X184250000Y-61550000D02*
X184625000Y-61175000D01*
D33*
G04 #@! TO.N,Net-(IC10-OUT1)*
X180800000Y-54750000D02*
X180800000Y-54225000D01*
D31*
X181460000Y-63000000D02*
X181460000Y-61510000D01*
D33*
X180800000Y-54225000D02*
X181800000Y-53225000D01*
X180850000Y-54800000D02*
X180800000Y-54750000D01*
D31*
X181460000Y-61510000D02*
X180850000Y-60900000D01*
D33*
X180850000Y-60900000D02*
X180850000Y-54800000D01*
D31*
G04 #@! TO.N,Net-(IC10-ISEN)*
X186050000Y-65010200D02*
X186000000Y-65060200D01*
X182730000Y-59755000D02*
X182725000Y-59750000D01*
X186050000Y-63075000D02*
X186050000Y-65010200D01*
X182730000Y-63000000D02*
X182730000Y-59755000D01*
G04 #@! TO.N,/IN4*
X175470000Y-74570000D02*
X165620000Y-64720000D01*
X182730000Y-68424000D02*
X182725000Y-68429000D01*
X165620000Y-64720000D02*
X165635000Y-64705000D01*
X182725000Y-68429000D02*
X182725000Y-72475000D01*
X165635000Y-64705000D02*
X165635000Y-61015000D01*
X180630000Y-74570000D02*
X175470000Y-74570000D01*
X182725000Y-72475000D02*
X180630000Y-74570000D01*
G04 #@! TO.N,/IN3*
X168175000Y-64047000D02*
X168175000Y-61015000D01*
X179500000Y-72450000D02*
X181460000Y-70490000D01*
X176578000Y-72450000D02*
X168175000Y-64047000D01*
X179500000Y-72450000D02*
X176578000Y-72450000D01*
X181460000Y-70490000D02*
X181460000Y-68424000D01*
D29*
G04 #@! TO.N,/EN_HC*
X122455000Y-61015000D02*
X121735000Y-61015000D01*
G04 #@! TO.N,/P_HC*
X163095000Y-101145000D02*
X163095000Y-119435000D01*
X146025000Y-84075000D02*
X163095000Y-101145000D01*
G04 #@! TD*
G04 #@! TA.AperFunction,Conductor*
G04 #@! TO.N,GND*
G36*
X144830437Y-119635712D02*
G01*
X144898896Y-119754287D01*
X144995713Y-119851104D01*
X145114288Y-119919563D01*
X145169259Y-119934292D01*
X144603395Y-120500155D01*
X144644138Y-120529757D01*
X144771233Y-120594516D01*
X144822029Y-120642490D01*
X144838824Y-120710311D01*
X144816286Y-120776446D01*
X144771233Y-120815484D01*
X144644145Y-120880239D01*
X144644133Y-120880246D01*
X144603396Y-120909842D01*
X144603396Y-120909843D01*
X145169260Y-121475707D01*
X145114288Y-121490437D01*
X144995713Y-121558896D01*
X144898896Y-121655713D01*
X144830437Y-121774288D01*
X144815707Y-121829260D01*
X144249843Y-121263396D01*
X144249842Y-121263396D01*
X144220246Y-121304133D01*
X144220242Y-121304140D01*
X144155764Y-121430683D01*
X144107789Y-121481478D01*
X144039968Y-121498273D01*
X143973833Y-121475735D01*
X143934795Y-121430682D01*
X143870182Y-121303871D01*
X143751711Y-121140810D01*
X143609190Y-120998289D01*
X143446129Y-120879818D01*
X143319867Y-120815484D01*
X143269072Y-120767510D01*
X143252277Y-120699690D01*
X143274814Y-120633555D01*
X143319868Y-120594515D01*
X143446129Y-120530182D01*
X143609190Y-120411711D01*
X143751711Y-120269190D01*
X143870182Y-120106129D01*
X143934795Y-119979317D01*
X143982769Y-119928521D01*
X144050590Y-119911726D01*
X144116725Y-119934263D01*
X144155764Y-119979316D01*
X144220246Y-120105867D01*
X144249842Y-120146602D01*
X144249843Y-120146603D01*
X144815707Y-119580739D01*
X144830437Y-119635712D01*
G37*
G04 #@! TD.AperFunction*
G04 #@! TA.AperFunction,Conductor*
G36*
X147370437Y-119635712D02*
G01*
X147438896Y-119754287D01*
X147535713Y-119851104D01*
X147654288Y-119919563D01*
X147709259Y-119934292D01*
X147143395Y-120500155D01*
X147184133Y-120529753D01*
X147310682Y-120594234D01*
X147361478Y-120642209D01*
X147378273Y-120710030D01*
X147355735Y-120776165D01*
X147310682Y-120815204D01*
X147183870Y-120879818D01*
X147142545Y-120909843D01*
X147020810Y-120998289D01*
X147020808Y-120998291D01*
X147020807Y-120998291D01*
X146878291Y-121140807D01*
X146878291Y-121140808D01*
X146878289Y-121140810D01*
X146867248Y-121156007D01*
X146759818Y-121303870D01*
X146695204Y-121430682D01*
X146647229Y-121481478D01*
X146579408Y-121498273D01*
X146513273Y-121475735D01*
X146474234Y-121430682D01*
X146409753Y-121304133D01*
X146380155Y-121263396D01*
X146380155Y-121263395D01*
X145814292Y-121829259D01*
X145799563Y-121774288D01*
X145731104Y-121655713D01*
X145634287Y-121558896D01*
X145515712Y-121490437D01*
X145460738Y-121475707D01*
X146026603Y-120909843D01*
X146026602Y-120909842D01*
X145985869Y-120880248D01*
X145858766Y-120815485D01*
X145807970Y-120767510D01*
X145791175Y-120699689D01*
X145813713Y-120633554D01*
X145858766Y-120594515D01*
X145985866Y-120529753D01*
X146026602Y-120500156D01*
X146026602Y-120500155D01*
X145460739Y-119934292D01*
X145515712Y-119919563D01*
X145634287Y-119851104D01*
X145731104Y-119754287D01*
X145799563Y-119635712D01*
X145814292Y-119580739D01*
X146380155Y-120146602D01*
X146380156Y-120146602D01*
X146409753Y-120105866D01*
X146474515Y-119978766D01*
X146522490Y-119927970D01*
X146590311Y-119911175D01*
X146656446Y-119933713D01*
X146695485Y-119978766D01*
X146760248Y-120105869D01*
X146789842Y-120146602D01*
X146789843Y-120146603D01*
X147355707Y-119580739D01*
X147370437Y-119635712D01*
G37*
G04 #@! TD.AperFunction*
G04 #@! TA.AperFunction,Conductor*
G36*
X129590437Y-119635712D02*
G01*
X129658896Y-119754287D01*
X129755713Y-119851104D01*
X129874288Y-119919563D01*
X129929259Y-119934292D01*
X129363395Y-120500155D01*
X129404133Y-120529753D01*
X129530682Y-120594234D01*
X129581478Y-120642209D01*
X129598273Y-120710030D01*
X129575735Y-120776165D01*
X129530682Y-120815204D01*
X129403870Y-120879818D01*
X129362545Y-120909843D01*
X129240810Y-120998289D01*
X129240808Y-120998291D01*
X129240807Y-120998291D01*
X129098291Y-121140807D01*
X129098291Y-121140808D01*
X129098289Y-121140810D01*
X129087248Y-121156007D01*
X128979818Y-121303870D01*
X128915485Y-121430131D01*
X128867510Y-121480927D01*
X128799689Y-121497722D01*
X128733554Y-121475184D01*
X128694515Y-121430131D01*
X128630181Y-121303870D01*
X128600774Y-121263395D01*
X128511711Y-121140810D01*
X128369190Y-120998289D01*
X128206129Y-120879818D01*
X128079867Y-120815484D01*
X128029072Y-120767510D01*
X128012277Y-120699690D01*
X128034814Y-120633555D01*
X128079868Y-120594515D01*
X128206129Y-120530182D01*
X128369190Y-120411711D01*
X128511711Y-120269190D01*
X128630182Y-120106129D01*
X128694795Y-119979317D01*
X128742769Y-119928521D01*
X128810590Y-119911726D01*
X128876725Y-119934263D01*
X128915764Y-119979316D01*
X128980246Y-120105867D01*
X129009842Y-120146602D01*
X129009843Y-120146603D01*
X129575707Y-119580739D01*
X129590437Y-119635712D01*
G37*
G04 #@! TD.AperFunction*
G04 #@! TA.AperFunction,Conductor*
G36*
X131140155Y-120146602D02*
G01*
X131140156Y-120146602D01*
X131169753Y-120105866D01*
X131234234Y-119979317D01*
X131282209Y-119928521D01*
X131350030Y-119911726D01*
X131416165Y-119934263D01*
X131455204Y-119979317D01*
X131519818Y-120106129D01*
X131638289Y-120269190D01*
X131780810Y-120411711D01*
X131943871Y-120530182D01*
X132011885Y-120564836D01*
X132070131Y-120594515D01*
X132120927Y-120642490D01*
X132137722Y-120710311D01*
X132115184Y-120776446D01*
X132070131Y-120815485D01*
X131943870Y-120879818D01*
X131902545Y-120909843D01*
X131780810Y-120998289D01*
X131780808Y-120998291D01*
X131780807Y-120998291D01*
X131638291Y-121140807D01*
X131638291Y-121140808D01*
X131638289Y-121140810D01*
X131627248Y-121156007D01*
X131519818Y-121303870D01*
X131455485Y-121430131D01*
X131407510Y-121480927D01*
X131339689Y-121497722D01*
X131273554Y-121475184D01*
X131234515Y-121430131D01*
X131170181Y-121303870D01*
X131140774Y-121263395D01*
X131051711Y-121140810D01*
X130909190Y-120998289D01*
X130746129Y-120879818D01*
X130619868Y-120815485D01*
X130619317Y-120815204D01*
X130568521Y-120767229D01*
X130551726Y-120699408D01*
X130574263Y-120633273D01*
X130619317Y-120594234D01*
X130745866Y-120529753D01*
X130786602Y-120500156D01*
X130786602Y-120500155D01*
X130220739Y-119934292D01*
X130275712Y-119919563D01*
X130394287Y-119851104D01*
X130491104Y-119754287D01*
X130559563Y-119635712D01*
X130574292Y-119580739D01*
X131140155Y-120146602D01*
G37*
G04 #@! TD.AperFunction*
G04 #@! TA.AperFunction,Conductor*
G36*
X148920155Y-120146602D02*
G01*
X148920156Y-120146602D01*
X148949753Y-120105866D01*
X149014234Y-119979317D01*
X149062209Y-119928521D01*
X149130030Y-119911726D01*
X149196165Y-119934263D01*
X149235204Y-119979317D01*
X149299818Y-120106129D01*
X149418289Y-120269190D01*
X149560810Y-120411711D01*
X149723871Y-120530182D01*
X149791885Y-120564836D01*
X149850131Y-120594515D01*
X149900927Y-120642490D01*
X149917722Y-120710311D01*
X149895184Y-120776446D01*
X149850131Y-120815485D01*
X149723870Y-120879818D01*
X149682545Y-120909843D01*
X149560810Y-120998289D01*
X149560808Y-120998291D01*
X149560807Y-120998291D01*
X149418291Y-121140807D01*
X149418291Y-121140808D01*
X149418289Y-121140810D01*
X149407248Y-121156007D01*
X149299818Y-121303870D01*
X149235485Y-121430131D01*
X149187510Y-121480927D01*
X149119689Y-121497722D01*
X149053554Y-121475184D01*
X149014515Y-121430131D01*
X148950181Y-121303870D01*
X148920774Y-121263395D01*
X148831711Y-121140810D01*
X148689190Y-120998289D01*
X148526129Y-120879818D01*
X148399868Y-120815485D01*
X148399317Y-120815204D01*
X148348521Y-120767229D01*
X148331726Y-120699408D01*
X148354263Y-120633273D01*
X148399317Y-120594234D01*
X148525866Y-120529753D01*
X148566602Y-120500156D01*
X148566602Y-120500155D01*
X148000739Y-119934292D01*
X148055712Y-119919563D01*
X148174287Y-119851104D01*
X148271104Y-119754287D01*
X148339563Y-119635712D01*
X148354292Y-119580739D01*
X148920155Y-120146602D01*
G37*
G04 #@! TD.AperFunction*
G04 #@! TA.AperFunction,Conductor*
G36*
X131416445Y-58974814D02*
G01*
X131455484Y-59019867D01*
X131519818Y-59146129D01*
X131638289Y-59309190D01*
X131780810Y-59451711D01*
X131943871Y-59570182D01*
X132070682Y-59634795D01*
X132121478Y-59682769D01*
X132138273Y-59750590D01*
X132115736Y-59816725D01*
X132070683Y-59855764D01*
X131944140Y-59920242D01*
X131944133Y-59920246D01*
X131903396Y-59949842D01*
X131903396Y-59949843D01*
X132469260Y-60515707D01*
X132414288Y-60530437D01*
X132295713Y-60598896D01*
X132198896Y-60695713D01*
X132130437Y-60814288D01*
X132115707Y-60869260D01*
X131549843Y-60303396D01*
X131549842Y-60303396D01*
X131520246Y-60344133D01*
X131520242Y-60344140D01*
X131455764Y-60470683D01*
X131407789Y-60521478D01*
X131339968Y-60538273D01*
X131273833Y-60515735D01*
X131234795Y-60470682D01*
X131170182Y-60343871D01*
X131051711Y-60180810D01*
X130909190Y-60038289D01*
X130746129Y-59919818D01*
X130619867Y-59855484D01*
X130569072Y-59807510D01*
X130552277Y-59739690D01*
X130574814Y-59673555D01*
X130619868Y-59634515D01*
X130746129Y-59570182D01*
X130909190Y-59451711D01*
X131051711Y-59309190D01*
X131170182Y-59146129D01*
X131234515Y-59019867D01*
X131282490Y-58969072D01*
X131350310Y-58952277D01*
X131416445Y-58974814D01*
G37*
G04 #@! TD.AperFunction*
G04 #@! TA.AperFunction,Conductor*
G36*
X133956445Y-58974814D02*
G01*
X133995484Y-59019867D01*
X134059818Y-59146129D01*
X134178289Y-59309190D01*
X134320810Y-59451711D01*
X134483871Y-59570182D01*
X134551885Y-59604836D01*
X134610131Y-59634515D01*
X134660927Y-59682490D01*
X134677722Y-59750311D01*
X134655184Y-59816446D01*
X134610131Y-59855485D01*
X134483870Y-59919818D01*
X134442545Y-59949843D01*
X134320810Y-60038289D01*
X134320808Y-60038291D01*
X134320807Y-60038291D01*
X134178291Y-60180807D01*
X134178291Y-60180808D01*
X134178289Y-60180810D01*
X134152367Y-60216489D01*
X134059818Y-60343870D01*
X133995204Y-60470682D01*
X133947229Y-60521478D01*
X133879408Y-60538273D01*
X133813273Y-60515735D01*
X133774234Y-60470682D01*
X133709753Y-60344133D01*
X133680155Y-60303396D01*
X133680155Y-60303395D01*
X133114292Y-60869259D01*
X133099563Y-60814288D01*
X133031104Y-60695713D01*
X132934287Y-60598896D01*
X132815712Y-60530437D01*
X132760738Y-60515707D01*
X133326603Y-59949843D01*
X133326602Y-59949842D01*
X133285867Y-59920246D01*
X133159316Y-59855764D01*
X133108521Y-59807790D01*
X133091726Y-59739969D01*
X133114264Y-59673834D01*
X133159317Y-59634795D01*
X133286129Y-59570182D01*
X133449190Y-59451711D01*
X133591711Y-59309190D01*
X133710182Y-59146129D01*
X133774515Y-59019867D01*
X133822490Y-58969072D01*
X133890310Y-58952277D01*
X133956445Y-58974814D01*
G37*
G04 #@! TD.AperFunction*
G04 #@! TA.AperFunction,Conductor*
G36*
X144830437Y-58675712D02*
G01*
X144898896Y-58794287D01*
X144995713Y-58891104D01*
X145114288Y-58959563D01*
X145169259Y-58974292D01*
X144603395Y-59540155D01*
X144644133Y-59569753D01*
X144770682Y-59634234D01*
X144821478Y-59682209D01*
X144838273Y-59750030D01*
X144815735Y-59816165D01*
X144770682Y-59855204D01*
X144643870Y-59919818D01*
X144602545Y-59949843D01*
X144480810Y-60038289D01*
X144480808Y-60038291D01*
X144480807Y-60038291D01*
X144338291Y-60180807D01*
X144338291Y-60180808D01*
X144338289Y-60180810D01*
X144312367Y-60216489D01*
X144219818Y-60343870D01*
X144155485Y-60470131D01*
X144107510Y-60520927D01*
X144039689Y-60537722D01*
X143973554Y-60515184D01*
X143934515Y-60470131D01*
X143870181Y-60343870D01*
X143840774Y-60303395D01*
X143751711Y-60180810D01*
X143609190Y-60038289D01*
X143446129Y-59919818D01*
X143319867Y-59855484D01*
X143269072Y-59807510D01*
X143252277Y-59739690D01*
X143274814Y-59673555D01*
X143319868Y-59634515D01*
X143446129Y-59570182D01*
X143609190Y-59451711D01*
X143751711Y-59309190D01*
X143870182Y-59146129D01*
X143934795Y-59019317D01*
X143982769Y-58968521D01*
X144050590Y-58951726D01*
X144116725Y-58974263D01*
X144155764Y-59019316D01*
X144220246Y-59145867D01*
X144249842Y-59186602D01*
X144249843Y-59186603D01*
X144815707Y-58620739D01*
X144830437Y-58675712D01*
G37*
G04 #@! TD.AperFunction*
G04 #@! TA.AperFunction,Conductor*
G36*
X146380155Y-59186602D02*
G01*
X146380156Y-59186602D01*
X146409753Y-59145866D01*
X146474234Y-59019317D01*
X146522209Y-58968521D01*
X146590030Y-58951726D01*
X146656165Y-58974263D01*
X146695204Y-59019317D01*
X146759818Y-59146129D01*
X146878289Y-59309190D01*
X147020810Y-59451711D01*
X147183871Y-59570182D01*
X147251885Y-59604836D01*
X147310131Y-59634515D01*
X147360927Y-59682490D01*
X147377722Y-59750311D01*
X147355184Y-59816446D01*
X147310131Y-59855485D01*
X147183870Y-59919818D01*
X147142545Y-59949843D01*
X147020810Y-60038289D01*
X147020808Y-60038291D01*
X147020807Y-60038291D01*
X146878291Y-60180807D01*
X146878291Y-60180808D01*
X146878289Y-60180810D01*
X146852367Y-60216489D01*
X146759818Y-60343870D01*
X146695485Y-60470131D01*
X146647510Y-60520927D01*
X146579689Y-60537722D01*
X146513554Y-60515184D01*
X146474515Y-60470131D01*
X146410181Y-60343870D01*
X146380774Y-60303395D01*
X146291711Y-60180810D01*
X146149190Y-60038289D01*
X145986129Y-59919818D01*
X145859317Y-59855204D01*
X145808521Y-59807229D01*
X145791726Y-59739408D01*
X145814263Y-59673273D01*
X145859317Y-59634234D01*
X145985866Y-59569753D01*
X146026602Y-59540156D01*
X146026602Y-59540155D01*
X145460739Y-58974292D01*
X145515712Y-58959563D01*
X145634287Y-58891104D01*
X145731104Y-58794287D01*
X145799563Y-58675712D01*
X145814292Y-58620739D01*
X146380155Y-59186602D01*
G37*
G04 #@! TD.AperFunction*
G04 #@! TA.AperFunction,Conductor*
G36*
X160070437Y-58675712D02*
G01*
X160138896Y-58794287D01*
X160235713Y-58891104D01*
X160354288Y-58959563D01*
X160409259Y-58974292D01*
X159843395Y-59540155D01*
X159884133Y-59569753D01*
X160010682Y-59634234D01*
X160061478Y-59682209D01*
X160078273Y-59750030D01*
X160055735Y-59816165D01*
X160010682Y-59855204D01*
X159883870Y-59919818D01*
X159842545Y-59949843D01*
X159720810Y-60038289D01*
X159720808Y-60038291D01*
X159720807Y-60038291D01*
X159578291Y-60180807D01*
X159578291Y-60180808D01*
X159578289Y-60180810D01*
X159552367Y-60216489D01*
X159459818Y-60343870D01*
X159395485Y-60470131D01*
X159347510Y-60520927D01*
X159279689Y-60537722D01*
X159213554Y-60515184D01*
X159174515Y-60470131D01*
X159110181Y-60343870D01*
X159080774Y-60303395D01*
X158991711Y-60180810D01*
X158849190Y-60038289D01*
X158686129Y-59919818D01*
X158559867Y-59855484D01*
X158509072Y-59807510D01*
X158492277Y-59739690D01*
X158514814Y-59673555D01*
X158559868Y-59634515D01*
X158686129Y-59570182D01*
X158849190Y-59451711D01*
X158991711Y-59309190D01*
X159110182Y-59146129D01*
X159174795Y-59019317D01*
X159222769Y-58968521D01*
X159290590Y-58951726D01*
X159356725Y-58974263D01*
X159395764Y-59019316D01*
X159460246Y-59145867D01*
X159489842Y-59186602D01*
X159489843Y-59186603D01*
X160055707Y-58620739D01*
X160070437Y-58675712D01*
G37*
G04 #@! TD.AperFunction*
G04 #@! TA.AperFunction,Conductor*
G36*
X161620155Y-59186602D02*
G01*
X161620156Y-59186602D01*
X161649753Y-59145866D01*
X161714234Y-59019317D01*
X161762209Y-58968521D01*
X161830030Y-58951726D01*
X161896165Y-58974263D01*
X161935204Y-59019317D01*
X161999818Y-59146129D01*
X162118289Y-59309190D01*
X162260810Y-59451711D01*
X162423871Y-59570182D01*
X162491885Y-59604836D01*
X162550131Y-59634515D01*
X162600927Y-59682490D01*
X162617722Y-59750311D01*
X162595184Y-59816446D01*
X162550131Y-59855485D01*
X162423870Y-59919818D01*
X162382545Y-59949843D01*
X162260810Y-60038289D01*
X162260808Y-60038291D01*
X162260807Y-60038291D01*
X162118291Y-60180807D01*
X162118291Y-60180808D01*
X162118289Y-60180810D01*
X162092367Y-60216489D01*
X161999818Y-60343870D01*
X161935485Y-60470131D01*
X161887510Y-60520927D01*
X161819689Y-60537722D01*
X161753554Y-60515184D01*
X161714515Y-60470131D01*
X161650181Y-60343870D01*
X161620774Y-60303395D01*
X161531711Y-60180810D01*
X161389190Y-60038289D01*
X161226129Y-59919818D01*
X161099317Y-59855204D01*
X161048521Y-59807229D01*
X161031726Y-59739408D01*
X161054263Y-59673273D01*
X161099317Y-59634234D01*
X161225866Y-59569753D01*
X161266602Y-59540156D01*
X161266602Y-59540155D01*
X160700739Y-58974292D01*
X160755712Y-58959563D01*
X160874287Y-58891104D01*
X160971104Y-58794287D01*
X161039563Y-58675712D01*
X161054292Y-58620739D01*
X161620155Y-59186602D01*
G37*
G04 #@! TD.AperFunction*
G04 #@! TA.AperFunction,Conductor*
G36*
X188493933Y-46219697D02*
G01*
X188539700Y-46272490D01*
X188550915Y-46323106D01*
X189049824Y-113407230D01*
X189030638Y-113474414D01*
X188978176Y-113520560D01*
X188909093Y-113531018D01*
X188851516Y-113507419D01*
X188817089Y-113481647D01*
X188817086Y-113481645D01*
X188682379Y-113431403D01*
X188682372Y-113431401D01*
X188622844Y-113425000D01*
X188100000Y-113425000D01*
X188100000Y-114376000D01*
X188080315Y-114443039D01*
X188027511Y-114488794D01*
X187976000Y-114500000D01*
X187850000Y-114500000D01*
X187850000Y-114626000D01*
X187830315Y-114693039D01*
X187777511Y-114738794D01*
X187726000Y-114750000D01*
X186625000Y-114750000D01*
X186625000Y-115122844D01*
X186631401Y-115182372D01*
X186631403Y-115182379D01*
X186681645Y-115317086D01*
X186681650Y-115317095D01*
X186687774Y-115325276D01*
X186712189Y-115390741D01*
X186697335Y-115459013D01*
X186687775Y-115473890D01*
X186681205Y-115482666D01*
X186681202Y-115482671D01*
X186630908Y-115617517D01*
X186624501Y-115677116D01*
X186624500Y-115677135D01*
X186624500Y-116033978D01*
X186622973Y-116053376D01*
X186599500Y-116201577D01*
X186599500Y-117497192D01*
X186590256Y-117528672D01*
X186582142Y-117560464D01*
X186580461Y-117562028D01*
X186579815Y-117564231D01*
X186555025Y-117585711D01*
X186531006Y-117608075D01*
X186528745Y-117608482D01*
X186527011Y-117609986D01*
X186494539Y-117614654D01*
X186462246Y-117620482D01*
X186459279Y-117619724D01*
X186457853Y-117619930D01*
X186428048Y-117611754D01*
X186394031Y-117597664D01*
X186332165Y-117572038D01*
X186313317Y-117564231D01*
X186278837Y-117549949D01*
X186278833Y-117549947D01*
X186096676Y-117513715D01*
X186092763Y-117512936D01*
X186060038Y-117495813D01*
X186030860Y-117480549D01*
X186017708Y-117465641D01*
X185962546Y-117391954D01*
X185962544Y-117391952D01*
X185962543Y-117391951D01*
X185847335Y-117305706D01*
X185847328Y-117305702D01*
X185712482Y-117255408D01*
X185712483Y-117255408D01*
X185685745Y-117252534D01*
X185621193Y-117225796D01*
X185581345Y-117168404D01*
X185575000Y-117129245D01*
X185575000Y-116300000D01*
X181175000Y-116300000D01*
X181175000Y-117129244D01*
X181155315Y-117196283D01*
X181102511Y-117242038D01*
X181064256Y-117252533D01*
X181037519Y-117255407D01*
X180902671Y-117305702D01*
X180902664Y-117305706D01*
X180787455Y-117391952D01*
X180787452Y-117391955D01*
X180701206Y-117507164D01*
X180701202Y-117507171D01*
X180650908Y-117642017D01*
X180644501Y-117701616D01*
X180644500Y-117701635D01*
X180644500Y-117871217D01*
X180624815Y-117938256D01*
X180608181Y-117958898D01*
X180312181Y-118254898D01*
X180250858Y-118288383D01*
X180181166Y-118283399D01*
X180125233Y-118241527D01*
X180100816Y-118176063D01*
X180100500Y-118167217D01*
X180100500Y-117904026D01*
X180120185Y-117836987D01*
X180125234Y-117829715D01*
X180192293Y-117740135D01*
X180192292Y-117740135D01*
X180192296Y-117740131D01*
X180242591Y-117605283D01*
X180249000Y-117545673D01*
X180248999Y-116433928D01*
X180242591Y-116374317D01*
X180192296Y-116239469D01*
X180192295Y-116239468D01*
X180192293Y-116239464D01*
X180105777Y-116123894D01*
X180081359Y-116058430D01*
X180096210Y-115990157D01*
X180105777Y-115975272D01*
X180191850Y-115860293D01*
X180191854Y-115860286D01*
X180242096Y-115725579D01*
X180242098Y-115725572D01*
X180248499Y-115666044D01*
X180248500Y-115666027D01*
X180248500Y-115360200D01*
X177845500Y-115360200D01*
X177778461Y-115340515D01*
X177732706Y-115287711D01*
X177721500Y-115236200D01*
X177721500Y-115200000D01*
X177075000Y-115200000D01*
X177075000Y-115760000D01*
X177784647Y-115760000D01*
X177851686Y-115779685D01*
X177887844Y-115815252D01*
X177998153Y-115980835D01*
X178007571Y-116011059D01*
X178018640Y-116040736D01*
X178017891Y-116044178D01*
X178018939Y-116047541D01*
X178010518Y-116078067D01*
X178003788Y-116109009D01*
X178000628Y-116113926D01*
X178000361Y-116114895D01*
X177999523Y-116115644D01*
X177994223Y-116123894D01*
X177907704Y-116239468D01*
X177907702Y-116239471D01*
X177857408Y-116374317D01*
X177852031Y-116424338D01*
X177851001Y-116433923D01*
X177851000Y-116433935D01*
X177851000Y-117108164D01*
X177831315Y-117175203D01*
X177778511Y-117220958D01*
X177709353Y-117230902D01*
X177645797Y-117201877D01*
X177639943Y-117196426D01*
X177639653Y-117196179D01*
X177639646Y-117196172D01*
X177480405Y-117080476D01*
X177305029Y-116991117D01*
X177117826Y-116930290D01*
X176923422Y-116899500D01*
X176923417Y-116899500D01*
X176726583Y-116899500D01*
X176726578Y-116899500D01*
X176532173Y-116930290D01*
X176344970Y-116991117D01*
X176169594Y-117080476D01*
X176010355Y-117196171D01*
X175897945Y-117308581D01*
X175836622Y-117342065D01*
X175823517Y-117344189D01*
X175807516Y-117345908D01*
X175672671Y-117396202D01*
X175672664Y-117396206D01*
X175557455Y-117482452D01*
X175557452Y-117482455D01*
X175471206Y-117597664D01*
X175471202Y-117597671D01*
X175432434Y-117701616D01*
X175420909Y-117732517D01*
X175414500Y-117792127D01*
X175414500Y-117792134D01*
X175414500Y-117792135D01*
X175414500Y-118507870D01*
X175414501Y-118507876D01*
X175420908Y-118567483D01*
X175471202Y-118702328D01*
X175471203Y-118702330D01*
X175549767Y-118807277D01*
X175574184Y-118872741D01*
X175574500Y-118881588D01*
X175574500Y-120098422D01*
X175605290Y-120292826D01*
X175666117Y-120480029D01*
X175755476Y-120655405D01*
X175871172Y-120814646D01*
X176010354Y-120953828D01*
X176071549Y-120998289D01*
X176169590Y-121069521D01*
X176169592Y-121069522D01*
X176169595Y-121069524D01*
X176234828Y-121102761D01*
X176285624Y-121150735D01*
X176288533Y-121156007D01*
X178561541Y-125524137D01*
X178575522Y-125579152D01*
X178674999Y-131124999D01*
X178675000Y-131125000D01*
X187599999Y-131320616D01*
X187799999Y-131325000D01*
X187799999Y-131324999D01*
X187800000Y-131325000D01*
X187871328Y-120197711D01*
X187891441Y-120130802D01*
X187907639Y-120110833D01*
X188803828Y-119214646D01*
X188868571Y-119125534D01*
X188923901Y-119082869D01*
X188993514Y-119076890D01*
X189055309Y-119109496D01*
X189089666Y-119170334D01*
X189092886Y-119197498D01*
X189198812Y-133440349D01*
X189190262Y-133470285D01*
X189183647Y-133500698D01*
X189180301Y-133505166D01*
X189179626Y-133507533D01*
X189162496Y-133528952D01*
X189128955Y-133562493D01*
X189067632Y-133595978D01*
X189040350Y-133598809D01*
X102122294Y-132950911D01*
X102055403Y-132930727D01*
X102010043Y-132877583D01*
X101999221Y-132827707D01*
X101827840Y-105888543D01*
X105299500Y-105888543D01*
X105299500Y-106111457D01*
X105299500Y-106111463D01*
X105299501Y-106111466D01*
X105328594Y-106332452D01*
X105328595Y-106332457D01*
X105328596Y-106332463D01*
X105386290Y-106547780D01*
X105386293Y-106547790D01*
X105454877Y-106713366D01*
X105471595Y-106753726D01*
X105583052Y-106946774D01*
X105583057Y-106946780D01*
X105583058Y-106946782D01*
X105718751Y-107123622D01*
X105718757Y-107123629D01*
X105876370Y-107281242D01*
X105876377Y-107281248D01*
X105913362Y-107309627D01*
X106053226Y-107416948D01*
X106246274Y-107528405D01*
X106452219Y-107613710D01*
X106667537Y-107671404D01*
X106888543Y-107700500D01*
X106888550Y-107700500D01*
X107111450Y-107700500D01*
X107111457Y-107700500D01*
X107332463Y-107671404D01*
X107547781Y-107613710D01*
X107753726Y-107528405D01*
X107946774Y-107416948D01*
X108123624Y-107281247D01*
X108281247Y-107123624D01*
X108416948Y-106946774D01*
X108528405Y-106753726D01*
X108613710Y-106547781D01*
X108671404Y-106332463D01*
X108700500Y-106111457D01*
X108700500Y-105888543D01*
X108671404Y-105667537D01*
X108613710Y-105452219D01*
X108528405Y-105246274D01*
X108416948Y-105053226D01*
X108281247Y-104876376D01*
X108281242Y-104876370D01*
X108123629Y-104718757D01*
X108123622Y-104718751D01*
X107946782Y-104583058D01*
X107946780Y-104583057D01*
X107946774Y-104583052D01*
X107753726Y-104471595D01*
X107753722Y-104471593D01*
X107547790Y-104386293D01*
X107547783Y-104386291D01*
X107547781Y-104386290D01*
X107332463Y-104328596D01*
X107332457Y-104328595D01*
X107332452Y-104328594D01*
X107111466Y-104299501D01*
X107111463Y-104299500D01*
X107111457Y-104299500D01*
X106888543Y-104299500D01*
X106888537Y-104299500D01*
X106888533Y-104299501D01*
X106667547Y-104328594D01*
X106667540Y-104328595D01*
X106667537Y-104328596D01*
X106593407Y-104348459D01*
X106452219Y-104386290D01*
X106452209Y-104386293D01*
X106246277Y-104471593D01*
X106246273Y-104471595D01*
X106053226Y-104583052D01*
X106053217Y-104583058D01*
X105876377Y-104718751D01*
X105876370Y-104718757D01*
X105718757Y-104876370D01*
X105718751Y-104876377D01*
X105583058Y-105053217D01*
X105583052Y-105053226D01*
X105471595Y-105246273D01*
X105471593Y-105246277D01*
X105386293Y-105452209D01*
X105386290Y-105452219D01*
X105328597Y-105667534D01*
X105328594Y-105667547D01*
X105307806Y-105825451D01*
X105299500Y-105888543D01*
X101827840Y-105888543D01*
X101700042Y-85800246D01*
X103548200Y-85800246D01*
X103548200Y-86005353D01*
X103568555Y-86133865D01*
X103580284Y-86207920D01*
X103613615Y-86310500D01*
X103643664Y-86402982D01*
X103706952Y-86527190D01*
X103731312Y-86575000D01*
X103736777Y-86585724D01*
X103857321Y-86751640D01*
X103857325Y-86751645D01*
X104002354Y-86896674D01*
X104002359Y-86896678D01*
X104012425Y-86903991D01*
X104168279Y-87017225D01*
X104244410Y-87056015D01*
X104256773Y-87062315D01*
X104307569Y-87110290D01*
X104324364Y-87178111D01*
X104301827Y-87244246D01*
X104256773Y-87283285D01*
X104168275Y-87328377D01*
X104002359Y-87448921D01*
X104002354Y-87448925D01*
X103857325Y-87593954D01*
X103857321Y-87593959D01*
X103736777Y-87759875D01*
X103643664Y-87942617D01*
X103630363Y-87983554D01*
X103580284Y-88137680D01*
X103580283Y-88137683D01*
X103580283Y-88137685D01*
X103548200Y-88340246D01*
X103548200Y-88545353D01*
X103568487Y-88673436D01*
X103580284Y-88747920D01*
X103620676Y-88872233D01*
X103643664Y-88942982D01*
X103736777Y-89125724D01*
X103857321Y-89291640D01*
X103857325Y-89291645D01*
X104002353Y-89436673D01*
X104002359Y-89436678D01*
X104147080Y-89541823D01*
X104168279Y-89557225D01*
X104257323Y-89602595D01*
X104308119Y-89650570D01*
X104324914Y-89718390D01*
X104302377Y-89784525D01*
X104257324Y-89823564D01*
X104168541Y-89868802D01*
X104123487Y-89901533D01*
X104123487Y-89901534D01*
X104693213Y-90471260D01*
X104644698Y-90484260D01*
X104522703Y-90554694D01*
X104423094Y-90654303D01*
X104352660Y-90776298D01*
X104339660Y-90824813D01*
X103769934Y-90255087D01*
X103769933Y-90255087D01*
X103737203Y-90300138D01*
X103644127Y-90482808D01*
X103580770Y-90677802D01*
X103548700Y-90880286D01*
X103548700Y-91085313D01*
X103580770Y-91287797D01*
X103644127Y-91482791D01*
X103737203Y-91665461D01*
X103769933Y-91710511D01*
X103769934Y-91710511D01*
X104339659Y-91140785D01*
X104352660Y-91189302D01*
X104423094Y-91311297D01*
X104522703Y-91410906D01*
X104644698Y-91481340D01*
X104693213Y-91494339D01*
X104123487Y-92064064D01*
X104168547Y-92096801D01*
X104168546Y-92096801D01*
X104257322Y-92142034D01*
X104308119Y-92190008D01*
X104324914Y-92257829D01*
X104302377Y-92323964D01*
X104257324Y-92363003D01*
X104168277Y-92408375D01*
X104002359Y-92528921D01*
X104002354Y-92528925D01*
X103857325Y-92673954D01*
X103857321Y-92673959D01*
X103736777Y-92839875D01*
X103643664Y-93022617D01*
X103638084Y-93039792D01*
X103580284Y-93217680D01*
X103580283Y-93217683D01*
X103580283Y-93217685D01*
X103548200Y-93420246D01*
X103548200Y-93625353D01*
X103556164Y-93675632D01*
X103580284Y-93827920D01*
X103628458Y-93976184D01*
X103643664Y-94022982D01*
X103678148Y-94090659D01*
X103731818Y-94195993D01*
X103736777Y-94205724D01*
X103857321Y-94371640D01*
X103857325Y-94371645D01*
X104002354Y-94516674D01*
X104002359Y-94516678D01*
X104147080Y-94621823D01*
X104168279Y-94637225D01*
X104244410Y-94676015D01*
X104256773Y-94682315D01*
X104307569Y-94730290D01*
X104324364Y-94798111D01*
X104301827Y-94864246D01*
X104256773Y-94903285D01*
X104168275Y-94948377D01*
X104002359Y-95068921D01*
X104002354Y-95068925D01*
X103857325Y-95213954D01*
X103857321Y-95213959D01*
X103736777Y-95379875D01*
X103643664Y-95562617D01*
X103617339Y-95643638D01*
X103580284Y-95757680D01*
X103580283Y-95757683D01*
X103580283Y-95757685D01*
X103548200Y-95960246D01*
X103548200Y-96165353D01*
X103580283Y-96367914D01*
X103580284Y-96367920D01*
X103628458Y-96516184D01*
X103643664Y-96562982D01*
X103736777Y-96745724D01*
X103857321Y-96911640D01*
X103857325Y-96911645D01*
X104002354Y-97056674D01*
X104002359Y-97056678D01*
X104147080Y-97161823D01*
X104168279Y-97177225D01*
X104244410Y-97216015D01*
X104256773Y-97222315D01*
X104307569Y-97270290D01*
X104324364Y-97338111D01*
X104301827Y-97404246D01*
X104256773Y-97443285D01*
X104168275Y-97488377D01*
X104002359Y-97608921D01*
X104002354Y-97608925D01*
X103857325Y-97753954D01*
X103857321Y-97753959D01*
X103736777Y-97919875D01*
X103643664Y-98102617D01*
X103639713Y-98114778D01*
X103580284Y-98297680D01*
X103580283Y-98297683D01*
X103580283Y-98297685D01*
X103548200Y-98500246D01*
X103548200Y-98705353D01*
X103580283Y-98907914D01*
X103580284Y-98907920D01*
X103628458Y-99056184D01*
X103643664Y-99102982D01*
X103736777Y-99285724D01*
X103857321Y-99451640D01*
X103857325Y-99451645D01*
X104002354Y-99596674D01*
X104002359Y-99596678D01*
X104147080Y-99701823D01*
X104168279Y-99717225D01*
X104284722Y-99776555D01*
X104351017Y-99810335D01*
X104351019Y-99810335D01*
X104351022Y-99810337D01*
X104546080Y-99873716D01*
X104647366Y-99889758D01*
X104748647Y-99905800D01*
X104748652Y-99905800D01*
X104953753Y-99905800D01*
X105045826Y-99891216D01*
X105156320Y-99873716D01*
X105351378Y-99810337D01*
X105534121Y-99717225D01*
X105700047Y-99596673D01*
X105845073Y-99451647D01*
X105933880Y-99329415D01*
X105989209Y-99286749D01*
X106034198Y-99278300D01*
X112521637Y-99278300D01*
X112588676Y-99297985D01*
X112609318Y-99314619D01*
X124283181Y-110988482D01*
X124316666Y-111049805D01*
X124319500Y-111076163D01*
X124319500Y-113054910D01*
X124299815Y-113121949D01*
X124247011Y-113167704D01*
X124177853Y-113177648D01*
X124148049Y-113169472D01*
X124104010Y-113151231D01*
X124062666Y-113134106D01*
X124062662Y-113134105D01*
X124062658Y-113134103D01*
X123888694Y-113099500D01*
X123888691Y-113099500D01*
X123711309Y-113099500D01*
X123711306Y-113099500D01*
X123537341Y-113134103D01*
X123537332Y-113134106D01*
X123373452Y-113201987D01*
X123373447Y-113201989D01*
X123333622Y-113228601D01*
X123266945Y-113249480D01*
X123264730Y-113249500D01*
X113785270Y-113249500D01*
X113718231Y-113229815D01*
X113716378Y-113228601D01*
X113676552Y-113201989D01*
X113676547Y-113201987D01*
X113512667Y-113134106D01*
X113512658Y-113134103D01*
X113338694Y-113099500D01*
X113338691Y-113099500D01*
X113161309Y-113099500D01*
X113161306Y-113099500D01*
X112987341Y-113134103D01*
X112987332Y-113134106D01*
X112823459Y-113201983D01*
X112823446Y-113201990D01*
X112675965Y-113300535D01*
X112675961Y-113300538D01*
X112550538Y-113425961D01*
X112550535Y-113425965D01*
X112451990Y-113573446D01*
X112451983Y-113573459D01*
X112384106Y-113737332D01*
X112384103Y-113737341D01*
X112349500Y-113911304D01*
X112349500Y-114088695D01*
X112384103Y-114262658D01*
X112384106Y-114262667D01*
X112451983Y-114426540D01*
X112451990Y-114426553D01*
X112550535Y-114574034D01*
X112550538Y-114574038D01*
X112675961Y-114699461D01*
X112675965Y-114699464D01*
X112823446Y-114798009D01*
X112823459Y-114798016D01*
X112901952Y-114830528D01*
X112987334Y-114865894D01*
X112987336Y-114865894D01*
X112987341Y-114865896D01*
X113161304Y-114900499D01*
X113161307Y-114900500D01*
X113161309Y-114900500D01*
X113338693Y-114900500D01*
X113338694Y-114900499D01*
X113396682Y-114888964D01*
X113512658Y-114865896D01*
X113512661Y-114865894D01*
X113512666Y-114865894D01*
X113676547Y-114798013D01*
X113676550Y-114798010D01*
X113676552Y-114798010D01*
X113716378Y-114771399D01*
X113783055Y-114750520D01*
X113785270Y-114750500D01*
X123264730Y-114750500D01*
X123331769Y-114770185D01*
X123333622Y-114771399D01*
X123373447Y-114798010D01*
X123373450Y-114798011D01*
X123373453Y-114798013D01*
X123537334Y-114865894D01*
X123537336Y-114865894D01*
X123537341Y-114865896D01*
X123711304Y-114900499D01*
X123711307Y-114900500D01*
X123711309Y-114900500D01*
X123888693Y-114900500D01*
X123888694Y-114900499D01*
X123946682Y-114888964D01*
X124062658Y-114865896D01*
X124062661Y-114865894D01*
X124062666Y-114865894D01*
X124148048Y-114830528D01*
X124217517Y-114823059D01*
X124279996Y-114854335D01*
X124315648Y-114914424D01*
X124319500Y-114945089D01*
X124319500Y-115598400D01*
X124299815Y-115665439D01*
X124247011Y-115711194D01*
X124195500Y-115722400D01*
X122239855Y-115722400D01*
X119380000Y-118385021D01*
X119380000Y-122275600D01*
X122072400Y-124968000D01*
X124866400Y-124968000D01*
X126734151Y-123100247D01*
X126795472Y-123066764D01*
X126865163Y-123071748D01*
X126878125Y-123077445D01*
X127043460Y-123161687D01*
X127139303Y-123192828D01*
X127235149Y-123223970D01*
X127327348Y-123238572D01*
X127434217Y-123255500D01*
X127434222Y-123255500D01*
X127635783Y-123255500D01*
X127732289Y-123240214D01*
X127834851Y-123223970D01*
X128026542Y-123161686D01*
X128206129Y-123070182D01*
X128369190Y-122951711D01*
X128511711Y-122809190D01*
X128630182Y-122646129D01*
X128694515Y-122519867D01*
X128742490Y-122469072D01*
X128810310Y-122452277D01*
X128876445Y-122474814D01*
X128915484Y-122519867D01*
X128979818Y-122646129D01*
X129098289Y-122809190D01*
X129240810Y-122951711D01*
X129403871Y-123070182D01*
X129582549Y-123161223D01*
X129583460Y-123161687D01*
X129679303Y-123192828D01*
X129775149Y-123223970D01*
X129867348Y-123238572D01*
X129974217Y-123255500D01*
X129974222Y-123255500D01*
X130175783Y-123255500D01*
X130272289Y-123240214D01*
X130374851Y-123223970D01*
X130566542Y-123161686D01*
X130746129Y-123070182D01*
X130909190Y-122951711D01*
X131051711Y-122809190D01*
X131170182Y-122646129D01*
X131234515Y-122519867D01*
X131282490Y-122469072D01*
X131350310Y-122452277D01*
X131416445Y-122474814D01*
X131455484Y-122519867D01*
X131519818Y-122646129D01*
X131638289Y-122809190D01*
X131780810Y-122951711D01*
X131943871Y-123070182D01*
X132122549Y-123161223D01*
X132123460Y-123161687D01*
X132219303Y-123192828D01*
X132315149Y-123223970D01*
X132407348Y-123238572D01*
X132514217Y-123255500D01*
X132514222Y-123255500D01*
X132715783Y-123255500D01*
X132812289Y-123240214D01*
X132914851Y-123223970D01*
X133106542Y-123161686D01*
X133286129Y-123070182D01*
X133449190Y-122951711D01*
X133591711Y-122809190D01*
X133710182Y-122646129D01*
X133774515Y-122519867D01*
X133822490Y-122469072D01*
X133890310Y-122452277D01*
X133956445Y-122474814D01*
X133995484Y-122519867D01*
X134059818Y-122646129D01*
X134178289Y-122809190D01*
X134320810Y-122951711D01*
X134483871Y-123070182D01*
X134662549Y-123161223D01*
X134663460Y-123161687D01*
X134759303Y-123192828D01*
X134855149Y-123223970D01*
X134947348Y-123238572D01*
X135054217Y-123255500D01*
X135054222Y-123255500D01*
X135255783Y-123255500D01*
X135352289Y-123240214D01*
X135454851Y-123223970D01*
X135646542Y-123161686D01*
X135826129Y-123070182D01*
X135989190Y-122951711D01*
X136131711Y-122809190D01*
X136250182Y-122646129D01*
X136314515Y-122519867D01*
X136362490Y-122469072D01*
X136430310Y-122452277D01*
X136496445Y-122474814D01*
X136535484Y-122519867D01*
X136599818Y-122646129D01*
X136718289Y-122809190D01*
X136860810Y-122951711D01*
X137023871Y-123070182D01*
X137202549Y-123161223D01*
X137203460Y-123161687D01*
X137299303Y-123192828D01*
X137395149Y-123223970D01*
X137487348Y-123238572D01*
X137594217Y-123255500D01*
X137594222Y-123255500D01*
X137795783Y-123255500D01*
X137892289Y-123240214D01*
X137994851Y-123223970D01*
X138186542Y-123161686D01*
X138366129Y-123070182D01*
X138529190Y-122951711D01*
X138671711Y-122809190D01*
X138790182Y-122646129D01*
X138854515Y-122519867D01*
X138902490Y-122469072D01*
X138970310Y-122452277D01*
X139036445Y-122474814D01*
X139075484Y-122519867D01*
X139139818Y-122646129D01*
X139258289Y-122809190D01*
X139400810Y-122951711D01*
X139563871Y-123070182D01*
X139742549Y-123161223D01*
X139743460Y-123161687D01*
X139839303Y-123192828D01*
X139935149Y-123223970D01*
X140027348Y-123238572D01*
X140134217Y-123255500D01*
X140134222Y-123255500D01*
X140335783Y-123255500D01*
X140432289Y-123240214D01*
X140534851Y-123223970D01*
X140726542Y-123161686D01*
X140906129Y-123070182D01*
X141069190Y-122951711D01*
X141211711Y-122809190D01*
X141330182Y-122646129D01*
X141394515Y-122519867D01*
X141442490Y-122469072D01*
X141510310Y-122452277D01*
X141576445Y-122474814D01*
X141615484Y-122519867D01*
X141679818Y-122646129D01*
X141798289Y-122809190D01*
X141940810Y-122951711D01*
X142103871Y-123070182D01*
X142282549Y-123161223D01*
X142283460Y-123161687D01*
X142379303Y-123192828D01*
X142475149Y-123223970D01*
X142567348Y-123238572D01*
X142674217Y-123255500D01*
X142674222Y-123255500D01*
X142875783Y-123255500D01*
X142972289Y-123240214D01*
X143074851Y-123223970D01*
X143266542Y-123161686D01*
X143446129Y-123070182D01*
X143609190Y-122951711D01*
X143751711Y-122809190D01*
X143870182Y-122646129D01*
X143934795Y-122519317D01*
X143982769Y-122468521D01*
X144050590Y-122451726D01*
X144116725Y-122474263D01*
X144155764Y-122519316D01*
X144220246Y-122645867D01*
X144249842Y-122686602D01*
X144249843Y-122686603D01*
X144815707Y-122120739D01*
X144830437Y-122175712D01*
X144898896Y-122294287D01*
X144995713Y-122391104D01*
X145114288Y-122459563D01*
X145169259Y-122474292D01*
X144603395Y-123040155D01*
X144644133Y-123069753D01*
X144823650Y-123161223D01*
X144823653Y-123161224D01*
X145015264Y-123223481D01*
X145214263Y-123255000D01*
X145415737Y-123255000D01*
X145614735Y-123223481D01*
X145806346Y-123161224D01*
X145806349Y-123161223D01*
X145985866Y-123069753D01*
X146026602Y-123040156D01*
X146026602Y-123040155D01*
X145460739Y-122474292D01*
X145515712Y-122459563D01*
X145634287Y-122391104D01*
X145731104Y-122294287D01*
X145799563Y-122175712D01*
X145814292Y-122120739D01*
X146380155Y-122686602D01*
X146380156Y-122686602D01*
X146409753Y-122645866D01*
X146474234Y-122519317D01*
X146522209Y-122468521D01*
X146590030Y-122451726D01*
X146656165Y-122474263D01*
X146695204Y-122519317D01*
X146759818Y-122646129D01*
X146878289Y-122809190D01*
X147020810Y-122951711D01*
X147183871Y-123070182D01*
X147362549Y-123161223D01*
X147363460Y-123161687D01*
X147459303Y-123192828D01*
X147555149Y-123223970D01*
X147647348Y-123238572D01*
X147754217Y-123255500D01*
X147754222Y-123255500D01*
X147955783Y-123255500D01*
X148052289Y-123240214D01*
X148154851Y-123223970D01*
X148346542Y-123161686D01*
X148526129Y-123070182D01*
X148689190Y-122951711D01*
X148831711Y-122809190D01*
X148950182Y-122646129D01*
X149014515Y-122519867D01*
X149062490Y-122469072D01*
X149130310Y-122452277D01*
X149196445Y-122474814D01*
X149235484Y-122519867D01*
X149299818Y-122646129D01*
X149418289Y-122809190D01*
X149560810Y-122951711D01*
X149723871Y-123070182D01*
X149902549Y-123161223D01*
X149903460Y-123161687D01*
X149999303Y-123192828D01*
X150095149Y-123223970D01*
X150187348Y-123238572D01*
X150294217Y-123255500D01*
X150294222Y-123255500D01*
X150495783Y-123255500D01*
X150592289Y-123240214D01*
X150694851Y-123223970D01*
X150886542Y-123161686D01*
X151066129Y-123070182D01*
X151229190Y-122951711D01*
X151371711Y-122809190D01*
X151490182Y-122646129D01*
X151554515Y-122519867D01*
X151602490Y-122469072D01*
X151670310Y-122452277D01*
X151736445Y-122474814D01*
X151775484Y-122519867D01*
X151839818Y-122646129D01*
X151958289Y-122809190D01*
X152100810Y-122951711D01*
X152263871Y-123070182D01*
X152442549Y-123161223D01*
X152443460Y-123161687D01*
X152539303Y-123192828D01*
X152635149Y-123223970D01*
X152727348Y-123238572D01*
X152834217Y-123255500D01*
X152834222Y-123255500D01*
X153035783Y-123255500D01*
X153132289Y-123240214D01*
X153234851Y-123223970D01*
X153426542Y-123161686D01*
X153606129Y-123070182D01*
X153769190Y-122951711D01*
X153911711Y-122809190D01*
X154030182Y-122646129D01*
X154094515Y-122519867D01*
X154142490Y-122469072D01*
X154210310Y-122452277D01*
X154276445Y-122474814D01*
X154315484Y-122519867D01*
X154379818Y-122646129D01*
X154498289Y-122809190D01*
X154640810Y-122951711D01*
X154803871Y-123070182D01*
X154982549Y-123161223D01*
X154983460Y-123161687D01*
X155079303Y-123192828D01*
X155175149Y-123223970D01*
X155267348Y-123238572D01*
X155374217Y-123255500D01*
X155374222Y-123255500D01*
X155575783Y-123255500D01*
X155672289Y-123240214D01*
X155774851Y-123223970D01*
X155966542Y-123161686D01*
X156146129Y-123070182D01*
X156309190Y-122951711D01*
X156451711Y-122809190D01*
X156570182Y-122646129D01*
X156634515Y-122519867D01*
X156682490Y-122469072D01*
X156750310Y-122452277D01*
X156816445Y-122474814D01*
X156855484Y-122519867D01*
X156919818Y-122646129D01*
X157038289Y-122809190D01*
X157180810Y-122951711D01*
X157343871Y-123070182D01*
X157522549Y-123161223D01*
X157523460Y-123161687D01*
X157619303Y-123192828D01*
X157715149Y-123223970D01*
X157807348Y-123238572D01*
X157914217Y-123255500D01*
X157914222Y-123255500D01*
X158115783Y-123255500D01*
X158212289Y-123240214D01*
X158314851Y-123223970D01*
X158506542Y-123161686D01*
X158686129Y-123070182D01*
X158849190Y-122951711D01*
X158991711Y-122809190D01*
X159110182Y-122646129D01*
X159174515Y-122519867D01*
X159222490Y-122469072D01*
X159290310Y-122452277D01*
X159356445Y-122474814D01*
X159395484Y-122519867D01*
X159459818Y-122646129D01*
X159578289Y-122809190D01*
X159720810Y-122951711D01*
X159883871Y-123070182D01*
X160062549Y-123161223D01*
X160063460Y-123161687D01*
X160159303Y-123192828D01*
X160255149Y-123223970D01*
X160347348Y-123238572D01*
X160454217Y-123255500D01*
X160454222Y-123255500D01*
X160655783Y-123255500D01*
X160752289Y-123240214D01*
X160854851Y-123223970D01*
X161046542Y-123161686D01*
X161226129Y-123070182D01*
X161389190Y-122951711D01*
X161531711Y-122809190D01*
X161650182Y-122646129D01*
X161714515Y-122519867D01*
X161762490Y-122469072D01*
X161830310Y-122452277D01*
X161896445Y-122474814D01*
X161935484Y-122519867D01*
X161999818Y-122646129D01*
X162118289Y-122809190D01*
X162260810Y-122951711D01*
X162423871Y-123070182D01*
X162602549Y-123161223D01*
X162603460Y-123161687D01*
X162699303Y-123192828D01*
X162795149Y-123223970D01*
X162887348Y-123238572D01*
X162994217Y-123255500D01*
X162994222Y-123255500D01*
X163195783Y-123255500D01*
X163292289Y-123240214D01*
X163394851Y-123223970D01*
X163586542Y-123161686D01*
X163766129Y-123070182D01*
X163929190Y-122951711D01*
X164071711Y-122809190D01*
X164190182Y-122646129D01*
X164254515Y-122519867D01*
X164302490Y-122469072D01*
X164370310Y-122452277D01*
X164436445Y-122474814D01*
X164475484Y-122519867D01*
X164539818Y-122646129D01*
X164658289Y-122809190D01*
X164800810Y-122951711D01*
X164963871Y-123070182D01*
X165142549Y-123161223D01*
X165143460Y-123161687D01*
X165239303Y-123192828D01*
X165335149Y-123223970D01*
X165427348Y-123238572D01*
X165534217Y-123255500D01*
X165534222Y-123255500D01*
X165735783Y-123255500D01*
X165832289Y-123240214D01*
X165934851Y-123223970D01*
X166126542Y-123161686D01*
X166306129Y-123070182D01*
X166469190Y-122951711D01*
X166611711Y-122809190D01*
X166730182Y-122646129D01*
X166794515Y-122519867D01*
X166842490Y-122469072D01*
X166910310Y-122452277D01*
X166976445Y-122474814D01*
X167015484Y-122519867D01*
X167079818Y-122646129D01*
X167198289Y-122809190D01*
X167340810Y-122951711D01*
X167503871Y-123070182D01*
X167682549Y-123161223D01*
X167683460Y-123161687D01*
X167779303Y-123192828D01*
X167875149Y-123223970D01*
X167967348Y-123238572D01*
X168074217Y-123255500D01*
X168074222Y-123255500D01*
X168275783Y-123255500D01*
X168372289Y-123240214D01*
X168474851Y-123223970D01*
X168666542Y-123161686D01*
X168846129Y-123070182D01*
X169009190Y-122951711D01*
X169151711Y-122809190D01*
X169270182Y-122646129D01*
X169361686Y-122466542D01*
X169423970Y-122274851D01*
X169445000Y-122142072D01*
X169455500Y-122075783D01*
X169455500Y-121874216D01*
X169437156Y-121758408D01*
X169423970Y-121675149D01*
X169361686Y-121483458D01*
X169270182Y-121303871D01*
X169151711Y-121140810D01*
X169009190Y-120998289D01*
X168846129Y-120879818D01*
X168719867Y-120815484D01*
X168669072Y-120767510D01*
X168652277Y-120699690D01*
X168674814Y-120633555D01*
X168719868Y-120594515D01*
X168846129Y-120530182D01*
X169009190Y-120411711D01*
X169151711Y-120269190D01*
X169270182Y-120106129D01*
X169361686Y-119926542D01*
X169423970Y-119734851D01*
X169442866Y-119615540D01*
X169472793Y-119552410D01*
X169477639Y-119547279D01*
X173717076Y-115307844D01*
X175415000Y-115307844D01*
X175421401Y-115367372D01*
X175421403Y-115367379D01*
X175471645Y-115502086D01*
X175471649Y-115502093D01*
X175557809Y-115617187D01*
X175557812Y-115617190D01*
X175672906Y-115703350D01*
X175672913Y-115703354D01*
X175807620Y-115753596D01*
X175807627Y-115753598D01*
X175867155Y-115759999D01*
X175867172Y-115760000D01*
X176575000Y-115760000D01*
X176575000Y-115200000D01*
X175415000Y-115200000D01*
X175415000Y-115307844D01*
X173717076Y-115307844D01*
X174432765Y-114592155D01*
X175415000Y-114592155D01*
X175415000Y-114700000D01*
X176575000Y-114700000D01*
X176575000Y-114140000D01*
X177075000Y-114140000D01*
X177075000Y-114700000D01*
X178241000Y-114700000D01*
X178308039Y-114719685D01*
X178353794Y-114772489D01*
X178365000Y-114824000D01*
X178365000Y-114860200D01*
X178800000Y-114860200D01*
X179300000Y-114860200D01*
X180248500Y-114860200D01*
X180248500Y-114554372D01*
X180248499Y-114554355D01*
X180242098Y-114494827D01*
X180242096Y-114494820D01*
X180191854Y-114360113D01*
X180191850Y-114360106D01*
X180105690Y-114245012D01*
X180105687Y-114245009D01*
X179990593Y-114158849D01*
X179990586Y-114158845D01*
X179855879Y-114108603D01*
X179855872Y-114108601D01*
X179796344Y-114102200D01*
X179300000Y-114102200D01*
X179300000Y-114860200D01*
X178800000Y-114860200D01*
X178800000Y-114102200D01*
X178303655Y-114102200D01*
X178244127Y-114108601D01*
X178244120Y-114108603D01*
X178109413Y-114158845D01*
X178109406Y-114158849D01*
X178085907Y-114176441D01*
X178020443Y-114200858D01*
X177968263Y-114193356D01*
X177842376Y-114146402D01*
X177842372Y-114146401D01*
X177782844Y-114140000D01*
X177075000Y-114140000D01*
X176575000Y-114140000D01*
X175867155Y-114140000D01*
X175807627Y-114146401D01*
X175807620Y-114146403D01*
X175672913Y-114196645D01*
X175672906Y-114196649D01*
X175557812Y-114282809D01*
X175557809Y-114282812D01*
X175471649Y-114397906D01*
X175471645Y-114397913D01*
X175421403Y-114532620D01*
X175421401Y-114532627D01*
X175415000Y-114592155D01*
X174432765Y-114592155D01*
X175465472Y-113559448D01*
X180645000Y-113559448D01*
X181116448Y-113088000D01*
X181116448Y-113087999D01*
X180645000Y-112616551D01*
X180645000Y-113559448D01*
X175465472Y-113559448D01*
X177163102Y-111861819D01*
X177224425Y-111828334D01*
X177250783Y-111825500D01*
X180646996Y-111825500D01*
X180714035Y-111845185D01*
X180759790Y-111897989D01*
X180769734Y-111967147D01*
X180751502Y-112011160D01*
X180751871Y-112016319D01*
X181559095Y-112823543D01*
X181592580Y-112884866D01*
X181587596Y-112954558D01*
X181559095Y-112998905D01*
X181470000Y-113088000D01*
X181559094Y-113177094D01*
X181592579Y-113238417D01*
X181587595Y-113308109D01*
X181559094Y-113352456D01*
X180751871Y-114159678D01*
X180751870Y-114159679D01*
X180787809Y-114207686D01*
X180787814Y-114207691D01*
X180902906Y-114293850D01*
X180902913Y-114293854D01*
X181037620Y-114344096D01*
X181064254Y-114346960D01*
X181128805Y-114373698D01*
X181168654Y-114431090D01*
X181175000Y-114470250D01*
X181175000Y-115300000D01*
X185575000Y-115300000D01*
X185575000Y-114470755D01*
X185594685Y-114403716D01*
X185647489Y-114357961D01*
X185685747Y-114347465D01*
X185712483Y-114344591D01*
X185847328Y-114294297D01*
X185847327Y-114294297D01*
X185847331Y-114294296D01*
X185962546Y-114208046D01*
X186048796Y-114092831D01*
X186099091Y-113957983D01*
X186105500Y-113898373D01*
X186105500Y-113877155D01*
X186625000Y-113877155D01*
X186625000Y-114250000D01*
X187600000Y-114250000D01*
X187600000Y-113425000D01*
X187077155Y-113425000D01*
X187017627Y-113431401D01*
X187017620Y-113431403D01*
X186882913Y-113481645D01*
X186882906Y-113481649D01*
X186767812Y-113567809D01*
X186767809Y-113567812D01*
X186681649Y-113682906D01*
X186681645Y-113682913D01*
X186631403Y-113817620D01*
X186631401Y-113817627D01*
X186625000Y-113877155D01*
X186105500Y-113877155D01*
X186105499Y-113691019D01*
X186125183Y-113623980D01*
X186126342Y-113622209D01*
X186166632Y-113561914D01*
X186167654Y-113559448D01*
X186189204Y-113507419D01*
X186242051Y-113379835D01*
X186262239Y-113278343D01*
X186280500Y-113186543D01*
X186280500Y-111311296D01*
X186282883Y-111287104D01*
X186286531Y-111268768D01*
X186294099Y-111230719D01*
X186300500Y-111198541D01*
X186300500Y-109401459D01*
X186300500Y-109401456D01*
X186262052Y-109208170D01*
X186262051Y-109208169D01*
X186262051Y-109208165D01*
X186262049Y-109208160D01*
X186186635Y-109026092D01*
X186186628Y-109026079D01*
X186077140Y-108862219D01*
X186020624Y-108805703D01*
X185937782Y-108722861D01*
X185937781Y-108722860D01*
X184184208Y-106969288D01*
X184184206Y-106969285D01*
X184184206Y-106969286D01*
X184177139Y-106962219D01*
X184177139Y-106962218D01*
X184037782Y-106822861D01*
X184037781Y-106822860D01*
X184037780Y-106822859D01*
X183873920Y-106713371D01*
X183873911Y-106713366D01*
X183801315Y-106683296D01*
X183745165Y-106660038D01*
X183691836Y-106637949D01*
X183691832Y-106637948D01*
X183691828Y-106637946D01*
X183595188Y-106618724D01*
X183498544Y-106599500D01*
X183498541Y-106599500D01*
X172098541Y-106599500D01*
X170301459Y-106599500D01*
X170301455Y-106599500D01*
X170204812Y-106618724D01*
X170108167Y-106637947D01*
X170108161Y-106637949D01*
X170054834Y-106660037D01*
X170054834Y-106660038D01*
X170009315Y-106678892D01*
X169926089Y-106713366D01*
X169926079Y-106713371D01*
X169762219Y-106822859D01*
X169719889Y-106865190D01*
X169622861Y-106962218D01*
X169622858Y-106962221D01*
X166851648Y-109733430D01*
X166790325Y-109766915D01*
X166783367Y-109768222D01*
X166707176Y-109780290D01*
X166519972Y-109841117D01*
X166344594Y-109930476D01*
X166253741Y-109996485D01*
X166185354Y-110046172D01*
X166185352Y-110046174D01*
X166185351Y-110046174D01*
X166046174Y-110185351D01*
X166046174Y-110185352D01*
X166046172Y-110185354D01*
X165996485Y-110253741D01*
X165930476Y-110344594D01*
X165841117Y-110519970D01*
X165780290Y-110707173D01*
X165749500Y-110901577D01*
X165749500Y-111098422D01*
X165780290Y-111292826D01*
X165841117Y-111480029D01*
X165919168Y-111633211D01*
X165930476Y-111655405D01*
X166046172Y-111814646D01*
X166185354Y-111953828D01*
X166344595Y-112069524D01*
X166427455Y-112111743D01*
X166519970Y-112158882D01*
X166519972Y-112158882D01*
X166519975Y-112158884D01*
X166620317Y-112191487D01*
X166707173Y-112219709D01*
X166901578Y-112250500D01*
X166901583Y-112250500D01*
X167098422Y-112250500D01*
X167292826Y-112219709D01*
X167480025Y-112158884D01*
X167655405Y-112069524D01*
X167814646Y-111953828D01*
X167953828Y-111814646D01*
X168069524Y-111655405D01*
X168158884Y-111480025D01*
X168219709Y-111292826D01*
X168231776Y-111216631D01*
X168261704Y-111153499D01*
X168266550Y-111148368D01*
X170778101Y-108636819D01*
X170839424Y-108603334D01*
X170865782Y-108600500D01*
X171901459Y-108600500D01*
X174755218Y-108600500D01*
X174822257Y-108620185D01*
X174868012Y-108672989D01*
X174877956Y-108742147D01*
X174848931Y-108805703D01*
X174842899Y-108812181D01*
X165522737Y-118132341D01*
X165461414Y-118165826D01*
X165454455Y-118167133D01*
X165335145Y-118186030D01*
X165335144Y-118186030D01*
X165143460Y-118248312D01*
X164963870Y-118339818D01*
X164873330Y-118405600D01*
X164800810Y-118458289D01*
X164800808Y-118458291D01*
X164800807Y-118458291D01*
X164658291Y-118600807D01*
X164658291Y-118600808D01*
X164658289Y-118600810D01*
X164607410Y-118670838D01*
X164539818Y-118763870D01*
X164475485Y-118890131D01*
X164427510Y-118940927D01*
X164359689Y-118957722D01*
X164293554Y-118935184D01*
X164254515Y-118890131D01*
X164212298Y-118807277D01*
X164190182Y-118763871D01*
X164071711Y-118600810D01*
X163929190Y-118458289D01*
X163821613Y-118380129D01*
X163778949Y-118324799D01*
X163770500Y-118279812D01*
X163770500Y-101888549D01*
X165299500Y-101888549D01*
X165299500Y-102111450D01*
X165299501Y-102111466D01*
X165328594Y-102332452D01*
X165328595Y-102332457D01*
X165328596Y-102332463D01*
X165328597Y-102332465D01*
X165386290Y-102547780D01*
X165386293Y-102547790D01*
X165471593Y-102753722D01*
X165471595Y-102753726D01*
X165583052Y-102946774D01*
X165583057Y-102946780D01*
X165583058Y-102946782D01*
X165718751Y-103123622D01*
X165718757Y-103123629D01*
X165876370Y-103281242D01*
X165876376Y-103281247D01*
X166053226Y-103416948D01*
X166246274Y-103528405D01*
X166452219Y-103613710D01*
X166667537Y-103671404D01*
X166888543Y-103700500D01*
X166888550Y-103700500D01*
X167111450Y-103700500D01*
X167111457Y-103700500D01*
X167332463Y-103671404D01*
X167547781Y-103613710D01*
X167753726Y-103528405D01*
X167946774Y-103416948D01*
X168123624Y-103281247D01*
X168281247Y-103123624D01*
X168416948Y-102946774D01*
X168528405Y-102753726D01*
X168613710Y-102547781D01*
X168671404Y-102332463D01*
X168700500Y-102111457D01*
X168700500Y-101888543D01*
X168671404Y-101667537D01*
X168613710Y-101452219D01*
X168528405Y-101246274D01*
X168416948Y-101053226D01*
X168281247Y-100876376D01*
X168281242Y-100876370D01*
X168182027Y-100777155D01*
X180150000Y-100777155D01*
X180150000Y-101475000D01*
X181001518Y-101475000D01*
X180990889Y-101493409D01*
X180950000Y-101646009D01*
X180950000Y-101803991D01*
X180990889Y-101956591D01*
X181001518Y-101975000D01*
X180150000Y-101975000D01*
X180150000Y-102672844D01*
X180156401Y-102732372D01*
X180156403Y-102732379D01*
X180206645Y-102867086D01*
X180206649Y-102867093D01*
X180292809Y-102982187D01*
X180292812Y-102982190D01*
X180407906Y-103068350D01*
X180407913Y-103068354D01*
X180542620Y-103118596D01*
X180542627Y-103118598D01*
X180602155Y-103124999D01*
X180602172Y-103125000D01*
X181300000Y-103125000D01*
X181300000Y-102273482D01*
X181318409Y-102284111D01*
X181471009Y-102325000D01*
X181628991Y-102325000D01*
X181781591Y-102284111D01*
X181800000Y-102273482D01*
X181800000Y-103125000D01*
X182497828Y-103125000D01*
X182497844Y-103124999D01*
X182557372Y-103118598D01*
X182557379Y-103118596D01*
X182692086Y-103068354D01*
X182692093Y-103068350D01*
X182807187Y-102982190D01*
X182807190Y-102982187D01*
X182893350Y-102867093D01*
X182893354Y-102867086D01*
X182943596Y-102732379D01*
X182943598Y-102732372D01*
X182949999Y-102672844D01*
X182950000Y-102672827D01*
X182950000Y-101975000D01*
X182098482Y-101975000D01*
X182109111Y-101956591D01*
X182150000Y-101803991D01*
X182150000Y-101646009D01*
X182109111Y-101493409D01*
X182098482Y-101475000D01*
X182950000Y-101475000D01*
X182950000Y-100777172D01*
X182949999Y-100777155D01*
X182943598Y-100717627D01*
X182943596Y-100717620D01*
X182893354Y-100582913D01*
X182893350Y-100582906D01*
X182807190Y-100467812D01*
X182807187Y-100467809D01*
X182692093Y-100381649D01*
X182692086Y-100381645D01*
X182557379Y-100331403D01*
X182557372Y-100331401D01*
X182497844Y-100325000D01*
X181800000Y-100325000D01*
X181800000Y-101176517D01*
X181781591Y-101165889D01*
X181628991Y-101125000D01*
X181471009Y-101125000D01*
X181318409Y-101165889D01*
X181300000Y-101176517D01*
X181300000Y-100325000D01*
X180602155Y-100325000D01*
X180542627Y-100331401D01*
X180542620Y-100331403D01*
X180407913Y-100381645D01*
X180407906Y-100381649D01*
X180292812Y-100467809D01*
X180292809Y-100467812D01*
X180206649Y-100582906D01*
X180206645Y-100582913D01*
X180156403Y-100717620D01*
X180156401Y-100717627D01*
X180150000Y-100777155D01*
X168182027Y-100777155D01*
X168123629Y-100718757D01*
X168123622Y-100718751D01*
X167946782Y-100583058D01*
X167946780Y-100583057D01*
X167946774Y-100583052D01*
X167753726Y-100471595D01*
X167753722Y-100471593D01*
X167547790Y-100386293D01*
X167547783Y-100386291D01*
X167547781Y-100386290D01*
X167332463Y-100328596D01*
X167332457Y-100328595D01*
X167332452Y-100328594D01*
X167111466Y-100299501D01*
X167111463Y-100299500D01*
X167111457Y-100299500D01*
X166888543Y-100299500D01*
X166888537Y-100299500D01*
X166888533Y-100299501D01*
X166667547Y-100328594D01*
X166667540Y-100328595D01*
X166667537Y-100328596D01*
X166469540Y-100381649D01*
X166452219Y-100386290D01*
X166452209Y-100386293D01*
X166246277Y-100471593D01*
X166246273Y-100471595D01*
X166053226Y-100583052D01*
X166053217Y-100583058D01*
X165876377Y-100718751D01*
X165876370Y-100718757D01*
X165718757Y-100876370D01*
X165718751Y-100876377D01*
X165583058Y-101053217D01*
X165583052Y-101053226D01*
X165471595Y-101246273D01*
X165471593Y-101246277D01*
X165386293Y-101452209D01*
X165386290Y-101452219D01*
X165334365Y-101646009D01*
X165328597Y-101667534D01*
X165328594Y-101667547D01*
X165299501Y-101888533D01*
X165299500Y-101888549D01*
X163770500Y-101888549D01*
X163770500Y-101078468D01*
X163769763Y-101074765D01*
X163765479Y-101053226D01*
X163744541Y-100947964D01*
X163708534Y-100861037D01*
X163693620Y-100825031D01*
X163661630Y-100777155D01*
X163619698Y-100714398D01*
X163619697Y-100714397D01*
X163619695Y-100714394D01*
X163525606Y-100620305D01*
X161020079Y-98114778D01*
X180149500Y-98114778D01*
X180149500Y-98335221D01*
X180183985Y-98552952D01*
X180252103Y-98762603D01*
X180252104Y-98762606D01*
X180352187Y-98959025D01*
X180481752Y-99137358D01*
X180481756Y-99137363D01*
X180637636Y-99293243D01*
X180637641Y-99293247D01*
X180687423Y-99329415D01*
X180815978Y-99422815D01*
X180944375Y-99488237D01*
X181012393Y-99522895D01*
X181012396Y-99522896D01*
X181117221Y-99556955D01*
X181222049Y-99591015D01*
X181439778Y-99625500D01*
X181439779Y-99625500D01*
X181660221Y-99625500D01*
X181660222Y-99625500D01*
X181877951Y-99591015D01*
X182087606Y-99522895D01*
X182284022Y-99422815D01*
X182462365Y-99293242D01*
X182618242Y-99137365D01*
X182747815Y-98959022D01*
X182847895Y-98762606D01*
X182916015Y-98552951D01*
X182950500Y-98335222D01*
X182950500Y-98114778D01*
X182916015Y-97897049D01*
X182847895Y-97687394D01*
X182847895Y-97687393D01*
X182807911Y-97608921D01*
X182747815Y-97490978D01*
X182684801Y-97404246D01*
X182618247Y-97312641D01*
X182618243Y-97312636D01*
X182462363Y-97156756D01*
X182462358Y-97156752D01*
X182284025Y-97027187D01*
X182284024Y-97027186D01*
X182284022Y-97027185D01*
X182221096Y-96995122D01*
X182087606Y-96927104D01*
X182087603Y-96927103D01*
X181877952Y-96858985D01*
X181769086Y-96841742D01*
X181660222Y-96824500D01*
X181439778Y-96824500D01*
X181367201Y-96835995D01*
X181222047Y-96858985D01*
X181012396Y-96927103D01*
X181012393Y-96927104D01*
X180815974Y-97027187D01*
X180637641Y-97156752D01*
X180637636Y-97156756D01*
X180481756Y-97312636D01*
X180481752Y-97312641D01*
X180352187Y-97490974D01*
X180252104Y-97687393D01*
X180252103Y-97687396D01*
X180183985Y-97897047D01*
X180149500Y-98114778D01*
X161020079Y-98114778D01*
X155579254Y-92673953D01*
X150016621Y-87111319D01*
X148782457Y-85877155D01*
X180050000Y-85877155D01*
X180050000Y-86575000D01*
X180901518Y-86575000D01*
X180890889Y-86593409D01*
X180850000Y-86746009D01*
X180850000Y-86903991D01*
X180890889Y-87056591D01*
X180901518Y-87075000D01*
X180050000Y-87075000D01*
X180050000Y-87772844D01*
X180056401Y-87832372D01*
X180056403Y-87832379D01*
X180106645Y-87967086D01*
X180106649Y-87967093D01*
X180192809Y-88082187D01*
X180192812Y-88082190D01*
X180307906Y-88168350D01*
X180307913Y-88168354D01*
X180442620Y-88218596D01*
X180442627Y-88218598D01*
X180502155Y-88224999D01*
X180502172Y-88225000D01*
X181200000Y-88225000D01*
X181200000Y-87373482D01*
X181218409Y-87384111D01*
X181371009Y-87425000D01*
X181528991Y-87425000D01*
X181681591Y-87384111D01*
X181700000Y-87373482D01*
X181700000Y-88225000D01*
X182397828Y-88225000D01*
X182397844Y-88224999D01*
X182457372Y-88218598D01*
X182457379Y-88218596D01*
X182592086Y-88168354D01*
X182592093Y-88168350D01*
X182707187Y-88082190D01*
X182707190Y-88082187D01*
X182793350Y-87967093D01*
X182793354Y-87967086D01*
X182843596Y-87832379D01*
X182843598Y-87832372D01*
X182849999Y-87772844D01*
X182850000Y-87772827D01*
X182850000Y-87075000D01*
X181998482Y-87075000D01*
X182009111Y-87056591D01*
X182050000Y-86903991D01*
X182050000Y-86746009D01*
X182009111Y-86593409D01*
X181998482Y-86575000D01*
X182850000Y-86575000D01*
X182850000Y-85877172D01*
X182849999Y-85877155D01*
X182843598Y-85817627D01*
X182843596Y-85817620D01*
X182793354Y-85682913D01*
X182793350Y-85682906D01*
X182707190Y-85567812D01*
X182707187Y-85567809D01*
X182592093Y-85481649D01*
X182592086Y-85481645D01*
X182457379Y-85431403D01*
X182457372Y-85431401D01*
X182397844Y-85425000D01*
X181700000Y-85425000D01*
X181700000Y-86276517D01*
X181681591Y-86265889D01*
X181528991Y-86225000D01*
X181371009Y-86225000D01*
X181218409Y-86265889D01*
X181200000Y-86276517D01*
X181200000Y-85425000D01*
X180502155Y-85425000D01*
X180442627Y-85431401D01*
X180442620Y-85431403D01*
X180307913Y-85481645D01*
X180307906Y-85481649D01*
X180192812Y-85567809D01*
X180192809Y-85567812D01*
X180106649Y-85682906D01*
X180106645Y-85682913D01*
X180056403Y-85817620D01*
X180056401Y-85817627D01*
X180050000Y-85877155D01*
X148782457Y-85877155D01*
X146455609Y-83550307D01*
X146455605Y-83550304D01*
X146344975Y-83476383D01*
X146344965Y-83476378D01*
X146222036Y-83425459D01*
X146222028Y-83425457D01*
X146091535Y-83399500D01*
X146091531Y-83399500D01*
X145958469Y-83399500D01*
X145958464Y-83399500D01*
X145827971Y-83425457D01*
X145827963Y-83425459D01*
X145793195Y-83439861D01*
X145745742Y-83449300D01*
X137019107Y-83449300D01*
X136952068Y-83429615D01*
X136918788Y-83398184D01*
X136831169Y-83277584D01*
X136686413Y-83132828D01*
X136520813Y-83012515D01*
X136520812Y-83012514D01*
X136520810Y-83012513D01*
X136463853Y-82983491D01*
X136338423Y-82919581D01*
X136143734Y-82856322D01*
X135969195Y-82828678D01*
X135941552Y-82824300D01*
X135736848Y-82824300D01*
X135712529Y-82828151D01*
X135534665Y-82856322D01*
X135339976Y-82919581D01*
X135157586Y-83012515D01*
X134991986Y-83132828D01*
X134847228Y-83277586D01*
X134726915Y-83443186D01*
X134633981Y-83625576D01*
X134570722Y-83820265D01*
X134548762Y-83958918D01*
X134538700Y-84022448D01*
X134538700Y-84227152D01*
X134540317Y-84237363D01*
X134570722Y-84429334D01*
X134633981Y-84624023D01*
X134670281Y-84695264D01*
X134725786Y-84804199D01*
X134726915Y-84806413D01*
X134847228Y-84972013D01*
X134991986Y-85116771D01*
X135133905Y-85219879D01*
X135157590Y-85237087D01*
X135273807Y-85296303D01*
X135339976Y-85330018D01*
X135339978Y-85330018D01*
X135339981Y-85330020D01*
X135444337Y-85363927D01*
X135534665Y-85393277D01*
X135593635Y-85402617D01*
X135736848Y-85425300D01*
X135736849Y-85425300D01*
X135941551Y-85425300D01*
X135941552Y-85425300D01*
X136143734Y-85393277D01*
X136338419Y-85330020D01*
X136520810Y-85237087D01*
X136613790Y-85169532D01*
X136686413Y-85116771D01*
X136686415Y-85116768D01*
X136686419Y-85116766D01*
X136831166Y-84972019D01*
X136918789Y-84851415D01*
X136974118Y-84808749D01*
X137019107Y-84800300D01*
X145743637Y-84800300D01*
X145810676Y-84819985D01*
X145831318Y-84836619D01*
X162383181Y-101388482D01*
X162416666Y-101449805D01*
X162419500Y-101476163D01*
X162419500Y-118279812D01*
X162399815Y-118346851D01*
X162368386Y-118380130D01*
X162260808Y-118458290D01*
X162118291Y-118600807D01*
X162118291Y-118600808D01*
X162118289Y-118600810D01*
X162067410Y-118670838D01*
X161999818Y-118763870D01*
X161935485Y-118890131D01*
X161887510Y-118940927D01*
X161819689Y-118957722D01*
X161753554Y-118935184D01*
X161714515Y-118890131D01*
X161672298Y-118807277D01*
X161650182Y-118763871D01*
X161531711Y-118600810D01*
X161389190Y-118458289D01*
X161226129Y-118339818D01*
X161196653Y-118324799D01*
X161046539Y-118248312D01*
X160854852Y-118186030D01*
X160655783Y-118154500D01*
X160655778Y-118154500D01*
X160454222Y-118154500D01*
X160454217Y-118154500D01*
X160255147Y-118186030D01*
X160063460Y-118248312D01*
X159883870Y-118339818D01*
X159793330Y-118405600D01*
X159720810Y-118458289D01*
X159720808Y-118458291D01*
X159720807Y-118458291D01*
X159578291Y-118600807D01*
X159578291Y-118600808D01*
X159578289Y-118600810D01*
X159527410Y-118670838D01*
X159459818Y-118763870D01*
X159395485Y-118890131D01*
X159347510Y-118940927D01*
X159279689Y-118957722D01*
X159213554Y-118935184D01*
X159174515Y-118890131D01*
X159132298Y-118807277D01*
X159110182Y-118763871D01*
X158991711Y-118600810D01*
X158849190Y-118458289D01*
X158686129Y-118339818D01*
X158656653Y-118324799D01*
X158506539Y-118248312D01*
X158314852Y-118186030D01*
X158115783Y-118154500D01*
X158115778Y-118154500D01*
X157914222Y-118154500D01*
X157914217Y-118154500D01*
X157715147Y-118186030D01*
X157523460Y-118248312D01*
X157343870Y-118339818D01*
X157253330Y-118405600D01*
X157180810Y-118458289D01*
X157180808Y-118458291D01*
X157180807Y-118458291D01*
X157038291Y-118600807D01*
X157038291Y-118600808D01*
X157038289Y-118600810D01*
X156987410Y-118670838D01*
X156919818Y-118763870D01*
X156855485Y-118890131D01*
X156807510Y-118940927D01*
X156739689Y-118957722D01*
X156673554Y-118935184D01*
X156634515Y-118890131D01*
X156592298Y-118807277D01*
X156570182Y-118763871D01*
X156451711Y-118600810D01*
X156309190Y-118458289D01*
X156146129Y-118339818D01*
X156116653Y-118324799D01*
X155966539Y-118248312D01*
X155774852Y-118186030D01*
X155575783Y-118154500D01*
X155575778Y-118154500D01*
X155374222Y-118154500D01*
X155374217Y-118154500D01*
X155175147Y-118186030D01*
X154983460Y-118248312D01*
X154803870Y-118339818D01*
X154713330Y-118405600D01*
X154640810Y-118458289D01*
X154640808Y-118458291D01*
X154640807Y-118458291D01*
X154498291Y-118600807D01*
X154498291Y-118600808D01*
X154498289Y-118600810D01*
X154447410Y-118670838D01*
X154379818Y-118763870D01*
X154315485Y-118890131D01*
X154267510Y-118940927D01*
X154199689Y-118957722D01*
X154133554Y-118935184D01*
X154094515Y-118890131D01*
X154052298Y-118807277D01*
X154030182Y-118763871D01*
X153911711Y-118600810D01*
X153769190Y-118458289D01*
X153606129Y-118339818D01*
X153576653Y-118324799D01*
X153426539Y-118248312D01*
X153234852Y-118186030D01*
X153035783Y-118154500D01*
X153035778Y-118154500D01*
X152834222Y-118154500D01*
X152834217Y-118154500D01*
X152635147Y-118186030D01*
X152443460Y-118248312D01*
X152263870Y-118339818D01*
X152173330Y-118405600D01*
X152100810Y-118458289D01*
X152100808Y-118458291D01*
X152100807Y-118458291D01*
X151958291Y-118600807D01*
X151958291Y-118600808D01*
X151958289Y-118600810D01*
X151907410Y-118670838D01*
X151839818Y-118763870D01*
X151775485Y-118890131D01*
X151727510Y-118940927D01*
X151659689Y-118957722D01*
X151593554Y-118935184D01*
X151554515Y-118890131D01*
X151512298Y-118807277D01*
X151490182Y-118763871D01*
X151371711Y-118600810D01*
X151229190Y-118458289D01*
X151066129Y-118339818D01*
X151036653Y-118324799D01*
X150886539Y-118248312D01*
X150694852Y-118186030D01*
X150495783Y-118154500D01*
X150495778Y-118154500D01*
X150294222Y-118154500D01*
X150294217Y-118154500D01*
X150095147Y-118186030D01*
X149903460Y-118248312D01*
X149723870Y-118339818D01*
X149633330Y-118405600D01*
X149560810Y-118458289D01*
X149560808Y-118458291D01*
X149560807Y-118458291D01*
X149418291Y-118600807D01*
X149418291Y-118600808D01*
X149418289Y-118600810D01*
X149367410Y-118670838D01*
X149299818Y-118763870D01*
X149235204Y-118890682D01*
X149187229Y-118941478D01*
X149119408Y-118958273D01*
X149053273Y-118935735D01*
X149014234Y-118890682D01*
X148949753Y-118764133D01*
X148920155Y-118723396D01*
X148920155Y-118723395D01*
X148354292Y-119289259D01*
X148339563Y-119234288D01*
X148271104Y-119115713D01*
X148174287Y-119018896D01*
X148055712Y-118950437D01*
X148000738Y-118935707D01*
X148566603Y-118369843D01*
X148566602Y-118369842D01*
X148525869Y-118340248D01*
X148346349Y-118248776D01*
X148346346Y-118248775D01*
X148154735Y-118186518D01*
X147955737Y-118155000D01*
X147754263Y-118155000D01*
X147555264Y-118186518D01*
X147363653Y-118248775D01*
X147363650Y-118248776D01*
X147184135Y-118340245D01*
X147184133Y-118340246D01*
X147143396Y-118369842D01*
X147143396Y-118369843D01*
X147709260Y-118935707D01*
X147654288Y-118950437D01*
X147535713Y-119018896D01*
X147438896Y-119115713D01*
X147370437Y-119234288D01*
X147355707Y-119289260D01*
X146789843Y-118723396D01*
X146789842Y-118723396D01*
X146760246Y-118764133D01*
X146760239Y-118764145D01*
X146695484Y-118891233D01*
X146647510Y-118942029D01*
X146579689Y-118958824D01*
X146513554Y-118936286D01*
X146474516Y-118891233D01*
X146409757Y-118764138D01*
X146380155Y-118723396D01*
X146380155Y-118723395D01*
X145814292Y-119289259D01*
X145799563Y-119234288D01*
X145731104Y-119115713D01*
X145634287Y-119018896D01*
X145515712Y-118950437D01*
X145460738Y-118935707D01*
X146026603Y-118369843D01*
X146026602Y-118369842D01*
X145985869Y-118340248D01*
X145806349Y-118248776D01*
X145806346Y-118248775D01*
X145614735Y-118186518D01*
X145415737Y-118155000D01*
X145214263Y-118155000D01*
X145015264Y-118186518D01*
X144823653Y-118248775D01*
X144823650Y-118248776D01*
X144644135Y-118340245D01*
X144644133Y-118340246D01*
X144603396Y-118369842D01*
X144603396Y-118369843D01*
X145169260Y-118935707D01*
X145114288Y-118950437D01*
X144995713Y-119018896D01*
X144898896Y-119115713D01*
X144830437Y-119234288D01*
X144815707Y-119289260D01*
X144249843Y-118723396D01*
X144249842Y-118723396D01*
X144220246Y-118764133D01*
X144220242Y-118764140D01*
X144155764Y-118890683D01*
X144107789Y-118941478D01*
X144039968Y-118958273D01*
X143973833Y-118935735D01*
X143934795Y-118890682D01*
X143870182Y-118763871D01*
X143751711Y-118600810D01*
X143609190Y-118458289D01*
X143446129Y-118339818D01*
X143416653Y-118324799D01*
X143266539Y-118248312D01*
X143074852Y-118186030D01*
X142875783Y-118154500D01*
X142875778Y-118154500D01*
X142674222Y-118154500D01*
X142674217Y-118154500D01*
X142475147Y-118186030D01*
X142283460Y-118248312D01*
X142103870Y-118339818D01*
X142013330Y-118405600D01*
X141940810Y-118458289D01*
X141940808Y-118458291D01*
X141940807Y-118458291D01*
X141798291Y-118600807D01*
X141798291Y-118600808D01*
X141798289Y-118600810D01*
X141747410Y-118670838D01*
X141679818Y-118763870D01*
X141615485Y-118890131D01*
X141567510Y-118940927D01*
X141499689Y-118957722D01*
X141433554Y-118935184D01*
X141394515Y-118890131D01*
X141352298Y-118807277D01*
X141330182Y-118763871D01*
X141211711Y-118600810D01*
X141069190Y-118458289D01*
X140906129Y-118339818D01*
X140876653Y-118324799D01*
X140726539Y-118248312D01*
X140534852Y-118186030D01*
X140335783Y-118154500D01*
X140335778Y-118154500D01*
X140134222Y-118154500D01*
X140134218Y-118154500D01*
X140094453Y-118160798D01*
X140025159Y-118151843D01*
X139987374Y-118126006D01*
X135278421Y-113417052D01*
X135278414Y-113417046D01*
X135204729Y-113367812D01*
X135204729Y-113367813D01*
X135155491Y-113334913D01*
X135018917Y-113278343D01*
X135018907Y-113278340D01*
X134873920Y-113249500D01*
X134873918Y-113249500D01*
X131135270Y-113249500D01*
X131068231Y-113229815D01*
X131066378Y-113228601D01*
X131026552Y-113201989D01*
X131026547Y-113201987D01*
X130862667Y-113134106D01*
X130862658Y-113134103D01*
X130688694Y-113099500D01*
X130688691Y-113099500D01*
X130511309Y-113099500D01*
X130511306Y-113099500D01*
X130337341Y-113134103D01*
X130337332Y-113134106D01*
X130173459Y-113201983D01*
X130173446Y-113201990D01*
X130025965Y-113300535D01*
X130025961Y-113300538D01*
X129900538Y-113425961D01*
X129900535Y-113425965D01*
X129801990Y-113573446D01*
X129801983Y-113573459D01*
X129734106Y-113737332D01*
X129734103Y-113737341D01*
X129699500Y-113911304D01*
X129699500Y-114088695D01*
X129734103Y-114262658D01*
X129734106Y-114262667D01*
X129801983Y-114426540D01*
X129801990Y-114426553D01*
X129900535Y-114574034D01*
X129900538Y-114574038D01*
X130025961Y-114699461D01*
X130025965Y-114699464D01*
X130173446Y-114798009D01*
X130173459Y-114798016D01*
X130251952Y-114830528D01*
X130337334Y-114865894D01*
X130337336Y-114865894D01*
X130337341Y-114865896D01*
X130511304Y-114900499D01*
X130511307Y-114900500D01*
X130511309Y-114900500D01*
X130688693Y-114900500D01*
X130688694Y-114900499D01*
X130746682Y-114888964D01*
X130862658Y-114865896D01*
X130862661Y-114865894D01*
X130862666Y-114865894D01*
X131026547Y-114798013D01*
X131026550Y-114798010D01*
X131026552Y-114798010D01*
X131066378Y-114771399D01*
X131133055Y-114750520D01*
X131135270Y-114750500D01*
X134437770Y-114750500D01*
X134504809Y-114770185D01*
X134525451Y-114786819D01*
X137681451Y-117942819D01*
X137714936Y-118004142D01*
X137709952Y-118073834D01*
X137668080Y-118129767D01*
X137602616Y-118154184D01*
X137594585Y-118154470D01*
X137594218Y-118154499D01*
X137395147Y-118186030D01*
X137203460Y-118248312D01*
X137023870Y-118339818D01*
X136933330Y-118405600D01*
X136860810Y-118458289D01*
X136860808Y-118458291D01*
X136860807Y-118458291D01*
X136718291Y-118600807D01*
X136718291Y-118600808D01*
X136718289Y-118600810D01*
X136667410Y-118670838D01*
X136599818Y-118763870D01*
X136535485Y-118890131D01*
X136487510Y-118940927D01*
X136419689Y-118957722D01*
X136353554Y-118935184D01*
X136314515Y-118890131D01*
X136272298Y-118807277D01*
X136250182Y-118763871D01*
X136131711Y-118600810D01*
X135989190Y-118458289D01*
X135826129Y-118339818D01*
X135796653Y-118324799D01*
X135646539Y-118248312D01*
X135454852Y-118186030D01*
X135255783Y-118154500D01*
X135255778Y-118154500D01*
X135054222Y-118154500D01*
X135054217Y-118154500D01*
X134855147Y-118186030D01*
X134663460Y-118248312D01*
X134483870Y-118339818D01*
X134393330Y-118405600D01*
X134320810Y-118458289D01*
X134320808Y-118458291D01*
X134320807Y-118458291D01*
X134178291Y-118600807D01*
X134178291Y-118600808D01*
X134178289Y-118600810D01*
X134127410Y-118670838D01*
X134059818Y-118763870D01*
X133995485Y-118890131D01*
X133947510Y-118940927D01*
X133879689Y-118957722D01*
X133813554Y-118935184D01*
X133774515Y-118890131D01*
X133732298Y-118807277D01*
X133710182Y-118763871D01*
X133591711Y-118600810D01*
X133449190Y-118458289D01*
X133286129Y-118339818D01*
X133256653Y-118324799D01*
X133106539Y-118248312D01*
X132914852Y-118186030D01*
X132715783Y-118154500D01*
X132715778Y-118154500D01*
X132514222Y-118154500D01*
X132514217Y-118154500D01*
X132315147Y-118186030D01*
X132123460Y-118248312D01*
X131943870Y-118339818D01*
X131853330Y-118405600D01*
X131780810Y-118458289D01*
X131780808Y-118458291D01*
X131780807Y-118458291D01*
X131638291Y-118600807D01*
X131638291Y-118600808D01*
X131638289Y-118600810D01*
X131587410Y-118670838D01*
X131519818Y-118763870D01*
X131455204Y-118890682D01*
X131407229Y-118941478D01*
X131339408Y-118958273D01*
X131273273Y-118935735D01*
X131234234Y-118890682D01*
X131169753Y-118764133D01*
X131140155Y-118723396D01*
X131140155Y-118723395D01*
X130574292Y-119289259D01*
X130559563Y-119234288D01*
X130491104Y-119115713D01*
X130394287Y-119018896D01*
X130275712Y-118950437D01*
X130220738Y-118935707D01*
X130786603Y-118369843D01*
X130786602Y-118369842D01*
X130745869Y-118340248D01*
X130566349Y-118248776D01*
X130566346Y-118248775D01*
X130374735Y-118186518D01*
X130175737Y-118155000D01*
X129974263Y-118155000D01*
X129775264Y-118186518D01*
X129583653Y-118248775D01*
X129583650Y-118248776D01*
X129404135Y-118340245D01*
X129404133Y-118340246D01*
X129363396Y-118369842D01*
X129363396Y-118369843D01*
X129929260Y-118935707D01*
X129874288Y-118950437D01*
X129755713Y-119018896D01*
X129658896Y-119115713D01*
X129590437Y-119234288D01*
X129575707Y-119289260D01*
X129009843Y-118723396D01*
X129009842Y-118723396D01*
X128980246Y-118764133D01*
X128980242Y-118764140D01*
X128915764Y-118890683D01*
X128867789Y-118941478D01*
X128799968Y-118958273D01*
X128733833Y-118935735D01*
X128694795Y-118890682D01*
X128630182Y-118763871D01*
X128511711Y-118600810D01*
X128369190Y-118458289D01*
X128206129Y-118339818D01*
X128176653Y-118324799D01*
X128026539Y-118248312D01*
X127834852Y-118186030D01*
X127635783Y-118154500D01*
X127635778Y-118154500D01*
X127434222Y-118154500D01*
X127434218Y-118154500D01*
X127423314Y-118156227D01*
X127354021Y-118147273D01*
X127316235Y-118121435D01*
X125706819Y-116512019D01*
X125673334Y-116450696D01*
X125670500Y-116424338D01*
X125670500Y-112123389D01*
X145859500Y-112123389D01*
X145859500Y-112296610D01*
X145883163Y-112446017D01*
X145886598Y-112467701D01*
X145940127Y-112632445D01*
X146018768Y-112786788D01*
X146120586Y-112926928D01*
X146243072Y-113049414D01*
X146383212Y-113151232D01*
X146537555Y-113229873D01*
X146702299Y-113283402D01*
X146702302Y-113283402D01*
X146702303Y-113283403D01*
X146757294Y-113292112D01*
X146772957Y-113294593D01*
X146836092Y-113324522D01*
X146841241Y-113329385D01*
X147501897Y-113990042D01*
X147501901Y-113990045D01*
X147645288Y-114085854D01*
X147645301Y-114085861D01*
X147804621Y-114151853D01*
X147804626Y-114151855D01*
X147973766Y-114185499D01*
X147973769Y-114185500D01*
X147973771Y-114185500D01*
X154056231Y-114185500D01*
X154056232Y-114185499D01*
X154225374Y-114151855D01*
X154384705Y-114085858D01*
X154528099Y-113990045D01*
X156370045Y-112148099D01*
X156465858Y-112004705D01*
X156531855Y-111845374D01*
X156565500Y-111676229D01*
X156565500Y-111503771D01*
X156565500Y-103874005D01*
X156585185Y-103806966D01*
X156601814Y-103786329D01*
X158193759Y-102194383D01*
X158255080Y-102160900D01*
X158261996Y-102159600D01*
X158332701Y-102148402D01*
X158497445Y-102094873D01*
X158651788Y-102016232D01*
X158791928Y-101914414D01*
X158914414Y-101791928D01*
X159016232Y-101651788D01*
X159094873Y-101497445D01*
X159148402Y-101332701D01*
X159175500Y-101161611D01*
X159175500Y-100988389D01*
X159148402Y-100817299D01*
X159094873Y-100652555D01*
X159016232Y-100498212D01*
X158914414Y-100358072D01*
X158791928Y-100235586D01*
X158651788Y-100133768D01*
X158497445Y-100055127D01*
X158332701Y-100001598D01*
X158332699Y-100001597D01*
X158332698Y-100001597D01*
X158201271Y-99980781D01*
X158161611Y-99974500D01*
X157988389Y-99974500D01*
X157948728Y-99980781D01*
X157817302Y-100001597D01*
X157652552Y-100055128D01*
X157498211Y-100133768D01*
X157418256Y-100191859D01*
X157358072Y-100235586D01*
X157358070Y-100235588D01*
X157358069Y-100235588D01*
X157235588Y-100358069D01*
X157235588Y-100358070D01*
X157235586Y-100358072D01*
X157215082Y-100386293D01*
X157133768Y-100498211D01*
X157055128Y-100652552D01*
X157001597Y-100817301D01*
X156990405Y-100887960D01*
X156960474Y-100951094D01*
X156955613Y-100956241D01*
X155586856Y-102325000D01*
X155131901Y-102779955D01*
X155070927Y-102840929D01*
X155009953Y-102901902D01*
X154914145Y-103045288D01*
X154914138Y-103045301D01*
X154848146Y-103204621D01*
X154848143Y-103204633D01*
X154814500Y-103373766D01*
X154814500Y-111175994D01*
X154794815Y-111243033D01*
X154778181Y-111263675D01*
X153643675Y-112398181D01*
X153582352Y-112431666D01*
X153555994Y-112434500D01*
X148474006Y-112434500D01*
X148406967Y-112414815D01*
X148386325Y-112398181D01*
X148079385Y-112091241D01*
X148045900Y-112029918D01*
X148044593Y-112022957D01*
X148033403Y-111952303D01*
X148033402Y-111952302D01*
X148033402Y-111952299D01*
X147979873Y-111787555D01*
X147901232Y-111633212D01*
X147799414Y-111493072D01*
X147676928Y-111370586D01*
X147536788Y-111268768D01*
X147382445Y-111190127D01*
X147217701Y-111136598D01*
X147217699Y-111136597D01*
X147217698Y-111136597D01*
X147086271Y-111115781D01*
X147046611Y-111109500D01*
X146873389Y-111109500D01*
X146833728Y-111115781D01*
X146702302Y-111136597D01*
X146537552Y-111190128D01*
X146383211Y-111268768D01*
X146350099Y-111292826D01*
X146243072Y-111370586D01*
X146243070Y-111370588D01*
X146243069Y-111370588D01*
X146120588Y-111493069D01*
X146120588Y-111493070D01*
X146120586Y-111493072D01*
X146112813Y-111503771D01*
X146018768Y-111633211D01*
X145940128Y-111787552D01*
X145886597Y-111952302D01*
X145859500Y-112123389D01*
X125670500Y-112123389D01*
X125670500Y-110678468D01*
X125665249Y-110652072D01*
X125665249Y-110652070D01*
X125644542Y-110547971D01*
X125644541Y-110547964D01*
X125593620Y-110425031D01*
X125593618Y-110425028D01*
X125593616Y-110425024D01*
X125519695Y-110314394D01*
X125519692Y-110314390D01*
X122916606Y-107711304D01*
X141099500Y-107711304D01*
X141099500Y-107888695D01*
X141134103Y-108062658D01*
X141134106Y-108062667D01*
X141201983Y-108226540D01*
X141201990Y-108226553D01*
X141300535Y-108374034D01*
X141300538Y-108374038D01*
X141425961Y-108499461D01*
X141425965Y-108499464D01*
X141573446Y-108598009D01*
X141573459Y-108598016D01*
X141667140Y-108636819D01*
X141737334Y-108665894D01*
X141737336Y-108665894D01*
X141737341Y-108665896D01*
X141911304Y-108700499D01*
X141911307Y-108700500D01*
X141911309Y-108700500D01*
X142088693Y-108700500D01*
X142088694Y-108700499D01*
X142146682Y-108688964D01*
X142262658Y-108665896D01*
X142262661Y-108665894D01*
X142262666Y-108665894D01*
X142426547Y-108598013D01*
X142574035Y-108499464D01*
X142699464Y-108374035D01*
X142798013Y-108226547D01*
X142865894Y-108062666D01*
X142900500Y-107888691D01*
X142900500Y-107711309D01*
X142900500Y-107711306D01*
X142900499Y-107711304D01*
X142865896Y-107537341D01*
X142865893Y-107537332D01*
X142862196Y-107528406D01*
X142798013Y-107373453D01*
X142798010Y-107373449D01*
X142795138Y-107368073D01*
X142780500Y-107309627D01*
X142780500Y-106932229D01*
X142800185Y-106865190D01*
X142816819Y-106844548D01*
X143082948Y-106578419D01*
X143082951Y-106578416D01*
X143165084Y-106455495D01*
X143221658Y-106318913D01*
X143231096Y-106271462D01*
X143250500Y-106173920D01*
X143250500Y-105310269D01*
X143270185Y-105243230D01*
X143271398Y-105241378D01*
X143298013Y-105201547D01*
X143365894Y-105037666D01*
X143400500Y-104863691D01*
X143400500Y-104686309D01*
X143400500Y-104686306D01*
X143400499Y-104686304D01*
X143365896Y-104512341D01*
X143365893Y-104512332D01*
X143298016Y-104348459D01*
X143298009Y-104348446D01*
X143199464Y-104200965D01*
X143199461Y-104200961D01*
X143074038Y-104075538D01*
X143074034Y-104075535D01*
X142926553Y-103976990D01*
X142926540Y-103976983D01*
X142762667Y-103909106D01*
X142762658Y-103909103D01*
X142588694Y-103874500D01*
X142588691Y-103874500D01*
X142411309Y-103874500D01*
X142411306Y-103874500D01*
X142237341Y-103909103D01*
X142237332Y-103909106D01*
X142073459Y-103976983D01*
X142073446Y-103976990D01*
X141925965Y-104075535D01*
X141925961Y-104075538D01*
X141800538Y-104200961D01*
X141800535Y-104200965D01*
X141701990Y-104348446D01*
X141701983Y-104348459D01*
X141634106Y-104512332D01*
X141634103Y-104512341D01*
X141599500Y-104686304D01*
X141599500Y-104863695D01*
X141634103Y-105037658D01*
X141634106Y-105037667D01*
X141701984Y-105201542D01*
X141701985Y-105201543D01*
X141701987Y-105201547D01*
X141728602Y-105241378D01*
X141749480Y-105308055D01*
X141749500Y-105310269D01*
X141749500Y-105737770D01*
X141729815Y-105804809D01*
X141713181Y-105825451D01*
X141447050Y-106091581D01*
X141447048Y-106091584D01*
X141433770Y-106111457D01*
X141433768Y-106111458D01*
X141433768Y-106111459D01*
X141364916Y-106214503D01*
X141364914Y-106214506D01*
X141308343Y-106351082D01*
X141308340Y-106351092D01*
X141279500Y-106496079D01*
X141279500Y-107219831D01*
X141259815Y-107286870D01*
X141258602Y-107288722D01*
X141201988Y-107373449D01*
X141201987Y-107373452D01*
X141134106Y-107537332D01*
X141134103Y-107537341D01*
X141099500Y-107711304D01*
X122916606Y-107711304D01*
X113283409Y-98078107D01*
X113283405Y-98078104D01*
X113172775Y-98004183D01*
X113172765Y-98004178D01*
X113049836Y-97953259D01*
X113049828Y-97953257D01*
X112919335Y-97927300D01*
X112919331Y-97927300D01*
X106034198Y-97927300D01*
X105967159Y-97907615D01*
X105933880Y-97876185D01*
X105845078Y-97753959D01*
X105845074Y-97753954D01*
X105700045Y-97608925D01*
X105700040Y-97608921D01*
X105534125Y-97488377D01*
X105525511Y-97483988D01*
X105445625Y-97443284D01*
X105394830Y-97395311D01*
X105378035Y-97327490D01*
X105400572Y-97261355D01*
X105445625Y-97222315D01*
X105534121Y-97177225D01*
X105700047Y-97056673D01*
X105845073Y-96911647D01*
X105965625Y-96745721D01*
X106058737Y-96562978D01*
X106122116Y-96367920D01*
X106139616Y-96257426D01*
X106154200Y-96165353D01*
X106154200Y-95960247D01*
X106141078Y-95877407D01*
X106130564Y-95811020D01*
X106139518Y-95741729D01*
X106165353Y-95703946D01*
X107479446Y-94389853D01*
X111742600Y-94389853D01*
X111742600Y-94586146D01*
X111765438Y-94730337D01*
X111773305Y-94780007D01*
X111833960Y-94966682D01*
X111923070Y-95141570D01*
X112038442Y-95300366D01*
X112177234Y-95439158D01*
X112336030Y-95554530D01*
X112510918Y-95643640D01*
X112697593Y-95704295D01*
X112770292Y-95715809D01*
X112891454Y-95735000D01*
X112891459Y-95735000D01*
X113087746Y-95735000D01*
X113195444Y-95717941D01*
X113281607Y-95704295D01*
X113468282Y-95643640D01*
X113643170Y-95554530D01*
X113801966Y-95439158D01*
X113940758Y-95300366D01*
X114056130Y-95141570D01*
X114145240Y-94966682D01*
X114171670Y-94885339D01*
X114211106Y-94827665D01*
X114275465Y-94800467D01*
X114344311Y-94812382D01*
X114395787Y-94859626D01*
X114407529Y-94885336D01*
X114433960Y-94966682D01*
X114523070Y-95141570D01*
X114638442Y-95300366D01*
X114777234Y-95439158D01*
X114936030Y-95554530D01*
X115110918Y-95643640D01*
X115297593Y-95704295D01*
X115370292Y-95715809D01*
X115491454Y-95735000D01*
X115491459Y-95735000D01*
X115687746Y-95735000D01*
X115795444Y-95717941D01*
X115881607Y-95704295D01*
X116068282Y-95643640D01*
X116243170Y-95554530D01*
X116401966Y-95439158D01*
X116540758Y-95300366D01*
X116656130Y-95141570D01*
X116745240Y-94966682D01*
X116771670Y-94885339D01*
X116811106Y-94827665D01*
X116875465Y-94800467D01*
X116944311Y-94812382D01*
X116995787Y-94859626D01*
X117007529Y-94885336D01*
X117033960Y-94966682D01*
X117123070Y-95141570D01*
X117238442Y-95300366D01*
X117377234Y-95439158D01*
X117536030Y-95554530D01*
X117710918Y-95643640D01*
X117897593Y-95704295D01*
X117970292Y-95715809D01*
X118091454Y-95735000D01*
X118091459Y-95735000D01*
X118287746Y-95735000D01*
X118395444Y-95717941D01*
X118481607Y-95704295D01*
X118668282Y-95643640D01*
X118843170Y-95554530D01*
X119001966Y-95439158D01*
X119140758Y-95300366D01*
X119256130Y-95141570D01*
X119345240Y-94966682D01*
X119405895Y-94780007D01*
X119421368Y-94682315D01*
X119436600Y-94586146D01*
X119436600Y-94389853D01*
X119407436Y-94205724D01*
X119405895Y-94195993D01*
X119345240Y-94009318D01*
X119256130Y-93834430D01*
X119140758Y-93675634D01*
X119001966Y-93536842D01*
X118843170Y-93421470D01*
X118668282Y-93332360D01*
X118481607Y-93271705D01*
X118481605Y-93271704D01*
X118344232Y-93249946D01*
X118281098Y-93220016D01*
X118244167Y-93160705D01*
X118245165Y-93090842D01*
X118275948Y-93039794D01*
X122955645Y-88360099D01*
X123051458Y-88216705D01*
X123117455Y-88057374D01*
X123151100Y-87888229D01*
X123151100Y-87715771D01*
X123151100Y-87172048D01*
X124378700Y-87172048D01*
X124378700Y-87376752D01*
X124382994Y-87403864D01*
X124410722Y-87578934D01*
X124473981Y-87773623D01*
X124532377Y-87888229D01*
X124560091Y-87942622D01*
X124566915Y-87956013D01*
X124687228Y-88121613D01*
X124831986Y-88266371D01*
X124986949Y-88378956D01*
X124997590Y-88386687D01*
X125113807Y-88445903D01*
X125179976Y-88479618D01*
X125179978Y-88479618D01*
X125179981Y-88479620D01*
X125284337Y-88513527D01*
X125374665Y-88542877D01*
X125466921Y-88557489D01*
X125576848Y-88574900D01*
X125576849Y-88574900D01*
X125781551Y-88574900D01*
X125781552Y-88574900D01*
X125983734Y-88542877D01*
X126178419Y-88479620D01*
X126360810Y-88386687D01*
X126481989Y-88298646D01*
X126526413Y-88266371D01*
X126526415Y-88266368D01*
X126526419Y-88266366D01*
X126671166Y-88121619D01*
X126671168Y-88121615D01*
X126671171Y-88121613D01*
X126771475Y-87983554D01*
X126791487Y-87956010D01*
X126884420Y-87773619D01*
X126947677Y-87578934D01*
X126979700Y-87376752D01*
X126979700Y-87172048D01*
X134538700Y-87172048D01*
X134538700Y-87376752D01*
X134542994Y-87403864D01*
X134570722Y-87578934D01*
X134633981Y-87773623D01*
X134692377Y-87888229D01*
X134720091Y-87942622D01*
X134726915Y-87956013D01*
X134847228Y-88121613D01*
X134991986Y-88266371D01*
X135146949Y-88378956D01*
X135157590Y-88386687D01*
X135273807Y-88445903D01*
X135339976Y-88479618D01*
X135339978Y-88479618D01*
X135339981Y-88479620D01*
X135444337Y-88513527D01*
X135534665Y-88542877D01*
X135626921Y-88557489D01*
X135736848Y-88574900D01*
X135736849Y-88574900D01*
X135941551Y-88574900D01*
X135941552Y-88574900D01*
X136143734Y-88542877D01*
X136338419Y-88479620D01*
X136520810Y-88386687D01*
X136641989Y-88298646D01*
X136686413Y-88266371D01*
X136686415Y-88266368D01*
X136686419Y-88266366D01*
X136831166Y-88121619D01*
X136831168Y-88121615D01*
X136831171Y-88121613D01*
X136931475Y-87983554D01*
X136951487Y-87956010D01*
X137044420Y-87773619D01*
X137107677Y-87578934D01*
X137139700Y-87376752D01*
X137139700Y-87172048D01*
X137107677Y-86969866D01*
X137104910Y-86961351D01*
X137044418Y-86775176D01*
X137010703Y-86709007D01*
X136951487Y-86592790D01*
X136938562Y-86575000D01*
X136831171Y-86427186D01*
X136686413Y-86282428D01*
X136520813Y-86162115D01*
X136520812Y-86162114D01*
X136520810Y-86162113D01*
X136463853Y-86133091D01*
X136338423Y-86069181D01*
X136143734Y-86005922D01*
X135969195Y-85978278D01*
X135941552Y-85973900D01*
X135736848Y-85973900D01*
X135712529Y-85977751D01*
X135534665Y-86005922D01*
X135339976Y-86069181D01*
X135157586Y-86162115D01*
X134991986Y-86282428D01*
X134847228Y-86427186D01*
X134726915Y-86592786D01*
X134633981Y-86775176D01*
X134570722Y-86969865D01*
X134541384Y-87155102D01*
X134538700Y-87172048D01*
X126979700Y-87172048D01*
X126947677Y-86969866D01*
X126944910Y-86961351D01*
X126884418Y-86775176D01*
X126850703Y-86709007D01*
X126791487Y-86592790D01*
X126778562Y-86575000D01*
X126671171Y-86427186D01*
X126526413Y-86282428D01*
X126360813Y-86162115D01*
X126360812Y-86162114D01*
X126360810Y-86162113D01*
X126303853Y-86133091D01*
X126178423Y-86069181D01*
X125983734Y-86005922D01*
X125809195Y-85978278D01*
X125781552Y-85973900D01*
X125576848Y-85973900D01*
X125552529Y-85977751D01*
X125374665Y-86005922D01*
X125179976Y-86069181D01*
X124997586Y-86162115D01*
X124831986Y-86282428D01*
X124687228Y-86427186D01*
X124566915Y-86592786D01*
X124473981Y-86775176D01*
X124410722Y-86969865D01*
X124381384Y-87155102D01*
X124378700Y-87172048D01*
X123151100Y-87172048D01*
X123151100Y-84843606D01*
X123170785Y-84776567D01*
X123187419Y-84755925D01*
X123648449Y-84294895D01*
X124195002Y-83748341D01*
X124256323Y-83714858D01*
X124326015Y-83719842D01*
X124381948Y-83761714D01*
X124406365Y-83827178D01*
X124405154Y-83855422D01*
X124388762Y-83958918D01*
X124378700Y-84022448D01*
X124378700Y-84227152D01*
X124380317Y-84237363D01*
X124410722Y-84429334D01*
X124473981Y-84624023D01*
X124510281Y-84695264D01*
X124565786Y-84804199D01*
X124566915Y-84806413D01*
X124687228Y-84972013D01*
X124831986Y-85116771D01*
X124973905Y-85219879D01*
X124997590Y-85237087D01*
X125113807Y-85296303D01*
X125179976Y-85330018D01*
X125179978Y-85330018D01*
X125179981Y-85330020D01*
X125284337Y-85363927D01*
X125374665Y-85393277D01*
X125433635Y-85402617D01*
X125576848Y-85425300D01*
X125576849Y-85425300D01*
X125781551Y-85425300D01*
X125781552Y-85425300D01*
X125983734Y-85393277D01*
X126178419Y-85330020D01*
X126360810Y-85237087D01*
X126453790Y-85169532D01*
X126526413Y-85116771D01*
X126526415Y-85116768D01*
X126526419Y-85116766D01*
X126671166Y-84972019D01*
X126671168Y-84972015D01*
X126671171Y-84972013D01*
X126758788Y-84851416D01*
X126791487Y-84806410D01*
X126884420Y-84624019D01*
X126947677Y-84429334D01*
X126979700Y-84227152D01*
X126979700Y-84022448D01*
X126947677Y-83820266D01*
X126884420Y-83625581D01*
X126884418Y-83625578D01*
X126884418Y-83625576D01*
X126834906Y-83528404D01*
X126791487Y-83443190D01*
X126772421Y-83416948D01*
X126671171Y-83277586D01*
X126526413Y-83132828D01*
X126360813Y-83012515D01*
X126360812Y-83012514D01*
X126360810Y-83012513D01*
X126303853Y-82983491D01*
X126178423Y-82919581D01*
X125983734Y-82856322D01*
X125809195Y-82828678D01*
X125781552Y-82824300D01*
X125576848Y-82824300D01*
X125547619Y-82828929D01*
X125409822Y-82850754D01*
X125340528Y-82841799D01*
X125287076Y-82796803D01*
X125266437Y-82730051D01*
X125285162Y-82662738D01*
X125302739Y-82640604D01*
X125580525Y-82362819D01*
X125641848Y-82329334D01*
X125668206Y-82326500D01*
X125781551Y-82326500D01*
X125781552Y-82326500D01*
X125983734Y-82294477D01*
X126178419Y-82231220D01*
X126360810Y-82138287D01*
X126453790Y-82070732D01*
X126526413Y-82017971D01*
X126526415Y-82017968D01*
X126526419Y-82017966D01*
X126671166Y-81873219D01*
X126671168Y-81873215D01*
X126671171Y-81873213D01*
X126723932Y-81800590D01*
X126791487Y-81707610D01*
X126884420Y-81525219D01*
X126947677Y-81330534D01*
X126979700Y-81128352D01*
X126979700Y-80923648D01*
X134538700Y-80923648D01*
X134538700Y-81128351D01*
X134570722Y-81330534D01*
X134633981Y-81525223D01*
X134726915Y-81707613D01*
X134847228Y-81873213D01*
X134991986Y-82017971D01*
X135142309Y-82127185D01*
X135157590Y-82138287D01*
X135273807Y-82197503D01*
X135339976Y-82231218D01*
X135339978Y-82231218D01*
X135339981Y-82231220D01*
X135418573Y-82256756D01*
X135534665Y-82294477D01*
X135635757Y-82310488D01*
X135736848Y-82326500D01*
X135736849Y-82326500D01*
X135941551Y-82326500D01*
X135941552Y-82326500D01*
X136143734Y-82294477D01*
X136338419Y-82231220D01*
X136520810Y-82138287D01*
X136613790Y-82070732D01*
X136686413Y-82017971D01*
X136686415Y-82017968D01*
X136686419Y-82017966D01*
X136815836Y-81888549D01*
X165299500Y-81888549D01*
X165299500Y-82111450D01*
X165299501Y-82111466D01*
X165328594Y-82332452D01*
X165328595Y-82332457D01*
X165328596Y-82332463D01*
X165350080Y-82412641D01*
X165386290Y-82547780D01*
X165386293Y-82547790D01*
X165471593Y-82753722D01*
X165471595Y-82753726D01*
X165583052Y-82946774D01*
X165583057Y-82946780D01*
X165583058Y-82946782D01*
X165718751Y-83123622D01*
X165718757Y-83123629D01*
X165876370Y-83281242D01*
X165876376Y-83281247D01*
X166053226Y-83416948D01*
X166246274Y-83528405D01*
X166452219Y-83613710D01*
X166667537Y-83671404D01*
X166888543Y-83700500D01*
X166888550Y-83700500D01*
X167111450Y-83700500D01*
X167111457Y-83700500D01*
X167332463Y-83671404D01*
X167547781Y-83613710D01*
X167753726Y-83528405D01*
X167946774Y-83416948D01*
X168123624Y-83281247D01*
X168190093Y-83214778D01*
X180049500Y-83214778D01*
X180049500Y-83435222D01*
X180056019Y-83476380D01*
X180083985Y-83652952D01*
X180152103Y-83862603D01*
X180152104Y-83862606D01*
X180201178Y-83958916D01*
X180233549Y-84022448D01*
X180252187Y-84059025D01*
X180381752Y-84237358D01*
X180381756Y-84237363D01*
X180537636Y-84393243D01*
X180537641Y-84393247D01*
X180616195Y-84450319D01*
X180715978Y-84522815D01*
X180844375Y-84588237D01*
X180912393Y-84622895D01*
X180912396Y-84622896D01*
X181017221Y-84656955D01*
X181122049Y-84691015D01*
X181339778Y-84725500D01*
X181339779Y-84725500D01*
X181560221Y-84725500D01*
X181560222Y-84725500D01*
X181777951Y-84691015D01*
X181987606Y-84622895D01*
X182184022Y-84522815D01*
X182362365Y-84393242D01*
X182518242Y-84237365D01*
X182647815Y-84059022D01*
X182747895Y-83862606D01*
X182816015Y-83652951D01*
X182850500Y-83435222D01*
X182850500Y-83214778D01*
X182816015Y-82997049D01*
X182765572Y-82841799D01*
X182747896Y-82787396D01*
X182747895Y-82787393D01*
X182684379Y-82662738D01*
X182647815Y-82590978D01*
X182616430Y-82547780D01*
X182518247Y-82412641D01*
X182518243Y-82412636D01*
X182362363Y-82256756D01*
X182362358Y-82256752D01*
X182184025Y-82127187D01*
X182184024Y-82127186D01*
X182184022Y-82127185D01*
X182121096Y-82095122D01*
X181987606Y-82027104D01*
X181987603Y-82027103D01*
X181777952Y-81958985D01*
X181669086Y-81941742D01*
X181560222Y-81924500D01*
X181339778Y-81924500D01*
X181267201Y-81935995D01*
X181122047Y-81958985D01*
X180912396Y-82027103D01*
X180912393Y-82027104D01*
X180715974Y-82127187D01*
X180537641Y-82256752D01*
X180537636Y-82256756D01*
X180381756Y-82412636D01*
X180381752Y-82412641D01*
X180252187Y-82590974D01*
X180152104Y-82787393D01*
X180152103Y-82787396D01*
X180083985Y-82997047D01*
X180062480Y-83132828D01*
X180049500Y-83214778D01*
X168190093Y-83214778D01*
X168281247Y-83123624D01*
X168416948Y-82946774D01*
X168528405Y-82753726D01*
X168613710Y-82547781D01*
X168671404Y-82332463D01*
X168700500Y-82111457D01*
X168700500Y-81888543D01*
X168671404Y-81667537D01*
X168613710Y-81452219D01*
X168528405Y-81246274D01*
X168416948Y-81053226D01*
X168281247Y-80876376D01*
X168281242Y-80876370D01*
X168123629Y-80718757D01*
X168123622Y-80718751D01*
X167946782Y-80583058D01*
X167946780Y-80583057D01*
X167946774Y-80583052D01*
X167753726Y-80471595D01*
X167753722Y-80471593D01*
X167547790Y-80386293D01*
X167547783Y-80386291D01*
X167547781Y-80386290D01*
X167332463Y-80328596D01*
X167332457Y-80328595D01*
X167332452Y-80328594D01*
X167111466Y-80299501D01*
X167111463Y-80299500D01*
X167111457Y-80299500D01*
X166888543Y-80299500D01*
X166888537Y-80299500D01*
X166888533Y-80299501D01*
X166667547Y-80328594D01*
X166667540Y-80328595D01*
X166667537Y-80328596D01*
X166608608Y-80344386D01*
X166452219Y-80386290D01*
X166452209Y-80386293D01*
X166246277Y-80471593D01*
X166246273Y-80471595D01*
X166053226Y-80583052D01*
X166053217Y-80583058D01*
X165876377Y-80718751D01*
X165876370Y-80718757D01*
X165718757Y-80876370D01*
X165718751Y-80876377D01*
X165583058Y-81053217D01*
X165583052Y-81053226D01*
X165471595Y-81246273D01*
X165471593Y-81246277D01*
X165386293Y-81452209D01*
X165386290Y-81452219D01*
X165328597Y-81667534D01*
X165328594Y-81667547D01*
X165299501Y-81888533D01*
X165299500Y-81888549D01*
X136815836Y-81888549D01*
X136831166Y-81873219D01*
X136951487Y-81707610D01*
X137044420Y-81525219D01*
X137107677Y-81330534D01*
X137139700Y-81128352D01*
X137139700Y-80923648D01*
X137107677Y-80721466D01*
X137106795Y-80718753D01*
X137078327Y-80631137D01*
X137044420Y-80526781D01*
X137044418Y-80526778D01*
X137044418Y-80526776D01*
X137010703Y-80460607D01*
X136951487Y-80344390D01*
X136940011Y-80328594D01*
X136831171Y-80178786D01*
X136686413Y-80034028D01*
X136520813Y-79913715D01*
X136520812Y-79913714D01*
X136520810Y-79913713D01*
X136463853Y-79884691D01*
X136338423Y-79820781D01*
X136143734Y-79757522D01*
X135969195Y-79729878D01*
X135941552Y-79725500D01*
X135736848Y-79725500D01*
X135712529Y-79729351D01*
X135534665Y-79757522D01*
X135339976Y-79820781D01*
X135157586Y-79913715D01*
X134991986Y-80034028D01*
X134847228Y-80178786D01*
X134726915Y-80344386D01*
X134633981Y-80526776D01*
X134570722Y-80721465D01*
X134538700Y-80923648D01*
X126979700Y-80923648D01*
X126947677Y-80721466D01*
X126946795Y-80718753D01*
X126918327Y-80631137D01*
X126884420Y-80526781D01*
X126884418Y-80526778D01*
X126884418Y-80526776D01*
X126850703Y-80460607D01*
X126791487Y-80344390D01*
X126780011Y-80328594D01*
X126671171Y-80178786D01*
X126526413Y-80034028D01*
X126360813Y-79913715D01*
X126360812Y-79913714D01*
X126360810Y-79913713D01*
X126303853Y-79884691D01*
X126178423Y-79820781D01*
X125983734Y-79757522D01*
X125809195Y-79729878D01*
X125781552Y-79725500D01*
X125576848Y-79725500D01*
X125552529Y-79729351D01*
X125374665Y-79757522D01*
X125179976Y-79820781D01*
X124997586Y-79913715D01*
X124831986Y-80034028D01*
X124687228Y-80178786D01*
X124566915Y-80344386D01*
X124473981Y-80526776D01*
X124410722Y-80721465D01*
X124378700Y-80923648D01*
X124378700Y-81036994D01*
X124359015Y-81104033D01*
X124342381Y-81124675D01*
X121717501Y-83749555D01*
X121656527Y-83810529D01*
X121595553Y-83871502D01*
X121499745Y-84014888D01*
X121499738Y-84014901D01*
X121433746Y-84174221D01*
X121433743Y-84174233D01*
X121400100Y-84343366D01*
X121400100Y-87387994D01*
X121380415Y-87455033D01*
X121363781Y-87475675D01*
X115634775Y-93204681D01*
X115573452Y-93238166D01*
X115547094Y-93241000D01*
X115491454Y-93241000D01*
X115297596Y-93271704D01*
X115110915Y-93332361D01*
X114936029Y-93421470D01*
X114845431Y-93487293D01*
X114777234Y-93536842D01*
X114777232Y-93536844D01*
X114777231Y-93536844D01*
X114638444Y-93675631D01*
X114638444Y-93675632D01*
X114638442Y-93675634D01*
X114588893Y-93743831D01*
X114523070Y-93834429D01*
X114433961Y-94009313D01*
X114429520Y-94022982D01*
X114407529Y-94090660D01*
X114368093Y-94148334D01*
X114303734Y-94175532D01*
X114234888Y-94163617D01*
X114183412Y-94116373D01*
X114171670Y-94090663D01*
X114145240Y-94009318D01*
X114145238Y-94009315D01*
X114145238Y-94009313D01*
X114056129Y-93834429D01*
X114051396Y-93827914D01*
X113940758Y-93675634D01*
X113801966Y-93536842D01*
X113643170Y-93421470D01*
X113468282Y-93332360D01*
X113281607Y-93271705D01*
X113281605Y-93271704D01*
X113281603Y-93271704D01*
X113087746Y-93241000D01*
X113087741Y-93241000D01*
X112891459Y-93241000D01*
X112891454Y-93241000D01*
X112697596Y-93271704D01*
X112510915Y-93332361D01*
X112336029Y-93421470D01*
X112245431Y-93487293D01*
X112177234Y-93536842D01*
X112177232Y-93536844D01*
X112177231Y-93536844D01*
X112038444Y-93675631D01*
X112038444Y-93675632D01*
X112038442Y-93675634D01*
X111988893Y-93743831D01*
X111923070Y-93834429D01*
X111833961Y-94009315D01*
X111773304Y-94195996D01*
X111742600Y-94389853D01*
X107479446Y-94389853D01*
X112284695Y-89584606D01*
X112302990Y-89557225D01*
X112358620Y-89473969D01*
X112374068Y-89436673D01*
X112409541Y-89351036D01*
X112435500Y-89220531D01*
X112435500Y-89087469D01*
X112435500Y-88937915D01*
X112455185Y-88870876D01*
X112456398Y-88869024D01*
X112558009Y-88716953D01*
X112558009Y-88716952D01*
X112558013Y-88716947D01*
X112576037Y-88673434D01*
X112624062Y-88557489D01*
X112624143Y-88557291D01*
X112625894Y-88553066D01*
X112627429Y-88545353D01*
X112658989Y-88386687D01*
X112660500Y-88379091D01*
X112660500Y-88201709D01*
X112660500Y-88201706D01*
X112660499Y-88201704D01*
X112625896Y-88027741D01*
X112625893Y-88027732D01*
X112616930Y-88006094D01*
X112590638Y-87942617D01*
X112558016Y-87863859D01*
X112558009Y-87863846D01*
X112459464Y-87716365D01*
X112459461Y-87716361D01*
X112334038Y-87590938D01*
X112334034Y-87590935D01*
X112186553Y-87492390D01*
X112186540Y-87492383D01*
X112022667Y-87424506D01*
X112022658Y-87424503D01*
X111848694Y-87389900D01*
X111848691Y-87389900D01*
X111671309Y-87389900D01*
X111666900Y-87389900D01*
X111599861Y-87370215D01*
X111554106Y-87317411D01*
X111542900Y-87265900D01*
X111542900Y-87236506D01*
X111542899Y-87236504D01*
X111508296Y-87062541D01*
X111508293Y-87062532D01*
X111440416Y-86898659D01*
X111440409Y-86898646D01*
X111341864Y-86751165D01*
X111341861Y-86751161D01*
X111216438Y-86625738D01*
X111216434Y-86625735D01*
X111068953Y-86527190D01*
X111068940Y-86527183D01*
X110905067Y-86459306D01*
X110905058Y-86459303D01*
X110731094Y-86424700D01*
X110731091Y-86424700D01*
X110553709Y-86424700D01*
X110553706Y-86424700D01*
X110379741Y-86459303D01*
X110379732Y-86459306D01*
X110215859Y-86527183D01*
X110215846Y-86527190D01*
X110068365Y-86625735D01*
X110068361Y-86625738D01*
X109942938Y-86751161D01*
X109942935Y-86751165D01*
X109844390Y-86898646D01*
X109844383Y-86898659D01*
X109776506Y-87062532D01*
X109776503Y-87062541D01*
X109741900Y-87236504D01*
X109741900Y-87413895D01*
X109772588Y-87568173D01*
X109766361Y-87637764D01*
X109738652Y-87680045D01*
X106365381Y-91053316D01*
X106304058Y-91086801D01*
X106234366Y-91081817D01*
X106178433Y-91039945D01*
X106154016Y-90974481D01*
X106153700Y-90965635D01*
X106153700Y-90880286D01*
X106121629Y-90677802D01*
X106058272Y-90482808D01*
X105965199Y-90300144D01*
X105932464Y-90255087D01*
X105362739Y-90824813D01*
X105349740Y-90776298D01*
X105279306Y-90654303D01*
X105179697Y-90554694D01*
X105057702Y-90484260D01*
X105009185Y-90471259D01*
X105578911Y-89901534D01*
X105578911Y-89901533D01*
X105533860Y-89868803D01*
X105445076Y-89823565D01*
X105394280Y-89775590D01*
X105377485Y-89707769D01*
X105400023Y-89641634D01*
X105445077Y-89602595D01*
X105534121Y-89557225D01*
X105700047Y-89436673D01*
X105845073Y-89291647D01*
X105965625Y-89125721D01*
X106058737Y-88942978D01*
X106122116Y-88747920D01*
X106145395Y-88600942D01*
X106154200Y-88545353D01*
X106154200Y-88340246D01*
X106132257Y-88201709D01*
X106122116Y-88137680D01*
X106058737Y-87942622D01*
X106058735Y-87942619D01*
X106058735Y-87942617D01*
X106018599Y-87863846D01*
X105965625Y-87759879D01*
X105916219Y-87691877D01*
X105845078Y-87593959D01*
X105845074Y-87593954D01*
X105700045Y-87448925D01*
X105700040Y-87448921D01*
X105534125Y-87328377D01*
X105460654Y-87290942D01*
X105445625Y-87283284D01*
X105394830Y-87235311D01*
X105378035Y-87167490D01*
X105400572Y-87101355D01*
X105445625Y-87062315D01*
X105534121Y-87017225D01*
X105700047Y-86896673D01*
X105845073Y-86751647D01*
X105965625Y-86585721D01*
X106058737Y-86402978D01*
X106122116Y-86207920D01*
X106143295Y-86074199D01*
X106154200Y-86005353D01*
X106154200Y-85800246D01*
X106135614Y-85682906D01*
X106122116Y-85597680D01*
X106058737Y-85402622D01*
X106058735Y-85402619D01*
X106058735Y-85402617D01*
X106024955Y-85336322D01*
X105965625Y-85219879D01*
X105956137Y-85206820D01*
X105850890Y-85061958D01*
X105845078Y-85053959D01*
X105845074Y-85053954D01*
X105785065Y-84993945D01*
X116838700Y-84993945D01*
X116838700Y-85186054D01*
X116868753Y-85375802D01*
X116928116Y-85558506D01*
X116948079Y-85597685D01*
X117015335Y-85729681D01*
X117128255Y-85885102D01*
X117264098Y-86020945D01*
X117419519Y-86133865D01*
X117564859Y-86207920D01*
X117590695Y-86221084D01*
X117656090Y-86242332D01*
X117713766Y-86281769D01*
X117740965Y-86346127D01*
X117729051Y-86414974D01*
X117681807Y-86466450D01*
X117656093Y-86478194D01*
X117590877Y-86499384D01*
X117419778Y-86586564D01*
X117390552Y-86607798D01*
X117390551Y-86607798D01*
X117954285Y-87171531D01*
X117877787Y-87192029D01*
X117770613Y-87253906D01*
X117683106Y-87341413D01*
X117621229Y-87448587D01*
X117600731Y-87525084D01*
X117036998Y-86961351D01*
X117036998Y-86961352D01*
X117015764Y-86990578D01*
X116928583Y-87161678D01*
X116869240Y-87344315D01*
X116839200Y-87533984D01*
X116839200Y-87726015D01*
X116869240Y-87915684D01*
X116928583Y-88098321D01*
X117015761Y-88269415D01*
X117036998Y-88298646D01*
X117600731Y-87734914D01*
X117621229Y-87811413D01*
X117683106Y-87918587D01*
X117770613Y-88006094D01*
X117877787Y-88067971D01*
X117954285Y-88088468D01*
X117390551Y-88652200D01*
X117390552Y-88652201D01*
X117419777Y-88673434D01*
X117590878Y-88760616D01*
X117773515Y-88819959D01*
X117963185Y-88850000D01*
X118155215Y-88850000D01*
X118344884Y-88819959D01*
X118527521Y-88760616D01*
X118698619Y-88673436D01*
X118727846Y-88652201D01*
X118727846Y-88652200D01*
X118164115Y-88088468D01*
X118240613Y-88067971D01*
X118347787Y-88006094D01*
X118435294Y-87918587D01*
X118497171Y-87811413D01*
X118517668Y-87734914D01*
X119081400Y-88298646D01*
X119081401Y-88298646D01*
X119102636Y-88269419D01*
X119189816Y-88098321D01*
X119249159Y-87915684D01*
X119279200Y-87726015D01*
X119279200Y-87704500D01*
X119298885Y-87637461D01*
X119351689Y-87591706D01*
X119403200Y-87580500D01*
X119425254Y-87580500D01*
X119425255Y-87580500D01*
X119615001Y-87550447D01*
X119797709Y-87491082D01*
X119968881Y-87403865D01*
X120124302Y-87290945D01*
X120260145Y-87155102D01*
X120373065Y-86999681D01*
X120460282Y-86828509D01*
X120519647Y-86645801D01*
X120549700Y-86456055D01*
X120549700Y-86263945D01*
X120519647Y-86074199D01*
X120460282Y-85891491D01*
X120373065Y-85720319D01*
X120260145Y-85564898D01*
X120124302Y-85429055D01*
X119968881Y-85316135D01*
X119797706Y-85228916D01*
X119615002Y-85169553D01*
X119520128Y-85154526D01*
X119425255Y-85139500D01*
X119425254Y-85139500D01*
X119403700Y-85139500D01*
X119336661Y-85119815D01*
X119290906Y-85067011D01*
X119279700Y-85015500D01*
X119279700Y-84993945D01*
X119255888Y-84843606D01*
X119249647Y-84804199D01*
X119191105Y-84624023D01*
X119190283Y-84621493D01*
X119179230Y-84599800D01*
X119103065Y-84450319D01*
X118990145Y-84294898D01*
X118854302Y-84159055D01*
X118698881Y-84046135D01*
X118652393Y-84022448D01*
X118527706Y-83958916D01*
X118345002Y-83899553D01*
X118250128Y-83884526D01*
X118155255Y-83869500D01*
X117963145Y-83869500D01*
X117899896Y-83879517D01*
X117773397Y-83899553D01*
X117590693Y-83958916D01*
X117419518Y-84046135D01*
X117401777Y-84059025D01*
X117264098Y-84159055D01*
X117264096Y-84159057D01*
X117264095Y-84159057D01*
X117128257Y-84294895D01*
X117128257Y-84294896D01*
X117128255Y-84294898D01*
X117093041Y-84343366D01*
X117015335Y-84450318D01*
X116928116Y-84621493D01*
X116868753Y-84804197D01*
X116838700Y-84993945D01*
X105785065Y-84993945D01*
X105700045Y-84908925D01*
X105700040Y-84908921D01*
X105534124Y-84788377D01*
X105534123Y-84788376D01*
X105534121Y-84788375D01*
X105470434Y-84755925D01*
X105351382Y-84695264D01*
X105304584Y-84680058D01*
X105156320Y-84631884D01*
X105156314Y-84631883D01*
X104953753Y-84599800D01*
X104953748Y-84599800D01*
X104748652Y-84599800D01*
X104748647Y-84599800D01*
X104546085Y-84631883D01*
X104546083Y-84631883D01*
X104546080Y-84631884D01*
X104448551Y-84663573D01*
X104351017Y-84695264D01*
X104168275Y-84788377D01*
X104002359Y-84908921D01*
X104002354Y-84908925D01*
X103857325Y-85053954D01*
X103857321Y-85053959D01*
X103736777Y-85219875D01*
X103643664Y-85402617D01*
X103617985Y-85481649D01*
X103580284Y-85597680D01*
X103580283Y-85597683D01*
X103580283Y-85597685D01*
X103548200Y-85800246D01*
X101700042Y-85800246D01*
X101668717Y-80876377D01*
X101649709Y-77888549D01*
X105299500Y-77888549D01*
X105299500Y-78111450D01*
X105299501Y-78111466D01*
X105328594Y-78332452D01*
X105328595Y-78332457D01*
X105328596Y-78332463D01*
X105328597Y-78332465D01*
X105386290Y-78547780D01*
X105386293Y-78547790D01*
X105471593Y-78753722D01*
X105471595Y-78753726D01*
X105583052Y-78946774D01*
X105583057Y-78946780D01*
X105583058Y-78946782D01*
X105718751Y-79123622D01*
X105718757Y-79123629D01*
X105876370Y-79281242D01*
X105876376Y-79281247D01*
X106053226Y-79416948D01*
X106246274Y-79528405D01*
X106452219Y-79613710D01*
X106667537Y-79671404D01*
X106888543Y-79700500D01*
X106888550Y-79700500D01*
X107111450Y-79700500D01*
X107111457Y-79700500D01*
X107332463Y-79671404D01*
X107547781Y-79613710D01*
X107753726Y-79528405D01*
X107946774Y-79416948D01*
X108123624Y-79281247D01*
X108281247Y-79123624D01*
X108416948Y-78946774D01*
X108528405Y-78753726D01*
X108613710Y-78547781D01*
X108671404Y-78332463D01*
X108700500Y-78111457D01*
X108700500Y-77888543D01*
X108671404Y-77667537D01*
X108613710Y-77452219D01*
X108528405Y-77246274D01*
X108416948Y-77053226D01*
X108281247Y-76876376D01*
X108281242Y-76876370D01*
X108123629Y-76718757D01*
X108123622Y-76718751D01*
X107946782Y-76583058D01*
X107946780Y-76583057D01*
X107946774Y-76583052D01*
X107753726Y-76471595D01*
X107753722Y-76471593D01*
X107547790Y-76386293D01*
X107547783Y-76386291D01*
X107547781Y-76386290D01*
X107332463Y-76328596D01*
X107332457Y-76328595D01*
X107332452Y-76328594D01*
X107111466Y-76299501D01*
X107111463Y-76299500D01*
X107111457Y-76299500D01*
X106888543Y-76299500D01*
X106888537Y-76299500D01*
X106888533Y-76299501D01*
X106667547Y-76328594D01*
X106667540Y-76328595D01*
X106667537Y-76328596D01*
X106452219Y-76386290D01*
X106452209Y-76386293D01*
X106246277Y-76471593D01*
X106246273Y-76471595D01*
X106053226Y-76583052D01*
X106053217Y-76583058D01*
X105876377Y-76718751D01*
X105876370Y-76718757D01*
X105718757Y-76876370D01*
X105718751Y-76876377D01*
X105583058Y-77053217D01*
X105583052Y-77053226D01*
X105471595Y-77246273D01*
X105471593Y-77246277D01*
X105386293Y-77452209D01*
X105386290Y-77452219D01*
X105328597Y-77667534D01*
X105328594Y-77667547D01*
X105299501Y-77888533D01*
X105299500Y-77888549D01*
X101649709Y-77888549D01*
X101649688Y-77885273D01*
X101600000Y-70075000D01*
X98654586Y-70024217D01*
X92154756Y-69912150D01*
X92088067Y-69891313D01*
X92043229Y-69837728D01*
X92032929Y-69785261D01*
X92237360Y-61081533D01*
X121059499Y-61081533D01*
X121085458Y-61212030D01*
X121085461Y-61212040D01*
X121136376Y-61334961D01*
X121136378Y-61334965D01*
X121136380Y-61334969D01*
X121153603Y-61360745D01*
X121174480Y-61427420D01*
X121174500Y-61429634D01*
X121174500Y-61842870D01*
X121174501Y-61842876D01*
X121180908Y-61902483D01*
X121231202Y-62037328D01*
X121231206Y-62037335D01*
X121317452Y-62152544D01*
X121317455Y-62152547D01*
X121432664Y-62238793D01*
X121432671Y-62238797D01*
X121567517Y-62289091D01*
X121567516Y-62289091D01*
X121574444Y-62289835D01*
X121627127Y-62295500D01*
X123282872Y-62295499D01*
X123342483Y-62289091D01*
X123477331Y-62238796D01*
X123592546Y-62152546D01*
X123678796Y-62037331D01*
X123729091Y-61902483D01*
X123735500Y-61842873D01*
X123735499Y-61841620D01*
X123735581Y-61841342D01*
X123735678Y-61839547D01*
X123736101Y-61839569D01*
X123755169Y-61774580D01*
X123807963Y-61728814D01*
X123877119Y-61718855D01*
X123940681Y-61747866D01*
X123959816Y-61768711D01*
X124011283Y-61839547D01*
X124018289Y-61849190D01*
X124160810Y-61991711D01*
X124323871Y-62110182D01*
X124502549Y-62201223D01*
X124503460Y-62201687D01*
X124599303Y-62232828D01*
X124695149Y-62263970D01*
X124787348Y-62278572D01*
X124894217Y-62295500D01*
X124894222Y-62295500D01*
X125095783Y-62295500D01*
X125192289Y-62280214D01*
X125294851Y-62263970D01*
X125486542Y-62201686D01*
X125666129Y-62110182D01*
X125829190Y-61991711D01*
X125971711Y-61849190D01*
X126090182Y-61686129D01*
X126154515Y-61559867D01*
X126202490Y-61509072D01*
X126270310Y-61492277D01*
X126336445Y-61514814D01*
X126375484Y-61559867D01*
X126439818Y-61686129D01*
X126558289Y-61849190D01*
X126700810Y-61991711D01*
X126863871Y-62110182D01*
X127042549Y-62201223D01*
X127043460Y-62201687D01*
X127139303Y-62232828D01*
X127235149Y-62263970D01*
X127327348Y-62278572D01*
X127434217Y-62295500D01*
X127434222Y-62295500D01*
X127635783Y-62295500D01*
X127732289Y-62280214D01*
X127834851Y-62263970D01*
X128026542Y-62201686D01*
X128206129Y-62110182D01*
X128369190Y-61991711D01*
X128511711Y-61849190D01*
X128630182Y-61686129D01*
X128694515Y-61559867D01*
X128742490Y-61509072D01*
X128810310Y-61492277D01*
X128876445Y-61514814D01*
X128915484Y-61559867D01*
X128979818Y-61686129D01*
X129098289Y-61849190D01*
X129240810Y-61991711D01*
X129403871Y-62110182D01*
X129582549Y-62201223D01*
X129583460Y-62201687D01*
X129679303Y-62232828D01*
X129775149Y-62263970D01*
X129867348Y-62278572D01*
X129974217Y-62295500D01*
X129974222Y-62295500D01*
X130175783Y-62295500D01*
X130272289Y-62280214D01*
X130374851Y-62263970D01*
X130566542Y-62201686D01*
X130746129Y-62110182D01*
X130909190Y-61991711D01*
X131051711Y-61849190D01*
X131170182Y-61686129D01*
X131234795Y-61559317D01*
X131282769Y-61508521D01*
X131350590Y-61491726D01*
X131416725Y-61514263D01*
X131455764Y-61559316D01*
X131520246Y-61685867D01*
X131549842Y-61726602D01*
X131549843Y-61726603D01*
X132115707Y-61160739D01*
X132130437Y-61215712D01*
X132198896Y-61334287D01*
X132295713Y-61431104D01*
X132414288Y-61499563D01*
X132469259Y-61514292D01*
X131903395Y-62080155D01*
X131944133Y-62109753D01*
X132123650Y-62201223D01*
X132123653Y-62201224D01*
X132315264Y-62263481D01*
X132514263Y-62295000D01*
X132715737Y-62295000D01*
X132914735Y-62263481D01*
X133106346Y-62201224D01*
X133106349Y-62201223D01*
X133285866Y-62109753D01*
X133326602Y-62080156D01*
X133326602Y-62080155D01*
X132760739Y-61514292D01*
X132815712Y-61499563D01*
X132934287Y-61431104D01*
X133031104Y-61334287D01*
X133099563Y-61215712D01*
X133114292Y-61160739D01*
X133680155Y-61726602D01*
X133680156Y-61726602D01*
X133709753Y-61685866D01*
X133774234Y-61559317D01*
X133822209Y-61508521D01*
X133890030Y-61491726D01*
X133956165Y-61514263D01*
X133995204Y-61559317D01*
X134051157Y-61669131D01*
X134059818Y-61686129D01*
X134178289Y-61849190D01*
X134320810Y-61991711D01*
X134483871Y-62110182D01*
X134662549Y-62201223D01*
X134663460Y-62201687D01*
X134759303Y-62232828D01*
X134855149Y-62263970D01*
X134947348Y-62278572D01*
X135054217Y-62295500D01*
X135054222Y-62295500D01*
X135255783Y-62295500D01*
X135352289Y-62280214D01*
X135454851Y-62263970D01*
X135646542Y-62201686D01*
X135826129Y-62110182D01*
X135989190Y-61991711D01*
X136131711Y-61849190D01*
X136250182Y-61686129D01*
X136314515Y-61559867D01*
X136362490Y-61509072D01*
X136430310Y-61492277D01*
X136496445Y-61514814D01*
X136535484Y-61559867D01*
X136599818Y-61686129D01*
X136718289Y-61849190D01*
X136860810Y-61991711D01*
X137023871Y-62110182D01*
X137202549Y-62201223D01*
X137203460Y-62201687D01*
X137299303Y-62232828D01*
X137395149Y-62263970D01*
X137487348Y-62278572D01*
X137594217Y-62295500D01*
X137594222Y-62295500D01*
X137795783Y-62295500D01*
X137892289Y-62280214D01*
X137994851Y-62263970D01*
X138186542Y-62201686D01*
X138366129Y-62110182D01*
X138529190Y-61991711D01*
X138671711Y-61849190D01*
X138790182Y-61686129D01*
X138854515Y-61559867D01*
X138902490Y-61509072D01*
X138970310Y-61492277D01*
X139036445Y-61514814D01*
X139075484Y-61559867D01*
X139139818Y-61686129D01*
X139258289Y-61849190D01*
X139400810Y-61991711D01*
X139563871Y-62110182D01*
X139742549Y-62201223D01*
X139743460Y-62201687D01*
X139839303Y-62232828D01*
X139935149Y-62263970D01*
X140027348Y-62278572D01*
X140134217Y-62295500D01*
X140134222Y-62295500D01*
X140335783Y-62295500D01*
X140432289Y-62280214D01*
X140534851Y-62263970D01*
X140726542Y-62201686D01*
X140906129Y-62110182D01*
X141069190Y-61991711D01*
X141211711Y-61849190D01*
X141330182Y-61686129D01*
X141394515Y-61559867D01*
X141442490Y-61509072D01*
X141510310Y-61492277D01*
X141576445Y-61514814D01*
X141615484Y-61559867D01*
X141679818Y-61686129D01*
X141798289Y-61849190D01*
X141940810Y-61991711D01*
X142103871Y-62110182D01*
X142282549Y-62201223D01*
X142283460Y-62201687D01*
X142379303Y-62232828D01*
X142475149Y-62263970D01*
X142567348Y-62278572D01*
X142674217Y-62295500D01*
X142674222Y-62295500D01*
X142875783Y-62295500D01*
X142972289Y-62280214D01*
X143074851Y-62263970D01*
X143266542Y-62201686D01*
X143446129Y-62110182D01*
X143609190Y-61991711D01*
X143751711Y-61849190D01*
X143870182Y-61686129D01*
X143934515Y-61559867D01*
X143982490Y-61509072D01*
X144050310Y-61492277D01*
X144116445Y-61514814D01*
X144155484Y-61559867D01*
X144219818Y-61686129D01*
X144338289Y-61849190D01*
X144480810Y-61991711D01*
X144643871Y-62110182D01*
X144822549Y-62201223D01*
X144823460Y-62201687D01*
X144919303Y-62232828D01*
X145015149Y-62263970D01*
X145107348Y-62278572D01*
X145214217Y-62295500D01*
X145214222Y-62295500D01*
X145415783Y-62295500D01*
X145512289Y-62280214D01*
X145614851Y-62263970D01*
X145806542Y-62201686D01*
X145986129Y-62110182D01*
X146149190Y-61991711D01*
X146291711Y-61849190D01*
X146410182Y-61686129D01*
X146474515Y-61559867D01*
X146522490Y-61509072D01*
X146590310Y-61492277D01*
X146656445Y-61514814D01*
X146695484Y-61559867D01*
X146759818Y-61686129D01*
X146878289Y-61849190D01*
X147020810Y-61991711D01*
X147183871Y-62110182D01*
X147362549Y-62201223D01*
X147363460Y-62201687D01*
X147459303Y-62232828D01*
X147555149Y-62263970D01*
X147647348Y-62278572D01*
X147754217Y-62295500D01*
X147754222Y-62295500D01*
X147955783Y-62295500D01*
X148052289Y-62280214D01*
X148154851Y-62263970D01*
X148346542Y-62201686D01*
X148526129Y-62110182D01*
X148689190Y-61991711D01*
X148831711Y-61849190D01*
X148950182Y-61686129D01*
X149014515Y-61559867D01*
X149062490Y-61509072D01*
X149130310Y-61492277D01*
X149196445Y-61514814D01*
X149235484Y-61559867D01*
X149299818Y-61686129D01*
X149418289Y-61849190D01*
X149560810Y-61991711D01*
X149723871Y-62110182D01*
X149902549Y-62201223D01*
X149903460Y-62201687D01*
X149999303Y-62232828D01*
X150095149Y-62263970D01*
X150187348Y-62278572D01*
X150294217Y-62295500D01*
X150294222Y-62295500D01*
X150495783Y-62295500D01*
X150592289Y-62280214D01*
X150694851Y-62263970D01*
X150886542Y-62201686D01*
X151066129Y-62110182D01*
X151229190Y-61991711D01*
X151371711Y-61849190D01*
X151490182Y-61686129D01*
X151554515Y-61559867D01*
X151602490Y-61509072D01*
X151670310Y-61492277D01*
X151736445Y-61514814D01*
X151775484Y-61559867D01*
X151839818Y-61686129D01*
X151958289Y-61849190D01*
X152100810Y-61991711D01*
X152263871Y-62110182D01*
X152442549Y-62201223D01*
X152443460Y-62201687D01*
X152539303Y-62232828D01*
X152635149Y-62263970D01*
X152727348Y-62278572D01*
X152834217Y-62295500D01*
X152834222Y-62295500D01*
X153035783Y-62295500D01*
X153132289Y-62280214D01*
X153234851Y-62263970D01*
X153426542Y-62201686D01*
X153606129Y-62110182D01*
X153769190Y-61991711D01*
X153911711Y-61849190D01*
X154030182Y-61686129D01*
X154094515Y-61559867D01*
X154142490Y-61509072D01*
X154210310Y-61492277D01*
X154276445Y-61514814D01*
X154315484Y-61559867D01*
X154379818Y-61686129D01*
X154498289Y-61849190D01*
X154640810Y-61991711D01*
X154803871Y-62110182D01*
X154982549Y-62201223D01*
X154983460Y-62201687D01*
X155079303Y-62232828D01*
X155175149Y-62263970D01*
X155267348Y-62278572D01*
X155374217Y-62295500D01*
X155374222Y-62295500D01*
X155575783Y-62295500D01*
X155672289Y-62280214D01*
X155774851Y-62263970D01*
X155966542Y-62201686D01*
X156146129Y-62110182D01*
X156309190Y-61991711D01*
X156451711Y-61849190D01*
X156570182Y-61686129D01*
X156634515Y-61559867D01*
X156682490Y-61509072D01*
X156750310Y-61492277D01*
X156816445Y-61514814D01*
X156855484Y-61559867D01*
X156919818Y-61686129D01*
X157038289Y-61849190D01*
X157180810Y-61991711D01*
X157343871Y-62110182D01*
X157522549Y-62201223D01*
X157523460Y-62201687D01*
X157619303Y-62232828D01*
X157715149Y-62263970D01*
X157807348Y-62278572D01*
X157914217Y-62295500D01*
X157914222Y-62295500D01*
X158115783Y-62295500D01*
X158212289Y-62280214D01*
X158314851Y-62263970D01*
X158506542Y-62201686D01*
X158686129Y-62110182D01*
X158849190Y-61991711D01*
X158991711Y-61849190D01*
X159110182Y-61686129D01*
X159174515Y-61559867D01*
X159222490Y-61509072D01*
X159290310Y-61492277D01*
X159356445Y-61514814D01*
X159395484Y-61559867D01*
X159459818Y-61686129D01*
X159578289Y-61849190D01*
X159720810Y-61991711D01*
X159883871Y-62110182D01*
X160062549Y-62201223D01*
X160063460Y-62201687D01*
X160159303Y-62232828D01*
X160255149Y-62263970D01*
X160347348Y-62278572D01*
X160454217Y-62295500D01*
X160454222Y-62295500D01*
X160655783Y-62295500D01*
X160752289Y-62280214D01*
X160854851Y-62263970D01*
X161046542Y-62201686D01*
X161226129Y-62110182D01*
X161389190Y-61991711D01*
X161531711Y-61849190D01*
X161650182Y-61686129D01*
X161714515Y-61559867D01*
X161762490Y-61509072D01*
X161830310Y-61492277D01*
X161896445Y-61514814D01*
X161935484Y-61559867D01*
X161999818Y-61686129D01*
X162118289Y-61849190D01*
X162260810Y-61991711D01*
X162423871Y-62110182D01*
X162602549Y-62201223D01*
X162603460Y-62201687D01*
X162699303Y-62232828D01*
X162795149Y-62263970D01*
X162887348Y-62278572D01*
X162994217Y-62295500D01*
X162994222Y-62295500D01*
X163195783Y-62295500D01*
X163292289Y-62280214D01*
X163394851Y-62263970D01*
X163586542Y-62201686D01*
X163766129Y-62110182D01*
X163929190Y-61991711D01*
X164071711Y-61849190D01*
X164190182Y-61686129D01*
X164254515Y-61559867D01*
X164302490Y-61509072D01*
X164370310Y-61492277D01*
X164436445Y-61514814D01*
X164475484Y-61559867D01*
X164539818Y-61686129D01*
X164590067Y-61755291D01*
X164610818Y-61783851D01*
X164634298Y-61849657D01*
X164634500Y-61856737D01*
X164634500Y-64533837D01*
X164632117Y-64558028D01*
X164619500Y-64621456D01*
X164619500Y-64818544D01*
X164657947Y-65011828D01*
X164657949Y-65011836D01*
X164733367Y-65193910D01*
X164733372Y-65193920D01*
X164842860Y-65357780D01*
X164842863Y-65357784D01*
X174832215Y-75347137D01*
X174832219Y-75347140D01*
X174996079Y-75456628D01*
X174996085Y-75456631D01*
X174996086Y-75456632D01*
X175178165Y-75532052D01*
X175371455Y-75570500D01*
X175371458Y-75570501D01*
X175371460Y-75570501D01*
X175574655Y-75570501D01*
X175574675Y-75570500D01*
X180728542Y-75570500D01*
X180759566Y-75564328D01*
X180825188Y-75551275D01*
X180921836Y-75532051D01*
X180975165Y-75509961D01*
X181103914Y-75456632D01*
X181267782Y-75347139D01*
X181407139Y-75207782D01*
X181407139Y-75207780D01*
X181417347Y-75197573D01*
X181417348Y-75197570D01*
X183502139Y-73112782D01*
X183539129Y-73057421D01*
X183611631Y-72948916D01*
X183611636Y-72948906D01*
X183687049Y-72766839D01*
X183687051Y-72766835D01*
X183725500Y-72573541D01*
X183725500Y-69762362D01*
X183745185Y-69695323D01*
X183750000Y-69689347D01*
X183750000Y-69686500D01*
X184250000Y-69686500D01*
X184372828Y-69686500D01*
X184372844Y-69686499D01*
X184432372Y-69680098D01*
X184432379Y-69680096D01*
X184567086Y-69629854D01*
X184567093Y-69629850D01*
X184682187Y-69543690D01*
X184682190Y-69543687D01*
X184768350Y-69428593D01*
X184768354Y-69428586D01*
X184818596Y-69293879D01*
X184818598Y-69293872D01*
X184824999Y-69234344D01*
X184825000Y-69234327D01*
X184825000Y-68674000D01*
X184250000Y-68674000D01*
X184250000Y-69686500D01*
X183750000Y-69686500D01*
X183750000Y-68548000D01*
X183769685Y-68480961D01*
X183822489Y-68435206D01*
X183874000Y-68424000D01*
X184000000Y-68424000D01*
X184000000Y-68298000D01*
X184019685Y-68230961D01*
X184072489Y-68185206D01*
X184124000Y-68174000D01*
X184825000Y-68174000D01*
X184825000Y-67963395D01*
X184844685Y-67896356D01*
X184897489Y-67850601D01*
X184966647Y-67840657D01*
X185023312Y-67864129D01*
X185059410Y-67891152D01*
X185059413Y-67891154D01*
X185194120Y-67941396D01*
X185194127Y-67941398D01*
X185253655Y-67947799D01*
X185253672Y-67947800D01*
X185750000Y-67947800D01*
X186250000Y-67947800D01*
X186746328Y-67947800D01*
X186746344Y-67947799D01*
X186805872Y-67941398D01*
X186805879Y-67941396D01*
X186940586Y-67891154D01*
X186940593Y-67891150D01*
X187055687Y-67804990D01*
X187055690Y-67804987D01*
X187141850Y-67689893D01*
X187141854Y-67689886D01*
X187192096Y-67555179D01*
X187192098Y-67555172D01*
X187198499Y-67495644D01*
X187198500Y-67495627D01*
X187198500Y-67189800D01*
X186250000Y-67189800D01*
X186250000Y-67947800D01*
X185750000Y-67947800D01*
X185750000Y-67189800D01*
X184801500Y-67189800D01*
X184783252Y-67208047D01*
X184781815Y-67212943D01*
X184729011Y-67258698D01*
X184659853Y-67268642D01*
X184603190Y-67245171D01*
X184567093Y-67218149D01*
X184567086Y-67218145D01*
X184432379Y-67167903D01*
X184432373Y-67167901D01*
X184405742Y-67165038D01*
X184341192Y-67138299D01*
X184301345Y-67080906D01*
X184295000Y-67041749D01*
X184295000Y-66212000D01*
X179895000Y-66212000D01*
X179895000Y-67041244D01*
X179875315Y-67108283D01*
X179822511Y-67154038D01*
X179784256Y-67164533D01*
X179757519Y-67167407D01*
X179622671Y-67217702D01*
X179622664Y-67217706D01*
X179507455Y-67303952D01*
X179507452Y-67303955D01*
X179421206Y-67419164D01*
X179421202Y-67419171D01*
X179370908Y-67554017D01*
X179364501Y-67613616D01*
X179364500Y-67613635D01*
X179364500Y-67783216D01*
X179344815Y-67850255D01*
X179328181Y-67870897D01*
X178183243Y-69015834D01*
X178133881Y-69046084D01*
X177967550Y-69100128D01*
X177813211Y-69178768D01*
X177736742Y-69234327D01*
X177673072Y-69280586D01*
X177673070Y-69280588D01*
X177673069Y-69280588D01*
X177550588Y-69403069D01*
X177550588Y-69403070D01*
X177550586Y-69403072D01*
X177532049Y-69428586D01*
X177448768Y-69543211D01*
X177370128Y-69697552D01*
X177316597Y-69862302D01*
X177308702Y-69912150D01*
X177289500Y-70033389D01*
X177289500Y-70206611D01*
X177316598Y-70377701D01*
X177370127Y-70542445D01*
X177448768Y-70696788D01*
X177550586Y-70836928D01*
X177673072Y-70959414D01*
X177813212Y-71061232D01*
X177967555Y-71139873D01*
X178040440Y-71163555D01*
X178097164Y-71187051D01*
X178186690Y-71204858D01*
X178191502Y-71206227D01*
X178216994Y-71222302D01*
X178243692Y-71236268D01*
X178246242Y-71240746D01*
X178250602Y-71243496D01*
X178263356Y-71270801D01*
X178278266Y-71296984D01*
X178277990Y-71302129D01*
X178280172Y-71306800D01*
X178276139Y-71336661D01*
X178274527Y-71366753D01*
X178271511Y-71370934D01*
X178270822Y-71376041D01*
X178251285Y-71398982D01*
X178233660Y-71423425D01*
X178228864Y-71425311D01*
X178225523Y-71429236D01*
X178196680Y-71437974D01*
X178168642Y-71449006D01*
X178158819Y-71449445D01*
X178158655Y-71449495D01*
X178158417Y-71449462D01*
X178157590Y-71449500D01*
X177043783Y-71449500D01*
X176976744Y-71429815D01*
X176956102Y-71413181D01*
X174164141Y-68621220D01*
X174130656Y-68559897D01*
X174135640Y-68490205D01*
X174150000Y-68467861D01*
X174150000Y-68460000D01*
X174650000Y-68460000D01*
X175357828Y-68460000D01*
X175357844Y-68459999D01*
X175417372Y-68453598D01*
X175417379Y-68453596D01*
X175552086Y-68403354D01*
X175552093Y-68403350D01*
X175667187Y-68317190D01*
X175667190Y-68317187D01*
X175753350Y-68202093D01*
X175753354Y-68202086D01*
X175803596Y-68067379D01*
X175803598Y-68067372D01*
X175809999Y-68007844D01*
X175810000Y-68007827D01*
X175810000Y-67900000D01*
X174650000Y-67900000D01*
X174650000Y-68460000D01*
X174150000Y-68460000D01*
X174150000Y-67697844D01*
X176075000Y-67697844D01*
X176081401Y-67757372D01*
X176081403Y-67757379D01*
X176131645Y-67892086D01*
X176131649Y-67892093D01*
X176217809Y-68007187D01*
X176217812Y-68007190D01*
X176332906Y-68093350D01*
X176332913Y-68093354D01*
X176467620Y-68143596D01*
X176467627Y-68143598D01*
X176527155Y-68149999D01*
X176527172Y-68150000D01*
X177050000Y-68150000D01*
X177550000Y-68150000D01*
X178072828Y-68150000D01*
X178072844Y-68149999D01*
X178132372Y-68143598D01*
X178132379Y-68143596D01*
X178267086Y-68093354D01*
X178267093Y-68093350D01*
X178382187Y-68007190D01*
X178382190Y-68007187D01*
X178468350Y-67892093D01*
X178468354Y-67892086D01*
X178518596Y-67757379D01*
X178518598Y-67757372D01*
X178524999Y-67697844D01*
X178525000Y-67697827D01*
X178525000Y-67325000D01*
X177550000Y-67325000D01*
X177550000Y-68150000D01*
X177050000Y-68150000D01*
X177050000Y-67325000D01*
X176075000Y-67325000D01*
X176075000Y-67697844D01*
X174150000Y-67697844D01*
X174150000Y-67400000D01*
X174650000Y-67400000D01*
X175810000Y-67400000D01*
X175810000Y-67292172D01*
X175809999Y-67292168D01*
X175809433Y-67286899D01*
X175809433Y-67286894D01*
X175803598Y-67232626D01*
X175803596Y-67232620D01*
X175753354Y-67097913D01*
X175753350Y-67097906D01*
X175667190Y-66982812D01*
X175667187Y-66982809D01*
X175552093Y-66896649D01*
X175552086Y-66896645D01*
X175417379Y-66846403D01*
X175417372Y-66846401D01*
X175357844Y-66840000D01*
X174650000Y-66840000D01*
X174650000Y-67400000D01*
X174150000Y-67400000D01*
X174150000Y-66840000D01*
X173442155Y-66840000D01*
X173382627Y-66846401D01*
X173382620Y-66846403D01*
X173247913Y-66896645D01*
X173247906Y-66896649D01*
X173132812Y-66982809D01*
X173132809Y-66982812D01*
X173046649Y-67097906D01*
X173046646Y-67097911D01*
X173003832Y-67212701D01*
X172961960Y-67268634D01*
X172896496Y-67293051D01*
X172828223Y-67278199D01*
X172799969Y-67257048D01*
X169635048Y-64092127D01*
X172989500Y-64092127D01*
X172989500Y-64092134D01*
X172989500Y-64092135D01*
X172989500Y-64807870D01*
X172989501Y-64807876D01*
X172995908Y-64867483D01*
X173046202Y-65002328D01*
X173046206Y-65002335D01*
X173132452Y-65117544D01*
X173132455Y-65117547D01*
X173247664Y-65203793D01*
X173247671Y-65203797D01*
X173382517Y-65254091D01*
X173382516Y-65254091D01*
X173398521Y-65255812D01*
X173463072Y-65282550D01*
X173472946Y-65291420D01*
X173585354Y-65403828D01*
X173744595Y-65519524D01*
X173827455Y-65561743D01*
X173919970Y-65608882D01*
X173919972Y-65608882D01*
X173919975Y-65608884D01*
X174020317Y-65641487D01*
X174107173Y-65669709D01*
X174301578Y-65700500D01*
X174301583Y-65700500D01*
X174498422Y-65700500D01*
X174692826Y-65669709D01*
X174880025Y-65608884D01*
X175055405Y-65519524D01*
X175214646Y-65403828D01*
X175327054Y-65291420D01*
X175388377Y-65257935D01*
X175401483Y-65255811D01*
X175417483Y-65254091D01*
X175552328Y-65203797D01*
X175552327Y-65203797D01*
X175552331Y-65203796D01*
X175667546Y-65117546D01*
X175753796Y-65002331D01*
X175804091Y-64867483D01*
X175804091Y-64867476D01*
X175804822Y-64864387D01*
X175806050Y-64862228D01*
X175806802Y-64860215D01*
X175807128Y-64860336D01*
X175839394Y-64803670D01*
X175901304Y-64771283D01*
X175970896Y-64777507D01*
X176026075Y-64820368D01*
X176049322Y-64886257D01*
X176049500Y-64892899D01*
X176049500Y-65373421D01*
X176054316Y-65403828D01*
X176072972Y-65521622D01*
X176072973Y-65521625D01*
X176074500Y-65541023D01*
X176074500Y-65897869D01*
X176074501Y-65897876D01*
X176080908Y-65957483D01*
X176131202Y-66092327D01*
X176131204Y-66092331D01*
X176137773Y-66101106D01*
X176162190Y-66166571D01*
X176147338Y-66234843D01*
X176137775Y-66249725D01*
X176131646Y-66257912D01*
X176131645Y-66257913D01*
X176081403Y-66392620D01*
X176081401Y-66392627D01*
X176075000Y-66452155D01*
X176075000Y-66825000D01*
X178525000Y-66825000D01*
X178525000Y-66452172D01*
X178524999Y-66452155D01*
X178518598Y-66392627D01*
X178518597Y-66392623D01*
X178468350Y-66257907D01*
X178462228Y-66249729D01*
X178437809Y-66184265D01*
X178452659Y-66115992D01*
X178462227Y-66101106D01*
X178468796Y-66092331D01*
X178519091Y-65957483D01*
X178525500Y-65897873D01*
X178525499Y-65541019D01*
X178527026Y-65521622D01*
X178527358Y-65519524D01*
X178550500Y-65373417D01*
X178550500Y-64349500D01*
X178570185Y-64282461D01*
X178622989Y-64236706D01*
X178674500Y-64225500D01*
X179248422Y-64225500D01*
X179393793Y-64202474D01*
X179442826Y-64194709D01*
X179496290Y-64177336D01*
X179566128Y-64175341D01*
X179608918Y-64196002D01*
X179622149Y-64205907D01*
X179622668Y-64206295D01*
X179622671Y-64206297D01*
X179757517Y-64256591D01*
X179757516Y-64256591D01*
X179784255Y-64259466D01*
X179848807Y-64286204D01*
X179888655Y-64343596D01*
X179895000Y-64382755D01*
X179895000Y-65212000D01*
X184295000Y-65212000D01*
X184295000Y-64382755D01*
X184314685Y-64315716D01*
X184367489Y-64269961D01*
X184405747Y-64259465D01*
X184432483Y-64256591D01*
X184567328Y-64206297D01*
X184567327Y-64206297D01*
X184567331Y-64206296D01*
X184682546Y-64120046D01*
X184768796Y-64004831D01*
X184809318Y-63896186D01*
X184851189Y-63840252D01*
X184916653Y-63815835D01*
X184984926Y-63830686D01*
X185034332Y-63880091D01*
X185049500Y-63939519D01*
X185049500Y-64053572D01*
X185029815Y-64120611D01*
X184999811Y-64152838D01*
X184943960Y-64194648D01*
X184943951Y-64194657D01*
X184857706Y-64309864D01*
X184857702Y-64309871D01*
X184807408Y-64444717D01*
X184801001Y-64504316D01*
X184801001Y-64504323D01*
X184801000Y-64504335D01*
X184801000Y-65616070D01*
X184801001Y-65616076D01*
X184807408Y-65675683D01*
X184857702Y-65810528D01*
X184857704Y-65810531D01*
X184943954Y-65925746D01*
X184943956Y-65925747D01*
X184944223Y-65926104D01*
X184968641Y-65991568D01*
X184953790Y-66059842D01*
X184944224Y-66074727D01*
X184858147Y-66189711D01*
X184858145Y-66189713D01*
X184807903Y-66324420D01*
X184807901Y-66324427D01*
X184801500Y-66383955D01*
X184801500Y-66689800D01*
X187198500Y-66689800D01*
X187198500Y-66383972D01*
X187198499Y-66383955D01*
X187192098Y-66324427D01*
X187192096Y-66324420D01*
X187141854Y-66189713D01*
X187141852Y-66189711D01*
X187055776Y-66074727D01*
X187031359Y-66009263D01*
X187046210Y-65940990D01*
X187055777Y-65926104D01*
X187056043Y-65925747D01*
X187056046Y-65925746D01*
X187142296Y-65810531D01*
X187192591Y-65675683D01*
X187199000Y-65616073D01*
X187198999Y-64504328D01*
X187192591Y-64444717D01*
X187157077Y-64349500D01*
X187142297Y-64309871D01*
X187142293Y-64309865D01*
X187093851Y-64245153D01*
X187069434Y-64179689D01*
X187084286Y-64111416D01*
X187133691Y-64062011D01*
X187201964Y-64047159D01*
X187209511Y-64047932D01*
X187225000Y-64050000D01*
X188050000Y-47725000D01*
X188049997Y-47725000D01*
X188049998Y-47724999D01*
X178275000Y-48150000D01*
X178274999Y-48150001D01*
X178068745Y-61602401D01*
X178048035Y-61669131D01*
X177994536Y-61714071D01*
X177944760Y-61724500D01*
X175276578Y-61724500D01*
X175082172Y-61755290D01*
X174894969Y-61816117D01*
X174719594Y-61905476D01*
X174664899Y-61945215D01*
X174560354Y-62021172D01*
X174560352Y-62021174D01*
X174560351Y-62021174D01*
X173446174Y-63135351D01*
X173446174Y-63135352D01*
X173446172Y-63135354D01*
X173396485Y-63203741D01*
X173330476Y-63294594D01*
X173240668Y-63470851D01*
X173239608Y-63474613D01*
X173180290Y-63657176D01*
X173172019Y-63709398D01*
X173142089Y-63772532D01*
X173137231Y-63777676D01*
X173132454Y-63782453D01*
X173046206Y-63897664D01*
X173046202Y-63897671D01*
X172998078Y-64026701D01*
X172995909Y-64032517D01*
X172989500Y-64092127D01*
X169635048Y-64092127D01*
X169211819Y-63668898D01*
X169178334Y-63607575D01*
X169175500Y-63581217D01*
X169175500Y-61856737D01*
X169195185Y-61789698D01*
X169199182Y-61783851D01*
X169210182Y-61768711D01*
X169270182Y-61686129D01*
X169361686Y-61506542D01*
X169423970Y-61314851D01*
X169445000Y-61182072D01*
X169455500Y-61115783D01*
X169455500Y-60914216D01*
X169434500Y-60781636D01*
X169423970Y-60715149D01*
X169361686Y-60523458D01*
X169270182Y-60343871D01*
X169151711Y-60180810D01*
X169009190Y-60038289D01*
X168846129Y-59919818D01*
X168719867Y-59855484D01*
X168669072Y-59807510D01*
X168652277Y-59739690D01*
X168674814Y-59673555D01*
X168719868Y-59634515D01*
X168846129Y-59570182D01*
X169009190Y-59451711D01*
X169151711Y-59309190D01*
X169270182Y-59146129D01*
X169361686Y-58966542D01*
X169423970Y-58774851D01*
X169445000Y-58642072D01*
X169455500Y-58575783D01*
X169455500Y-58374216D01*
X169437156Y-58258408D01*
X169423970Y-58175149D01*
X169361686Y-57983458D01*
X169270182Y-57803871D01*
X169151711Y-57640810D01*
X169009190Y-57498289D01*
X168846129Y-57379818D01*
X168781993Y-57347139D01*
X168666539Y-57288312D01*
X168474852Y-57226030D01*
X168275783Y-57194500D01*
X168275778Y-57194500D01*
X168074222Y-57194500D01*
X168074217Y-57194500D01*
X167875147Y-57226030D01*
X167683460Y-57288312D01*
X167503870Y-57379818D01*
X167340807Y-57498291D01*
X167198291Y-57640807D01*
X167198291Y-57640808D01*
X167198289Y-57640810D01*
X167147410Y-57710838D01*
X167079818Y-57803870D01*
X167015485Y-57930131D01*
X166967510Y-57980927D01*
X166899689Y-57997722D01*
X166833554Y-57975184D01*
X166794515Y-57930131D01*
X166730181Y-57803870D01*
X166611711Y-57640810D01*
X166469190Y-57498289D01*
X166306129Y-57379818D01*
X166241993Y-57347139D01*
X166126539Y-57288312D01*
X165934852Y-57226030D01*
X165735783Y-57194500D01*
X165735778Y-57194500D01*
X165534222Y-57194500D01*
X165534217Y-57194500D01*
X165335147Y-57226030D01*
X165143460Y-57288312D01*
X164963870Y-57379818D01*
X164800807Y-57498291D01*
X164658291Y-57640807D01*
X164658291Y-57640808D01*
X164658289Y-57640810D01*
X164607410Y-57710838D01*
X164539818Y-57803870D01*
X164475485Y-57930131D01*
X164427510Y-57980927D01*
X164359689Y-57997722D01*
X164293554Y-57975184D01*
X164254515Y-57930131D01*
X164190181Y-57803870D01*
X164071711Y-57640810D01*
X163929190Y-57498289D01*
X163766129Y-57379818D01*
X163701993Y-57347139D01*
X163586539Y-57288312D01*
X163394852Y-57226030D01*
X163195783Y-57194500D01*
X163195778Y-57194500D01*
X162994222Y-57194500D01*
X162994217Y-57194500D01*
X162795147Y-57226030D01*
X162603460Y-57288312D01*
X162423870Y-57379818D01*
X162260807Y-57498291D01*
X162118291Y-57640807D01*
X162118291Y-57640808D01*
X162118289Y-57640810D01*
X162067410Y-57710838D01*
X161999818Y-57803870D01*
X161935204Y-57930682D01*
X161887229Y-57981478D01*
X161819408Y-57998273D01*
X161753273Y-57975735D01*
X161714234Y-57930682D01*
X161649753Y-57804133D01*
X161620155Y-57763396D01*
X161620155Y-57763395D01*
X161054292Y-58329259D01*
X161039563Y-58274288D01*
X160971104Y-58155713D01*
X160874287Y-58058896D01*
X160755712Y-57990437D01*
X160700738Y-57975707D01*
X161266603Y-57409843D01*
X161266602Y-57409842D01*
X161225869Y-57380248D01*
X161046349Y-57288776D01*
X161046346Y-57288775D01*
X160854735Y-57226518D01*
X160655737Y-57195000D01*
X160454263Y-57195000D01*
X160255264Y-57226518D01*
X160063653Y-57288775D01*
X160063650Y-57288776D01*
X159884135Y-57380245D01*
X159884133Y-57380246D01*
X159843396Y-57409842D01*
X159843396Y-57409843D01*
X160409260Y-57975707D01*
X160354288Y-57990437D01*
X160235713Y-58058896D01*
X160138896Y-58155713D01*
X160070437Y-58274288D01*
X160055707Y-58329260D01*
X159489843Y-57763396D01*
X159489842Y-57763396D01*
X159460246Y-57804133D01*
X159460242Y-57804140D01*
X159395764Y-57930683D01*
X159347789Y-57981478D01*
X159279968Y-57998273D01*
X159213833Y-57975735D01*
X159174795Y-57930682D01*
X159110182Y-57803871D01*
X158991711Y-57640810D01*
X158849190Y-57498289D01*
X158686129Y-57379818D01*
X158621993Y-57347139D01*
X158506539Y-57288312D01*
X158314852Y-57226030D01*
X158115783Y-57194500D01*
X158115778Y-57194500D01*
X157914222Y-57194500D01*
X157914217Y-57194500D01*
X157715147Y-57226030D01*
X157523460Y-57288312D01*
X157343870Y-57379818D01*
X157180807Y-57498291D01*
X157038291Y-57640807D01*
X157038291Y-57640808D01*
X157038289Y-57640810D01*
X156987410Y-57710838D01*
X156919818Y-57803870D01*
X156855485Y-57930131D01*
X156807510Y-57980927D01*
X156739689Y-57997722D01*
X156673554Y-57975184D01*
X156634515Y-57930131D01*
X156570181Y-57803870D01*
X156451711Y-57640810D01*
X156309190Y-57498289D01*
X156146129Y-57379818D01*
X156081993Y-57347139D01*
X155966539Y-57288312D01*
X155774852Y-57226030D01*
X155575783Y-57194500D01*
X155575778Y-57194500D01*
X155374222Y-57194500D01*
X155374217Y-57194500D01*
X155175147Y-57226030D01*
X154983460Y-57288312D01*
X154803870Y-57379818D01*
X154640807Y-57498291D01*
X154498291Y-57640807D01*
X154498291Y-57640808D01*
X154498289Y-57640810D01*
X154447410Y-57710838D01*
X154379818Y-57803870D01*
X154315485Y-57930131D01*
X154267510Y-57980927D01*
X154199689Y-57997722D01*
X154133554Y-57975184D01*
X154094515Y-57930131D01*
X154030181Y-57803870D01*
X153911711Y-57640810D01*
X153769190Y-57498289D01*
X153606129Y-57379818D01*
X153541993Y-57347139D01*
X153426539Y-57288312D01*
X153234852Y-57226030D01*
X153035783Y-57194500D01*
X153035778Y-57194500D01*
X152834222Y-57194500D01*
X152834217Y-57194500D01*
X152635147Y-57226030D01*
X152443460Y-57288312D01*
X152263870Y-57379818D01*
X152100807Y-57498291D01*
X151958291Y-57640807D01*
X151958291Y-57640808D01*
X151958289Y-57640810D01*
X151907410Y-57710838D01*
X151839818Y-57803870D01*
X151775485Y-57930131D01*
X151727510Y-57980927D01*
X151659689Y-57997722D01*
X151593554Y-57975184D01*
X151554515Y-57930131D01*
X151490181Y-57803870D01*
X151371711Y-57640810D01*
X151229190Y-57498289D01*
X151066129Y-57379818D01*
X151001993Y-57347139D01*
X150886539Y-57288312D01*
X150694852Y-57226030D01*
X150495783Y-57194500D01*
X150495778Y-57194500D01*
X150294222Y-57194500D01*
X150294217Y-57194500D01*
X150095147Y-57226030D01*
X149903460Y-57288312D01*
X149723870Y-57379818D01*
X149560807Y-57498291D01*
X149418291Y-57640807D01*
X149418291Y-57640808D01*
X149418289Y-57640810D01*
X149367410Y-57710838D01*
X149299818Y-57803870D01*
X149235485Y-57930131D01*
X149187510Y-57980927D01*
X149119689Y-57997722D01*
X149053554Y-57975184D01*
X149014515Y-57930131D01*
X148950181Y-57803870D01*
X148831711Y-57640810D01*
X148689190Y-57498289D01*
X148526129Y-57379818D01*
X148461993Y-57347139D01*
X148346539Y-57288312D01*
X148154852Y-57226030D01*
X147955783Y-57194500D01*
X147955778Y-57194500D01*
X147754222Y-57194500D01*
X147754217Y-57194500D01*
X147555147Y-57226030D01*
X147363460Y-57288312D01*
X147183870Y-57379818D01*
X147020807Y-57498291D01*
X146878291Y-57640807D01*
X146878291Y-57640808D01*
X146878289Y-57640810D01*
X146827410Y-57710838D01*
X146759818Y-57803870D01*
X146695204Y-57930682D01*
X146647229Y-57981478D01*
X146579408Y-57998273D01*
X146513273Y-57975735D01*
X146474234Y-57930682D01*
X146409753Y-57804133D01*
X146380155Y-57763396D01*
X146380155Y-57763395D01*
X145814292Y-58329259D01*
X145799563Y-58274288D01*
X145731104Y-58155713D01*
X145634287Y-58058896D01*
X145515712Y-57990437D01*
X145460738Y-57975707D01*
X146026603Y-57409843D01*
X146026602Y-57409842D01*
X145985869Y-57380248D01*
X145806349Y-57288776D01*
X145806346Y-57288775D01*
X145614735Y-57226518D01*
X145415737Y-57195000D01*
X145214263Y-57195000D01*
X145015264Y-57226518D01*
X144823653Y-57288775D01*
X144823650Y-57288776D01*
X144644135Y-57380245D01*
X144644133Y-57380246D01*
X144603396Y-57409842D01*
X144603396Y-57409843D01*
X145169260Y-57975707D01*
X145114288Y-57990437D01*
X144995713Y-58058896D01*
X144898896Y-58155713D01*
X144830437Y-58274288D01*
X144815707Y-58329260D01*
X144249843Y-57763396D01*
X144249842Y-57763396D01*
X144220246Y-57804133D01*
X144220242Y-57804140D01*
X144155764Y-57930683D01*
X144107789Y-57981478D01*
X144039968Y-57998273D01*
X143973833Y-57975735D01*
X143934795Y-57930682D01*
X143870182Y-57803871D01*
X143751711Y-57640810D01*
X143609190Y-57498289D01*
X143446129Y-57379818D01*
X143381993Y-57347139D01*
X143266539Y-57288312D01*
X143074852Y-57226030D01*
X142875783Y-57194500D01*
X142875778Y-57194500D01*
X142674222Y-57194500D01*
X142674217Y-57194500D01*
X142475147Y-57226030D01*
X142283460Y-57288312D01*
X142103870Y-57379818D01*
X141940807Y-57498291D01*
X141798291Y-57640807D01*
X141798291Y-57640808D01*
X141798289Y-57640810D01*
X141747410Y-57710838D01*
X141679818Y-57803870D01*
X141615485Y-57930131D01*
X141567510Y-57980927D01*
X141499689Y-57997722D01*
X141433554Y-57975184D01*
X141394515Y-57930131D01*
X141330181Y-57803870D01*
X141211711Y-57640810D01*
X141069190Y-57498289D01*
X140906129Y-57379818D01*
X140841993Y-57347139D01*
X140726539Y-57288312D01*
X140534852Y-57226030D01*
X140335783Y-57194500D01*
X140335778Y-57194500D01*
X140134222Y-57194500D01*
X140134217Y-57194500D01*
X139935147Y-57226030D01*
X139743460Y-57288312D01*
X139563870Y-57379818D01*
X139400807Y-57498291D01*
X139258291Y-57640807D01*
X139258291Y-57640808D01*
X139258289Y-57640810D01*
X139207410Y-57710838D01*
X139139818Y-57803870D01*
X139075485Y-57930131D01*
X139027510Y-57980927D01*
X138959689Y-57997722D01*
X138893554Y-57975184D01*
X138854515Y-57930131D01*
X138790181Y-57803870D01*
X138671711Y-57640810D01*
X138529190Y-57498289D01*
X138366129Y-57379818D01*
X138301993Y-57347139D01*
X138186539Y-57288312D01*
X137994852Y-57226030D01*
X137795783Y-57194500D01*
X137795778Y-57194500D01*
X137594222Y-57194500D01*
X137594217Y-57194500D01*
X137395147Y-57226030D01*
X137203460Y-57288312D01*
X137023870Y-57379818D01*
X136860807Y-57498291D01*
X136718291Y-57640807D01*
X136718291Y-57640808D01*
X136718289Y-57640810D01*
X136667410Y-57710838D01*
X136599818Y-57803870D01*
X136535485Y-57930131D01*
X136487510Y-57980927D01*
X136419689Y-57997722D01*
X136353554Y-57975184D01*
X136314515Y-57930131D01*
X136250181Y-57803870D01*
X136131711Y-57640810D01*
X135989190Y-57498289D01*
X135826129Y-57379818D01*
X135761993Y-57347139D01*
X135646539Y-57288312D01*
X135454852Y-57226030D01*
X135255783Y-57194500D01*
X135255778Y-57194500D01*
X135054222Y-57194500D01*
X135054217Y-57194500D01*
X134855147Y-57226030D01*
X134663460Y-57288312D01*
X134483870Y-57379818D01*
X134320807Y-57498291D01*
X134178291Y-57640807D01*
X134178291Y-57640808D01*
X134178289Y-57640810D01*
X134127410Y-57710838D01*
X134059818Y-57803870D01*
X133995485Y-57930131D01*
X133947510Y-57980927D01*
X133879689Y-57997722D01*
X133813554Y-57975184D01*
X133774515Y-57930131D01*
X133710181Y-57803870D01*
X133591711Y-57640810D01*
X133449190Y-57498289D01*
X133286129Y-57379818D01*
X133221993Y-57347139D01*
X133106539Y-57288312D01*
X132914852Y-57226030D01*
X132715783Y-57194500D01*
X132715778Y-57194500D01*
X132514222Y-57194500D01*
X132514217Y-57194500D01*
X132315147Y-57226030D01*
X132123460Y-57288312D01*
X131943870Y-57379818D01*
X131780807Y-57498291D01*
X131638291Y-57640807D01*
X131638291Y-57640808D01*
X131638289Y-57640810D01*
X131587410Y-57710838D01*
X131519818Y-57803870D01*
X131455485Y-57930131D01*
X131407510Y-57980927D01*
X131339689Y-57997722D01*
X131273554Y-57975184D01*
X131234515Y-57930131D01*
X131170181Y-57803870D01*
X131051711Y-57640810D01*
X130909190Y-57498289D01*
X130746129Y-57379818D01*
X130681993Y-57347139D01*
X130566539Y-57288312D01*
X130374852Y-57226030D01*
X130175783Y-57194500D01*
X130175778Y-57194500D01*
X129974222Y-57194500D01*
X129974217Y-57194500D01*
X129775147Y-57226030D01*
X129583460Y-57288312D01*
X129403870Y-57379818D01*
X129240807Y-57498291D01*
X129098291Y-57640807D01*
X129098291Y-57640808D01*
X129098289Y-57640810D01*
X129047410Y-57710838D01*
X128979818Y-57803870D01*
X128915485Y-57930131D01*
X128867510Y-57980927D01*
X128799689Y-57997722D01*
X128733554Y-57975184D01*
X128694515Y-57930131D01*
X128630181Y-57803870D01*
X128511711Y-57640810D01*
X128369190Y-57498289D01*
X128206129Y-57379818D01*
X128141993Y-57347139D01*
X128026539Y-57288312D01*
X127834852Y-57226030D01*
X127635783Y-57194500D01*
X127635778Y-57194500D01*
X127434222Y-57194500D01*
X127434217Y-57194500D01*
X127235147Y-57226030D01*
X127043460Y-57288312D01*
X126863870Y-57379818D01*
X126700807Y-57498291D01*
X126558291Y-57640807D01*
X126558291Y-57640808D01*
X126558289Y-57640810D01*
X126507410Y-57710838D01*
X126439818Y-57803870D01*
X126375485Y-57930131D01*
X126327510Y-57980927D01*
X126259689Y-57997722D01*
X126193554Y-57975184D01*
X126154515Y-57930131D01*
X126090181Y-57803870D01*
X125971711Y-57640810D01*
X125829190Y-57498289D01*
X125666129Y-57379818D01*
X125601993Y-57347139D01*
X125486539Y-57288312D01*
X125294852Y-57226030D01*
X125095783Y-57194500D01*
X125095778Y-57194500D01*
X124894222Y-57194500D01*
X124894217Y-57194500D01*
X124695147Y-57226030D01*
X124503460Y-57288312D01*
X124323870Y-57379818D01*
X124160807Y-57498291D01*
X124018291Y-57640807D01*
X124018291Y-57640808D01*
X124018289Y-57640810D01*
X123967410Y-57710838D01*
X123899818Y-57803870D01*
X123835485Y-57930131D01*
X123787510Y-57980927D01*
X123719689Y-57997722D01*
X123653554Y-57975184D01*
X123614515Y-57930131D01*
X123550181Y-57803870D01*
X123431711Y-57640810D01*
X123289190Y-57498289D01*
X123126129Y-57379818D01*
X123061993Y-57347139D01*
X122946539Y-57288312D01*
X122754852Y-57226030D01*
X122555783Y-57194500D01*
X122555778Y-57194500D01*
X122354222Y-57194500D01*
X122354217Y-57194500D01*
X122155147Y-57226030D01*
X121963460Y-57288312D01*
X121783870Y-57379818D01*
X121620807Y-57498291D01*
X121478291Y-57640807D01*
X121478291Y-57640808D01*
X121478289Y-57640810D01*
X121427410Y-57710838D01*
X121359818Y-57803870D01*
X121268312Y-57983460D01*
X121206030Y-58175147D01*
X121174500Y-58374216D01*
X121174500Y-58575783D01*
X121206030Y-58774852D01*
X121268312Y-58966539D01*
X121295485Y-59019868D01*
X121359818Y-59146129D01*
X121478289Y-59309190D01*
X121620810Y-59451711D01*
X121701289Y-59510183D01*
X121743955Y-59565511D01*
X121749934Y-59635125D01*
X121717329Y-59696920D01*
X121656490Y-59731277D01*
X121630433Y-59734270D01*
X121630436Y-59734324D01*
X121629550Y-59734371D01*
X121628431Y-59734500D01*
X121627143Y-59734500D01*
X121627123Y-59734501D01*
X121567516Y-59740908D01*
X121432671Y-59791202D01*
X121432664Y-59791206D01*
X121317455Y-59877452D01*
X121317452Y-59877455D01*
X121231206Y-59992664D01*
X121231202Y-59992671D01*
X121180908Y-60127517D01*
X121175179Y-60180807D01*
X121174501Y-60187123D01*
X121174500Y-60187135D01*
X121174500Y-60600364D01*
X121154815Y-60667403D01*
X121153604Y-60669252D01*
X121136384Y-60695024D01*
X121136376Y-60695038D01*
X121085461Y-60817959D01*
X121085458Y-60817969D01*
X121059500Y-60948466D01*
X121059500Y-60948469D01*
X121059500Y-61081531D01*
X121059500Y-61081533D01*
X121059499Y-61081533D01*
X92237360Y-61081533D01*
X92428940Y-52924978D01*
X94108700Y-52924978D01*
X94108700Y-53145421D01*
X94143185Y-53363152D01*
X94211303Y-53572803D01*
X94211304Y-53572806D01*
X94268845Y-53685733D01*
X94305361Y-53757400D01*
X94311387Y-53769225D01*
X94440952Y-53947558D01*
X94440956Y-53947563D01*
X94596836Y-54103443D01*
X94596841Y-54103447D01*
X94752392Y-54216460D01*
X94775178Y-54233015D01*
X94891701Y-54292387D01*
X94971593Y-54333095D01*
X94971596Y-54333096D01*
X95076421Y-54367155D01*
X95181249Y-54401215D01*
X95398978Y-54435700D01*
X95398979Y-54435700D01*
X95619421Y-54435700D01*
X95619422Y-54435700D01*
X95837151Y-54401215D01*
X96046806Y-54333095D01*
X96243222Y-54233015D01*
X96421565Y-54103442D01*
X96577442Y-53947565D01*
X96707015Y-53769222D01*
X96807095Y-53572806D01*
X96875215Y-53363151D01*
X96891008Y-53263433D01*
X96898769Y-53214440D01*
X96898769Y-53214439D01*
X96909700Y-53145422D01*
X96909700Y-52924978D01*
X96897891Y-52850419D01*
X96875215Y-52707249D01*
X96844481Y-52612659D01*
X96807099Y-52497605D01*
X96807097Y-52497600D01*
X96807095Y-52497594D01*
X96807091Y-52497588D01*
X96806965Y-52497282D01*
X96806950Y-52497148D01*
X96805590Y-52492961D01*
X96806469Y-52492675D01*
X96799487Y-52427814D01*
X96830754Y-52365330D01*
X96833810Y-52362162D01*
X97108617Y-52087355D01*
X97609200Y-52087355D01*
X97609200Y-52785200D01*
X98460718Y-52785200D01*
X98450089Y-52803609D01*
X98409200Y-52956209D01*
X98409200Y-53114191D01*
X98450089Y-53266791D01*
X98460718Y-53285200D01*
X97609200Y-53285200D01*
X97609200Y-53983044D01*
X97615601Y-54042572D01*
X97615603Y-54042579D01*
X97665845Y-54177286D01*
X97665849Y-54177293D01*
X97752009Y-54292387D01*
X97752012Y-54292390D01*
X97867106Y-54378550D01*
X97867113Y-54378554D01*
X98001820Y-54428796D01*
X98001827Y-54428798D01*
X98061355Y-54435199D01*
X98061372Y-54435200D01*
X98759200Y-54435200D01*
X98759200Y-53583682D01*
X98777609Y-53594311D01*
X98930209Y-53635200D01*
X99088191Y-53635200D01*
X99240791Y-53594311D01*
X99259200Y-53583682D01*
X99259200Y-54435200D01*
X99957028Y-54435200D01*
X99957044Y-54435199D01*
X100016572Y-54428798D01*
X100016579Y-54428796D01*
X100151286Y-54378554D01*
X100151293Y-54378550D01*
X100266387Y-54292390D01*
X100266390Y-54292387D01*
X100352550Y-54177293D01*
X100352554Y-54177286D01*
X100402796Y-54042579D01*
X100402798Y-54042572D01*
X100409199Y-53983044D01*
X100409200Y-53983027D01*
X100409200Y-53285200D01*
X99557682Y-53285200D01*
X99568311Y-53266791D01*
X99609200Y-53114191D01*
X99609200Y-52956209D01*
X99568311Y-52803609D01*
X99557682Y-52785200D01*
X100409200Y-52785200D01*
X100409200Y-52087372D01*
X100409199Y-52087355D01*
X100402798Y-52027827D01*
X100402796Y-52027820D01*
X100352554Y-51893113D01*
X100352550Y-51893106D01*
X100266390Y-51778012D01*
X100266387Y-51778009D01*
X100151293Y-51691849D01*
X100151286Y-51691845D01*
X100016579Y-51641603D01*
X100016572Y-51641601D01*
X99957044Y-51635200D01*
X99259200Y-51635200D01*
X99259200Y-52486717D01*
X99240791Y-52476089D01*
X99088191Y-52435200D01*
X98930209Y-52435200D01*
X98777609Y-52476089D01*
X98759200Y-52486717D01*
X98759200Y-51635200D01*
X98061355Y-51635200D01*
X98001827Y-51641601D01*
X98001820Y-51641603D01*
X97867113Y-51691845D01*
X97867111Y-51691847D01*
X97818344Y-51728353D01*
X97702351Y-51844346D01*
X97665849Y-51893106D01*
X97665845Y-51893113D01*
X97615603Y-52027820D01*
X97615601Y-52027827D01*
X97609200Y-52087355D01*
X97108617Y-52087355D01*
X98559155Y-50636819D01*
X98620478Y-50603334D01*
X98646836Y-50600500D01*
X103375088Y-50600500D01*
X103442127Y-50620185D01*
X103487882Y-50672989D01*
X103497561Y-50705102D01*
X103517790Y-50832826D01*
X103578617Y-51020030D01*
X103645311Y-51150922D01*
X103667976Y-51195405D01*
X103783672Y-51354646D01*
X103783674Y-51354648D01*
X104713181Y-52284155D01*
X104727884Y-52311082D01*
X104744477Y-52336901D01*
X104745368Y-52343101D01*
X104746666Y-52345478D01*
X104749500Y-52371836D01*
X104749500Y-52458666D01*
X104729815Y-52525705D01*
X104713181Y-52546347D01*
X104585957Y-52673570D01*
X104585951Y-52673577D01*
X104450258Y-52850417D01*
X104450252Y-52850426D01*
X104338795Y-53043473D01*
X104338793Y-53043477D01*
X104253493Y-53249409D01*
X104253490Y-53249419D01*
X104212176Y-53403608D01*
X104195797Y-53464734D01*
X104195794Y-53464747D01*
X104166701Y-53685733D01*
X104166700Y-53685749D01*
X104166700Y-53908650D01*
X104166701Y-53908666D01*
X104195794Y-54129652D01*
X104195795Y-54129657D01*
X104195796Y-54129663D01*
X104253490Y-54344980D01*
X104253493Y-54344990D01*
X104338793Y-54550922D01*
X104338795Y-54550926D01*
X104450252Y-54743974D01*
X104450257Y-54743980D01*
X104450258Y-54743982D01*
X104585951Y-54920822D01*
X104585957Y-54920829D01*
X104743570Y-55078442D01*
X104743576Y-55078447D01*
X104920426Y-55214148D01*
X105113474Y-55325605D01*
X105113477Y-55325606D01*
X105113482Y-55325609D01*
X105126350Y-55330939D01*
X105180754Y-55374779D01*
X105202819Y-55441073D01*
X105185540Y-55508773D01*
X105134403Y-55556384D01*
X105078898Y-55569500D01*
X104680699Y-55569500D01*
X104613660Y-55549815D01*
X104607814Y-55545818D01*
X104545408Y-55500478D01*
X104545407Y-55500477D01*
X104545405Y-55500476D01*
X104482848Y-55468602D01*
X104370029Y-55411117D01*
X104182826Y-55350290D01*
X103988422Y-55319500D01*
X103988417Y-55319500D01*
X103791583Y-55319500D01*
X103791578Y-55319500D01*
X103597173Y-55350290D01*
X103409970Y-55411117D01*
X103234594Y-55500476D01*
X103172187Y-55545818D01*
X103075354Y-55616172D01*
X103075352Y-55616174D01*
X103075351Y-55616174D01*
X102936174Y-55755351D01*
X102936174Y-55755352D01*
X102936172Y-55755354D01*
X102886485Y-55823741D01*
X102820476Y-55914594D01*
X102731117Y-56089970D01*
X102670290Y-56277173D01*
X102639500Y-56471577D01*
X102639500Y-56668422D01*
X102670290Y-56862826D01*
X102731117Y-57050029D01*
X102804729Y-57194500D01*
X102820476Y-57225405D01*
X102936172Y-57384646D01*
X103075354Y-57523828D01*
X103234595Y-57639524D01*
X103317455Y-57681743D01*
X103409970Y-57728882D01*
X103409972Y-57728882D01*
X103409975Y-57728884D01*
X103510317Y-57761487D01*
X103597173Y-57789709D01*
X103791578Y-57820500D01*
X103791583Y-57820500D01*
X103988422Y-57820500D01*
X104182826Y-57789709D01*
X104370025Y-57728884D01*
X104545405Y-57639524D01*
X104573896Y-57618823D01*
X104607814Y-57594182D01*
X104673620Y-57570702D01*
X104680699Y-57570500D01*
X113146042Y-57570500D01*
X113160500Y-57567623D01*
X113242688Y-57551275D01*
X113339336Y-57532051D01*
X113420844Y-57498289D01*
X113521414Y-57456632D01*
X113685282Y-57347139D01*
X113824639Y-57207782D01*
X113824640Y-57207779D01*
X113831706Y-57200714D01*
X113831709Y-57200710D01*
X115507887Y-55524531D01*
X115569208Y-55491048D01*
X115611752Y-55489275D01*
X115675742Y-55497700D01*
X115675743Y-55497700D01*
X115898650Y-55497700D01*
X115898657Y-55497700D01*
X116119663Y-55468604D01*
X116334981Y-55410910D01*
X116540926Y-55325605D01*
X116733974Y-55214148D01*
X116910824Y-55078447D01*
X117068447Y-54920824D01*
X117204148Y-54743974D01*
X117315605Y-54550926D01*
X117400910Y-54344981D01*
X117458604Y-54129663D01*
X117487700Y-53908657D01*
X117487700Y-53685743D01*
X117458604Y-53464737D01*
X117400910Y-53249419D01*
X117315605Y-53043474D01*
X117204148Y-52850426D01*
X117068447Y-52673576D01*
X117068442Y-52673570D01*
X116910829Y-52515957D01*
X116910822Y-52515951D01*
X116733982Y-52380258D01*
X116733980Y-52380257D01*
X116733974Y-52380252D01*
X116540926Y-52268795D01*
X116540922Y-52268793D01*
X116403234Y-52211761D01*
X116348831Y-52167920D01*
X116326766Y-52101626D01*
X116344045Y-52033927D01*
X116395182Y-51986316D01*
X116403234Y-51982639D01*
X116440968Y-51967008D01*
X116540926Y-51925605D01*
X116733974Y-51814148D01*
X116910824Y-51678447D01*
X117068447Y-51520824D01*
X117204148Y-51343974D01*
X117315605Y-51150926D01*
X117400910Y-50944981D01*
X117458604Y-50729663D01*
X117487700Y-50508657D01*
X117487700Y-50285743D01*
X117458604Y-50064737D01*
X117400910Y-49849419D01*
X117315605Y-49643474D01*
X117204148Y-49450426D01*
X117068447Y-49273576D01*
X117068442Y-49273570D01*
X116910829Y-49115957D01*
X116910822Y-49115951D01*
X116733982Y-48980258D01*
X116733980Y-48980257D01*
X116733974Y-48980252D01*
X116540926Y-48868795D01*
X116540922Y-48868793D01*
X116334990Y-48783493D01*
X116334983Y-48783491D01*
X116334981Y-48783490D01*
X116119663Y-48725796D01*
X116119657Y-48725795D01*
X116119652Y-48725794D01*
X115898666Y-48696701D01*
X115898663Y-48696700D01*
X115898657Y-48696700D01*
X115675743Y-48696700D01*
X115675737Y-48696700D01*
X115675733Y-48696701D01*
X115454747Y-48725794D01*
X115454740Y-48725795D01*
X115454737Y-48725796D01*
X115239419Y-48783490D01*
X115239409Y-48783493D01*
X115033477Y-48868793D01*
X115033473Y-48868795D01*
X114840426Y-48980252D01*
X114840417Y-48980258D01*
X114663577Y-49115951D01*
X114663570Y-49115957D01*
X114505957Y-49273570D01*
X114505951Y-49273577D01*
X114370258Y-49450417D01*
X114370252Y-49450426D01*
X114258795Y-49643473D01*
X114258793Y-49643477D01*
X114173493Y-49849409D01*
X114173490Y-49849419D01*
X114115797Y-50064734D01*
X114115794Y-50064747D01*
X114086701Y-50285733D01*
X114086700Y-50285749D01*
X114086700Y-50508657D01*
X114102825Y-50631145D01*
X114092059Y-50700181D01*
X114067567Y-50735011D01*
X109269399Y-55533181D01*
X109208076Y-55566666D01*
X109181718Y-55569500D01*
X106655502Y-55569500D01*
X106588463Y-55549815D01*
X106542708Y-55497011D01*
X106532764Y-55427853D01*
X106561789Y-55364297D01*
X106608050Y-55330939D01*
X106620917Y-55325609D01*
X106620918Y-55325607D01*
X106620926Y-55325605D01*
X106813974Y-55214148D01*
X106990824Y-55078447D01*
X107148447Y-54920824D01*
X107284148Y-54743974D01*
X107395605Y-54550926D01*
X107480910Y-54344981D01*
X107538604Y-54129663D01*
X107567700Y-53908657D01*
X107567700Y-53685743D01*
X107538604Y-53464737D01*
X107480910Y-53249419D01*
X107395605Y-53043474D01*
X107395603Y-53043471D01*
X107395601Y-53043466D01*
X107284153Y-52850434D01*
X107284143Y-52850419D01*
X107276123Y-52839967D01*
X107250930Y-52774798D01*
X107250500Y-52764482D01*
X107250500Y-51704077D01*
X107225576Y-51546718D01*
X107219709Y-51509674D01*
X107219708Y-51509670D01*
X107218571Y-51504931D01*
X107222065Y-51435149D01*
X107240767Y-51400508D01*
X107284148Y-51343974D01*
X107395605Y-51150926D01*
X107480910Y-50944981D01*
X107538604Y-50729663D01*
X107567700Y-50508657D01*
X107567700Y-50285743D01*
X107538604Y-50064737D01*
X107480910Y-49849419D01*
X107395605Y-49643474D01*
X107284148Y-49450426D01*
X107148447Y-49273576D01*
X107122485Y-49247614D01*
X107091833Y-49196989D01*
X107089116Y-49188314D01*
X107086909Y-49174374D01*
X107027384Y-48991177D01*
X107027188Y-48990550D01*
X107027184Y-48990372D01*
X107026529Y-48988047D01*
X106936723Y-48811794D01*
X106916159Y-48783490D01*
X106821028Y-48652554D01*
X106564646Y-48396172D01*
X106405405Y-48280476D01*
X106230030Y-48191117D01*
X106042826Y-48130290D01*
X105848422Y-48099500D01*
X105848417Y-48099500D01*
X104835917Y-48099500D01*
X97979083Y-48099500D01*
X97979078Y-48099500D01*
X97784673Y-48130290D01*
X97597469Y-48191117D01*
X97422094Y-48280476D01*
X97331242Y-48346484D01*
X97262855Y-48396171D01*
X97262853Y-48396173D01*
X97262852Y-48396173D01*
X94555374Y-51103651D01*
X94555374Y-51103652D01*
X94555372Y-51103654D01*
X94521030Y-51150922D01*
X94439676Y-51262894D01*
X94350315Y-51438273D01*
X94350313Y-51438279D01*
X94327117Y-51509673D01*
X94327117Y-51509674D01*
X94289490Y-51625476D01*
X94289490Y-51625477D01*
X94258700Y-51819877D01*
X94258700Y-52374806D01*
X94245185Y-52431101D01*
X94211304Y-52497593D01*
X94211303Y-52497596D01*
X94143185Y-52707247D01*
X94108700Y-52924978D01*
X92428940Y-52924978D01*
X92574758Y-46716709D01*
X92596012Y-46650154D01*
X92649875Y-46605651D01*
X92694164Y-46595708D01*
X102905257Y-46220082D01*
X102909733Y-46219999D01*
X188426891Y-46200028D01*
X188493933Y-46219697D01*
G37*
G04 #@! TD.AperFunction*
G04 #@! TD*
M02*
