G04 #@! TF.GenerationSoftware,KiCad,Pcbnew,9.0.6*
G04 #@! TF.CreationDate,2026-02-11T23:07:03-07:00*
G04 #@! TF.ProjectId,JAARK_PCB_MOTOR,4a414152-4b5f-4504-9342-5f4d4f544f52,rev?*
G04 #@! TF.SameCoordinates,Original*
G04 #@! TF.FileFunction,Soldermask,Bot*
G04 #@! TF.FilePolarity,Negative*
%FSLAX46Y46*%
G04 Gerber Fmt 4.6, Leading zero omitted, Abs format (unit mm)*
G04 Created by KiCad (PCBNEW 9.0.6) date 2026-02-11 23:07:03*
%MOMM*%
%LPD*%
G01*
G04 APERTURE LIST*
%ADD10C,1.600000*%
%ADD11C,2.400000*%
%ADD12C,1.493000*%
%ADD13R,1.800000X1.800000*%
%ADD14C,1.800000*%
%ADD15C,3.200000*%
%ADD16C,1.605000*%
%ADD17R,1.560000X1.560000*%
%ADD18C,1.560000*%
%ADD19C,1.440000*%
%ADD20R,1.450000X1.150000*%
%ADD21R,1.397000X1.016000*%
%ADD22R,0.650000X1.525000*%
%ADD23R,3.400000X2.710000*%
%ADD24R,1.820000X0.620000*%
G04 APERTURE END LIST*
D10*
G04 #@! TO.C,R6*
X125679200Y-84124800D03*
X135839200Y-84124800D03*
G04 #@! TD*
D11*
G04 #@! TO.C,U1*
X105867200Y-53797200D03*
X105867200Y-50397200D03*
X115787200Y-53797200D03*
X115787200Y-50397200D03*
G04 #@! TD*
D10*
G04 #@! TO.C,R5*
X125679200Y-87274400D03*
X135839200Y-87274400D03*
G04 #@! TD*
D12*
G04 #@! TO.C,Q2*
X118189600Y-94488000D03*
X115589600Y-94488000D03*
X112989600Y-94488000D03*
G04 #@! TD*
D10*
G04 #@! TO.C,R7*
X135839200Y-81026000D03*
X125679200Y-81026000D03*
G04 #@! TD*
D13*
G04 #@! TO.C,J6*
X185300000Y-53225000D03*
D14*
X181800000Y-53225000D03*
G04 #@! TD*
D13*
G04 #@! TO.C,J1*
X99009200Y-53035200D03*
D14*
X95509200Y-53035200D03*
G04 #@! TD*
D13*
G04 #@! TO.C,J5*
X182375000Y-126000000D03*
D14*
X185875000Y-126000000D03*
G04 #@! TD*
D15*
G04 #@! TO.C,M3_3*
X107000000Y-106000000D03*
G04 #@! TD*
D13*
G04 #@! TO.C,J7*
X181450000Y-86825000D03*
D14*
X181450000Y-83325000D03*
G04 #@! TD*
D15*
G04 #@! TO.C,M3_1*
X167000000Y-82000000D03*
G04 #@! TD*
D14*
G04 #@! TO.C,J4*
X181550000Y-98225000D03*
D13*
X181550000Y-101725000D03*
G04 #@! TD*
D16*
G04 #@! TO.C,J3*
X104851200Y-98602800D03*
X104851200Y-96062800D03*
X104851200Y-93522800D03*
X104851200Y-90982800D03*
X104851200Y-88442800D03*
X104851200Y-85902800D03*
G04 #@! TD*
D17*
G04 #@! TO.C,J2*
X122455000Y-121975000D03*
D18*
X122455000Y-119435000D03*
X124995000Y-121975000D03*
X124995000Y-119435000D03*
X127535000Y-121975000D03*
X127535000Y-119435000D03*
X130075000Y-121975000D03*
X130075000Y-119435000D03*
X132615000Y-121975000D03*
X132615000Y-119435000D03*
X135155000Y-121975000D03*
X135155000Y-119435000D03*
X137695000Y-121975000D03*
X137695000Y-119435000D03*
X140235000Y-121975000D03*
X140235000Y-119435000D03*
X142775000Y-121975000D03*
X142775000Y-119435000D03*
X145315000Y-121975000D03*
X145315000Y-119435000D03*
X147855000Y-121975000D03*
X147855000Y-119435000D03*
X150395000Y-121975000D03*
X150395000Y-119435000D03*
X152935000Y-121975000D03*
X152935000Y-119435000D03*
X155475000Y-121975000D03*
X155475000Y-119435000D03*
X158015000Y-121975000D03*
X158015000Y-119435000D03*
X160555000Y-121975000D03*
X160555000Y-119435000D03*
X163095000Y-121975000D03*
X163095000Y-119435000D03*
X165635000Y-121975000D03*
X165635000Y-119435000D03*
X168175000Y-121975000D03*
X168175000Y-119435000D03*
D17*
X122455000Y-61015000D03*
D18*
X122455000Y-58475000D03*
X124995000Y-61015000D03*
X124995000Y-58475000D03*
X127535000Y-61015000D03*
X127535000Y-58475000D03*
X130075000Y-61015000D03*
X130075000Y-58475000D03*
X132615000Y-61015000D03*
X132615000Y-58475000D03*
X135155000Y-61015000D03*
X135155000Y-58475000D03*
X137695000Y-61015000D03*
X137695000Y-58475000D03*
X140235000Y-61015000D03*
X140235000Y-58475000D03*
X142775000Y-61015000D03*
X142775000Y-58475000D03*
X145315000Y-61015000D03*
X145315000Y-58475000D03*
X147855000Y-61015000D03*
X147855000Y-58475000D03*
X150395000Y-61015000D03*
X150395000Y-58475000D03*
X152935000Y-61015000D03*
X152935000Y-58475000D03*
X155475000Y-61015000D03*
X155475000Y-58475000D03*
X158015000Y-61015000D03*
X158015000Y-58475000D03*
X160555000Y-61015000D03*
X160555000Y-58475000D03*
X163095000Y-61015000D03*
X163095000Y-58475000D03*
X165635000Y-61015000D03*
X165635000Y-58475000D03*
X168175000Y-61015000D03*
X168175000Y-58475000D03*
G04 #@! TD*
D15*
G04 #@! TO.C,M3_4*
X107000000Y-78000000D03*
G04 #@! TD*
D19*
G04 #@! TO.C,Q3*
X118059200Y-85090000D03*
X119329200Y-86360000D03*
X118059200Y-87630000D03*
G04 #@! TD*
D15*
G04 #@! TO.C,M3_2*
X167000000Y-102000000D03*
G04 #@! TD*
D20*
G04 #@! TO.C,C13*
X187850000Y-116300000D03*
X187850000Y-114500000D03*
G04 #@! TD*
D21*
G04 #@! TO.C,R10*
X179050000Y-116989800D03*
X179050000Y-115110200D03*
G04 #@! TD*
D22*
G04 #@! TO.C,IC10*
X184000000Y-68424000D03*
X182730000Y-68424000D03*
X181460000Y-68424000D03*
X180190000Y-68424000D03*
X180190000Y-63000000D03*
X181460000Y-63000000D03*
X182730000Y-63000000D03*
X184000000Y-63000000D03*
D23*
X182095000Y-65712000D03*
G04 #@! TD*
D20*
G04 #@! TO.C,C15*
X177300000Y-65275000D03*
X177300000Y-67075000D03*
G04 #@! TD*
D24*
G04 #@! TO.C,C14*
X176825000Y-114950000D03*
X176825000Y-118150000D03*
G04 #@! TD*
D22*
G04 #@! TO.C,IC9*
X181470000Y-113088000D03*
X182740000Y-113088000D03*
X184010000Y-113088000D03*
X185280000Y-113088000D03*
X185280000Y-118512000D03*
X184010000Y-118512000D03*
X182740000Y-118512000D03*
X181470000Y-118512000D03*
D23*
X183375000Y-115800000D03*
G04 #@! TD*
D24*
G04 #@! TO.C,C12*
X174400000Y-67650000D03*
X174400000Y-64450000D03*
G04 #@! TD*
D21*
G04 #@! TO.C,R11*
X186000000Y-65060200D03*
X186000000Y-66939800D03*
G04 #@! TD*
M02*
